<?xml version="1.0" encoding="UTF-8" standalone="no"?>
<!-- Created with Inkscape (http://www.inkscape.org/) -->

<svg
   width="1080"
   height="1080"
   viewBox="0 0 1080 1080"
   version="1.1"
   id="svg1"
   xmlns="http://www.w3.org/2000/svg"
   xmlns:svg="http://www.w3.org/2000/svg">
  <defs
     id="defs1" />
  <g
     id="layer1">
    <path
       style="fill:#000000;fill-opacity:1;fill-rule:nonzero;stroke:none;stroke-width:0.763948"
       d="m 1049.2988,420.85002 c 0,246.246 -227.91112,445.8911 -509.29879,445.8911 -281.13295,0 -509.298834,-199.6451 -509.298834,-445.8911 0,-246.24601 223.072904,-204.9928 504.460514,-204.9928 281.13298,0 514.13711,-41.25321 514.13711,204.9928 z"
       id="path1" />
    <g
       id="g1"
       transform="translate(0,-26.964446)">
      <path
         style="fill:#efffd7;fill-opacity:1;fill-rule:nonzero;stroke:none;stroke-width:0.763948"
         d="m 463.35048,372.97067 c -55.51357,-0.76395 -71.04719,-1.27325 -107.97134,-4.0744 -104.66092,-8.40343 -185.89409,-19.86266 -244.97276,-34.37767 -14.515015,-3.56509 -14.515015,-3.56509 -14.515015,-3.56509 9.676685,-6.36624 9.676685,-6.36624 9.676685,-6.36624 32.34047,-20.88125 78.17737,-36.92417 127.83401,-44.309 43.7997,-6.62088 74.35762,-8.14878 174.43485,-8.65808 93.96561,-0.76395 317.03852,0 350.65224,1.27325 44.81834,1.5279 74.3577,4.58369 107.20746,10.94992 43.29036,8.65808 78.68668,22.1545 104.66092,39.21601 4.5837,3.05579 9.422,6.11159 10.9499,6.62089 2.8012,1.27325 2.8012,1.27325 2.8012,1.27325 -11.4593,2.80114 -11.4593,2.80114 -11.4593,2.80114 -60.60657,15.02432 -152.78962,27.75679 -263.30749,36.16022 -10.9499,0.76395 -32.59516,1.78255 -48.12875,2.29185 -41.76253,1.01859 -138.52926,1.52789 -197.86261,0.76395 z"
         id="path2" />
      <path
         style="fill:#efffd7;fill-opacity:1;fill-rule:nonzero;stroke:none;stroke-width:0.763948"
         d="m 512.97405,862.15222 c -93.71096,-6.36621 -164.24886,-26.48357 -239.62509,-67.9914 -15.78826,-8.65805 -22.1545,-11.71385 -26.99284,-13.49644 -3.05579,-1.01857 -3.56509,-1.2732 -2.03719,-1.2732 1.27324,0 28.77538,2.54647 61.62516,5.60226 78.43202,7.38486 108.22601,9.93133 160.17449,13.49645 19.86266,1.27319 117.64804,1.27319 144.64085,0 35.39633,-1.7826 110.77251,-8.14881 204.73815,-17.31619 22.66382,-2.29184 23.68239,-2.29184 18.33476,-0.50932 -5.09294,1.78259 -6.62084,2.54654 -20.88123,10.69527 -29.79399,17.31619 -55.2589,29.03004 -89.63658,40.74396 -48.89269,16.55217 -98.54933,26.48349 -151.00714,29.79399 -10.9499,0.76395 -50.67521,1.01857 -59.33334,0.25462 z"
         id="path3" />
    </g>
  </g>
</svg>
