<?xml version="1.0" encoding="UTF-8" standalone="no"?>
<!-- Created with Inkscape (http://www.inkscape.org/) -->

<svg
   width="529.47766"
   height="83.097229"
   viewBox="0 0 529.47766 83.097229"
   version="1.1"
   id="svg1"
   xml:space="preserve"
   xmlns="http://www.w3.org/2000/svg"
   xmlns:svg="http://www.w3.org/2000/svg"><defs
     id="defs1" /><g
     id="layer1"
     transform="translate(-262.06815,-645.45026)"><g
       transform="matrix(0.14575157,0,0,-0.14575157,-16.795593,797.3366)"
       fill="#000000"
       stroke="none"
       id="g3"><path
         d="M 755,3301 C 609,3262 503,3207 401,3115 288,3012 187,2845 155,2706 c -27,-115 -17,-118 51,-19 151,216 287,338 479,429 153,73 355,114 555,114 44,0 80,4 80,9 0,11 -97,47 -180,66 -93,21 -295,19 -385,-4 z"
         id="path1" /><path
         d="m 6495,3306 c -74,-17 -175,-55 -175,-65 0,-4 62,-11 138,-14 234,-11 377,-46 538,-131 46,-25 110,-65 142,-89 86,-67 219,-211 291,-317 36,-52 67,-88 69,-82 9,29 -33,171 -78,260 -105,209 -269,349 -495,422 -89,29 -333,38 -430,16 z"
         id="path2" /><path
         d="m 1205,2945 c -60,-7 -126,-18 -145,-24 -19,-6 -69,-20 -111,-31 -227,-61 -408,-178 -510,-331 -16,-24 -41,-81 -56,-127 -24,-76 -25,-93 -21,-215 4,-114 9,-145 36,-224 120,-353 417,-682 857,-948 120,-72 343,-183 473,-236 85,-34 86,-36 67,-81 -8,-19 60,-60 250,-152 363,-176 751,-287 1195,-341 181,-22 625,-31 816,-16 578,46 1063,186 1541,447 l 83,45 -15,35 c -13,32 -13,35 3,41 180,65 452,204 637,328 443,294 718,649 780,1002 19,107 19,169 0,257 -51,239 -227,403 -544,506 -206,67 -284,75 -696,74 -247,0 -426,-5 -570,-17 -983,-80 -1020,-82 -1550,-82 -505,0 -526,1 -1285,61 -525,42 -1038,54 -1235,29 z m 650,-245 c 105,-6 393,-26 640,-45 706,-54 805,-59 1225,-59 405,0 557,7 1115,50 176,13 415,32 530,40 371,29 918,20 983,-15 25,-14 -97,-112 -213,-172 -316,-163 -746,-284 -1290,-363 -335,-49 -528,-64 -930,-73 -976,-20 -1937,142 -2498,423 -113,57 -198,116 -232,160 l -26,33 23,6 c 90,22 409,29 673,15 z M 2503,995 c 745,-115 1101,-147 1427,-126 298,20 593,56 1160,146 282,44 324,45 376,7 47,-34 98,-98 89,-112 -4,-6 -46,-30 -94,-54 C 4517,381 3295,333 2285,731 c -76,30 -359,160 -384,176 -8,5 65,88 102,114 56,40 85,39 500,-26 z"
         id="path3" /></g><path
       style="fill:#efffd7;fill-opacity:1;stroke-width:1.2691"
       d="m 484.88977,727.82194 c -49.55884,-3.85141 -96.30954,-13.22725 -142.23407,-28.52498 -29.90515,-9.96158 -80.58754,-32.36553 -80.58754,-35.62339 0,-0.79096 3.61717,-4.9115 8.03817,-9.15676 12.25457,-11.76745 10.13723,-11.73985 81.43304,-1.06141 101.77145,15.24298 127.33035,17.82297 176.40423,17.8068 49.0599,-0.0162 79.88857,-3.20083 178.94242,-18.48512 23.03407,-3.55422 47.30552,-6.73141 53.93654,-7.06043 11.7361,-0.58231 12.21517,-0.4958 18.03244,3.25627 3.2868,2.11996 7.74343,6.29432 9.90362,9.27637 4.67847,6.45844 5.06573,5.97843 -11.64487,14.43382 -30.06145,15.21076 -71.44643,30.22369 -108.30059,39.28741 -47.11714,11.58774 -81.81497,15.88212 -133.25499,16.49232 -20.24207,0.24012 -43.04285,-0.0483 -50.6684,-0.6409 z"
       id="path6" /></g></svg>
