<?xml version="1.0" encoding="UTF-8" standalone="no"?>
<!-- Created with Inkscape (http://www.inkscape.org/) -->

<svg
   width="1080"
   height="1080"
   viewBox="0 0 1080 1080"
   version="1.1"
   id="svg1"
   xml:space="preserve"
   xmlns="http://www.w3.org/2000/svg"
   xmlns:svg="http://www.w3.org/2000/svg"><defs
     id="defs1" /><g
     id="layer1"><g
       id="g6"
       transform="matrix(0.75724148,0,0,0.83842861,599.60865,-302.72721)"><path
         style="fill:#000000;fill-opacity:1;fill-rule:nonzero;stroke:none"
         d="M 533,885.66667 C 533,1129.3333 263.6667,1327 -69,1327 -401.33333,1327 -671,1129.3333 -671,885.66667 -671,601.66667 -381.33333,854 -49,854 c 332.6667,0 582,-252.33333 582,31.66667 z"
         id="path1" /><path
         style="fill:#000000;fill-opacity:1;fill-rule:nonzero;stroke:none"
         d="m 273.6667,1218.6667 c -4.6667,-9 -9,-16 -9.6667,-15.6667 -10.3333,6 -62.33333,30.3333 -75.33333,35.3333 C 18,1305 -189,1302.3333 -355.66667,1231.6667 c -14.33333,-6 -33.33333,-15 -42.66666,-20 C -411,1205 -415.66667,1203.3333 -417,1205 c -0.33333,0 -0.33333,0.3333 -0.66667,0.6667 0,0 0,0 0,0 -2,3 -5.33333,9.6666 -8.33333,16 0,0 0,0 -0.33333,0 -3,6.6666 -5.66667,13 -5.33334,13.3333 4,4 60,32 79.66667,40 33.66667,13.3333 42,16.3333 69.66667,24 47,13.6667 102.66666,23.3333 156,27 50.66666,3.3333 128.66666,-0.6667 181.33333,-9.3333 69.33333,-11.6667 151.33333,-39.6667 203.3333,-69 9.6667,-5.6667 19,-10.6667 21,-11.3334 2.6667,-1 2.3334,-3 -5.6666,-17.6666 z M 436.3333,751.66667 C 433.6667,749 387,750.66667 370,754 c -35.3333,6.66667 -56.6667,12.66667 -137.33333,39.66667 -137,45.66666 -212.33334,60.66666 -306.66667,60.66666 -59.33333,0 -98.66667,-4.33333 -159.66667,-17.33333 -40,-8.66667 -76.33333,-19.33333 -149.66666,-43.33333 -107,-35.33334 -143.66667,-44.33334 -183,-44.33334 -11.66667,0 -11.66667,0 -11.66667,0 C -577,760 -577,760 -577,760 c 0.33333,0.66667 0.33333,1.66667 0.33333,2.33333 0,0.66667 0,1 0.33334,1.33334 0,1.33333 0.33333,3 0.33333,4.33333 0,0 0,0 0,0.33333 0.33333,1 0.33333,2 0.66667,3 0,1.66667 0.33333,3.33334 0.66666,5 0,1 0.33334,2 0.33334,3.33334 0.33333,1.33333 0.33333,3 0.66666,4.33333 2,13.33333 2,13.33333 2,13.33333 0.33334,0 0.33334,0 0.33334,0 12.66666,0 12.66666,0 12.66666,0 31.66667,0 70.33334,9.66667 166,41 C -354,851 -314,864 -303.33333,867 c 52.66666,15.33333 113.33333,27.33333 156.66666,31.33333 11.66667,1.33334 24.33334,2.33334 28.66667,3 C -101.66667,903 -19,900.66667 3.33333,897.66667 77.66667,888.66667 125.66667,877 247.3333,837 348.6667,803.66667 366,799.33333 406,797.66667 c 23.6667,-0.66667 25.3333,-1 26.3333,-4.66667 0.3334,-1 0.3334,-2 0.6667,-3.33333 0,0 0,0 0,0 1,-4.33334 1.6667,-10.33334 2.3333,-16.33334 0,0 0,-0.33333 0,-0.33333 1,-10.33333 1.6667,-20.66667 1,-21.33333 z M -579,685 c -15,-3 -50.33333,-2.33333 -65.66667,1 C -660.33333,689.66667 -680,698.33333 -695,708.66667 c -14.33333,9.66666 -35.66667,32.66666 -45,48.33333 -9.33333,15.66667 -18,40.33333 -18,51.33333 -0.33333,8 -0.33333,8 -0.33333,8 9.66666,-13.66666 9.66666,-13.66666 9.66666,-13.66666 C -711.33333,748.33333 -675.33333,721.33333 -623,708 c 20.66667,-5.33333 45,-8.33333 66,-8.33333 9,0 16,-0.66667 16,-1.66667 0,-1.66667 -25,-10.33333 -38,-13 z m 1166,83 c -19.6667,-39.66667 -50.6667,-66.33333 -91.6667,-79.33333 -17.3333,-5.66667 -58.6666,-7.33334 -77.6666,-3 -14.6667,3 -34,10 -34,12 0,0.66666 10.6666,2 23.6666,2.66666 44.3334,2.33334 70.6667,8.33334 98,22.66667 30.3334,15.66667 57,40.33333 82,75 7,10 13,17.33333 13.3334,16 1.6666,-5 -6,-31 -13.6667,-46 z"
         id="path2" /><path
         style="fill:#efffd7;fill-opacity:1;fill-rule:nonzero;stroke:none"
         d="m 432.3333,793 c -1,3.66667 -2.6666,4 -26.3333,4.66667 -40,1.66666 -57.3333,6 -158.6667,39.33333 -121.66663,40 -169.66663,51.66667 -243.99997,60.66667 -22.33333,3 -105,5.33333 -121.33333,3.66666 -4.33333,-0.66666 -17,-1.66666 -28.66667,-3 -43.33333,-4 -104,-16 -156.66666,-31.33333 C -314,864 -354,851 -392.66667,838.33333 c -95.66666,-31.33333 -134.33333,-41 -166,-41 -12.66666,0 -12.66666,0 -12.66666,0 9,49.66667 21.33333,70 50,87.66667 60,37.33333 174.33333,67.66667 308,81.33333 -1,0 -1,-0.33333 0,-1 1.33333,-0.33333 3,-0.33333 3.66666,0.33334 0.33334,0.66666 -0.66666,1 -2.66666,1 4,0.33333 8,0.66666 12.33333,1 6.66667,0.66666 15.66667,1.33333 26.33333,2 0.33334,-0.33334 0.66667,-0.33334 1,-0.33334 1.33334,-0.66666 2.66667,-0.66666 3.33334,0 0.33333,0 0.33333,0.33334 0.33333,0.33334 0.33333,0 0.66667,0 1.33333,0 -0.33333,0 -0.33333,-0.33334 0.33334,-0.33334 1.33333,-0.66666 3.33333,-0.66666 4.66666,0 C -162,969.66667 -162,970 -163,970 c 7.33333,0.33333 15,0.66667 23.33333,0.66667 1.33334,0 3,0 4,0.33333 1.66667,0 3.33334,0 4.66667,0 0.33333,0 0.33333,0 0.33333,0 2.33334,-0.33333 5.66667,-0.33333 7.33334,0 0.33333,0 0.66666,0 0.66666,0.33333 36,0.66667 76,1 106.66667,0.33334 -1.66667,0 -2,-0.33334 -0.33333,-0.66667 2.33333,-0.33333 5.66666,-0.33333 7.33333,0 1,0.33333 1,0.33333 0.33333,0.66667 1,0 2.33334,0 3.66667,-0.33334 -0.33333,0 0,0 0.66667,-0.33333 1.66666,-0.33333 4.66666,-0.33333 6.33333,0 0.33333,0 0.66667,0.33333 0.66667,0.33333 5.66666,-0.33333 10.66666,-0.33333 15,-0.66666 2.33333,-0.33334 4.66666,-0.33334 7,-0.66667 0,0 0,0 0,0 C 22,970 21,969.66667 22.33333,969.33333 c 1.33334,-0.66666 3.33334,-0.66666 4.66667,0 0.66667,0.33334 0.66667,0.66667 -0.66667,0.66667 1,0 2,0 3,0 C 29,969.66667 29,969.33333 29.66667,969.33333 c 1.33333,-0.66666 3.33333,-0.66666 4.66666,0 0,0 0.33334,0 0.33334,0 5,-0.33333 10,-0.66666 15,-1 C 49,968 49,967.66667 50,967.33333 c 1.33333,-0.66666 3,-0.33333 3.66667,0 0,0.33334 0,0.66667 0,0.66667 0.33333,0 0.66666,0 1,0 0,-0.33333 0.33333,-0.33333 1,-0.66667 C 57,966.66667 58.33333,967 59,967.33333 c 0,0.33334 0,0.33334 0,0.33334 3.66667,-0.33334 7.66667,-0.66667 11.33333,-1.33334 -1.33333,0 -1.33333,-0.33333 0,-1 1.33334,-0.33333 3,-0.33333 3.33334,0.33334 C 74,965.66667 74,966 74,966 c 4.66667,-0.33333 9.66667,-1 14.33333,-1.33333 -0.66666,-0.33334 -0.66666,-0.66667 0.33334,-1 1.33333,-0.66667 3,-0.33334 3.66666,0 0,0.33333 0,0.33333 0,0.66666 120,-13.66666 220.99997,-40.66666 285.33337,-77 8,-4.66666 14.3333,-9 20,-14.33333 0.3333,-0.66667 1,-1.33333 1.6666,-2 1.3334,-1.66667 3,-3 3.6667,-3.33333 5.3333,-6 9.6667,-13 13.6667,-21 8.3333,-17 12.6666,-32 16.3333,-57 C 432.6667,791 432.6667,792 432.3333,793 Z M -191,968.33333 c -2.33333,0 -3.33333,-0.33333 -2.33333,-1 C -192,967 -190,967 -188.66667,967.33333 c 1.33334,0.66667 0.33334,1 -2.33333,1 z"
         id="path3" /><path
         style="fill:#efffd7;fill-opacity:1;fill-rule:nonzero;stroke:#000000;stroke-width:1.33333px;stroke-linecap:butt;stroke-linejoin:miter;stroke-miterlimit:10;stroke-dasharray:none;stroke-opacity:1"
         d="m -191,968.33333 c -2.33333,0 -3.33333,-0.33333 -2.33333,-1 C -192,967 -190,967 -188.66667,967.33333 c 1.33334,0.66667 0.33334,1 -2.33333,1 z"
         id="path4" /><path
         style="fill:#efffd7;fill-opacity:1;fill-rule:nonzero;stroke:none"
         d="m 266.3333,1206 c 0.3334,-0.3333 0.3334,-0.3333 0.3334,-0.3333 C 263.6667,1200 260.3333,1195 258,1192 c -7,-9.6667 -7,-9.6667 -7,-9.6667 C 259.3333,1167 259.3333,1167 259.3333,1167 c 2,-4 4,-7.6667 5.6667,-11.6667 -2.6667,5.6667 -5.6667,11.3334 -7.6667,15.3334 C 250.6667,1182 250.6667,1182 250.6667,1182 c -6.3334,-4.6667 -6.3334,-4.6667 -6.3334,-4.6667 -4.99997,-4 -10.3333,-5.6666 -21.3333,-5.3333 0.66667,0.6667 -0.66667,1 -2.33333,1 -1.66667,-0.3333 -2.33334,-0.3333 -2,-0.6667 -9,0.6667 -21.66667,2.3334 -40.33334,5.3334 -91.66666,14.3333 -145.66666,21.6666 -190.33333,25 0.33333,0.3333 1,0.3333 1,0.6666 0.66667,0.6667 -0.33333,1 -2.33333,1 -2,-0.3333 -2.66667,-0.6666 -1,-1.3333 0,0 0.33333,0 0.33333,0 -17.33333,1.3333 -33.33333,2 -49.66667,2 -17.33333,0.3333 -34,0.3333 -43.33333,0.3333 0,0.3334 -1.66667,0.6667 -3.66667,0.3334 -2.66666,0 -4,-0.3334 -3,-0.6667 -1,0 -2.33333,0 -4,-0.3333 0.33334,0 0.66667,0.3333 1,0.3333 1,0.3333 0,1 -2.33333,1 -2.66667,0 -3.66667,-0.6667 -2.33333,-1 0.66666,-0.3333 1.33333,-0.3333 2,-0.3333 -6.66667,-0.6667 -17,-1.3334 -26.33334,-2.3334 -5,-0.3333 -10,-1 -15.33333,-1.3333 0.33333,0 0.66667,0 1,0.3333 0.66667,0.6667 -0.66667,1 -2.66667,1 -2,0 -2.33333,-0.6666 -1,-1 C -163,1201 -162,1201 -161.66667,1201 c -33,-3.3333 -78.66666,-9.6667 -143.66666,-19.6667 -27,-4.3333 -52,-7.6666 -64.66667,-9.3333 0.33333,0.6667 -0.66667,1 -2.33333,1 -2.33334,-0.3333 -2.66667,-0.6667 -1.33334,-1.3333 0.33334,0 0.33334,0 0.66667,0 -2.66667,-0.3334 -4.33333,-0.3334 -5,-0.3334 -4,0 -10,1.6667 -15.33333,4.6667 -8,4.6667 -8.33334,4.6667 -10.66667,1.3333 -1.33333,-1.3333 -2.66667,-3.6666 -4,-6 2.66667,5.3334 4.33333,9.6667 5,11 0.66667,-1 1.33333,-1.3333 1.66667,-1 0.66666,0.6667 0,2 -1,3.3334 C -404,1186 -404.33333,1186 -404,1185 c -1,1.3333 -2.66667,3.3333 -4.33333,5.6667 -2,2.6666 -5.66667,8.3333 -9.33334,15 0.33334,-0.3334 0.33334,-0.6667 0.66667,-0.6667 1.33333,-1.6667 6,0 18.66667,6.6667 9.33333,5 28.33333,14 42.66666,20 C -189,1302.3333 18,1305 188.66667,1238.3333 c 13,-5 65.00003,-29.3333 75.33333,-35.3333 0.3333,0 1.3333,1 2.3333,3 z M -143,1204 c -2.66667,0 -3.66667,-0.3333 -2.33333,-1 1.33333,-0.3333 3.33333,-0.3333 4.66666,0 1.33334,0.6667 0.33334,1 -2.33333,1 z m 67,4 c -2,-0.3333 -2.66667,-0.6667 -1,-1.3333 1.33333,-0.3334 3,-0.3334 3.33333,0.3333 C -73,1207.6667 -74,1208 -76,1208 Z m 36,-2 c -2.33333,0 -3.33333,-0.6667 -2.33333,-1 1.33333,-0.6667 3.33333,-0.6667 4.66666,0 1.33334,0.3333 0.33334,1 -2.33333,1 z m 7.33333,0 c -2.33333,0 -3.33333,-0.6667 -2,-1 1,-0.6667 3.33334,-0.6667 4.33334,0 1.33333,0.3333 0.33333,1 -2.33334,1 z m 25,-1.6667 C -10,1204 -10.33333,1203.6667 -9,1203 c 1.33333,-0.3333 3,-0.3333 3.66667,0.3333 0.66666,0.6667 -0.66667,1 -2.33334,1 z m 18.33334,-2 c -2.33334,0 -2.66667,-0.6666 -1,-1 1.33333,-0.6666 2.66666,-0.6666 3.33333,0 0.66667,0.6667 -0.33333,1 -2.33333,1 z m 33,-3.6666 c -2,0 -2.33334,-0.6667 -1,-1 1.33333,-0.6667 3,-0.6667 3.66666,0 0.33334,0.6666 -0.66666,1 -2.66666,1 z m 15,-2 c -2.33334,0 -2.66667,-0.3334 -1.33334,-1 1.33334,-0.3334 3,-0.3334 3.66667,0.3333 0.66667,0.3333 -0.66667,1 -2.33333,0.6667 z M 250.3333,1184 c -0.3333,0 -1.6666,-1.3333 -3,-3 C 245,1178 245,1178 248,1180 c 3,2.6667 4,4 2.3333,4 z"
         id="path5" /></g></g></svg>
