<?xml version="1.0" encoding="UTF-8" standalone="no"?>
<!-- Created with Inkscape (http://www.inkscape.org/) -->

<svg
   width="1000.0001"
   height="1000.0001"
   viewBox="0 0 264.58335 264.58335"
   version="1.1"
   id="svg1"
   xml:space="preserve"
   xmlns="http://www.w3.org/2000/svg"
   xmlns:svg="http://www.w3.org/2000/svg"><defs
     id="defs1" /><g
     id="layer1"><g
       id="g15"
       transform="translate(2.787543,1.2670641)"><path
         style="fill:#be7088"
         d="m 127.13885,168.83521 c 0.23809,-0.0953 0.52257,-0.0836 0.63217,0.026 0.1096,0.1096 -0.0852,0.18756 -0.4329,0.17323 -0.38424,-0.0158 -0.46239,-0.094 -0.19927,-0.19927 z m -7.93657,-0.32296 c 0.22676,-0.0915 0.59782,-0.0915 0.82458,0 0.22675,0.0915 0.0412,0.16636 -0.41229,0.16636 -0.45352,0 -0.63905,-0.0749 -0.41229,-0.16636 z m 15.50207,0 c 0.22676,-0.0915 0.59782,-0.0915 0.82458,0 0.22676,0.0915 0.0412,0.16636 -0.41229,0.16636 -0.45351,0 -0.63904,-0.0749 -0.41229,-0.16636 z m -19.78988,-0.32983 c 0.22676,-0.0915 0.59782,-0.0915 0.82458,0 0.22676,0.0915 0.0412,0.16636 -0.41229,0.16636 -0.45352,0 -0.63905,-0.0749 -0.41229,-0.16636 z m 24.42814,-0.007 c 0.2381,-0.0953 0.52258,-0.0836 0.63218,0.026 0.1096,0.1096 -0.0852,0.18755 -0.43291,0.17323 -0.38423,-0.0158 -0.46239,-0.094 -0.19927,-0.19927 z m -27.70584,-0.32983 c 0.2381,-0.0953 0.52258,-0.0836 0.63218,0.026 0.1096,0.1096 -0.0852,0.18755 -0.43291,0.17323 -0.38423,-0.0158 -0.46239,-0.094 -0.19927,-0.19927 z m 31.00415,0 c 0.2381,-0.0953 0.52258,-0.0836 0.63218,0.026 0.1096,0.1096 -0.0852,0.18755 -0.4329,0.17323 -0.38424,-0.0158 -0.46239,-0.094 -0.19928,-0.19927 z m 5.93697,-0.65967 c 0.2381,-0.0953 0.52258,-0.0836 0.63218,0.026 0.1096,0.1096 -0.0852,0.18756 -0.43291,0.17324 -0.38423,-0.0158 -0.46239,-0.094 -0.19927,-0.19928 z m 2.63865,-0.32983 c 0.2381,-0.0953 0.52258,-0.0836 0.63218,0.026 0.1096,0.1096 -0.0852,0.18756 -0.43291,0.17324 -0.38423,-0.0158 -0.46239,-0.094 -0.19927,-0.19928 z m 33.99241,-2.66071 c -0.41027,-0.52313 -0.3986,-0.5348 0.12453,-0.12453 0.54941,0.43088 0.72414,0.70173 0.45267,0.70173 -0.0685,0 -0.32823,-0.25974 -0.5772,-0.5772 z m -111.172964,-1.6271 c 0.238098,-0.0953 0.522577,-0.0836 0.632177,0.026 0.109601,0.1096 -0.08521,0.18756 -0.432903,0.17324 -0.384235,-0.0158 -0.462391,-0.094 -0.199274,-0.19928 z m 106.205724,0 c 0.23809,-0.0953 0.52257,-0.0836 0.63217,0.026 0.1096,0.1096 -0.0852,0.18756 -0.4329,0.17324 -0.38424,-0.0158 -0.46239,-0.094 -0.19927,-0.19928 z m 27.43785,-0.88871 c 0,-0.0685 0.25974,-0.32823 0.5772,-0.5772 0.52313,-0.41027 0.5348,-0.3986 0.12453,0.12453 -0.43088,0.54941 -0.70173,0.72414 -0.70173,0.45267 z m -162.631859,-1.772 -0.799615,-0.90703 0.907036,0.79961 c 0.847762,0.74736 1.058294,1.01446 0.799615,1.01446 -0.05908,0 -0.467248,-0.40817 -0.907036,-0.90704 z m -4.459099,-4.45272 -0.628325,-0.74212 0.742121,0.62832 c 0.69741,0.59047 0.892274,0.85592 0.628325,0.85592 -0.06259,0 -0.396542,-0.33396 -0.742121,-0.74212 z m 174.347248,-1.03157 c 0,-0.0685 0.25974,-0.32823 0.5772,-0.5772 0.52313,-0.41027 0.5348,-0.3986 0.12453,0.12453 -0.43088,0.54941 -0.70173,0.72413 -0.70173,0.45267 z M 117.55697,126.6087 c 0.41028,-0.0789 1.00397,-0.0759 1.31932,0.007 0.31535,0.0826 -0.0203,0.1471 -0.74596,0.14344 -0.72563,-0.004 -0.98365,-0.0712 -0.57336,-0.1501 z m 20.44954,0 c 0.41029,-0.0789 1.00398,-0.0759 1.31933,0.007 0.31535,0.0826 -0.0203,0.1471 -0.74597,0.14344 -0.72563,-0.004 -0.98364,-0.0712 -0.57336,-0.1501 z m -27.05002,-0.315 c 0.22676,-0.0915 0.59782,-0.0915 0.82458,0 0.22676,0.0915 0.0412,0.16637 -0.41229,0.16637 -0.45352,0 -0.63905,-0.0749 -0.41229,-0.16637 z m 33.97264,0 c 0.22676,-0.0915 0.59782,-0.0915 0.82458,0 0.22676,0.0915 0.0412,0.16637 -0.41229,0.16637 -0.45352,0 -0.63905,-0.0749 -0.41229,-0.16637 z m -38.59028,-0.3297 c 0.22676,-0.0915 0.59782,-0.0915 0.82458,0 0.22676,0.0915 0.0412,0.16636 -0.41229,0.16636 -0.45352,0 -0.63905,-0.0749 -0.41229,-0.16636 z m 43.55836,-0.007 c 0.2381,-0.0953 0.52258,-0.0836 0.63218,0.026 0.1096,0.1096 -0.0852,0.18756 -0.4329,0.17323 -0.38424,-0.0158 -0.46239,-0.094 -0.19928,-0.19927 z m -47.16589,-0.32983 c 0.2381,-0.0953 0.52258,-0.0836 0.63218,0.026 0.1096,0.1096 -0.0852,0.18755 -0.43291,0.17323 -0.38423,-0.0158 -0.46239,-0.094 -0.19927,-0.19927 z m 50.79404,0 c 0.2381,-0.0953 0.52258,-0.0836 0.63218,0.026 0.1096,0.1096 -0.0852,0.18755 -0.43291,0.17323 -0.38423,-0.0158 -0.46239,-0.094 -0.19927,-0.19927 z m 3.29831,-0.32983 c 0.2381,-0.0953 0.52258,-0.0836 0.63218,0.026 0.1096,0.1096 -0.0852,0.18755 -0.4329,0.17323 -0.38424,-0.0158 -0.46239,-0.094 -0.19928,-0.19927 z M 18.382358,111.80729 c 0.01583,-0.38423 0.09398,-0.46239 0.199274,-0.19927 0.09528,0.2381 0.08356,0.52258 -0.02604,0.63218 -0.1096,0.1096 -0.187555,-0.0852 -0.173234,-0.43291 z m 218.069052,-4.0954 c 0,-0.63493 0.0679,-0.89467 0.15084,-0.57721 0.083,0.31746 0.083,0.83695 0,1.15441 -0.083,0.31746 -0.15084,0.0577 -0.15084,-0.5772 z"
         id="path21" /><path
         style="fill:#e6486d"
         d="m 120.6928,168.50212 c 0.32091,-0.0836 0.76618,-0.0781 0.98949,0.0122 0.22331,0.0904 -0.0393,0.15877 -0.58348,0.15205 -0.54422,-0.007 -0.72693,-0.0806 -0.40601,-0.16427 z m 12.69223,0.0101 c 0.22676,-0.0915 0.59782,-0.0915 0.82458,0 0.22676,0.0915 0.0412,0.16636 -0.41229,0.16636 -0.45352,0 -0.63905,-0.0749 -0.41229,-0.16636 z m 4.96808,-0.3367 c 0.2381,-0.0953 0.52258,-0.0836 0.63218,0.026 0.1096,0.1096 -0.0852,0.18755 -0.4329,0.17323 -0.38424,-0.0158 -0.46239,-0.094 -0.19928,-0.19927 z m -35.72486,-9.35874 c -18.338665,-1.06739 -29.569032,-5.3715 -34.559508,-13.24517 -0.855813,-1.35025 -0.719951,-1.72923 1.164074,-3.24712 3.614542,-2.9121 10.469822,-5.46661 16.730292,-6.23426 10.787338,-1.32273 24.476142,1.5838 37.492092,7.96066 l 4.00556,1.96243 3.33705,-1.67461 c 10.47942,-5.25882 23.00708,-8.59119 32.29759,-8.59119 7.56766,0 15.30208,1.9587 20.42418,5.1723 l 1.73178,1.08652 -0.62428,1.64299 c -2.77899,7.31369 -12.47618,12.48758 -26.91698,14.36142 -13.13376,1.70423 -24.91909,1.0027 -30.07578,-1.79029 l -1.75296,-0.94944 -1.75295,0.94944 c -2.3899,1.29443 -6.65585,2.24999 -11.68858,2.61822 -2.31245,0.1692 -4.5013,0.28964 -4.86411,0.26765 -0.36282,-0.022 -2.58918,-0.15229 -4.94747,-0.28955 z"
         id="path20" /><path
         style="fill:#965567"
         d="m 209.1638,160.15508 c 0.32834,-0.36282 0.6712,-0.65967 0.7619,-0.65967 0.0907,0 -0.10373,0.29685 -0.43207,0.65967 -0.32834,0.36281 -0.6712,0.65966 -0.7619,0.65966 -0.0907,0 0.10373,-0.29685 0.43207,-0.65966 z M 42.763845,157.68134 c -0.801171,-0.81633 -1.382461,-1.48424 -1.291758,-1.48424 0.0907,0 0.820419,0.66791 1.621589,1.48424 0.80117,0.81633 1.382461,1.48424 1.291757,1.48424 -0.0907,0 -0.820418,-0.66791 -1.621588,-1.48424 z m 171.182505,-2.26843 c 0,-0.0685 0.25975,-0.32824 0.57721,-0.57721 0.52313,-0.41027 0.5348,-0.3986 0.12453,0.12453 -0.43088,0.54942 -0.70174,0.72414 -0.70174,0.45268 z m -98.20103,-28.79937 c 0.32092,-0.0836 0.76619,-0.0781 0.9895,0.0122 0.22331,0.0904 -0.0393,0.15877 -0.58348,0.15205 -0.54423,-0.007 -0.72693,-0.0807 -0.40602,-0.16427 z m 24.40125,0.001 c 0.31747,-0.083 0.83695,-0.083 1.15441,0 0.31747,0.083 0.0577,0.15084 -0.5772,0.15084 -0.63493,0 -0.89467,-0.0679 -0.57721,-0.15084 z m -30.15896,-0.32778 c 0.2381,-0.0953 0.52258,-0.0836 0.63218,0.026 0.1096,0.1096 -0.0852,0.18756 -0.43291,0.17324 -0.38423,-0.0158 -0.46239,-0.094 -0.19927,-0.19928 z m 36.26084,0.007 c 0.22676,-0.0915 0.59782,-0.0915 0.82458,0 0.22676,0.0915 0.0412,0.16637 -0.41229,0.16637 -0.45351,0 -0.63905,-0.0749 -0.41229,-0.16637 z m 4.63826,-0.3367 c 0.2381,-0.0953 0.52258,-0.0836 0.63218,0.026 0.1096,0.1096 -0.0852,0.18756 -0.43291,0.17323 -0.38423,-0.0158 -0.46239,-0.094 -0.19927,-0.19927 z M 18.382358,110.8178 c 0.01583,-0.38424 0.09398,-0.46239 0.199274,-0.19928 0.09528,0.2381 0.08356,0.52258 -0.02604,0.63218 -0.1096,0.1096 -0.187555,-0.0852 -0.173234,-0.4329 z m 0,-5.93697 c 0.01583,-0.38423 0.09398,-0.46239 0.199274,-0.19927 0.09528,0.2381 0.08356,0.52258 -0.02604,0.63218 -0.1096,0.1096 -0.187555,-0.0852 -0.173234,-0.43291 z"
         id="path19" /><path
         style="fill:#d0094a"
         d="m 120.60406,168.53693 c -0.81633,-0.0699 -3.41375,-0.28958 -5.77205,-0.48813 -6.06559,-0.51069 -14.980215,-1.69018 -28.562666,-3.77913 -6.457695,-0.99318 -12.307408,-1.80577 -12.999363,-1.80577 -0.764374,0 -1.840659,0.3414 -2.742564,0.86995 -1.440793,0.84436 -1.49847,0.85164 -1.960518,0.24737 -1.09774,-1.43562 -3.053855,-5.97843 -3.566516,-8.28274 -0.882723,-3.96767 -0.153253,-8.29408 1.753745,-10.40129 0.524815,-0.57991 0.574591,-0.55978 1.22427,0.49527 3.288782,5.34081 8.972363,8.83026 18.154549,11.14602 4.410194,1.11226 10.321457,1.90029 17.156453,2.2871 8.98272,0.50837 16.92339,-0.4843 20.83901,-2.60509 l 1.75295,-0.94944 1.75296,0.94944 c 5.15669,2.79299 16.94202,3.49452 30.07578,1.79029 15.15326,-1.96629 24.53431,-7.28 27.3673,-15.50168 0.20325,-0.58986 0.3949,-0.47843 1.81101,1.05296 2.63294,2.84729 3.14827,4.24993 3.12737,8.51215 -0.0154,3.14914 -0.13715,3.93246 -0.92186,5.93318 -0.49725,1.26776 -1.44127,3.22334 -2.09784,4.34572 l -1.19375,2.0407 -1.11414,-0.8498 c -1.68428,-1.28466 -3.34493,-1.27582 -11.80585,0.0628 -23.10994,3.65633 -32.8506,4.76493 -43.37283,4.93633 -4.08166,0.0665 -8.08912,0.0637 -8.90545,-0.006 z"
         id="path18" /><path
         style="fill:#9a2e4b"
         d="m 68.676817,164.67603 c 0.123862,-0.32528 0.308291,-0.50834 0.409842,-0.40679 0.101551,0.10155 2.09e-4,0.36769 -0.225204,0.59143 -0.325747,0.32332 -0.363632,0.28544 -0.184638,-0.18464 z m 143.125633,-7.15961 c 1.07709,-1.08844 2.03255,-1.97898 2.12325,-1.97898 0.0907,0 -0.71633,0.89054 -1.79342,1.97898 -1.07709,1.08845 -2.03255,1.97899 -2.12325,1.97899 -0.0907,0 0.71633,-0.89054 1.79342,-1.97899 z m -21.57792,-5.79953 c 0.0158,-0.38424 0.094,-0.46239 0.19927,-0.19927 0.0953,0.23809 0.0836,0.52257 -0.026,0.63217 -0.1096,0.1096 -0.18755,-0.0852 -0.17323,-0.4329 z M 68.820527,142.54948 c 0,-0.0685 0.259742,-0.32823 0.577205,-0.5772 0.523131,-0.41027 0.534797,-0.3986 0.12453,0.12453 -0.430882,0.54941 -0.701735,0.72414 -0.701735,0.45267 z m 79.757363,-5.04825 c 0.2381,-0.0953 0.52258,-0.0836 0.63218,0.026 0.1096,0.1096 -0.0852,0.18755 -0.43291,0.17323 -0.38423,-0.0158 -0.46239,-0.094 -0.19927,-0.19927 z m -44.19741,-0.32983 c 0.23809,-0.0953 0.52257,-0.0836 0.63217,0.026 0.1096,0.1096 -0.0852,0.18755 -0.4329,0.17323 -0.38423,-0.0158 -0.46239,-0.094 -0.19927,-0.19927 z m 47.16589,-0.32983 c 0.2381,-0.0953 0.52258,-0.0836 0.63218,0.026 0.1096,0.1096 -0.0852,0.18755 -0.43291,0.17323 -0.38423,-0.0158 -0.46239,-0.094 -0.19927,-0.19927 z m 22.09871,0 c 0.23809,-0.0953 0.52257,-0.0836 0.63217,0.026 0.1096,0.1096 -0.0852,0.18755 -0.4329,0.17323 -0.38423,-0.0158 -0.46239,-0.094 -0.19927,-0.19927 z m -72.56292,-0.32984 c 0.2381,-0.0953 0.52258,-0.0836 0.63218,0.026 0.1096,0.1096 -0.0852,0.18756 -0.4329,0.17324 -0.38424,-0.0158 -0.46239,-0.094 -0.19928,-0.19928 z m 52.11337,0 c 0.2381,-0.0953 0.52258,-0.0836 0.63218,0.026 0.1096,0.1096 -0.0852,0.18756 -0.43291,0.17324 -0.38423,-0.0158 -0.46239,-0.094 -0.19927,-0.19928 z M 83.930929,136.1819 c 0.238097,-0.0953 0.522577,-0.0836 0.632177,0.026 0.1096,0.1096 -0.08521,0.18756 -0.432904,0.17324 -0.384234,-0.0158 -0.46239,-0.094 -0.199273,-0.19928 z m 14.8218,0.007 c 0.226759,-0.0915 0.597819,-0.0915 0.824578,0 0.22676,0.0915 0.04123,0.16637 -0.412289,0.16637 -0.453518,0 -0.639048,-0.0749 -0.412289,-0.16637 z m 56.401171,0 c 0.22676,-0.0915 0.59782,-0.0915 0.82458,0 0.22676,0.0915 0.0412,0.16637 -0.41229,0.16637 -0.45352,0 -0.63905,-0.0749 -0.41229,-0.16637 z m 15.19286,-0.007 c 0.2381,-0.0953 0.52258,-0.0836 0.63218,0.026 0.1096,0.1096 -0.0852,0.18756 -0.4329,0.17324 -0.38424,-0.0158 -0.46239,-0.094 -0.19928,-0.19928 z m -83.956432,-0.33309 c 0.320915,-0.0836 0.766187,-0.0781 0.989494,0.0122 0.223307,0.0903 -0.03926,0.15877 -0.583482,0.15204 -0.544222,-0.007 -0.726928,-0.0806 -0.406012,-0.16427 z m 9.565111,0 c 0.320915,-0.0836 0.766188,-0.0781 0.989494,0.0122 0.223307,0.0903 -0.03926,0.15877 -0.583482,0.15204 -0.544222,-0.007 -0.726927,-0.0806 -0.406012,-0.16427 z m 62.008311,0 c 0.32091,-0.0836 0.76618,-0.0781 0.98949,0.0122 0.22331,0.0903 -0.0393,0.15877 -0.58348,0.15204 -0.54422,-0.007 -0.72693,-0.0806 -0.40601,-0.16427 z m 9.56511,0 c 0.32091,-0.0836 0.76619,-0.0781 0.98949,0.0122 0.22331,0.0903 -0.0393,0.15877 -0.58348,0.15204 -0.54422,-0.007 -0.72693,-0.0806 -0.40601,-0.16427 z m 44.93325,-27.14743 c 0.32835,-0.36281 0.6712,-0.65966 0.7619,-0.65966 0.0907,0 -0.10372,0.29685 -0.43207,0.65966 -0.32834,0.36281 -0.67119,0.65966 -0.7619,0.65966 -0.0907,0 0.10373,-0.29685 0.43207,-0.65966 z M 23.138875,92.869473 c 0.328342,-0.362814 0.671198,-0.659663 0.761902,-0.659663 0.0907,0 -0.103728,0.296849 -0.432071,0.659663 -0.328343,0.362815 -0.671199,0.659663 -0.761902,0.659663 -0.0907,0 0.103728,-0.296848 0.432071,-0.659663 z"
         id="path17" /><path
         style="fill:#690a25"
         d="m 189.87402,170.74609 c -0.79957,-1.56199 -2.02086,-3.61608 -2.71399,-4.56465 l -1.26024,-1.72468 1.46201,-2.72805 c 2.9341,-5.47492 3.66115,-10.28009 2.15947,-14.27214 -0.99899,-2.6557 -4.47197,-6.13354 -7.69404,-7.70478 -3.33112,-1.62442 -7.35311,-2.90088 -11.13066,-3.53253 -4.5451,-0.76 -13.8296,-0.50435 -18.59361,0.51196 -7.33619,1.56504 -14.60596,4.10052 -21.27413,7.41976 l -3.46323,1.72391 -3.13339,-1.60022 c -6.36741,-3.25184 -14.73839,-6.17157 -21.69449,-7.56687 -4.444053,-0.89142 -13.605299,-1.2279 -17.585613,-0.6459 -6.311421,0.92285 -12.987439,3.64521 -16.248917,6.62602 -2.499411,2.28432 -3.943682,5.20966 -4.120952,8.34691 -0.18121,3.20697 0.373344,5.40223 2.447276,9.68778 0.985057,2.03552 1.791013,3.75909 1.791013,3.83017 0,0.0711 -0.446981,0.69168 -0.993292,1.37912 -0.54631,0.68745 -1.696597,2.64375 -2.556193,4.34735 -1.157496,2.294 -1.702071,3.06177 -2.099421,2.95987 -0.295085,-0.0757 -2.521447,-1.47873 -4.947471,-3.11792 -13.951211,-9.42637 -25.448172,-22.22417 -32.509386,-36.18772 -7.592806,-15.01477 -9.334857,-29.05702 -4.68665,-37.777948 2.192859,-4.114223 6.654022,-7.031189 12.644173,-8.26749 1.644322,-0.33937 3.161279,-0.618986 3.371015,-0.621369 0.213629,-0.0024 0.476509,0.757215 0.597739,1.727281 1.735464,13.887026 3.72952,18.342636 9.941911,22.214656 11.084781,6.90883 32.584147,12.45301 57.519028,14.83278 7.42483,0.70862 30.65355,1.0052 39.00348,0.49798 27.26594,-1.65625 50.64796,-7.06706 64.46044,-14.9167 3.46555,-1.96948 5.41884,-4.00488 7.0091,-7.30373 1.65839,-3.44018 2.45922,-6.496661 3.19434,-12.191587 0.47174,-3.654565 0.68605,-4.535182 1.1037,-4.535182 1.17427,0 5.48874,1.412332 7.66978,2.510687 4.07304,2.051153 6.68418,5.5037 8.07915,10.682572 0.8779,3.2592 0.77967,11.25711 -0.19444,15.8319 -2.29537,10.77993 -8.53125,23.29216 -16.5285,33.1643 -3.04831,3.76296 -10.18599,10.97527 -13.96772,14.11376 -3.1982,2.65422 -8.97731,6.84412 -12.03558,8.72589 l -1.56797,0.96478 z"
         id="path16" /><path
         style="fill:#000000"
         d="m 118.29524,190.16695 c -9.55951,-0.66336 -19.472462,-2.36418 -27.934543,-4.7929 -4.92912,-1.41472 -6.429908,-1.938 -12.469806,-4.34782 -3.519942,-1.4044 -13.517753,-6.40821 -14.233054,-7.12351 -0.15919,-0.15919 2.005371,-4.67742 2.587686,-5.40145 0.2363,-0.2938 1.08844,0.0153 3.342609,1.21248 1.664001,0.88375 5.103394,2.48974 7.643096,3.56888 29.849912,12.68342 66.934562,13.14879 97.465182,1.22308 2.33602,-0.91248 11.68299,-5.29034 13.54352,-6.34339 0.10193,-0.0577 0.8826,1.21754 1.73482,2.83386 1.37826,2.61402 1.48535,2.96292 0.96907,3.15728 -0.31923,0.12018 -1.99044,1.01809 -3.71381,1.99535 -9.33011,5.29076 -24.01786,10.26669 -36.44637,12.34733 -9.44285,1.58081 -23.42382,2.29983 -32.4884,1.67081 z m 1.48424,-76.05381 c -0.72563,-0.0717 -3.0262,-0.29048 -5.11238,-0.48618 -7.7745,-0.72931 -18.646268,-2.91157 -28.035676,-5.62753 C 84.726648,107.44846 77.528077,105.14304 70.6346,102.87629 53.460159,97.228885 46.535807,95.51263 40.912566,95.509451 l -2.346025,-0.0013 -0.363287,-2.391277 c -0.199808,-1.315203 -0.45991,-3.244716 -0.578004,-4.287808 l -0.214717,-1.896531 h 2.108104 c 7.034792,0 13.619783,1.59089 32.76512,7.915832 13.111639,4.331623 19.666118,6.230063 26.825862,7.769823 10.902221,2.34462 17.970121,3.1136 28.585821,3.11008 16.88545,-0.006 30.4008,-2.68119 54.91693,-10.871727 14.4239,-4.818851 18.22743,-5.922035 24.57244,-7.127056 3.02959,-0.575369 11.43526,-0.849615 11.89749,-0.388171 0.22906,0.228664 -0.31869,5.850686 -0.71897,7.379541 -0.17144,0.654772 -0.4553,0.707898 -4.69101,0.877926 -7.19275,0.28873 -10.31488,1.057259 -28.4213,6.996067 -21.83621,7.16215 -30.40991,9.30261 -43.70266,10.91053 -4.0312,0.48762 -18.8092,0.90022 -21.76888,0.60779 z M 5.1674746,97.463385 c 0.00583,-1.929673 1.5678954,-6.344732 3.2414773,-9.161787 1.6882991,-2.841828 5.5009391,-6.949774 8.0683231,-8.693251 2.678905,-1.819209 6.188204,-3.379663 9.03553,-4.017761 2.737397,-0.613462 9.060382,-0.712184 11.710128,-0.182832 2.369111,0.473288 6.860237,2.00949 6.860237,2.346563 0,0.150009 -1.298711,0.273162 -2.886025,0.273673 -3.779854,0.0012 -8.106279,0.544228 -11.815805,1.483006 C 20.00404,81.88413 13.551915,86.7417 6.8501761,96.473891 l -1.687114,2.450008 z M 246.08952,95.657899 c -4.42894,-6.258652 -9.22064,-10.662749 -14.6621,-13.476071 -4.88025,-2.523168 -9.6128,-3.611672 -17.51689,-4.028947 -2.33859,-0.12346 -4.25198,-0.340036 -4.25198,-0.48128 0,-0.378845 3.45303,-1.612249 6.10188,-2.179557 3.39645,-0.727424 10.75521,-0.436364 13.85292,0.547923 7.38534,2.346665 12.9146,7.116144 16.45981,14.198038 1.35808,2.712904 2.73499,7.385206 2.4385,8.274666 -0.0708,0.212371 -1.16075,-1.072277 -2.42214,-2.854772 z"
         id="path15" /></g></g></svg>
