<?xml version="1.0" encoding="UTF-8" standalone="no"?>
<!-- Created with Inkscape (http://www.inkscape.org/) -->

<svg
   width="1000.0001"
   height="1000.0001"
   viewBox="0 0 264.58335 264.58335"
   version="1.1"
   id="svg1"
   xml:space="preserve"
   xmlns="http://www.w3.org/2000/svg"
   xmlns:svg="http://www.w3.org/2000/svg"><defs
     id="defs1" /><g
     id="layer1"><g
       id="g21"
       transform="translate(-2.2807169,11.150171)"><path
         style="fill:#c9a8b1"
         d="m 55.565786,146.1904 c 0.245363,-0.099 0.646865,-0.099 0.892227,0 0.245362,0.099 0.04461,0.18001 -0.446113,0.18001 -0.490725,0 -0.691476,-0.081 -0.446114,-0.18001 z m 11.96263,-0.011 c 0.347243,-0.0905 0.829045,-0.0845 1.070672,0.0132 0.241627,0.0978 -0.04248,0.1718 -0.631351,0.16453 -0.58887,-0.007 -0.786564,-0.0873 -0.439321,-0.17775 z m 130.621984,0 c 0.34724,-0.0905 0.82905,-0.0845 1.07067,0.0132 0.24163,0.0978 -0.0425,0.1718 -0.63135,0.16453 -0.58887,-0.007 -0.78656,-0.0873 -0.43932,-0.17775 z m 11.94905,0.011 c 0.24536,-0.099 0.64686,-0.099 0.89222,0 0.24537,0.099 0.0446,0.18001 -0.44611,0.18001 -0.49073,0 -0.69148,-0.081 -0.44611,-0.18001 z M 73.075735,145.82607 c 0.25763,-0.10309 0.565448,-0.0904 0.68404,0.0282 0.118592,0.11859 -0.0922,0.20294 -0.468419,0.18744 -0.415757,-0.0171 -0.500325,-0.10169 -0.215621,-0.21562 z m 119.915265,0 c 0.25763,-0.10309 0.56545,-0.0904 0.68404,0.0282 0.11859,0.11859 -0.0922,0.20294 -0.46842,0.18744 -0.41576,-0.0171 -0.50032,-0.10169 -0.21562,-0.21562 z m -4.28269,-0.35689 c 0.25763,-0.10309 0.56545,-0.0904 0.68404,0.0282 0.11859,0.11859 -0.0922,0.20294 -0.46842,0.18744 -0.41575,-0.0171 -0.50032,-0.10169 -0.21562,-0.21562 z m -64.59721,-5.71025 c 0.25763,-0.10309 0.56545,-0.0904 0.68404,0.0282 0.11859,0.11859 -0.0922,0.20294 -0.46842,0.18744 -0.41576,-0.0171 -0.50032,-0.10169 -0.21562,-0.21562 z m 17.84453,0 c 0.25763,-0.10309 0.56545,-0.0904 0.68404,0.0282 0.1186,0.11859 -0.0922,0.20294 -0.46841,0.18744 -0.41576,-0.0171 -0.50033,-0.10169 -0.21563,-0.21562 z m -13.58415,-0.34945 c 0.24537,-0.099 0.64687,-0.099 0.89223,0 0.24536,0.099 0.0446,0.18001 -0.44611,0.18001 -0.49073,0 -0.69148,-0.081 -0.44612,-0.18001 z m 8.92227,0 c 0.24536,-0.099 0.64686,-0.099 0.89223,0 0.24536,0.099 0.0446,0.18001 -0.44612,0.18001 -0.49072,0 -0.69147,-0.081 -0.44611,-0.18001 z M 22.775544,134.73859 c -0.443926,-0.56605 -0.431302,-0.57867 0.134746,-0.13474 0.343507,0.26939 0.624559,0.55044 0.624559,0.62455 0,0.29374 -0.293074,0.10468 -0.759305,-0.48981 z m 223.637526,-2.23056 c 0.96669,-0.98145 1.83792,-1.78446 1.93607,-1.78446 0.0981,0 -0.61249,0.80301 -1.57918,1.78446 -0.96669,0.98144 -1.83792,1.78445 -1.93606,1.78445 -0.0982,0 0.61248,-0.80301 1.57917,-1.78445 z M 19.563528,131.52658 c -0.443926,-0.56605 -0.431303,-0.57868 0.134746,-0.13475 0.343507,0.2694 0.624559,0.55045 0.624559,0.62456 0,0.29373 -0.293074,0.10468 -0.759305,-0.48981 z m 101.855382,-0.33655 c 0.34724,-0.0905 0.82904,-0.0845 1.07067,0.0132 0.24163,0.0978 -0.0425,0.17179 -0.63135,0.16452 -0.58887,-0.007 -0.78657,-0.0873 -0.43932,-0.17775 z m 25.33244,0.001 c 0.34351,-0.0898 0.90561,-0.0898 1.24912,0 0.34351,0.0898 0.0625,0.16321 -0.62456,0.16321 -0.68701,0 -0.96807,-0.0734 -0.62456,-0.16321 z m -31.91941,-0.35467 c 0.25763,-0.1031 0.56545,-0.0904 0.68404,0.0282 0.1186,0.11859 -0.0922,0.20294 -0.46842,0.18745 -0.41575,-0.0171 -0.50032,-0.1017 -0.21562,-0.21562 z m 38.90109,0 c 0.25763,-0.1031 0.56544,-0.0904 0.68404,0.0282 0.11859,0.11859 -0.0922,0.20294 -0.46842,0.18745 -0.41576,-0.0171 -0.50033,-0.1017 -0.21562,-0.21562 z m -43.54067,-0.3569 c 0.25763,-0.10309 0.56545,-0.0904 0.68404,0.0282 0.1186,0.11859 -0.0922,0.20294 -0.46841,0.18745 -0.41576,-0.0171 -0.50033,-0.1017 -0.21563,-0.21563 z m 48.53714,0 c 0.25763,-0.10309 0.56544,-0.0904 0.68404,0.0282 0.11859,0.11859 -0.0922,0.20294 -0.46842,0.18745 -0.41576,-0.0171 -0.50033,-0.1017 -0.21562,-0.21563 z m 93.60044,-9.60043 c 0.0171,-0.41576 0.1017,-0.50033 0.21562,-0.21562 0.1031,0.25763 0.0904,0.56545 -0.0282,0.68404 -0.11859,0.11859 -0.20294,-0.0922 -0.18745,-0.46842 z m 0.0282,-1.93316 c 0,-0.49072 0.081,-0.69148 0.18001,-0.44611 0.099,0.24536 0.099,0.64686 0,0.89222 -0.099,0.24537 -0.18001,0.0446 -0.18001,-0.44611 z M 20.322833,108.48468 c 0,-0.0614 0.521952,-0.58338 1.159894,-1.1599 l 1.159895,-1.04822 -1.04822,1.1599 c -0.977089,1.08118 -1.271569,1.32394 -1.271569,1.04822 z m 223.724927,-3.36801 c -0.44393,-0.56605 -0.4313,-0.57867 0.13474,-0.13475 0.34351,0.2694 0.62456,0.55045 0.62456,0.62456 0,0.29373 -0.29307,0.10468 -0.7593,-0.48981 z"
         id="path27" /><path
         style="fill:#b68795"
         d="m 57.178587,146.17944 c 0.347243,-0.0905 0.829045,-0.0845 1.070672,0.0132 0.241626,0.0978 -0.04248,0.1718 -0.631351,0.16453 -0.58887,-0.007 -0.786565,-0.0873 -0.439321,-0.17775 z m 8.027408,-0.005 c 0.443941,-0.0854 1.086344,-0.0821 1.427563,0.007 0.341219,0.0893 -0.02201,0.15917 -0.807165,0.15521 -0.78516,-0.004 -1.064338,-0.077 -0.620398,-0.16241 z m 134.904675,0 c 0.44394,-0.0854 1.08634,-0.0821 1.42756,0.007 0.34122,0.0893 -0.022,0.15917 -0.80716,0.15521 -0.78516,-0.004 -1.06434,-0.077 -0.6204,-0.16241 z m 8.38956,0.005 c 0.34724,-0.0905 0.82905,-0.0845 1.07067,0.0132 0.24163,0.0978 -0.0425,0.1718 -0.63135,0.16453 -0.58887,-0.007 -0.78656,-0.0873 -0.43932,-0.17775 z M 72.005063,145.82607 c 0.25763,-0.10309 0.565448,-0.0904 0.68404,0.0282 0.118592,0.11859 -0.0922,0.20294 -0.468419,0.18744 -0.415757,-0.0171 -0.500325,-0.10169 -0.215621,-0.21562 z m 122.056607,0 c 0.25763,-0.10309 0.56545,-0.0904 0.68404,0.0282 0.11859,0.11859 -0.0922,0.20294 -0.46842,0.18744 -0.41575,-0.0171 -0.50032,-0.10169 -0.21562,-0.21562 z m -66.73855,-6.42403 c 0.25763,-0.10309 0.56545,-0.0904 0.68404,0.0282 0.11859,0.11859 -0.0922,0.20294 -0.46842,0.18744 -0.41576,-0.0171 -0.50033,-0.10169 -0.21562,-0.21562 z m 11.4205,0 c 0.25763,-0.10309 0.56545,-0.0904 0.68404,0.0282 0.11859,0.11859 -0.0922,0.20294 -0.46842,0.18744 -0.41576,-0.0171 -0.50033,-0.10169 -0.21562,-0.21562 z m -6.62479,-7.87245 c 1.32496,-0.0687 3.49307,-0.0687 4.81803,0 1.32496,0.0687 0.2409,0.12485 -2.40901,0.12485 -2.64992,0 -3.73397,-0.0562 -2.40902,-0.12485 z m -12.48438,-0.33956 c 0.34725,-0.0905 0.82905,-0.0845 1.07068,0.0132 0.24162,0.0978 -0.0425,0.17179 -0.63136,0.16452 -0.58886,-0.007 -0.78656,-0.0873 -0.43932,-0.17775 z m 29.0798,0.011 c 0.24536,-0.099 0.64687,-0.099 0.89223,0 0.24536,0.099 0.0446,0.18001 -0.44612,0.18001 -0.49072,0 -0.69147,-0.081 -0.44611,-0.18001 z m -34.95298,-0.36432 c 0.25763,-0.1031 0.56545,-0.0904 0.68404,0.0282 0.11859,0.11859 -0.0922,0.20294 -0.46842,0.18745 -0.41575,-0.0171 -0.50032,-0.1017 -0.21562,-0.21562 z m 41.04243,0 c 0.25763,-0.1031 0.56545,-0.0904 0.68404,0.0282 0.11859,0.11859 -0.0922,0.20294 -0.46842,0.18745 -0.41576,-0.0171 -0.50033,-0.1017 -0.21562,-0.21562 z m -45.68201,-0.3569 c 0.25763,-0.10309 0.56545,-0.0904 0.68404,0.0282 0.11859,0.11859 -0.0922,0.20294 -0.46842,0.18745 -0.41575,-0.0171 -0.50032,-0.1017 -0.21562,-0.21563 z"
         id="path26" /><path
         style="fill:#aa7584"
         d="m 21.009602,132.95414 -0.865215,-0.98145 0.98145,0.86521 c 0.917312,0.80868 1.145115,1.09769 0.865215,1.09769 -0.06393,0 -0.505581,-0.44165 -0.98145,-0.98145 z"
         id="path25" /><path
         style="fill:#935062"
         d="m 60.037688,146.16399 c 0.9383,-0.0738 2.383707,-0.0729 3.212016,0.002 0.828309,0.0749 0.06061,0.1352 -1.705999,0.13411 -1.766609,-10e-4 -2.444316,-0.0623 -1.506017,-0.13609 z m 143.470052,0 c 0.9383,-0.0738 2.3837,-0.0729 3.21201,0.002 0.82831,0.0749 0.0606,0.1352 -1.706,0.13411 -1.7666,-10e-4 -2.44431,-0.0623 -1.50601,-0.13609 z M 70.555194,145.83351 c 0.245363,-0.099 0.646865,-0.099 0.892227,0 0.245362,0.099 0.04461,0.18001 -0.446113,0.18001 -0.490725,0 -0.691476,-0.081 -0.446114,-0.18001 z m 124.554846,0 c 0.24536,-0.099 0.64686,-0.099 0.89222,0 0.24537,0.099 0.0446,0.18001 -0.44611,0.18001 -0.49072,0 -0.69147,-0.081 -0.44611,-0.18001 z m -55.29575,-6.43147 c 0.25763,-0.10309 0.56545,-0.0904 0.68404,0.0282 0.11859,0.11859 -0.0922,0.20294 -0.46842,0.18744 -0.41576,-0.0171 -0.50032,-0.10169 -0.21562,-0.21562 z m -7.69546,-0.36872 c 0.5398,-0.0818 1.42311,-0.0818 1.9629,0 0.5398,0.0818 0.0982,0.14868 -0.98145,0.14868 -1.07959,0 -1.52124,-0.0669 -0.98145,-0.14868 z m -5.35336,-7.4947 c 0.5398,-0.0818 1.42311,-0.0818 1.9629,0 0.5398,0.0818 0.0981,0.14868 -0.98145,0.14868 -1.07959,0 -1.52124,-0.0669 -0.98145,-0.14868 z m 13.74669,-0.003 c 0.64145,-0.0794 1.60506,-0.0778 2.14134,0.004 0.53628,0.0814 0.0114,0.14642 -1.16629,0.14441 -1.17773,-0.002 -1.61651,-0.0686 -0.97505,-0.14806 z m -22.8474,-0.3346 c 0.24537,-0.099 0.64687,-0.099 0.89223,0 0.24536,0.099 0.0446,0.18001 -0.44611,0.18001 -0.49073,0 -0.69148,-0.081 -0.44612,-0.18001 z m 32.83394,0 c 0.24537,-0.099 0.64687,-0.099 0.89223,0 0.24536,0.099 0.0446,0.18001 -0.44611,0.18001 -0.49073,0 -0.69148,-0.081 -0.44612,-0.18001 z m -38.16499,-0.36432 c 0.25763,-0.1031 0.56545,-0.0904 0.68404,0.0282 0.11859,0.11859 -0.0922,0.20294 -0.46842,0.18745 -0.41576,-0.0171 -0.50033,-0.1017 -0.21562,-0.21562 z m 43.89755,0 c 0.25763,-0.1031 0.56545,-0.0904 0.68404,0.0282 0.11859,0.11859 -0.0922,0.20294 -0.46842,0.18745 -0.41576,-0.0171 -0.50032,-0.1017 -0.21562,-0.21562 z m -48.18024,-0.3569 c 0.25763,-0.10309 0.56545,-0.0904 0.68404,0.0282 0.11859,0.11859 -0.0922,0.20294 -0.46842,0.18745 -0.41576,-0.0171 -0.50032,-0.1017 -0.21562,-0.21563 z m 52.46293,0 c 0.25763,-0.10309 0.56545,-0.0904 0.68404,0.0282 0.11859,0.11859 -0.0922,0.20294 -0.46842,0.18745 -0.41576,-0.0171 -0.50032,-0.1017 -0.21562,-0.21563 z M 15.423567,120.37374 c 0,-0.8833 0.0696,-1.24465 0.154666,-0.803 0.08507,0.44165 0.08507,1.16435 0,1.60601 -0.08507,0.44165 -0.154666,0.0803 -0.154666,-0.80301 z"
         id="path24" /><path
         style="fill:#85384e"
         d="m 246.20761,107.25801 -0.86521,-0.98145 0.98145,0.86522 c 0.5398,0.47587 0.98145,0.91752 0.98145,0.98145 0,0.2799 -0.28901,0.0521 -1.09769,-0.86522 z"
         id="path23" /><path
         style="fill:#690a25"
         d="m 51.907657,145.66582 c -16.80167,-2.11019 -30.118577,-9.15758 -34.657167,-18.34079 -1.36223,-2.75628 -1.388791,-2.88597 -1.388791,-6.78124 0,-3.95573 0.0059,-3.98318 1.52119,-7.0411 2.552356,-5.15087 8.034794,-9.97791 15.609562,-13.743519 2.847384,-1.415506 7.571403,-3.168069 7.822346,-2.90201 0.07275,0.07713 0.486935,2.549256 0.920407,5.493609 0.433473,2.94434 1.09838,6.44041 1.477571,7.76904 0.844795,2.96002 1.615485,3.59545 8.337991,6.87456 40.297556,19.65639 125.868414,19.63404 166.025194,-0.0434 2.98342,-1.46192 5.96887,-3.17692 6.63433,-3.81111 1.39672,-1.3311 1.99114,-3.34557 2.92031,-9.89691 0.32016,-2.25733 0.66933,-4.611485 0.77594,-5.231451 l 0.19384,-1.127209 2.37542,0.808965 c 7.50684,2.556495 15.66827,8.370465 19.04194,13.564915 7.57425,11.66213 -1.18083,24.8393 -20.76337,31.25072 -13.64565,4.46766 -26.01541,4.70337 -54.7901,1.04405 -6.08499,-0.77384 -15.39984,-1.95995 -20.69966,-2.63581 -18.32526,-2.3369 -21.80815,-2.33754 -39.97176,-0.007 -26.422079,3.38964 -32.264233,4.093 -38.250678,4.6051 -6.909363,0.59106 -19.001915,0.66993 -23.134515,0.15091 z"
         id="path22" /><path
         style="fill:#000000"
         d="m 122.9289,120.67732 c -9.18854,-0.72659 -21.06449,-2.67876 -30.335707,-4.98658 -2.355478,-0.58634 -9.181012,-2.49723 -15.167853,-4.24643 -11.413625,-3.33476 -16.672633,-4.66924 -20.946468,-5.31517 -3.218297,-0.48641 -9.405864,-0.50165 -11.896527,-0.0293 -1.040011,0.19724 -1.957772,0.29177 -2.039467,0.21007 -0.296281,-0.29628 -1.588804,-9.154765 -1.405464,-9.632541 0.567889,-1.479896 12.90623,-1.621734 19.69251,-0.226379 3.965667,0.815397 4.897832,1.069588 17.130752,4.67138 16.336883,4.81013 29.658704,7.63459 42.291544,8.96653 6.58949,0.69476 22.76375,0.58836 29.44348,-0.19369 12.7701,-1.4951 24.60631,-4.03098 39.42302,-8.44627 16.32833,-4.865739 20.18587,-5.706602 27.33845,-5.959191 4.24264,-0.149827 6.01088,-0.06127 8.38593,0.419974 1.65531,0.335409 3.06806,0.668238 3.13944,0.73962 0.15257,0.152568 -1.32372,9.514567 -1.53341,9.724257 -0.0784,0.0784 -1.36383,-0.0544 -2.85644,-0.29517 -3.6299,-0.58557 -11.15208,-0.23316 -15.70715,0.73587 -1.95373,0.41563 -7.17325,1.80975 -11.59894,3.09804 -25.45993,7.41124 -35.60408,9.5279 -51.74793,10.79765 -5.52698,0.43471 -15.89759,0.41904 -21.60977,-0.0327 z"
         id="path21" /></g></g></svg>
