<?xml version="1.0" encoding="UTF-8" standalone="no"?>
<!-- Created with Inkscape (http://www.inkscape.org/) -->

<svg
   width="1080"
   height="1080"
   viewBox="0 0 1080 1080"
   version="1.1"
   id="svg1"
   inkscape:export-filename="E.svg"
   inkscape:export-xdpi="96"
   inkscape:export-ydpi="96"
   xml:space="preserve"
   xmlns:inkscape="http://www.inkscape.org/namespaces/inkscape"
   xmlns:sodipodi="http://sodipodi.sourceforge.net/DTD/sodipodi-0.dtd"
   xmlns="http://www.w3.org/2000/svg"
   xmlns:svg="http://www.w3.org/2000/svg"><sodipodi:namedview
     id="namedview1"
     pagecolor="#ffffff"
     bordercolor="#000000"
     borderopacity="0.25"
     inkscape:showpageshadow="2"
     inkscape:pageopacity="0.0"
     inkscape:pagecheckerboard="0"
     inkscape:deskcolor="#d1d1d1"
     inkscape:document-units="px"><inkscape:page
       x="0"
       y="0"
       width="1080"
       height="1080"
       id="page2"
       margin="0"
       bleed="0" /></sodipodi:namedview><defs
     id="defs1" /><g
     inkscape:label="Camada 1"
     inkscape:groupmode="layer"
     id="layer1"><path
       style="fill:#000000;fill-opacity:1;fill-rule:nonzero;stroke:none;stroke-width:0.762635"
       d="m 974.95574,461.4205 c -2.2879,-1.77948 -2.2879,-1.77948 -0.50837,0.50842 1.77946,2.28791 2.79628,3.05054 2.79628,1.77948 0,-0.25421 -1.01682,-1.27106 -2.28791,-2.2879 z m -855.93059,8.89741 c -2.54211,2.2879 -4.57581,4.32159 -4.57581,4.57581 0,1.01684 1.27106,0 5.08424,-4.06739 4.06738,-4.57581 4.06738,-4.57581 4.06738,-4.57581 z m 887.96125,42.96176 c -0.2542,-1.01684 -0.7626,-0.25421 -0.7626,1.77948 0,1.77949 0.5084,2.54212 0.7626,1.52527 0.5085,-0.76263 0.5085,-2.2879 0,-3.30475 z m 0,8.38899 c -0.5084,-1.27106 -0.7626,-0.76264 -0.7626,0.76263 0,1.52527 0.2542,2.28791 0.7626,1.77948 0.5085,-0.50842 0.5085,-1.52527 0,-2.54211 z M 649.05643,559.5462 c -0.50843,-0.50843 -1.52527,-0.50843 -2.54212,-0.25422 -1.01685,0.50842 -0.76263,0.76263 0.76264,0.76263 1.52527,0.25422 2.2879,-0.25421 1.77948,-0.50841 z m -186.59135,0 c -0.25421,-0.50843 -1.52527,-0.50843 -2.54211,-0.25422 -1.01685,0.50842 -0.76264,0.76263 0.76263,0.76263 1.52527,0.25422 2.28791,-0.25421 1.77948,-0.50841 z m 167.52548,1.27105 c -0.50843,-0.50842 -1.77948,-0.50842 -2.79634,-0.25421 -1.01684,0.50843 -0.76263,0.76263 1.01686,1.01684 1.27105,0 2.03368,-0.25421 1.77948,-0.76263 z m -149.47645,0 c -0.50843,-0.50842 -1.77948,-0.50842 -2.79633,-0.25421 -1.01685,0.50843 -0.76264,0.76263 1.01685,1.01684 1.27105,0 2.03369,-0.25421 1.77948,-0.76263 z m 124.81792,1.27106 c -1.52527,-0.50843 -3.55897,-0.50843 -4.83003,0 -1.27105,0.25421 -0.25421,0.50843 2.28791,0.50843 2.79633,0 3.81317,-0.25422 2.54212,-0.50843 z m -98.1257,0 c -1.01684,-0.25421 -2.79633,-0.50843 -4.06738,0 -1.27106,0.25421 -0.50843,0.50843 1.52527,0.76263 2.2879,0 3.55896,-0.2542 2.54211,-0.76263 z m -395.04489,0.76263 c -2.28791,-1.77947 -2.28791,-1.77947 -0.50843,0.50843 1.52527,1.77948 2.28791,2.54211 2.79633,2.2879 0,0 0,0 0,0 0,-0.25421 0,-0.25421 0,-0.50842 0,-0.25421 -1.01684,-1.27106 -2.2879,-2.28791 z m 878.80964,-2.54211 c -0.50837,0 -3.81318,3.05054 -7.62635,6.86371 -3.55891,3.81318 -6.35527,6.86372 -5.84682,6.86372 0.25419,0 3.55891,-3.05054 7.37209,-6.86372 3.81317,-3.81317 6.35534,-6.86371 6.10108,-6.86371 z M 124.6178,575.0531 c -2.2879,-1.52527 -2.2879,-1.52527 -0.50841,0.50843 1.77948,2.2879 2.79632,3.05054 2.79632,2.03369 0,-0.25421 -1.01684,-1.27106 -2.28791,-2.54212 z m 442.83669,18.55743 c -0.76263,-0.25419 -2.2879,-0.25419 -3.30475,0 -1.01685,0.50845 -0.25421,0.76263 1.77948,0.76263 1.77948,0 2.54212,-0.25418 1.52527,-0.76263 z m -34.31857,0 c -0.76264,-0.25419 -2.28791,-0.25419 -3.30475,0 -1.01685,0.50845 -0.25422,0.76263 1.77948,0.76263 1.77948,0 2.54211,-0.25418 1.52527,-0.76263 z m 51.60497,1.52527 c -0.50843,-0.50838 -1.77949,-0.50838 -2.79634,-0.25419 -1.01684,0.50845 -0.76263,0.76264 1.01685,1.01682 1.27106,0 2.03369,-0.25418 1.77949,-0.76263 z m -68.63715,0 c -0.50842,-0.50838 -1.77948,-0.50838 -2.54212,-0.25419 -1.27105,0.50845 -1.01684,0.76264 0.76264,1.01682 1.27106,0 2.2879,-0.25418 1.77948,-0.76263 z m 248.11056,21.86222 c -0.25421,-0.50844 -1.52527,-0.50844 -2.54211,0 -1.01685,0.25419 -0.76264,0.76264 0.76263,0.76264 1.52527,0 2.28791,-0.25419 1.77948,-0.76264 z m 16.52376,1.52527 c -0.50842,-0.50844 -1.52527,-0.50844 -2.54212,-0.25418 -1.01684,0.50837 -0.76263,0.76263 0.76264,0.76263 1.52527,0.25419 2.2879,-0.25426 1.77948,-0.50845 z m -460.88571,0 c -0.25421,-0.50844 -1.52527,-0.50844 -2.54212,-0.25418 -1.01684,0.50837 -0.76263,0.76263 0.76264,0.76263 1.52527,0.25419 2.2879,-0.25426 1.77948,-0.50845 z m 527.48916,1.27109 c -1.01684,-0.50845 -2.54211,-0.50845 -3.30475,0 -1.01685,0.25418 -0.25422,0.50837 1.52527,0.50837 2.03369,0 2.79632,-0.25419 1.77948,-0.50837 z m -45.24967,0 c -1.01685,-0.50845 -2.79633,-0.50845 -4.06739,-0.25426 -1.27105,0.50844 -0.50842,0.76263 1.77949,0.76263 2.03368,0 3.30474,-0.25419 2.2879,-0.50837 z m -502.068,0 c -0.76263,-0.50845 -2.79632,-0.50845 -4.06738,-0.25426 -1.27106,0.50844 -0.50843,0.76263 1.77948,0.76263 2.2879,0 3.30475,-0.25419 2.2879,-0.50837 z m -46.52073,0 c -1.01685,-0.50845 -2.54212,-0.50845 -3.55896,0 -0.76263,0.25418 0,0.50837 1.77948,0.50837 1.77948,0 2.54211,-0.25419 1.77948,-0.50837 z"
       id="path1" /><path
       style="fill:#000000;fill-opacity:1;fill-rule:nonzero;stroke:none;stroke-width:0.762635"
       d="m 458.3977,559.5462 c -0.50843,-0.50843 -1.52527,-0.50843 -2.54212,-0.25422 -0.50842,0.25422 -0.76263,0.50842 -0.50842,0.50842 0,0.25421 0.50842,0.25421 1.27106,0.25421 0.50842,0 1.01684,0 1.27105,0 0.50843,0 0.76264,-0.25421 0.50843,-0.50841 z m 175.66024,1.27105 c -0.50842,-0.50842 -1.77948,-0.50842 -2.54211,-0.25421 -1.01685,0.50843 -1.01685,0.76263 0,0.76263 0,0.25421 0.2542,0.25421 0.76263,0.25421 0.76263,0 1.52527,-0.25421 1.77948,-0.25421 0.25422,-0.2542 0.25422,-0.2542 0,-0.50842 z m -157.86543,0 c -0.25421,-0.50842 -1.52527,-0.50842 -2.54212,-0.25421 -0.50842,0.25421 -0.76263,0.50843 -0.50842,0.76263 0,0 0,0 0,0 0.25422,0 0.50842,0.25421 1.27106,0.25421 0.50843,0 1.01684,0 1.27106,0 0.76264,-0.25421 1.01684,-0.50841 0.50842,-0.76263 z m 135.2406,1.27106 c -1.01685,-0.25421 -2.54212,-0.25421 -3.55897,0 -0.76263,0.25421 -0.25421,0.50843 1.01685,0.76263 0.25421,0 0.50842,0 0.76263,0 0.76264,0 1.52527,0 1.77949,-0.2542 0.50842,0 0.50842,-0.25422 0,-0.50843 z m -111.09049,0 c -1.01685,-0.25421 -2.79633,-0.50843 -4.06739,0 -1.27106,0.25421 -0.50842,0.50843 1.52527,0.76263 2.28791,0 3.55896,-0.2542 2.54212,-0.76263 z m 62.28185,1.27106 c -5.08423,-0.25422 -13.21901,-0.25422 -18.30324,0 -5.08423,0.25421 -1.01685,0.50842 9.15162,0.50842 10.16847,0 14.23585,-0.25421 9.15162,-0.50842 z m 9.66004,30.25116 c 0,0 0,0 -0.25421,0 -0.25421,-0.25419 -1.01684,-0.25419 -1.77948,-0.25419 -0.25421,0.25419 -0.50842,0.25419 -0.50842,0.25419 -1.27106,0.50845 -0.76264,0.76263 0.76263,0.76263 1.52527,0 2.28791,-0.25418 1.77948,-0.76263 z m -43.97861,0 c 0,0 -0.25422,-0.25419 -0.50843,-0.25419 -0.50842,0 -1.01684,0 -1.77947,0.25419 0,0 -0.25422,0 -0.25422,0 -1.01684,0.50845 -0.76264,0.76263 0.76263,0.76263 1.52527,0 2.28791,-0.25418 1.77949,-0.76263 z m 256.49955,24.91276 c -0.25421,-0.50844 -1.52527,-0.50844 -2.54212,-0.25418 -1.01685,0.50837 -0.76263,0.76263 0.76264,0.76263 1.52527,0.25419 2.2879,-0.25426 1.77948,-0.50845 z m -469.02049,0 c -0.50842,-0.50844 -1.52526,-0.50844 -2.54211,-0.25418 -1.27106,0.50837 -0.76263,0.76263 0.76264,0.76263 1.52527,0.25419 2.2879,-0.25426 1.77947,-0.50845 z m 526.21811,1.27109 c -1.01685,-0.50845 -2.79634,-0.50845 -4.32161,-0.25426 -1.27105,0.50844 -0.50841,0.76263 1.77949,0.76263 2.28791,0 3.30475,-0.25419 2.54212,-0.50837 z m -31.01383,-0.25426 c -1.27105,-0.25419 -3.81317,-0.25419 -5.59265,0 -1.52527,0.50844 -0.50843,0.76263 2.54211,0.76263 3.05054,0 4.3216,-0.25419 3.05054,-0.76263 z m -518.33753,0 c -1.52527,-0.25419 -3.81318,-0.25419 -5.59266,0 -1.77948,0.50844 -0.50842,0.76263 2.2879,0.76263 3.05054,0 4.57581,-0.25419 3.30476,-0.76263 z m -32.28489,0.25426 c -1.01684,-0.50845 -2.79632,-0.50845 -4.06738,-0.25426 -1.52527,0.50844 -0.76264,0.76263 1.52527,0.76263 2.2879,0 3.30475,-0.25419 2.54211,-0.50837 z"
       id="path2" /><path
       style="fill:#000000;fill-opacity:1;fill-rule:nonzero;stroke:none;stroke-width:0.762635"
       d="m 121.05885,572.51099 c -0.25422,0 -2.0337,-1.52527 -3.81318,-3.55897 -2.79633,-3.30475 -2.79633,-3.30475 -2.79633,-3.30475 -0.50842,-0.50842 -0.50842,-0.50842 -0.50842,-0.50842 0.50842,0.50842 0.50842,0.50842 0.50842,0.50842 3.30475,2.79633 3.30475,2.79633 3.30475,2.79633 3.30476,3.05054 4.3216,4.06739 3.30476,4.06739 z"
       id="path3" /><path
       style="fill:#000000;fill-opacity:1;fill-rule:nonzero;stroke:none;stroke-width:0.762635"
       d="m 96.400313,517.34706 c -0.508418,-1.77948 -0.762635,-0.25421 -0.762635,3.05054 0,3.55896 0.254217,4.83002 0.762635,3.05054 0.254217,-1.52527 0.254217,-4.3216 0,-6.10108 z M 655.92014,559.5462 c 0,0 0,0 0,0 -0.50842,-0.50843 -1.52527,-0.50843 -2.54211,-0.25422 -0.50843,0.25422 -0.76264,0.25422 -0.76264,0.50842 0,0.25421 0.50842,0.25421 1.52527,0.25421 1.52527,0.25422 2.28791,-0.25421 1.77948,-0.50841 z m -201.58983,0 c -0.50842,-0.50843 -1.52527,-0.50843 -2.54212,-0.25422 -0.25421,0 -0.25421,0.25422 -0.50842,0.25422 -0.50842,0.2542 0,0.50841 1.27106,0.50841 1.01685,0.25422 1.77948,0 1.77948,-0.25421 0.25421,0 0.25421,-0.2542 0,-0.2542 z m 185.32029,1.27105 c 0,0 0,0 -0.25422,0 -0.25421,-0.50842 -1.52527,-0.50842 -2.54211,-0.25421 -0.25421,0.25421 -0.50843,0.50843 -0.50843,0.50843 -0.25421,0.2542 0.25422,0.50841 1.27106,0.50841 1.52527,0 2.28791,-0.25421 2.0337,-0.76263 z m -168.79654,0 c -0.50841,-0.50842 -1.77947,-0.50842 -2.79632,-0.25421 0,0.25421 -0.25422,0.25421 -0.25422,0.25421 -0.50841,0.50842 -0.2542,0.76263 1.27107,0.76263 1.01684,0 1.77947,-0.25421 1.77947,-0.50841 z m 147.69697,1.52527 c 0,-0.25421 -0.25421,-0.25421 -0.25421,-0.25421 -1.01685,-0.25421 -2.54212,-0.25421 -3.55896,0 -0.25421,0.25421 -0.25421,0.25421 -0.25421,0.50843 0.25421,0 1.01684,0.2542 2.03369,0.2542 1.77948,0 2.54212,-0.2542 2.03369,-0.50842 z m -126.34319,-0.25421 c -1.01684,-0.25421 -2.54211,-0.25421 -3.55896,0 0,0 -0.25421,0 -0.25421,0.25421 -0.50842,0.25422 0.25421,0.50842 2.03369,0.50842 1.01685,0 1.77948,-0.2542 2.0337,-0.2542 0,-0.25422 0,-0.25422 -0.25422,-0.50843 z m 92.53305,1.27106 c -2.0337,-0.25422 -5.84687,-0.25422 -8.38899,0 0,0 0,0 0,0 -1.52527,0.25421 -1.27106,0.50842 0.25421,0.50842 0,0 0,0 0,0 0.76264,0 2.0337,0 3.55897,0 3.30474,0 5.08422,0 5.33844,-0.25421 0,0 -0.25422,-0.25421 -0.76263,-0.25421 z m -53.63867,0 c -2.03368,-0.25422 -5.33844,-0.25422 -7.37213,0 -0.76263,0.25421 -1.01685,0.25421 -1.01685,0.25421 0.25422,0.25421 2.0337,0.25421 4.57581,0.25421 1.52527,0 2.79633,0 3.55896,0 0,0 0,0 0,0 1.52527,0 1.77948,-0.25421 0.25421,-0.50842 z m 20.59115,28.72589 c -2.03369,-0.25419 -5.33845,-0.25419 -7.37214,0 -1.52527,0.25426 -1.01685,0.50845 1.01685,0.50845 0,0 0,0 0,0 0.76263,0.25418 1.52527,0.25418 2.54211,0.25418 1.27106,0 2.28791,0 3.05054,-0.25418 1.77949,0 2.28791,-0.25419 0.76264,-0.50845 z m 24.65853,1.52527 c -0.50842,-0.25419 -1.52527,-0.50837 -2.54212,0 0,0 -0.25421,0 -0.25421,0 -0.76263,0.50845 -0.50843,0.76263 1.01684,0.76263 1.27107,0 2.0337,0 2.0337,-0.50837 z m 213.28356,24.65858 c -0.2542,0 -0.50841,0 -0.76263,-0.25426 -0.25421,0 -0.50842,0 -1.01684,0 -0.50843,0 -1.01685,0.25426 -1.52527,0.25426 -1.01685,0.50837 -0.25421,0.76263 1.77947,0.76263 1.77949,0 2.54213,-0.25426 1.52527,-0.76263 z m -478.68051,0 c -0.25422,0 -0.50843,-0.25426 -1.01686,-0.25426 -0.50841,0 -1.27105,0 -1.77947,0.25426 -0.25421,0 -0.50843,0 -0.50843,0 -1.01684,0.50837 -0.25421,0.76263 1.77949,0.76263 1.77948,0 2.54211,-0.25426 1.52527,-0.76263 z m 519.8628,1.27101 c -3.05054,-0.25419 -8.64319,-0.25419 -12.20216,0 -3.55896,0.25426 -1.01684,0.50844 5.84687,0.50844 6.60951,0 9.66005,-0.25418 6.35529,-0.50844 z m -551.38505,0 c -3.05054,-0.25419 -8.6432,-0.25419 -12.20216,0 -3.55896,0.25426 -1.01685,0.50844 5.84687,0.50844 6.6095,0 9.66004,-0.25418 6.35529,-0.50844 z"
       id="path4" /><path
       style="fill:#000000;fill-opacity:1;fill-rule:nonzero;stroke:none;stroke-width:0.762635"
       d="m 986.90372,473.36845 c 0,1.01684 -1.01682,0.25421 -4.32163,-3.30476 -3.30472,-3.81317 -3.30472,-3.81317 -3.30472,-3.81317 3.81317,3.30475 3.81317,3.30475 3.81317,3.30475 2.03372,1.77948 3.81318,3.55896 3.81318,3.81318 z"
       id="path5" /><path
       style="fill:#000000;fill-opacity:1;fill-rule:nonzero;stroke:none;stroke-width:0.762635"
       d="m 915.72448,605.5585 c -36.86075,11.94797 -71.43351,16.01533 -126.85165,12.45635 -0.25421,0 -0.50842,0 -1.01684,0 -23.38748,-1.52527 -50.33391,-4.32155 -82.873,-8.38899 -23.38747,-3.05054 -59.23131,-7.62635 -79.56824,-10.16844 -20.08272,-2.54209 -35.33542,-4.32162 -48.80864,-5.59263 -1.01684,0 -2.0337,0 -3.05054,-0.25426 -0.50843,0 -1.01684,0 -1.52527,0 -0.50843,0 -1.27106,0 -1.77948,-0.25419 -6.86371,-0.25418 -12.96479,-0.50845 -19.32009,-0.76263 -1.77948,0 -3.81317,0 -5.59265,0 0,0 0,0 0,0 -5.84687,0.25418 -11.43953,0.50845 -17.54061,0.76263 -0.50842,0 -1.01684,0 -1.77947,0.25419 -14.49007,1.01689 -31.26804,2.79635 -54.14708,5.84689 -101.43045,12.96479 -124.05529,15.76115 -146.93434,17.5406 -4.57581,0.50845 -9.66004,0.76264 -14.99849,1.01683 -0.50841,0 -1.27105,0 -1.77947,0.25426 -26.1838,1.01682 -59.23132,1.01682 -72.19611,-0.50845 -64.56976,-8.1348 -115.6663,-35.33539 -133.2069,-70.67084 -5.338445,-10.42267 -5.338445,-10.9311 -5.338445,-25.92959 0,-15.2527 0,-15.2527 5.846865,-27.20064 9.91425,-19.5743 30.75961,-38.13174 59.99395,-52.62181 10.9311,-5.59266 28.98012,-12.20216 29.99697,-11.18531 0.25422,0.25421 2.03369,9.66004 3.55896,21.09957 1.77948,11.1853 4.3216,24.65852 5.59266,29.74276 3.30475,11.43952 6.35529,13.98164 32.28488,26.438 55.16393,26.94644 132.69848,44.48705 216.58832,52.1134 1.01685,0 2.03369,0.2542 3.05054,0.2542 0.25421,0 0.50842,0 1.01685,0 0.76263,0.25421 1.77948,0.25421 2.54211,0.25421 3.30476,0.25422 6.60951,0.50843 9.91425,0.76264 1.01686,0.25422 2.0337,0.25422 3.05054,0.25422 0.76264,0 1.52527,0.2542 2.28791,0.2542 0,0 0,0 0,0 0.76263,0 1.77949,0 2.54212,0.25421 4.32159,0.25422 8.38898,0.50843 12.71058,0.76264 1.27106,0 2.79633,0 4.06739,0.25422 10.16846,0.50841 20.08272,0.76263 30.25118,1.01684 2.79633,0.25421 5.33844,0.25421 8.13477,0.25421 0,0 0,0 0,0 15.2527,0.25421 30.5054,0.25421 45.7581,0 0,0 0,0 0,0 3.05054,0 5.84687,-0.25421 8.89741,-0.25421 7.88056,-0.25421 15.76112,-0.50843 23.38747,-0.76264 1.01685,-0.2542 1.77948,-0.2542 2.54212,-0.2542 1.01684,0 2.03369,0 3.05054,0 1.27105,-0.25422 2.79632,-0.25422 4.06738,-0.25422 4.3216,-0.25421 8.64319,-0.50842 12.9648,-1.01685 0.76263,0 1.52526,0 2.54211,0 0.76263,0 1.52527,-0.2542 2.2879,-0.2542 1.01686,0 2.0337,-0.25422 3.30476,-0.25422 4.32159,-0.25421 8.64319,-0.76264 12.96479,-1.01685 1.27106,-0.2542 2.28791,-0.2542 3.30475,-0.2542 83.88984,-7.88057 161.4244,-25.16696 216.84251,-52.1134 11.43952,-5.84686 22.87905,-12.20216 25.42121,-14.74427 5.33845,-5.08423 7.62635,-12.96479 11.18527,-38.13175 1.27108,-8.64319 2.54216,-17.5406 3.05055,-20.08271 0.76264,-4.3216 0.76264,-4.3216 0.76264,-4.3216 9.15161,3.05054 9.15161,3.05054 9.15161,3.05054 28.72595,9.91425 59.99398,32.28487 72.95877,52.3676 29.2343,44.74124 -4.32162,95.32939 -79.56822,119.98789 z"
       id="path6" /><path
       style="fill:#000000;fill-opacity:1;fill-rule:nonzero;stroke:none;stroke-width:0.762635"
       d="m 906.82703,466.75894 c -0.50844,0.25421 -5.33844,-0.25421 -11.18533,-1.27106 -13.72743,-2.2879 -42.70754,-0.76263 -60.24814,2.79633 -7.62635,1.77948 -27.45486,7.11793 -44.48703,11.94795 -97.87148,28.4717 -137.02008,36.60648 -199.04772,41.4365 -21.09957,1.77948 -61.0108,1.77948 -82.873,0 -35.33542,-2.79633 -81.09351,-10.42268 -116.68314,-19.06588 -9.15162,-2.2879 -35.33542,-9.66004 -58.21447,-16.52375 -43.97861,-12.71058 -64.06133,-17.79482 -80.58509,-20.33693 -12.45637,-1.77949 -36.09805,-2.0337 -45.7581,0 -4.06738,0.76263 -7.37213,1.01684 -7.88056,0.76263 -1.01684,-1.27106 -6.10108,-35.33542 -5.33844,-37.1149 2.2879,-5.59265 49.57127,-6.10108 75.75507,-0.76263 15.2527,3.05054 18.81166,4.06738 65.84082,17.79481 62.79027,18.55745 113.88681,29.48855 162.44124,34.57279 25.42116,2.54211 87.4488,2.2879 113.12418,-0.76264 49.06284,-5.84687 94.56673,-15.50691 151.51014,-32.53909 62.79027,-18.55745 77.53454,-21.8622 105.24364,-22.87905 16.26952,-0.50842 22.87905,-0.25421 32.03067,1.52527 6.35526,1.52527 11.94791,2.79633 12.20217,3.05054 0.50838,0.50843 -5.08427,36.35227 -5.84691,37.36911 z"
       id="path7" /><path
       style="fill:#efffd7;fill-opacity:1;fill-rule:nonzero;stroke:none;stroke-width:0.762635"
       d="m 497.8005,562.85094 c -0.25421,0 -0.76263,-0.2542 -1.01685,-0.2542 0.25422,0 0.76264,0 1.01685,0.2542 z"
       id="path8" /><path
       style="fill:#efffd7;fill-opacity:1;fill-rule:nonzero;stroke:none;stroke-width:0.762635"
       d="m 906.57285,467.77579 c -0.76264,-0.50842 -1.27109,-0.76264 -1.77953,-1.01685 -2.03365,-0.25421 -5.33845,-0.50842 -9.15162,-1.27106 -13.72743,-2.2879 -42.70754,-0.76263 -60.24814,2.79633 -7.62635,1.77948 -27.45486,7.11793 -44.48703,11.94795 -97.87148,28.4717 -137.02008,36.60648 -199.04772,41.4365 -21.09957,1.77948 -61.0108,1.77948 -82.873,0 -35.33542,-2.79633 -81.09351,-10.42268 -116.68314,-19.06588 -9.15162,-2.2879 -35.33542,-9.66004 -58.21447,-16.52375 -43.97861,-12.71058 -64.06133,-17.79482 -80.58509,-20.33693 -12.45637,-1.77949 -36.09805,-2.0337 -45.7581,0 -4.06738,0.76263 -7.37213,1.01684 -7.88056,0.76263 0,-0.25421 0,-0.25421 -0.25421,-0.76263 0,0.25421 -0.25421,0.25421 -0.25421,0.25421 1.27106,6.6095 2.2879,12.20216 3.05054,14.99849 3.30475,11.43952 6.35529,13.98164 32.28488,26.438 55.16393,26.94644 132.69848,44.48705 216.58832,52.1134 0.25421,0 0.25421,-0.25422 0.50842,-0.25422 1.01685,-0.25421 2.0337,-0.25421 2.54212,0.25422 0.25421,0 0.25421,0.2542 0,0.2542 0.25421,0 0.50842,0 1.01685,0 -0.25421,0 0,-0.2542 0.50842,-0.50842 1.01685,-0.25421 2.03369,-0.25421 2.54212,0.25422 0.25421,0.2542 0,0.50841 -0.50843,0.50841 3.30476,0.25422 6.60951,0.50843 9.91425,0.76264 0,0 0.25422,0 0.25422,-0.25421 1.01685,-0.25421 2.28791,-0.25421 2.79632,0.25421 0,0 0,0.25422 0,0.25422 0.76264,0 1.52527,0.2542 2.28791,0.2542 -0.25421,-0.2542 0,-0.50842 0.50842,-0.76263 1.01685,-0.25421 2.28791,-0.25421 2.54212,0.25421 0.50842,0.25422 0.25422,0.50842 -0.50842,0.76263 4.32159,0.25422 8.38898,0.50843 12.71058,0.76264 0,-0.25421 0.25421,-0.25421 0.25421,-0.25421 1.01685,-0.25421 2.54212,-0.25421 3.55896,0 0.25422,0.25421 0.25422,0.25421 0.25422,0.50843 1.52527,0 2.79632,0 4.32159,0 -1.27105,0 -1.52527,-0.25422 -0.50842,-0.50843 1.27106,-0.50843 3.05054,-0.25421 4.06739,0 1.01684,0.50843 -0.25421,0.76263 -2.54212,0.76263 8.38899,0.25421 16.77797,0.50843 24.91274,0.76264 0,0 0.25422,0 1.01685,-0.25421 2.03369,-0.25422 5.33845,-0.25422 7.37213,0 1.52527,0.25421 1.27106,0.50842 -0.25421,0.50842 15.2527,0.25421 30.5054,0.25421 45.7581,0 -1.52527,0 -1.77948,-0.25421 -0.25421,-0.50842 0,0 0,0 0,0 2.54212,-0.25422 6.35529,-0.25422 8.38899,0 0.50841,0 0.76263,0.25421 0.76263,0.25421 7.88056,-0.25421 15.76112,-0.50843 23.38747,-0.76264 -1.27106,-0.2542 -1.77948,-0.50842 -1.01685,-0.76263 1.01685,-0.25421 2.54212,-0.25421 3.55897,0 0.50842,0.25421 0.50842,0.50843 0,0.50843 1.01684,0 2.03369,0 3.05054,0 0,-0.25422 0,-0.25422 0.25421,-0.50843 1.01684,-0.25421 2.54211,-0.25421 3.55896,0 0,0 0.25421,0 0.25421,0.25421 4.3216,-0.25421 8.64319,-0.50842 12.9648,-1.01685 -1.01685,0 -1.01685,-0.2542 0,-0.76263 0.76263,-0.25421 2.03369,-0.25421 2.54211,0.25421 0.25422,0.25422 0.25422,0.25422 0,0.50842 0.76263,0 1.52527,-0.2542 2.2879,-0.2542 0,0 0.25422,-0.25422 0.50843,-0.50843 1.01684,-0.25421 2.2879,-0.25421 2.54211,0.25421 0.25422,0 0.25422,0 0.25422,0 4.32159,-0.25421 8.64319,-0.76264 12.96479,-1.01685 0,-0.2542 0.25421,-0.2542 0.76264,-0.50842 1.01684,-0.25421 2.03369,-0.25421 2.54211,0.25422 0,0 0,0 0,0 83.88984,-7.88057 161.4244,-25.16696 216.84251,-52.1134 11.43952,-5.84686 22.87905,-12.20216 25.42121,-14.74427 4.32155,-4.06738 6.60946,-9.91425 9.15162,-24.65853 -0.25426,0 -0.50845,-0.25421 -0.76263,-0.25421 z M 460.6856,560.05461 c -1.52527,0 -1.77948,-0.25421 -0.76263,-0.76263 1.01684,-0.25421 2.2879,-0.25421 2.54211,0.25422 0.50843,0.2542 -0.25421,0.76263 -1.77948,0.50841 z m 18.04903,1.52527 c -1.77949,-0.25421 -2.0337,-0.50841 -1.01685,-1.01684 1.01685,-0.25421 2.2879,-0.25421 2.79633,0.25421 0.25421,0.50842 -0.50843,0.76263 -1.77948,0.76263 z m 25.92959,1.27106 c -2.0337,-0.2542 -2.79633,-0.50842 -1.52527,-0.76263 1.27105,-0.50843 3.05054,-0.25421 4.06738,0 1.01685,0.50843 -0.25421,0.76263 -2.54211,0.76263 z m 48.80863,1.01685 c -10.16847,0 -14.23585,-0.25421 -9.15162,-0.50842 5.08423,-0.25422 13.21901,-0.25422 18.30324,0 5.08423,0.25421 1.01685,0.50842 -9.15162,0.50842 z m 49.31706,-1.27105 c -2.54212,0 -3.55896,-0.25422 -2.28791,-0.50843 1.27106,-0.50843 3.30476,-0.50843 4.83003,0 1.27105,0.25421 0.25421,0.50843 -2.54212,0.50843 z m 25.42117,-1.01686 c -1.77949,-0.25421 -2.0337,-0.50841 -1.01686,-1.01684 1.01686,-0.25421 2.28791,-0.25421 2.79634,0.25421 0.2542,0.50842 -0.50843,0.76263 -1.77948,0.76263 z m 19.06587,-1.52527 c -1.52527,0 -1.77949,-0.25421 -0.76264,-0.76263 1.01685,-0.25421 2.03369,-0.25421 2.54212,0.25422 0.50842,0.2542 -0.25421,0.76263 -1.77948,0.50841 z"
       id="path9" /><path
       style="fill:#efffd7;fill-opacity:1;fill-rule:nonzero;stroke:none;stroke-width:0.762635"
       d="m 96.400313,517.34706 c 0.254217,1.77948 0.254217,4.57581 0,6.10108 -0.508418,1.77948 -0.762635,0.50842 -0.762635,-3.05054 0,-3.30475 0.254217,-4.83002 0.762635,-3.05054 z"
       id="path10" /><path
       style="fill:#efffd7;fill-opacity:1;fill-rule:nonzero;stroke:none;stroke-width:0.762635"
       d="m 121.05885,572.51099 c -0.25422,0 -2.0337,-1.52527 -3.81318,-3.55897 -2.79633,-3.30475 -2.79633,-3.30475 -2.79633,-3.30475 -0.50842,0.25421 -1.27106,-0.50842 -2.79633,-2.2879 -1.77948,-2.2879 -1.77948,-2.2879 0.50843,-0.50843 1.27106,1.01685 2.2879,2.0337 2.2879,2.28791 0,0.25421 0,0.25421 0,0.50842 3.30475,2.79633 3.30475,2.79633 3.30475,2.79633 3.30476,3.05054 4.3216,4.06739 3.30476,4.06739 z"
       id="path11" /><path
       style="fill:#efffd7;fill-opacity:1;fill-rule:nonzero;stroke:none;stroke-width:0.762635"
       d="m 114.44934,474.89372 c 0,-0.25422 2.0337,-2.28791 4.57581,-4.57581 4.57581,-4.06739 4.57581,-4.06739 4.57581,-4.06739 -4.06738,4.57581 -4.06738,4.57581 -4.06738,4.57581 -3.81318,4.06739 -5.08424,5.08423 -5.08424,4.06739 z"
       id="path12" /><path
       style="fill:#efffd7;fill-opacity:1;fill-rule:nonzero;stroke:none;stroke-width:0.762635"
       d="m 126.90571,577.59522 c 0,1.01685 -1.01684,0.25421 -2.79632,-2.03369 -1.77949,-2.0337 -1.77949,-2.0337 0.50841,-0.50843 1.27107,1.27106 2.28791,2.28791 2.28791,2.54212 z"
       id="path13" /><path
       style="fill:#efffd7;fill-opacity:1;fill-rule:nonzero;stroke:none;stroke-width:0.762635"
       d="m 251.72363,620.30275 c -1.77948,0 -2.54211,-0.25419 -1.77948,-0.50837 1.01684,-0.50845 2.54211,-0.50845 3.55896,0 0.76263,0.25418 0,0.50837 -1.77948,0.50837 z"
       id="path14" /><path
       style="fill:#efffd7;fill-opacity:1;fill-rule:nonzero;stroke:none;stroke-width:0.762635"
       d="m 257.82471,620.30275 c -2.28791,0 -3.05054,-0.25419 -1.52527,-0.76263 1.27106,-0.25419 3.05054,-0.25419 4.06738,0.25426 0.76264,0.25418 -0.25421,0.50837 -2.54211,0.50837 z"
       id="path15" /><path
       style="fill:#efffd7;fill-opacity:1;fill-rule:nonzero;stroke:none;stroke-width:0.762635"
       d="m 279.4327,619.54012 c 3.30475,0.25426 0.25421,0.50844 -6.35529,0.50844 -6.86372,0 -9.40583,-0.25418 -5.84687,-0.50844 3.55896,-0.25419 9.15162,-0.25419 12.20216,0 z"
       id="path16" /><path
       style="fill:#efffd7;fill-opacity:1;fill-rule:nonzero;stroke:none;stroke-width:0.762635"
       d="m 289.34695,620.30275 c -2.79632,0 -4.06738,-0.25419 -2.2879,-0.76263 1.77948,-0.25419 4.06739,-0.25419 5.59266,0 1.27105,0.50844 -0.25422,0.76263 -3.30476,0.76263 z"
       id="path17" /><path
       style="fill:#efffd7;fill-opacity:1;fill-rule:nonzero;stroke:none;stroke-width:0.762635"
       d="m 297.73594,620.30275 c -2.28791,0 -3.05054,-0.25419 -1.77948,-0.76263 1.27106,-0.25419 3.30475,-0.25419 4.06738,0.25426 1.01685,0.25418 0,0.50837 -2.2879,0.50837 z"
       id="path18" /><path
       style="fill:#efffd7;fill-opacity:1;fill-rule:nonzero;stroke:none;stroke-width:0.762635"
       d="m 315.78496,618.52329 c 0.50843,0.25419 -0.2542,0.76264 -1.77947,0.50845 -1.52527,0 -2.0337,-0.25426 -0.76264,-0.76263 1.01685,-0.25426 2.03369,-0.25426 2.54211,0.25418 z"
       id="path19" /><path
       style="fill:#efffd7;fill-opacity:1;fill-rule:nonzero;stroke:none;stroke-width:0.762635"
       d="m 319.85235,618.52329 c 0.50842,0.25419 -0.25421,0.76264 -1.77948,0.50845 -1.52527,0 -1.77948,-0.25426 -0.76264,-0.76263 1.01685,-0.25426 2.28791,-0.25426 2.54212,0.25418 z"
       id="path20" /><path
       style="fill:#efffd7;fill-opacity:1;fill-rule:nonzero;stroke:none;stroke-width:0.762635"
       d="m 462.46508,559.5462 c 0.50843,0.2542 -0.25421,0.76263 -1.77948,0.50841 -1.52527,0 -1.77948,-0.25421 -0.76263,-0.76263 1.01684,-0.25421 2.2879,-0.25421 2.54211,0.25422 z"
       id="path21" /><path
       style="fill:#efffd7;fill-opacity:1;fill-rule:nonzero;stroke:none;stroke-width:0.762635"
       d="m 480.51411,560.81725 c 0.25421,0.50842 -0.50843,0.76263 -1.77948,0.76263 -1.77949,-0.25421 -2.0337,-0.50841 -1.01685,-1.01684 1.01685,-0.25421 2.2879,-0.25421 2.79633,0.25421 z"
       id="path22" /><path
       style="fill:#efffd7;fill-opacity:1;fill-rule:nonzero;stroke:none;stroke-width:0.762635"
       d="m 507.20633,562.08831 c 1.01685,0.50843 -0.25421,0.76263 -2.54211,0.76263 -2.0337,-0.2542 -2.79633,-0.50842 -1.52527,-0.76263 1.27105,-0.50843 3.05054,-0.25421 4.06738,0 z"
       id="path23" /><path
       style="fill:#efffd7;fill-opacity:1;fill-rule:nonzero;stroke:none;stroke-width:0.762635"
       d="m 516.10374,595.1358 c 0.50842,0.50845 -0.50842,0.76263 -1.77948,0.76263 -1.77948,-0.25418 -2.03369,-0.50837 -0.76264,-1.01682 0.76264,-0.25419 2.0337,-0.25419 2.54212,0.25419 z"
       id="path24" /><path
       style="fill:#efffd7;fill-opacity:1;fill-rule:nonzero;stroke:none;stroke-width:0.762635"
       d="m 531.61065,594.37316 c -2.0337,0 -2.79633,-0.25418 -1.77948,-0.76263 1.01684,-0.25419 2.54211,-0.25419 3.30475,0 1.01684,0.50845 0.25421,0.76263 -1.52527,0.76263 z"
       id="path25" /><path
       style="fill:#efffd7;fill-opacity:1;fill-rule:nonzero;stroke:none;stroke-width:0.762635"
       d="m 562.62447,563.35937 c 5.08423,0.25421 1.01685,0.50842 -9.15162,0.50842 -10.16847,0 -14.23585,-0.25421 -9.15162,-0.50842 5.08423,-0.25422 13.21901,-0.25422 18.30324,0 z"
       id="path26" /><path
       style="fill:#efffd7;fill-opacity:1;fill-rule:nonzero;stroke:none;stroke-width:0.762635"
       d="m 565.92922,594.37316 c -2.03369,0 -2.79633,-0.25418 -1.77948,-0.76263 1.01685,-0.25419 2.54212,-0.25419 3.30475,0 1.01685,0.50845 0.25421,0.76263 -1.52527,0.76263 z"
       id="path27" /><path
       style="fill:#efffd7;fill-opacity:1;fill-rule:nonzero;stroke:none;stroke-width:0.762635"
       d="m 584.74089,595.1358 c 0.2542,0.50845 -0.50843,0.76263 -1.77949,0.76263 -1.77948,-0.25418 -2.03369,-0.50837 -1.01685,-1.01682 1.01685,-0.25419 2.28791,-0.25419 2.79634,0.25419 z"
       id="path28" /><path
       style="fill:#efffd7;fill-opacity:1;fill-rule:nonzero;stroke:none;stroke-width:0.762635"
       d="m 605.33203,562.08831 c 1.27105,0.25421 0.25421,0.50843 -2.54212,0.50843 -2.54212,0 -3.55896,-0.25422 -2.28791,-0.50843 1.27106,-0.50843 3.30476,-0.50843 4.83003,0 z"
       id="path29" /><path
       style="fill:#efffd7;fill-opacity:1;fill-rule:nonzero;stroke:none;stroke-width:0.762635"
       d="m 629.99056,560.81725 c 0.2542,0.50842 -0.50843,0.76263 -1.77948,0.76263 -1.77949,-0.25421 -2.0337,-0.50841 -1.01686,-1.01684 1.01686,-0.25421 2.28791,-0.25421 2.79634,0.25421 z"
       id="path30" /><path
       style="fill:#efffd7;fill-opacity:1;fill-rule:nonzero;stroke:none;stroke-width:0.762635"
       d="m 649.05643,559.5462 c 0.50842,0.2542 -0.25421,0.76263 -1.77948,0.50841 -1.52527,0 -1.77949,-0.25421 -0.76264,-0.76263 1.01685,-0.25421 2.03369,-0.25421 2.54212,0.25422 z"
       id="path31" /><path
       style="fill:#efffd7;fill-opacity:1;fill-rule:nonzero;stroke:none;stroke-width:0.762635"
       d="m 764.2143,616.99802 c 0.50843,0.50845 -0.25421,0.76264 -1.77948,0.76264 -1.52527,0 -1.77948,-0.50845 -0.76263,-0.76264 1.01684,-0.50844 2.2879,-0.50844 2.54211,0 z"
       id="path32" /><path
       style="fill:#efffd7;fill-opacity:1;fill-rule:nonzero;stroke:none;stroke-width:0.762635"
       d="m 780.73806,618.52329 c 0.50842,0.25419 -0.25421,0.76264 -1.77948,0.50845 -1.52527,0 -1.77948,-0.25426 -0.76264,-0.76263 1.01685,-0.25426 2.0337,-0.25426 2.54212,0.25418 z"
       id="path33" /><path
       style="fill:#efffd7;fill-opacity:1;fill-rule:nonzero;stroke:none;stroke-width:0.762635"
       d="m 784.80545,618.52329 c 0.50842,0.25419 -0.25421,0.76264 -1.77948,0.50845 -1.52527,0 -1.77949,-0.25426 -0.76264,-0.76263 1.01685,-0.25426 2.28791,-0.25426 2.54212,0.25418 z"
       id="path34" /><path
       style="fill:#efffd7;fill-opacity:1;fill-rule:nonzero;stroke:none;stroke-width:0.762635"
       d="m 799.80394,620.30275 c -2.28791,0 -3.05054,-0.25419 -1.77949,-0.76263 1.27106,-0.25419 3.05054,-0.25419 4.06739,0.25426 1.01684,0.25418 -0.25422,0.50837 -2.2879,0.50837 z"
       id="path35" /><path
       style="fill:#efffd7;fill-opacity:1;fill-rule:nonzero;stroke:none;stroke-width:0.762635"
       d="m 807.9387,620.30275 c -3.05054,0 -4.06738,-0.25419 -2.54211,-0.76263 1.77948,-0.25419 4.3216,-0.25419 5.59265,0 1.27106,0.50844 0,0.76263 -3.05054,0.76263 z"
       id="path36" /><path
       style="fill:#efffd7;fill-opacity:1;fill-rule:nonzero;stroke:none;stroke-width:0.762635"
       d="m 830.81775,619.54012 c 3.30476,0.25426 0.25422,0.50844 -6.35529,0.50844 -6.86371,0 -9.40583,-0.25418 -5.84687,-0.50844 3.55897,-0.25419 9.15162,-0.25419 12.20216,0 z"
       id="path37" /><path
       style="fill:#efffd7;fill-opacity:1;fill-rule:nonzero;stroke:none;stroke-width:0.762635"
       d="m 839.46095,620.30275 c -2.2879,0 -3.05054,-0.25419 -1.77949,-0.76263 1.52527,-0.25419 3.30476,-0.25419 4.32161,0.25426 0.76263,0.25418 -0.25421,0.50837 -2.54212,0.50837 z"
       id="path38" /><path
       style="fill:#efffd7;fill-opacity:1;fill-rule:nonzero;stroke:none;stroke-width:0.762635"
       d="m 845.56203,620.30275 c -1.77949,0 -2.54212,-0.25419 -1.52527,-0.50837 0.76264,-0.50845 2.28791,-0.50845 3.30475,0 1.01684,0.25418 0.25421,0.50837 -1.77948,0.50837 z"
       id="path39" /><path
       style="fill:#efffd7;fill-opacity:1;fill-rule:nonzero;stroke:none;stroke-width:0.762635"
       d="m 974.44737,461.92892 c -1.77953,-2.2879 -1.77953,-2.2879 0.50837,-0.50842 1.27109,1.01684 2.28791,2.03369 2.28791,2.2879 0,1.27106 -1.01682,0.50843 -2.79628,-1.77948 z"
       id="path40" /><path
       style="fill:#efffd7;fill-opacity:1;fill-rule:nonzero;stroke:none;stroke-width:0.762635"
       d="m 982.58209,470.06369 c -3.30472,-3.81317 -3.30472,-3.81317 -3.30472,-3.81317 3.81317,3.30475 3.81317,3.30475 3.81317,3.30475 2.03372,1.77948 3.81318,3.55896 3.81318,3.81318 0,1.01684 -1.01682,0.25421 -4.32163,-3.30476 z"
       id="path41" /><path
       style="fill:#efffd7;fill-opacity:1;fill-rule:nonzero;stroke:none;stroke-width:0.762635"
       d="m 990.97108,560.30883 c 0.25426,0 -2.28791,3.05054 -6.10108,6.86371 -3.81318,3.81318 -7.1179,6.86372 -7.37209,6.86372 -0.50845,0 2.28791,-3.05054 5.84682,-6.86372 3.81317,-3.81317 7.11798,-6.86371 7.62635,-6.86371 z"
       id="path42" /><path
       style="fill:#efffd7;fill-opacity:1;fill-rule:nonzero;stroke:none;stroke-width:0.762635"
       d="m 1006.2238,515.05915 c 0,-2.03369 0.5084,-2.79632 0.7626,-1.77948 0.5085,1.01685 0.5085,2.54212 0,3.30475 -0.2542,1.01685 -0.7626,0.25422 -0.7626,-1.52527 z"
       id="path43" /><path
       style="fill:#efffd7;fill-opacity:1;fill-rule:nonzero;stroke:none;stroke-width:0.762635"
       d="m 1006.9864,524.21077 c -0.5084,0.50843 -0.7626,-0.25421 -0.7626,-1.77948 0,-1.52527 0.2542,-2.03369 0.7626,-0.76263 0.5085,1.01684 0.5085,2.03369 0,2.54211 z"
       id="path44" /></g></svg>
