<?xml version="1.0" encoding="UTF-8" standalone="no"?>
<!-- Created with Inkscape (http://www.inkscape.org/) -->

<svg
   width="1000.0001"
   height="1000.0001"
   viewBox="0 0 264.58335 264.58335"
   version="1.1"
   id="svg1"
   xml:space="preserve"
   xmlns="http://www.w3.org/2000/svg"
   xmlns:svg="http://www.w3.org/2000/svg"><defs
     id="defs1" /><g
     id="layer1"><g
       id="g33"
       transform="translate(-1.4335198,-23.115514)"><path
         style="fill:#d89eaf"
         d="m 125.7977,189.98664 c 0.42114,-0.0865 1.03055,-0.0833 1.35425,0.007 0.32369,0.0906 -0.0209,0.16137 -0.76572,0.15736 -0.74483,-0.004 -1.00968,-0.0781 -0.58853,-0.16466 z m 13.53857,5.6e-4 c 0.41897,-0.0862 1.10456,-0.0862 1.52354,0 0.41897,0.0862 0.0762,0.1568 -0.76177,0.1568 -0.83795,0 -1.18074,-0.0706 -0.76177,-0.1568 z m -18.10668,-0.35721 c 0.32941,-0.0917 0.78647,-0.0857 1.01569,0.0134 0.22922,0.0991 -0.0403,0.17416 -0.59893,0.16679 -0.55863,-0.007 -0.74617,-0.0885 -0.41676,-0.1802 z m 23.36085,0 c 0.32941,-0.0917 0.78647,-0.0857 1.01569,0.0134 0.22922,0.0991 -0.0403,0.17416 -0.59893,0.16679 -0.55863,-0.007 -0.74617,-0.0885 -0.41676,-0.1802 z m -27.08504,-0.36182 c 0.32941,-0.0917 0.78647,-0.0857 1.01569,0.0134 0.22921,0.0991 -0.0403,0.17417 -0.59893,0.16679 -0.55863,-0.007 -0.74617,-0.0885 -0.41676,-0.1802 z m 30.63351,0.0111 c 0.23276,-0.10037 0.61365,-0.10037 0.84641,0 0.23276,0.10038 0.0423,0.1825 -0.4232,0.1825 -0.46553,0 -0.65597,-0.0821 -0.42321,-0.1825 z m -33.85631,-0.36181 c 0.23277,-0.10037 0.61365,-0.10037 0.84641,0 0.23276,0.10037 0.0423,0.18249 -0.4232,0.18249 -0.46553,0 -0.65597,-0.0821 -0.42321,-0.18249 z m 37.24194,0 c 0.23276,-0.10037 0.61365,-0.10037 0.84641,0 0.23276,0.10037 0.0423,0.18249 -0.4232,0.18249 -0.46553,0 -0.65597,-0.0821 -0.42321,-0.18249 z m -39.92928,-0.36936 c 0.2444,-0.10451 0.53641,-0.0917 0.64891,0.0286 0.1125,0.12023 -0.0875,0.20574 -0.44436,0.19003 -0.39441,-0.0174 -0.47463,-0.10309 -0.20455,-0.2186 z m 42.99751,0 c 0.2444,-0.10451 0.53641,-0.0917 0.64891,0.0286 0.1125,0.12023 -0.0875,0.20574 -0.44436,0.19003 -0.39441,-0.0174 -0.47463,-0.10309 -0.20455,-0.2186 z m -45.70601,-0.36181 c 0.2444,-0.10452 0.53641,-0.0917 0.64891,0.0286 0.1125,0.12023 -0.0875,0.20575 -0.44437,0.19004 -0.3944,-0.0174 -0.47463,-0.1031 -0.20454,-0.2186 z m 48.41451,0 c 0.2444,-0.10452 0.53642,-0.0917 0.64892,0.0286 0.1125,0.12023 -0.0875,0.20575 -0.44437,0.19004 -0.3944,-0.0174 -0.47463,-0.1031 -0.20455,-0.2186 z m -51.12302,-0.36182 c 0.2444,-0.10452 0.53641,-0.0917 0.64891,0.0286 0.11251,0.12023 -0.0875,0.20574 -0.44436,0.19003 -0.39441,-0.0174 -0.47463,-0.1031 -0.20455,-0.2186 z m -2.36994,-0.36181 c 0.2444,-0.10452 0.53641,-0.0917 0.64891,0.0286 0.1125,0.12023 -0.0875,0.20574 -0.44436,0.19003 -0.39441,-0.0174 -0.47463,-0.10309 -0.20455,-0.21859 z m 58.57141,0 c 0.2444,-0.10452 0.53641,-0.0917 0.64891,0.0286 0.1125,0.12023 -0.0875,0.20574 -0.44436,0.19003 -0.39441,-0.0174 -0.47463,-0.10309 -0.20455,-0.21859 z m -60.94135,-0.36182 c 0.2444,-0.10452 0.53641,-0.0917 0.64891,0.0286 0.1125,0.12023 -0.0875,0.20575 -0.44436,0.19004 -0.39441,-0.0174 -0.47463,-0.1031 -0.20455,-0.2186 z m 63.31129,0 c 0.2444,-0.10452 0.53641,-0.0917 0.64891,0.0286 0.11251,0.12023 -0.0875,0.20575 -0.44436,0.19004 -0.39441,-0.0174 -0.47463,-0.1031 -0.20455,-0.2186 z m -65.681233,-0.36182 c 0.2444,-0.10451 0.536411,-0.0917 0.648912,0.0286 0.112502,0.12023 -0.08746,0.20574 -0.444364,0.19003 -0.394406,-0.0174 -0.474631,-0.10309 -0.204548,-0.2186 z m 93.827223,-1.10964 -1.16674,-1.35682 1.26961,1.24688 c 1.18172,1.16057 1.42528,1.46675 1.16674,1.46675 -0.0566,0 -0.6279,-0.61057 -1.26961,-1.35681 z m -23.74467,0.74783 c 0.2444,-0.10452 0.53641,-0.0917 0.64891,0.0286 0.11251,0.12023 -0.0875,0.20575 -0.44436,0.19003 -0.39441,-0.0174 -0.47463,-0.10309 -0.20455,-0.21859 z M 94.667107,186.0154 c 0.2444,-0.10452 0.536411,-0.0917 0.648912,0.0286 0.112502,0.12022 -0.08746,0.20574 -0.444364,0.19003 -0.394406,-0.0174 -0.474631,-0.1031 -0.204548,-0.2186 z m 78.885193,-0.36181 c 0.2444,-0.10452 0.53641,-0.0917 0.64891,0.0286 0.11251,0.12023 -0.0875,0.20574 -0.44436,0.19003 -0.39441,-0.0174 -0.47463,-0.10309 -0.20455,-0.21859 z M 53.382708,184.90575 c -0.421129,-0.57386 -0.409154,-0.58666 0.127826,-0.1366 0.325867,0.27311 0.592485,0.55804 0.592485,0.63318 0,0.29778 -0.278023,0.10612 -0.720311,-0.49658 z m 34.851701,0.0242 c 0.2444,-0.10451 0.53641,-0.0917 0.648912,0.0286 0.112502,0.12023 -0.08746,0.20574 -0.444364,0.19003 -0.394407,-0.0174 -0.474631,-0.1031 -0.204548,-0.2186 z m 124.654691,0.11056 c 0,-0.0751 0.26662,-0.36006 0.59248,-0.63318 0.53698,-0.45005 0.54896,-0.43725 0.12783,0.13661 -0.44229,0.60269 -0.72031,0.79436 -0.72031,0.49657 z M 86.20303,184.56814 c 0.2444,-0.10452 0.536411,-0.0917 0.648913,0.0286 0.112501,0.12023 -0.08746,0.20574 -0.444364,0.19003 -0.394407,-0.0174 -0.474632,-0.10309 -0.204549,-0.21859 z m -7.448387,-1.08545 c 0.2444,-0.10452 0.536411,-0.0917 0.648912,0.0286 0.112502,0.12023 -0.08746,0.20575 -0.444364,0.19004 -0.394406,-0.0174 -0.474631,-0.1031 -0.204548,-0.2186 z m -27.741877,-0.74783 c -0.421128,-0.57386 -0.409153,-0.58666 0.127827,-0.13661 0.325867,0.27312 0.592485,0.55805 0.592485,0.63318 0,0.29779 -0.278023,0.10612 -0.720312,-0.49657 z m 164.923404,-0.63318 c 0.43733,-0.4975 0.87133,-0.90454 0.96444,-0.90454 0.0931,0 -0.18854,0.40704 -0.62588,0.90454 -0.43734,0.49749 -0.87134,0.90454 -0.96444,0.90454 -0.0931,0 0.18854,-0.40705 0.62588,-0.90454 z M 46.316069,178.1217 c -0.82238,-0.8955 -1.419059,-1.62817 -1.325954,-1.62817 0.0931,0 0.842138,0.73267 1.664517,1.62817 0.822379,0.89549 1.419059,1.62817 1.325954,1.62817 -0.09311,0 -0.842138,-0.73268 -1.664517,-1.62817 z m 177.407051,-4.34179 c 0.43733,-0.4975 0.87133,-0.90454 0.96444,-0.90454 0.0931,0 -0.18854,0.40704 -0.62588,0.90454 -0.43734,0.49749 -0.87134,0.90454 -0.96444,0.90454 -0.0931,0 0.18854,-0.40705 0.62588,-0.90454 z M 41.871564,172.96582 c -0.421129,-0.57386 -0.409154,-0.58666 0.127826,-0.13661 0.325867,0.27312 0.592485,0.55805 0.592485,0.63318 0,0.29779 -0.278023,0.10612 -0.720311,-0.49657 z m -2.031379,-2.53271 c -0.421129,-0.57386 -0.409153,-0.58666 0.127826,-0.13661 0.325867,0.27312 0.592486,0.55805 0.592486,0.63318 0,0.29779 -0.278023,0.10612 -0.720312,-0.49657 z M 113.9652,143.3211 c 0.2444,-0.10452 0.53641,-0.0917 0.64891,0.0286 0.11251,0.12023 -0.0875,0.20574 -0.44436,0.19003 -0.39441,-0.0174 -0.47463,-0.10309 -0.20455,-0.21859 z m 39.92928,0.008 c 0.23277,-0.10037 0.61365,-0.10037 0.84641,0 0.23276,0.10038 0.0423,0.1825 -0.4232,0.1825 -0.46553,0 -0.65597,-0.0821 -0.42321,-0.1825 z m -43.99204,-0.36935 c 0.24441,-0.10452 0.53642,-0.0917 0.64892,0.0286 0.1125,0.12023 -0.0875,0.20575 -0.44437,0.19004 -0.3944,-0.0174 -0.47463,-0.1031 -0.20455,-0.2186 z m 48.41452,0 c 0.2444,-0.10452 0.53641,-0.0917 0.64892,0.0286 0.1125,0.12023 -0.0875,0.20575 -0.44437,0.19004 -0.3944,-0.0174 -0.47463,-0.1031 -0.20455,-0.2186 z m -52.13871,-0.36182 c 0.2444,-0.10451 0.53641,-0.0917 0.64891,0.0286 0.11251,0.12023 -0.0875,0.20574 -0.44436,0.19003 -0.39441,-0.0174 -0.47463,-0.1031 -0.20455,-0.2186 z m -3.04707,-0.36181 c 0.2444,-0.10452 0.53641,-0.0917 0.64892,0.0286 0.1125,0.12023 -0.0875,0.20575 -0.44437,0.19003 -0.3944,-0.0174 -0.47463,-0.10309 -0.20455,-0.21859 z m 64.66555,-0.36182 c 0.2444,-0.10452 0.53641,-0.0917 0.64891,0.0286 0.1125,0.12022 -0.0875,0.20574 -0.44436,0.19003 -0.39441,-0.0174 -0.47463,-0.1031 -0.20455,-0.2186 z m -45.02889,-0.36181 c 0.2444,-0.10452 0.53641,-0.0917 0.64891,0.0286 0.11251,0.12023 -0.0875,0.20574 -0.44436,0.19003 -0.39441,-0.0174 -0.47463,-0.10309 -0.20455,-0.21859 z m 20.31379,0 c 0.2444,-0.10452 0.53641,-0.0917 0.64891,0.0286 0.1125,0.12023 -0.0875,0.20574 -0.44437,0.19003 -0.3944,-0.0174 -0.47463,-0.10309 -0.20454,-0.21859 z m -17.28788,-0.35428 c 0.23276,-0.10038 0.61364,-0.10038 0.84641,0 0.23276,0.10037 0.0423,0.18249 -0.42321,0.18249 -0.46552,0 -0.65596,-0.0821 -0.4232,-0.18249 z m 14.21965,0 c 0.23276,-0.10038 0.61364,-0.10038 0.84641,0 0.23276,0.10037 0.0423,0.18249 -0.42321,0.18249 -0.46552,0 -0.65596,-0.0821 -0.4232,-0.18249 z m -7.78695,-0.38393 c 0.60518,-0.0803 1.59548,-0.0803 2.20066,0 0.60518,0.0803 0.11003,0.14593 -1.10033,0.14593 -1.21037,0 -1.70551,-0.0657 -1.10033,-0.14593 z M 21.289131,127.43729 c 0.01624,-0.4215 0.09647,-0.50723 0.204548,-0.2186 0.0978,0.26119 0.08577,0.57325 -0.02673,0.69348 -0.112501,0.12023 -0.19252,-0.0935 -0.177819,-0.47488 z M 245.10605,126.5629 c 0,-0.4975 0.0768,-0.70102 0.17076,-0.45227 0.0939,0.24875 0.0939,0.65579 0,0.90454 -0.0939,0.24875 -0.17076,0.0452 -0.17076,-0.45227 z m -24.09144,-3.03114 c 0,-0.0751 0.26662,-0.36006 0.59249,-0.63317 0.53698,-0.45006 0.54895,-0.43726 0.12782,0.1366 -0.44229,0.6027 -0.72031,0.79436 -0.72031,0.49657 z m 24.06471,-3.3308 c 0.0162,-0.42149 0.0965,-0.50723 0.20455,-0.21859 0.0978,0.26118 0.0858,0.57325 -0.0267,0.69348 -0.1125,0.12023 -0.19252,-0.0935 -0.17782,-0.47489 z M 39.81989,100.62679 c 0.2444,-0.10452 0.536411,-0.0917 0.648913,0.0286 0.112501,0.12023 -0.08746,0.20575 -0.444364,0.19004 -0.394407,-0.0174 -0.474632,-0.1031 -0.204549,-0.2186 z"
         id="path39" /><path
         style="fill:#c76e88"
         d="m 112.94951,143.3211 c 0.2444,-0.10452 0.53641,-0.0917 0.64892,0.0286 0.1125,0.12023 -0.0875,0.20574 -0.44437,0.19003 -0.39441,-0.0174 -0.47463,-0.10309 -0.20455,-0.21859 z m 42.32039,0 c 0.2444,-0.10452 0.53641,-0.0917 0.64891,0.0286 0.1125,0.12023 -0.0875,0.20574 -0.44437,0.19003 -0.3944,-0.0174 -0.47463,-0.10309 -0.20454,-0.21859 z m -46.38314,-0.36182 c 0.2444,-0.10452 0.53641,-0.0917 0.64891,0.0286 0.1125,0.12023 -0.0875,0.20575 -0.44437,0.19004 -0.3944,-0.0174 -0.47463,-0.1031 -0.20454,-0.2186 z m 30.13211,-1.80908 c 0.2444,-0.10452 0.53641,-0.0917 0.64891,0.0286 0.1125,0.12023 -0.0875,0.20575 -0.44436,0.19004 -0.39441,-0.0174 -0.47463,-0.1031 -0.20455,-0.2186 z M 21.289131,126.35184 c 0.01624,-0.4215 0.09647,-0.50723 0.204548,-0.2186 0.0978,0.26119 0.08577,0.57325 -0.02673,0.69348 -0.112501,0.12023 -0.19252,-0.0935 -0.177819,-0.47488 z m 223.829459,-1.41711 c 0.007,-0.597 0.0828,-0.79742 0.16862,-0.44539 0.0858,0.35204 0.0802,0.84049 -0.0125,1.08545 -0.0927,0.24496 -0.16298,-0.0431 -0.15608,-0.64006 z m 0,-3.25635 c 0.007,-0.597 0.0828,-0.79742 0.16862,-0.44538 0.0858,0.35203 0.0802,0.84048 -0.0125,1.08544 -0.0927,0.24497 -0.16298,-0.0431 -0.15608,-0.64006 z M 21.289131,120.20096 c 0.01624,-0.42149 0.09647,-0.50723 0.204548,-0.21859 0.0978,0.26118 0.08577,0.57325 -0.02673,0.69348 -0.112501,0.12023 -0.19252,-0.0935 -0.177819,-0.47489 z"
         id="path38" /><path
         style="fill:#e6486e"
         d="m 128.33297,189.99313 c 0.32587,-0.091 0.85911,-0.091 1.18497,0 0.32587,0.091 0.0592,0.16547 -0.59248,0.16547 -0.65174,0 -0.91836,-0.0745 -0.59249,-0.16547 z m 8.80264,0 c 0.32587,-0.091 0.85911,-0.091 1.18497,0 0.32587,0.091 0.0592,0.16547 -0.59248,0.16547 -0.65174,0 -0.91836,-0.0745 -0.59249,-0.16547 z m -14.38893,-0.35203 c 0.23276,-0.10037 0.61365,-0.10037 0.84641,0 0.23276,0.10037 0.0423,0.1825 -0.4232,0.1825 -0.46553,0 -0.65597,-0.0821 -0.42321,-0.1825 z m 20.33495,-0.008 c 0.2444,-0.10451 0.53641,-0.0917 0.64891,0.0286 0.1125,0.12023 -0.0875,0.20574 -0.44437,0.19003 -0.3944,-0.0174 -0.47463,-0.1031 -0.20454,-0.2186 z m -24.03798,-0.36181 c 0.2444,-0.10452 0.53641,-0.0917 0.64891,0.0286 0.1125,0.12023 -0.0875,0.20574 -0.44436,0.19003 -0.39441,-0.0174 -0.47464,-0.10309 -0.20455,-0.21859 z m 28.10073,0 c 0.2444,-0.10452 0.53641,-0.0917 0.64891,0.0286 0.11251,0.12023 -0.0875,0.20574 -0.44436,0.19003 -0.39441,-0.0174 -0.47463,-0.10309 -0.20455,-0.21859 z m -31.48636,-0.36182 c 0.2444,-0.10452 0.53641,-0.0917 0.64891,0.0286 0.1125,0.12022 -0.0875,0.20574 -0.44436,0.19003 -0.39441,-0.0174 -0.47464,-0.1031 -0.20455,-0.2186 z m -14.8333,-14.37909 c -4.300026,-0.96917 -11.172579,-4.03601 -11.172579,-4.9857 0,-0.86819 4.018596,-8.61175 5.846831,-11.26646 4.169707,-6.05465 10.208078,-11.43584 15.022368,-13.3874 6.61761,-2.68258 15.76498,-4.04965 25.0061,-3.73715 12.24782,0.41417 20.79435,3.00156 26.60164,8.05344 3.93874,3.4264 8.16033,9.19015 10.93247,14.92616 l 1.59065,3.29133 -1.29068,0.87073 c -7.60407,5.12993 -24.01541,5.04278 -33.94061,-0.18023 -3.21047,-1.68947 -6.09086,-4.49031 -6.81316,-6.625 -0.23798,-0.70332 -0.51635,-1.27456 -0.6186,-1.26943 -0.10225,0.005 -0.70043,0.81992 -1.32929,1.81064 -3.24989,5.11994 -9.9074,9.96391 -16.4619,11.97759 -3.09648,0.95131 -10.23171,1.22954 -13.37324,0.52148 z"
         id="path37" /><path
         style="fill:#965466"
         d="m 73.231833,185.53893 c 0.337035,-0.398 0.688967,-0.72363 0.782072,-0.72363 0.09311,0 -0.106474,0.32563 -0.443509,0.72363 -0.337035,0.398 -0.688968,0.72363 -0.782072,0.72363 -0.09311,0 0.106474,-0.32563 0.443509,-0.72363 z M 52.367019,183.8203 c -0.421129,-0.57386 -0.409154,-0.58665 0.127826,-0.1366 0.325867,0.27311 0.592485,0.55804 0.592485,0.63318 0,0.29778 -0.278023,0.10612 -0.720311,-0.49658 z m 161.537771,0.13476 c 0,-0.0751 0.26662,-0.36006 0.59248,-0.63318 0.53698,-0.45005 0.54896,-0.43725 0.12783,0.13661 -0.44229,0.60269 -0.72031,0.79436 -0.72031,0.49657 z m -164.732234,-3.21019 -0.99439,-1.17591 1.10033,1.06269 c 0.605181,0.58448 1.10033,1.11364 1.10033,1.1759 0,0.27953 -0.279358,0.0334 -1.20627,-1.06268 z m 170.657084,-2.80408 c 1.66812,-1.79099 3.10913,-3.25634 3.20223,-3.25634 0.0931,0 -1.19554,1.46535 -2.86367,3.25634 -1.66812,1.79099 -3.10912,3.25635 -3.20223,3.25635 -0.0931,0 1.19555,-1.46536 2.86367,-3.25635 z m -176.074093,-2.98498 -0.99439,-1.1759 1.10033,1.06268 c 1.025661,0.99058 1.255951,1.28912 0.99439,1.28912 -0.05827,0 -0.553415,-0.52916 -1.10033,-1.1759 z m 180.644693,-2.21705 c 0,-0.0751 0.26662,-0.36006 0.59249,-0.63318 0.53698,-0.45005 0.54895,-0.43725 0.12782,0.13661 -0.44228,0.60269 -0.72031,0.79436 -0.72031,0.49657 z m -183.544366,-1.2202 c -0.421128,-0.57387 -0.409153,-0.58666 0.127827,-0.13661 0.325867,0.27311 0.592485,0.55804 0.592485,0.63318 0,0.29778 -0.278023,0.10612 -0.720312,-0.49657 z M 111.93382,143.3211 c 0.2444,-0.10452 0.53641,-0.0917 0.64892,0.0286 0.1125,0.12023 -0.0875,0.20574 -0.44437,0.19003 -0.3944,-0.0174 -0.47463,-0.10309 -0.20455,-0.21859 z m 44.35177,0 c 0.2444,-0.10452 0.53641,-0.0917 0.64891,0.0286 0.1125,0.12023 -0.0875,0.20574 -0.44437,0.19003 -0.3944,-0.0174 -0.47463,-0.10309 -0.20454,-0.21859 z m 3.72419,-0.36182 c 0.2444,-0.10452 0.53641,-0.0917 0.64891,0.0286 0.1125,0.12023 -0.0875,0.20575 -0.44436,0.19004 -0.39441,-0.0174 -0.47463,-0.1031 -0.20455,-0.2186 z m 3.38563,-0.36182 c 0.2444,-0.10451 0.53641,-0.0917 0.64891,0.0286 0.1125,0.12023 -0.0875,0.20574 -0.44436,0.19003 -0.39441,-0.0174 -0.47463,-0.1031 -0.20455,-0.2186 z M 21.376229,123.30655 c 0,-1.49249 0.05976,-2.10305 0.132805,-1.35681 0.07304,0.74625 0.07304,1.96738 0,2.71362 -0.07304,0.74625 -0.132805,0.13568 -0.132805,-1.35681 z m 26.268468,0.81409 -0.820784,-0.99499 0.931049,0.87715 c 0.870205,0.81984 1.086309,1.11283 0.820783,1.11283 -0.06065,0 -0.479618,-0.44774 -0.931048,-0.99499 z m 172.692793,0.49657 c 0,-0.0751 0.26661,-0.36006 0.59248,-0.63318 0.53698,-0.45005 0.54896,-0.43725 0.12783,0.13661 -0.44229,0.60269 -0.72031,0.79436 -0.72031,0.49657 z m 24.76856,-1.31066 c 0,-0.49749 0.0768,-0.70102 0.17076,-0.45227 0.0939,0.24875 0.0939,0.65579 0,0.90454 -0.0939,0.24875 -0.17076,0.0452 -0.17076,-0.45227 z M 26.340848,106.84392 c 0.631685,-0.6965 1.224696,-1.26636 1.3178,-1.26636 0.09311,0 -0.347552,0.56986 -0.979237,1.26636 -0.631685,0.69649 -1.224696,1.26635 -1.3178,1.26635 -0.09311,0 0.347552,-0.56986 0.979237,-1.26635 z m 213.607672,-0.0905 -0.82078,-0.99499 0.93104,0.87716 c 0.51208,0.48243 0.93105,0.93018 0.93105,0.99499 0,0.28376 -0.27417,0.0528 -1.04131,-0.87716 z"
         id="path36" /><path
         style="fill:#d0084a"
         d="m 125.70911,189.8632 c -8.73439,-0.64232 -20.74981,-2.2531 -35.12592,-4.70895 -3.766758,-0.64347 -4.653844,-0.90708 -4.647915,-1.38119 0.01489,-1.19077 1.383588,-7.20315 2.402049,-10.55167 l 1.050253,-3.45304 3.26399,1.72269 c 5.039899,2.65999 8.018313,3.37784 13.928723,3.35705 5.33188,-0.0188 7.37178,-0.43246 11.60174,-2.35291 4.66114,-2.1162 10.04528,-6.63113 12.47783,-10.46341 0.62886,-0.99072 1.22704,-1.80551 1.32929,-1.81064 0.10225,-0.005 0.38062,0.56611 0.6186,1.26943 0.7223,2.13469 3.60269,4.93553 6.81316,6.625 9.91302,5.2166 26.33688,5.30993 33.92203,0.19276 l 1.27211,-0.8582 0.48318,0.99854 c 1.677,3.4657 4.91607,15.58017 4.27832,16.00139 -0.40188,0.26544 -16.56688,2.90961 -23.19677,3.79438 -11.90527,1.58879 -22.92064,2.17399 -30.47067,1.61877 z m 36.69091,-40.41543 c -0.42113,-0.57386 -0.40916,-0.58666 0.12782,-0.13661 0.56396,0.47267 0.74331,0.76979 0.46466,0.76979 -0.0703,0 -0.33692,-0.28493 -0.59248,-0.63318 z"
         id="path35" /><path
         style="fill:#680a25"
         d="m 63.357499,192.46467 c -20.746755,-14.72245 -35.763245,-36.13809 -40.62837,-57.94182 -1.129934,-5.06395 -1.457904,-14.04171 -0.659638,-18.05677 1.644776,-8.27277 6.529748,-13.18228 14.970254,-15.04546 1.362084,-0.30067 2.784743,-0.54667 3.161465,-0.54667 0.791046,0 0.824129,0.12921 1.389607,5.42724 0.872233,8.17206 3.085252,14.55811 6.187471,17.85505 7.16282,7.61239 31.8959,15.62299 57.109192,18.49662 2.70004,0.30773 5.74711,0.66037 6.77126,0.78365 l 1.8621,0.22414 -1.69282,0.62556 c -4.64236,1.71551 -9.08124,5.04889 -13.323836,10.00552 -5.930479,6.92859 -9.960935,15.74477 -11.96268,26.16703 -0.402874,2.0976 -0.743824,3.8351 -0.757668,3.8611 -0.01384,0.026 -1.243997,-0.16888 -2.733674,-0.43309 -1.489678,-0.26422 -3.690613,-0.48902 -4.890967,-0.49956 -1.818849,-0.016 -2.394997,0.13823 -3.458132,0.92558 -1.70968,1.26619 -3.589316,3.99302 -5.395672,7.82765 -0.819812,1.74034 -1.591946,3.16499 -1.715853,3.16589 -0.123908,9e-4 -2.028325,-1.27785 -4.232039,-2.84166 z m 133.648031,-0.85961 c -1.86306,-3.75193 -4.16883,-6.80144 -5.84164,-7.7259 -1.18667,-0.65579 -3.72481,-0.64684 -7.5605,0.0267 -1.67588,0.29426 -3.22046,0.53787 -3.43238,0.54135 -0.21192,0.003 -0.72989,-1.49975 -1.15103,-3.34049 -2.19187,-9.5802 -5.91665,-18.40674 -10.38847,-24.61735 -4.28517,-5.95139 -8.33878,-9.51774 -13.19801,-11.61157 l -2.70347,-1.16492 5.2336,-0.44521 c 9.53708,-0.81129 20.61183,-2.60128 29.65105,-4.79244 16.53326,-4.00777 30.93054,-10.57927 34.36059,-15.68358 2.08668,-3.10521 4.15038,-9.00279 4.63091,-13.23407 0.10169,-0.8955 0.3314,-2.60508 0.51046,-3.79907 0.17905,-1.19399 0.32671,-2.76044 0.32811,-3.481 l 0.003,-1.31009 1.60817,0.31866 c 5.98752,1.18642 11.23583,4.67999 13.37144,8.90076 0.47936,0.9474 1.22815,2.94367 1.66398,4.43617 0.70018,2.39779 0.79241,3.42948 0.79241,8.86449 0,5.13051 -0.13167,6.7811 -0.79372,9.94995 -2.53093,12.11409 -8.01215,23.89122 -16.39324,35.22308 -3.47398,4.69708 -12.29722,14.12876 -16.66935,17.81886 -3.25325,2.74576 -11.51242,8.83456 -11.96806,8.82306 -0.12112,-0.003 -1.04515,-1.66687 -2.05341,-3.69735 z"
         id="path34" /><path
         style="fill:#000000"
         d="m 122.1542,213.54194 c -0.65174,-0.08 -2.70851,-0.31446 -4.57061,-0.5211 -11.49367,-1.27546 -22.791424,-4.19104 -33.179176,-8.56245 -3.809286,-1.60304 -14.302498,-6.97681 -16.363354,-8.37998 -0.354531,-0.24139 -0.157501,-0.93059 0.921955,-3.22498 0.755065,-1.60489 1.500953,-3.0026 1.65753,-3.10602 0.156576,-0.10341 1.766592,0.62856 3.577813,1.62661 13.476257,7.42589 29.339932,12.20353 46.263022,13.93299 7.80053,0.79717 23.39853,0.50837 30.80924,-0.57045 15.42833,-2.246 30.26165,-7.10872 41.60144,-13.63796 1.55978,-0.89809 2.95741,-1.49881 3.10584,-1.33493 0.14843,0.16388 0.90181,1.55512 1.67416,3.09165 l 1.40429,2.79369 -1.1245,0.74924 c -1.46931,0.97899 -12.9665,6.99259 -14.49774,7.58304 -0.65173,0.25131 -1.64203,0.66783 -2.20066,0.9256 -3.79944,1.7532 -14.28368,4.93376 -20.82163,6.31656 -8.57774,1.81423 -13.13537,2.23656 -25.39223,2.35296 -6.42423,0.061 -12.21366,0.0455 -12.86539,-0.0345 z m 5.58629,-83.23491 c -16.93173,-1.05432 -27.44307,-3.5056 -51.925436,-12.10917 -17.903012,-6.29146 -23.528689,-7.82573 -31.06255,-8.47158 l -2.748537,-0.23562 -0.403181,-3.31336 c -0.221749,-1.82235 -0.477257,-3.84252 -0.567795,-4.48926 l -0.164614,-1.1759 h 3.028765 c 6.511669,0 13.303492,1.73191 30.506763,7.77924 14.628252,5.14215 18.285259,6.33847 24.220158,7.92317 11.835487,3.16023 20.550957,4.49656 31.348277,4.80657 13.32603,0.38261 24.28039,-1.06322 39.24212,-5.17943 6.70398,-1.84438 7.87576,-2.23001 24.03798,-7.91088 12.30362,-4.32462 19.61189,-6.43905 24.36766,-7.05008 3.16852,-0.40709 8.45556,-0.49186 9.29167,-0.14898 0.63214,0.25924 0.68751,1.76642 0.19131,5.20763 -0.60838,4.21925 -0.18582,3.82381 -4.13042,3.86536 -6.93795,0.0731 -12.71359,1.55658 -30.72217,7.8911 -14.43108,5.07614 -20.40611,6.96973 -27.45464,8.70085 -12.8907,3.16597 -26.29437,4.58042 -37.05536,3.91034 z M 7.7397893,112.50429 c -0.052868,-3.22396 2.3593047,-9.45554 5.1725207,-13.362621 2.037562,-2.829831 5.466694,-6.203764 7.931694,-7.804017 7.156174,-4.645716 16.597368,-5.397113 24.98723,-1.988662 l 2.008369,0.815916 -1.354253,0.268246 c -0.744838,0.147535 -2.443674,0.277628 -3.77519,0.289096 -3.201973,0.02758 -9.44222,1.193449 -12.8144,2.394126 -8.60056,3.06226 -15.430312,9.323506 -21.7327669,19.923746 -0.3589676,0.60375 -0.4054821,0.54486 -0.4232038,-0.53583 z M 255.47441,110.57325 c -4.42357,-6.97537 -9.50003,-12.09488 -15.06765,-15.195425 -4.93766,-2.749729 -9.66563,-4.035091 -16.36015,-4.447723 -1.94691,-0.120002 -4.22543,-0.314736 -5.06338,-0.432741 l -1.52353,-0.214555 1.70102,-0.812449 c 4.73571,-2.261889 12.87262,-2.839788 18.26435,-1.297169 7.42991,2.125764 14.02393,7.974337 17.63818,15.644222 1.31926,2.79962 2.61143,7.4686 2.45351,8.86525 -0.0941,0.83256 -0.33326,0.58558 -2.04235,-2.10941 z"
         id="path33" /></g></g></svg>
