<?xml version="1.0" encoding="UTF-8" standalone="no"?>
<!-- Created with Inkscape (http://www.inkscape.org/) -->

<svg
   width="1080"
   height="1080"
   viewBox="0 0 1080 1080"
   version="1.1"
   id="svg1"
   xml:space="preserve"
   xmlns="http://www.w3.org/2000/svg"
   xmlns:svg="http://www.w3.org/2000/svg"><defs
     id="defs1" /><g
     id="layer1"><g
       id="g6"
       transform="matrix(0.82759073,0,0,0.75666058,698.76427,-168.99213)"><path
         style="fill:#000000;fill-opacity:1;fill-rule:nonzero;stroke:none"
         d="m 137,1188.6667 c -1.33333,-2.6667 -2.33333,-5 -3.66667,-7 0.33334,0 0.33334,0.3333 0.33334,0.6666 1.66666,3 3.33333,6 4.66666,8.6667 z M -628,667 c -42.33333,-17.33333 -90,-13.33333 -126,10 -12.33333,8 -29.66667,25 -40,39.33333 -14,19.66667 -26.33333,51 -26,67.33334 0,5.33333 0.33333,5.66666 2,2.66666 32,-53.33333 66.33333,-85 109.66667,-100.33333 17,-6 48.33333,-12 64.66666,-12.33333 6.66667,0 15,-0.66667 19,-1.33334 C -618,671 -618,671 -618,671 Z M 426.3333,739.66667 C 408,701.33333 375,671.66667 337.3333,661 c -27,-7.66667 -68,-5 -92,6.66667 -8.6666,4 -8.6666,4 -8.6666,4 7.6666,1 7.6666,1 7.6666,1 4.3334,0.66666 16,1.66666 25.6667,2.33333 33.6667,2 57.6667,8.33333 82.3333,22.33333 C 380.6667,713 406,738.66667 428.3333,774 c 8.6667,13.33333 10,14.66667 10.3334,10.33333 0.6666,-7 -5.6667,-30.33333 -12.3334,-44.66666 z"
         id="path1" /><path
         style="fill:#000000;fill-opacity:1;fill-rule:nonzero;stroke:none"
         d="M 381,868.66667 C 381,961.33333 227.3333,1303 -172.66667,1303 c -428,0.3333 -576.66666,-342 -571.66666,-434.33333 C -728.66667,583 -492.33333,837 -181.66667,837 129,837 381,573 381,868.66667 Z"
         id="path2" /><path
         style="fill:#efffd7;fill-opacity:1;fill-rule:nonzero;stroke:none"
         d="m -625.66667,794 c 0,0 3.33334,1.66667 9.33334,5 3,1.66667 7,3.66667 11.33333,6 2.33333,1.33333 4.66667,2.33333 7,4 1.33333,0.66667 2.66667,1.33333 4,2 1.33333,0.66667 2.66667,1.33333 4,2 5.66667,2.66667 11.66667,5.66667 18.33333,9 1.66667,0.66667 3.33334,1.66667 5,2.66667 1,0.33333 2,0.66666 2.66667,1 1,0.66666 2,1 2.66667,1.33333 4,1.66667 7.66666,3.33333 11.66666,5.33333 8,3.33334 16.33334,7.33334 25.33334,11 4.66666,1.66667 9.33333,3.66667 14,5.33334 2.33333,1 4.66666,2 7,3 2.66666,1 5,1.66666 7.66666,2.66666 20,7.33334 41.66667,14.66667 65.33334,21.33334 5.66666,1.66666 11.66666,3.33333 17.66666,4.66666 1.66667,0.66667 3,1 4.66667,1.33334 1.33333,0.33333 3,0.66666 4.66667,1 3,0.66666 6,1.33333 9,2.33333 3.33333,0.66667 6.33333,1.33333 9.33333,2 1.66667,0.33333 3.33333,0.66667 5,1 1.33333,0.33333 3,0.66667 4.66667,1 6.33333,1.33333 12.66666,2.66667 19.33333,4 6.33333,1.33333 13,2 19.66667,3 3.33333,0.66667 6.66666,1.33333 10,1.66667 3.33333,0.66666 6.66666,1.33333 10,1.66666 13.66666,1.33334 27.33333,3.33334 41.33333,4.33334 3.33333,0.33333 6.66667,0.33333 10.33333,0.66666 1.66667,0.33334 3.33334,0.33334 5,0.66667 5.33334,0 5.33334,0 5.33334,0 7,0.33333 14,0.66667 21,1 2.66666,0.33333 2.66666,0.33333 2.66666,0.33333 2.66667,0 2.66667,0 2.66667,0 5.33333,0 5.33333,0 5.33333,0 3.33334,0 7,0 10.66667,0.33334 10.33333,0 10.33333,0 10.33333,0 C -191,906.33333 -191,906.33333 -191,906.33333 c 28.33333,0 56.33333,-2 84,-5 C -79.33333,898.66667 -52.33333,894 -26.33333,889 c 6.66666,-1.33333 13,-2.66667 19.33333,-4 6.33333,-1.66667 12.66667,-3 19,-4.66667 C 15,879.66667 18,879 21,878 c 3,-0.66667 6,-1.66667 9,-2.33333 3.33333,-1 6,-1.66667 9,-2.33334 3,-1 6,-1.66666 9,-2.66666 5.66667,-1.66667 11.33333,-3.33334 17,-5 1.66667,-0.66667 3,-1 4.33333,-1.33334 1.33334,-0.66666 2.66667,-1 4,-1.33333 3,-1 5.66667,-2 8.33334,-3 2.66666,-0.66667 5.33333,-1.66667 8,-2.66667 C 91,857 92.33333,856.66667 93.66667,856 c 1.33333,-0.33333 2.66666,-0.66667 4,-1.33333 5,-2 10,-3.66667 15,-5.66667 1.33333,-0.33333 2.66666,-0.66667 3.66666,-1.33333 1.33334,-0.33334 2.66667,-1 3.66667,-1.33334 2.33333,-1 5,-2 7.33333,-3 C 132,841.66667 136.66667,839.66667 141,838 c 4.33333,-2 8.66667,-4 13,-5.66667 2,-1 4,-1.66666 6,-2.66666 2,-1 4,-2 6,-2.66667 3.66667,-2 7.66667,-3.66667 11,-5.33333 2,-1 3.6667,-1.66667 5.3333,-2.66667 2,-1 3.6667,-1.66667 5,-2.66667 C 190.6667,814.66667 194,813 197,811.66667 198.3333,811 200,810 201.3333,809.33333 203,808.66667 204.3333,808 205.6667,807 211,804 215.6667,801.33333 220,799.33333 224,797 227.3333,794.66667 230.3333,793 236,789.66667 239,788 239,788 c 38,55.33333 38,55.33333 38,55.33333 0,0 -3,2.33334 -9,6.66667 -3,2 -6.6667,5 -11,8 -4.3333,3 -9.6667,6.33333 -15.3333,10 -11.3334,7.33333 -25.6667,16.33333 -42.3334,25 -2,1.33333 -4.3333,2.33333 -6.3333,3.66667 -2.3333,1 -4.3333,2.33333 -6.6667,3.33333 -4.6666,2.33333 -9.3333,4.66667 -13.99997,7 -4.66666,2.33333 -9.66666,4.66667 -14.66666,7 -2.66667,1 -5.33334,2.33333 -7.66667,3.33333 -1.33333,0.66667 -2.66667,1.33334 -4,2 -1.33333,0.66667 -2.66667,1 -4,1.66667 -5.33333,2.33333 -11,4.66667 -16.66667,7 -1.33333,0.33333 -2.66666,1 -4,1.66667 -1.66666,0.33333 -3,1 -4.33333,1.66666 -3,1 -6,2 -8.66667,3.33334 -3,1 -6,2 -9,3.33333 -1.66666,0.33333 -3,1 -4.66666,1.66667 -1.33334,0.33333 -3,1 -4.33334,1.33333 -6.33333,2 -12.66666,4.33333 -19,6.33333 -3,1 -6.33333,2 -9.33333,3 -3.33333,1 -6.66667,2 -10,3 -3.33333,1 -6.33333,2 -9.66667,3 C 39,957.33333 35.33333,958 32,959 c -6.66667,1.66667 -13.66667,3.66667 -20.33333,5.33333 -7,1.66667 -14,3 -21.33334,4.66667 -7,1.66667 -14.33333,3 -21.33333,4.33333 -3.66667,0.66667 -7.33333,1.33334 -11,2 -2,0.33334 -3.66667,0.66667 -5.66667,1 C -49.33333,976.66667 -51.33333,977 -53,977 c -7.33333,1.33333 -15,2.33333 -22.33333,3.66667 C -83,981.33333 -90.66667,982.33333 -98,983 c -30.33333,3.33333 -61.66667,5.33333 -92.66667,5 -11.66666,0 -11.66666,0 -11.66666,0 C -214,987.66667 -214,987.66667 -214,987.66667 c -3.66667,-0.33334 -7.66667,-0.33334 -11.33333,-0.66667 -6,0 -6,0 -6,0 -3,-0.33333 -3,-0.33333 -3,-0.33333 -2.66667,0 -2.66667,0 -2.66667,0 -15.66667,-1.33334 -31,-2.33334 -46,-4.33334 -4,-0.33333 -7.66667,-0.66666 -11.33333,-1.33333 -2,0 -4,-0.33333 -5.66667,-0.66667 -2,0 -4,-0.33333 -5.66667,-0.66666 -7.66666,-1.33334 -15,-2.33334 -22.33333,-3.66667 -3.66667,-0.33333 -7.33333,-1.33333 -11,-2 -3.66667,-0.66667 -7.33333,-1.33333 -11,-2 -3.66667,-1 -7.33333,-1.66667 -10.66667,-2.33333 -2,-0.33334 -3.66666,-0.66667 -5.66666,-1 -1.66667,-0.66667 -3.33334,-1 -5.33334,-1.33334 -7,-1.66666 -14,-3.66666 -21,-5.33333 -1.66666,-0.33333 -3.33333,-0.66667 -5,-1 -1.66666,-0.66667 -3.33333,-1 -5,-1.66667 -3.66666,-1 -7,-2 -10.33333,-3 -3.33333,-1 -6.66667,-2 -10,-3 -1.66667,-0.33333 -3.33333,-0.66666 -5,-1.33333 -1.66667,-0.33333 -3.33333,-1 -5,-1.33333 C -439.33333,948.33333 -445.66667,946 -452,944 c -25.33333,-8.66667 -48.33333,-18.33333 -69.66667,-28 -2.33333,-1.33333 -5,-2.33333 -7.66666,-3.66667 -2.66667,-1.33333 -5,-2.66666 -7.66667,-3.66666 -4.66667,-2.66667 -9.66667,-5 -14.33333,-7.33334 -9.33334,-4.66666 -18,-10 -26.33334,-14.33333 -4,-2.33333 -8,-4.66667 -11.66666,-7 -1,-0.33333 -2,-1 -3,-1.33333 -1,-0.66667 -1.66667,-1.33334 -2.66667,-2 -2,-1 -3.66667,-2 -5.33333,-3.33334 -7,-4.33333 -13.33334,-8.33333 -19,-12 -1.66667,-1 -3,-2 -4.33334,-2.66666 -1.33333,-1 -2.33333,-2 -3.66666,-2.66667 -2.33334,-1.66667 -4.66667,-3.33333 -6.66667,-4.66667 -4,-3 -7.66667,-5.66666 -10.33333,-7.66666 C -650,839.66667 -653,837.33333 -653,837.33333 Z"
         id="path3" /><path
         style="fill:#efffd7;fill-opacity:1;fill-rule:nonzero;stroke:none"
         d="m -458.66667,1125 c 0,0 1,-1 3,-2.6667 0.33334,-0.6666 0.66667,-1 1,-1.3333 0.66667,-0.6667 1,-1 1.66667,-1.6667 1,-1 2.33333,-2 3.66667,-3.3333 0.33333,-0.3333 0.66666,-0.6667 1,-1 0.33333,-0.3333 0.33333,-0.3333 0.66666,-0.6667 0.33334,-0.3333 0.33334,-0.3333 0.33334,-0.3333 0.66666,-0.6667 1.33333,-1 2,-1.6667 0.66666,-0.6666 1.33333,-1.3333 2,-2 0.66666,-0.3333 1.33333,-1 2,-1.3333 0.66666,-0.3333 1.33333,-1 2,-1.3333 0.66666,-0.3334 1,-0.6667 1.66666,-1 1,-0.6667 2,-1 2.66667,-1.3334 1,0 1.66667,0 2,0.3334 0.66667,0.3333 1,0.6666 1.66667,1 1.33333,0.6666 2.66666,1.6666 4,2.3333 0.66666,0.3333 1.33333,0.6667 2,1.3333 0.66666,0.3334 1.66666,1 2.33333,1.3334 1.33333,0.6666 3,1.3333 4.33333,2 C -415.33333,1115.3333 -412,1117 -408,1119 c 4,2 8.33333,4 13,6 4.66667,2.3333 10,4.3333 15,6.3333 0.66667,0.3334 1.33333,0.6667 2,1 0.66667,0.3334 1.33333,0.6667 2,0.6667 1.66667,0.6667 3,1.3333 4.33333,1.6667 C -369,1135.6667 -366,1137 -363,1138 c 3,1 6,2 9,3.3333 3,1 6.33333,2.3334 9.33333,3.3334 3.33334,1 6.66667,2 10,3 1.66667,0.6666 3.33334,1.3333 5,1.6666 1.66667,0.3334 3.33334,1 5,1.3334 3.66667,1 7,2.3333 10.66667,3.3333 3.66667,0.6667 7,1.6667 10.66667,2.6667 2,0.3333 4,1 5.66666,1.3333 2,0.6667 3.66667,1 5.66667,1.3333 3.66667,1 7.66667,1.6667 11.66667,2.6667 7.66666,1.3333 15.66666,3.3333 23.66666,4.3333 2,0.3334 4,0.6667 6,1 3.33334,0.3334 3.33334,0.3334 3.33334,0.3334 3,0.3333 3,0.3333 3,0.3333 4,0.6667 8.33333,1 12.33333,1.6667 4.33333,0.3333 8.66667,0.6666 12.66667,1 C -217,1170.6667 -215,1171 -213,1171 c 2.33333,0.3333 4.33333,0.3333 6.66667,0.3333 4.33333,0 8.33333,0.3334 12.66666,0.3334 4.33334,0 8.66667,0.3333 13,0.3333 2.33334,0 4.33334,-0.3333 6.66667,-0.3333 6.33333,0 6.33333,0 6.33333,0 6.66667,-0.3334 6.66667,-0.3334 6.66667,-0.3334 2,0 4.33333,-0.3333 6.33333,-0.3333 4.33334,-0.3333 8.66667,-0.6667 13,-1 4.33334,-0.3333 8.33334,-0.6667 12.66667,-1 4.33333,-0.3333 8.66667,-1 12.66667,-1.3333 4.33333,-0.6667 8.66666,-1 12.66666,-1.6667 4.33334,-0.3333 8.33334,-1 12.66667,-1.6667 4,-0.6666 8,-1.3333 12,-2 2,-0.3333 4,-0.6666 6.33333,-1 2,-0.3333 3.66667,-0.6666 5.66667,-1.3333 4,-0.6667 8,-1.3333 12,-2 3.66667,-1 7.66667,-1.6667 11.33333,-2.6667 2,-0.3333 4,-0.6666 5.66667,-1.3333 2,-0.3333 3.66667,-0.6667 5.66667,-1.3333 C -28.66667,1152 -25,1151 -21.66667,1150 -18,1149.3333 -14.33333,1148.3333 -11,1147.3333 c 7,-1.6666 13.33333,-3.6666 19.66667,-5.6666 1.66666,-0.3334 3.33333,-1 5,-1.3334 1.33333,-0.6666 3,-1 4.33333,-1.3333 3,-1 6,-2 9,-3 5.66667,-1.6667 11,-3.6667 16.33333,-5.6667 10,-3.3333 19,-6.6666 26,-9.6666 2,-0.6667 3.66667,-1.3334 5.33334,-2 1.66666,-0.6667 3,-1.3334 4.33333,-1.6667 3,-1.3333 5.33333,-2.3333 7,-3 4,-1.6667 6,-2.3333 6,-2.3333 C 93,1111 93,1111 93,1111 c 14,-5.6667 30,1.3333 35.33333,15 5,12 0.66667,25.6667 -9.66666,32.6667 0,0 -2,1.3333 -6,4 C 109,1165 103.33333,1169 96,1173.3333 c -7.33333,4.6667 -16.33333,10 -27,15.6667 -2.66667,1.3333 -5.33333,2.6667 -8.33333,4 C 58,1194.6667 55,1196 52,1197.6667 49,1199 45.66667,1200.3333 42.66667,1202 c -1.66667,0.6667 -3.33334,1.3333 -5,2 -1.66667,1 -3.33334,1.6667 -5,2.3333 -6.66667,3 -14,6 -21.33334,8.6667 -3.66666,1.3333 -7.66666,3 -11.33333,4.3333 -4,1.3334 -8,2.6667 -12,4 -2,0.6667 -4,1.6667 -6,2.3334 -2,0.3333 -4,1 -6.33333,1.6666 -4,1.3334 -8.33334,2.6667 -12.66667,4 -4,1 -8.33333,2.3334 -13,3.3334 -2,0.6666 -4.33333,1.3333 -6.66667,2 -2,0.3333 -4.33333,1 -6.66666,1.3333 -4.33334,1 -9,2.3333 -13.66667,3.3333 -4.66667,0.6667 -9.33333,1.6667 -14,2.6667 -4.66667,1 -9.33333,1.6667 -14.33333,2.3333 -4.66667,0.6667 -9.33334,1.6667 -14.33334,2.3334 -5,0.3333 -9.66666,1 -14.66666,1.6666 -5,0.6667 -10,1 -14.66667,1.3334 -2.66667,0.3333 -5,0.3333 -7.66667,0.6666 -7.33333,0.3334 -7.33333,0.3334 -7.33333,0.3334 -7.66667,0.3333 -7.66667,0.3333 -7.66667,0.3333 -2.33333,0.3333 -5,0.3333 -7.33333,0.3333 -20,0.6667 -40,0 -60,-1.3333 -19.66667,-1.3333 -39.33333,-4 -58,-7.3333 -4.66667,-1 -9.33333,-2 -14,-3 -2.33333,-0.6667 -4.66667,-1 -6.66667,-1.6667 -2.33333,-0.6667 -4.66666,-1.3333 -7,-1.6667 -4.33333,-1.3333 -8.66666,-2.6666 -13,-4 -4.33333,-1.3333 -8.66666,-2.6666 -12.66666,-4 -2.33334,-1 -4.33334,-1.6666 -6.33334,-2.3333 -2,-0.6667 -4,-1.6667 -6,-2.3333 -4,-1.6667 -8,-3.3334 -11.66666,-5 -2,-0.6667 -4,-1.6667 -5.66667,-2.3334 -2,-1 -3.66667,-2 -5.66667,-2.6666 -3.33333,-2 -7,-3.6667 -10.33333,-5.3334 -3.66667,-2 -6.66667,-3.6666 -10,-5.6666 -1.66667,-1 -3.33333,-1.6667 -4.66667,-2.6667 -1,-0.6667 -1.66666,-1 -2.33333,-1.3333 -1,-0.6667 -1.66667,-1 -2.33333,-1.6667 -3,-1.6667 -6,-3.6667 -8.66667,-5.6667 -2.66667,-1.6666 -5.33333,-3.3333 -8,-5.3333 -5,-3.6667 -9.66667,-7.3333 -14,-10.6667 -2,-1.6666 -4.33333,-3.6666 -6,-5.3333 -2,-1.6667 -4,-3.3333 -5.66667,-4.6667 -1.66666,-1.6666 -3.33333,-3 -5,-4.3333 -1,-0.6667 -1.33333,-1.3333 -2,-2 -0.66666,-0.6667 -1.33333,-1.3333 -1.66666,-1.6667 -1.33334,-1.3333 -2.33334,-2.3333 -3.33334,-3.3333 -0.33333,-0.3333 -0.66666,-1 -1.33333,-1.3333 -0.33333,-0.3334 -0.66667,-1 -0.66667,-1.6667 0,-1 0,-2 0.33334,-3 0.33333,-0.6667 0.33333,-1.3333 0.66666,-2 0.33334,-0.6667 0.33334,-1.3333 0.66667,-2 0.33333,-1 0.66667,-1.6667 1,-2.3333 0.66667,-1 1,-1.6667 1.33333,-2.6667 0.33334,-0.6667 0.66667,-1.3333 1,-2 0.33334,-0.3333 0.33334,-0.3333 0.33334,-0.6667 0,-0.3333 0.33333,-0.3333 0.33333,-0.6666 0.33333,-0.3334 0.66667,-1 0.66667,-1.3334 1,-1.6666 2,-3.3333 2.66666,-4.3333 0.33334,-0.6667 0.66667,-1.3333 1,-2 0.33334,-0.3333 0.66667,-1 1,-1.6667 1.33334,-2 2,-3.3333 2,-3.3333 z"
         id="path4" /></g></g></svg>
