<?xml version="1.0" encoding="UTF-8" standalone="no"?>
<!-- Created with Inkscape (http://www.inkscape.org/) -->

<svg
   width="1000.0001"
   height="1000.0001"
   viewBox="0 0 264.58335 264.58335"
   version="1.1"
   id="svg1"
   xml:space="preserve"
   xmlns="http://www.w3.org/2000/svg"
   xmlns:svg="http://www.w3.org/2000/svg"><defs
     id="defs1" /><g
     id="layer1"><g
       id="g39"
       transform="translate(-5.017324,-7.1676008)"><path
         style="fill:#b68996"
         d="m 185.29357,212.35637 c 0,-0.0879 0.31683,-0.42136 0.70406,-0.74097 0.63811,-0.52667 0.65234,-0.51169 0.1519,0.15986 -0.52558,0.7053 -0.85596,0.92959 -0.85596,0.58111 z M 51.753858,140.2894 c 0.0193,-0.49325 0.114638,-0.59358 0.243071,-0.25581 0.116219,0.30565 0.101926,0.67084 -0.03176,0.81153 -0.133689,0.1407 -0.228777,-0.10938 -0.211308,-0.55572 z m -0.402324,-2.54047 c 0.0193,-0.49325 0.114639,-0.59358 0.243071,-0.25581 0.116219,0.30565 0.101926,0.67084 -0.03176,0.81154 -0.133689,0.14069 -0.228778,-0.10938 -0.211309,-0.55573 z M 217.1089,136.90211 c 0.0193,-0.49325 0.11464,-0.59358 0.24307,-0.25581 0.11622,0.30565 0.10193,0.67084 -0.0318,0.81154 -0.13369,0.14069 -0.22878,-0.10938 -0.21131,-0.55573 z M 50.949211,134.78506 c 0.01931,-0.49325 0.114638,-0.59358 0.24307,-0.25581 0.11622,0.30564 0.101927,0.67084 -0.03176,0.81153 -0.133689,0.1407 -0.228778,-0.10938 -0.211308,-0.55572 z m 166.593779,-0.59984 c 0,-0.58219 0.0913,-0.82035 0.20293,-0.52926 0.11161,0.2911 0.11161,0.76743 0,1.05853 -0.11161,0.29109 -0.20293,0.0529 -0.20293,-0.52927 z M 50.578649,131.64476 c 0,-0.58219 0.09132,-0.82036 0.202927,-0.52926 0.111609,0.29109 0.111609,0.76743 0,1.05852 -0.11161,0.2911 -0.202927,0.0529 -0.202927,-0.52926 z m 167.366661,-0.84682 c 0,-0.58219 0.0913,-0.82036 0.20293,-0.52927 0.11161,0.2911 0.11161,0.76744 0,1.05853 -0.11161,0.2911 -0.20293,0.0529 -0.20293,-0.52926 z M 50.191233,127.62236 c 0.0082,-0.69863 0.09837,-0.93317 0.200374,-0.52121 0.102007,0.41197 0.0953,0.98357 -0.01491,1.27023 -0.110206,0.28667 -0.193666,-0.0504 -0.185467,-0.74902 z m 168.171317,-1.27024 c 0.008,-0.69862 0.0984,-0.93317 0.20037,-0.5212 0.10201,0.41196 0.0953,0.98357 -0.0149,1.27023 -0.1102,0.28666 -0.19366,-0.0504 -0.18546,-0.74903 z M 49.831039,121.4829 c 0,-1.28082 0.07542,-1.80479 0.167604,-1.16438 0.09218,0.64041 0.09218,1.68835 0,2.32876 -0.09218,0.64041 -0.167604,0.11644 -0.167604,-1.16438 z m 169.019181,-6.35116 c 0,-3.84246 0.061,-5.41437 0.13554,-3.49314 0.0745,1.92122 0.0745,5.06505 0,6.98628 -0.0745,1.92122 -0.13554,0.34931 -0.13554,-3.49314 z M 49.825547,108.99228 c 0.003,-1.16438 0.08115,-1.59047 0.17363,-0.94685 0.09248,0.64361 0.09,1.59628 -0.0055,2.11705 -0.0955,0.52077 -0.171158,-0.006 -0.168138,-1.1702 z m 168.537003,-4.65752 c 0.008,-0.69863 0.0984,-0.93317 0.20037,-0.52121 0.10201,0.41197 0.0953,0.98357 -0.0149,1.27024 -0.1102,0.28666 -0.19366,-0.0504 -0.18546,-0.74903 z M 50.176326,103.27623 c 0,-0.58219 0.09132,-0.82036 0.202926,-0.52926 0.11161,0.29109 0.11161,0.76743 0,1.05853 -0.111609,0.29109 -0.202926,0.0529 -0.202926,-0.52927 z m 167.737224,-2.36404 c 0.0193,-0.49325 0.11464,-0.59358 0.24307,-0.25581 0.11622,0.30565 0.10193,0.67084 -0.0318,0.81153 -0.13369,0.1407 -0.22878,-0.10938 -0.21131,-0.55572 z M 50.546887,100.06537 c 0.01931,-0.493253 0.114638,-0.593583 0.24307,-0.255815 0.11622,0.305655 0.101927,0.670845 -0.03176,0.811535 -0.133689,0.1407 -0.228777,-0.10938 -0.211308,-0.55572 z m 0.402324,-2.540469 c 0.01931,-0.493249 0.114638,-0.593579 0.24307,-0.255811 0.11622,0.30565 0.101927,0.670842 -0.03176,0.811538 -0.133689,0.140696 -0.228778,-0.109381 -0.211308,-0.555727 z m 81.352899,-0.489778 c 1.28043,-0.08428 3.27193,-0.0835 4.42556,0.0017 1.15363,0.08523 0.10601,0.154191 -2.32805,0.153236 -2.43406,-9.55e-4 -3.37794,-0.07069 -2.09751,-0.154973 z m -12.88905,-0.413324 c 0.60851,-0.09701 1.60427,-0.09701 2.21278,0 0.60852,0.09701 0.11064,0.176389 -1.10639,0.176389 -1.21703,0 -1.7149,-0.07937 -1.10639,-0.176389 z m 27.76034,0 c 0.60851,-0.09701 1.60426,-0.09701 2.21278,0 0.60851,0.09701 0.11064,0.176389 -1.10639,0.176389 -1.21703,0 -1.71491,-0.07937 -1.10639,-0.176389 z M 112.97588,96.20979 c 0.38724,-0.106499 1.0209,-0.106499 1.40813,0 0.38724,0.1065 0.0704,0.193636 -0.70406,0.193636 -0.77448,0 -1.09131,-0.08714 -0.70407,-0.193636 z m 41.6452,-0.0076 c 0.50045,-0.101277 1.22463,-0.09743 1.60929,0.0085 0.38466,0.105977 -0.0248,0.18884 -0.90992,0.18414 -0.88511,-0.0047 -1.19983,-0.09141 -0.69937,-0.192685 z m -46.46543,-0.417368 c 0.39145,-0.107353 0.93459,-0.100293 1.20697,0.01569 0.27239,0.115982 -0.0479,0.203816 -0.71172,0.195187 -0.66383,-0.0086 -0.88669,-0.103523 -0.49525,-0.210876 z m 51.49744,0 c 0.39145,-0.107353 0.93458,-0.100293 1.20697,0.01569 0.27239,0.115982 -0.0479,0.203816 -0.71172,0.195187 -0.66384,-0.0086 -0.8867,-0.103523 -0.49525,-0.210876 z M 103.9236,95.37442 c 0.27659,-0.11746 0.72921,-0.11746 1.00581,0 0.27659,0.117459 0.0503,0.213562 -0.50291,0.213562 -0.55319,0 -0.7795,-0.0961 -0.5029,-0.213562 z m 59.94623,0 c 0.2766,-0.11746 0.72921,-0.11746 1.00581,0 0.2766,0.117459 0.0503,0.213562 -0.5029,0.213562 -0.5532,0 -0.77951,-0.0961 -0.50291,-0.213562 z m -63.13968,-0.432232 c 0.29043,-0.122311 0.63743,-0.107269 0.77112,0.03343 0.13369,0.140696 -0.10393,0.240768 -0.52805,0.222383 -0.46868,-0.02032 -0.56401,-0.120646 -0.24307,-0.25581 z m 66.78574,0 c 0.29043,-0.122311 0.63743,-0.107269 0.77112,0.03343 0.13369,0.140696 -0.10393,0.240768 -0.52805,0.222383 -0.46868,-0.02032 -0.56402,-0.120646 -0.24307,-0.25581 z M 97.511563,94.518777 c 0.290428,-0.122311 0.637432,-0.107269 0.771121,0.03343 0.133688,0.140696 -0.103934,0.240769 -0.52805,0.222384 -0.468684,-0.02032 -0.564018,-0.120647 -0.243071,-0.255811 z m 73.222917,0 c 0.29043,-0.122311 0.63743,-0.107269 0.77112,0.03343 0.13369,0.140696 -0.10393,0.240769 -0.52805,0.222384 -0.46868,-0.02032 -0.56402,-0.120647 -0.24307,-0.255811 z M 94.695297,94.095366 c 0.290428,-0.122311 0.637432,-0.107269 0.771121,0.03343 0.133688,0.140696 -0.103934,0.240769 -0.52805,0.222384 -0.468684,-0.02032 -0.564018,-0.120647 -0.243071,-0.255811 z m 78.855443,0 c 0.29043,-0.122311 0.63744,-0.107269 0.77113,0.03343 0.13368,0.140696 -0.10394,0.240769 -0.52805,0.222384 -0.46869,-0.02032 -0.56402,-0.120647 -0.24308,-0.255811 z M 92.281355,93.671955 c 0.290427,-0.122311 0.637432,-0.107269 0.77112,0.03343 0.133689,0.140696 -0.103933,0.240769 -0.528049,0.222384 -0.468685,-0.02032 -0.564018,-0.120647 -0.243071,-0.255811 z m 83.683335,0 c 0.29042,-0.122311 0.63743,-0.107269 0.77112,0.03343 0.13369,0.140696 -0.10394,0.240769 -0.52805,0.222384 -0.46869,-0.02032 -0.56402,-0.120647 -0.24307,-0.255811 z M 89.867413,93.248544 c 0.290427,-0.122311 0.637431,-0.107268 0.77112,0.03343 0.133689,0.140695 -0.103934,0.240768 -0.52805,0.222383 -0.468684,-0.02032 -0.564017,-0.120647 -0.24307,-0.255811 z"
         id="path45" /><path
         style="fill:#ca6c89"
         d="m 128.49049,237.20823 c 0.29043,-0.12231 0.63743,-0.10727 0.77112,0.0334 0.13369,0.1407 -0.10393,0.24077 -0.52805,0.22238 -0.46868,-0.0203 -0.56402,-0.12064 -0.24307,-0.25581 z m 11.26506,0 c 0.29043,-0.12231 0.63743,-0.10727 0.77112,0.0334 0.13369,0.1407 -0.10393,0.24077 -0.52805,0.22238 -0.46868,-0.0203 -0.56401,-0.12064 -0.24307,-0.25581 z m 40.9113,-20.03448 c 0.4005,-0.46575 0.81871,-0.84682 0.92935,-0.84682 0.11064,0 -0.12652,0.38107 -0.52703,0.84682 -0.40051,0.46575 -0.81872,0.84682 -0.92936,0.84682 -0.11064,0 0.12653,-0.38107 0.52704,-0.84682 z m 3.62091,-3.8107 c 0.40051,-0.46575 0.81872,-0.84682 0.92936,-0.84682 0.11064,0 -0.12653,0.38107 -0.52704,0.84682 -0.40051,0.46575 -0.81872,0.84682 -0.92936,0.84682 -0.11063,0 0.12653,-0.38107 0.52704,-0.84682 z"
         id="path44" /><path
         style="fill:#e6486d"
         d="m 129.69746,237.20823 c 0.29043,-0.12231 0.63743,-0.10727 0.77112,0.0334 0.13369,0.1407 -0.10393,0.24077 -0.52805,0.22238 -0.46868,-0.0203 -0.56402,-0.12064 -0.24307,-0.25581 z m 8.85112,0 c 0.29043,-0.12231 0.63743,-0.10727 0.77112,0.0334 0.13369,0.1407 -0.10393,0.24077 -0.52805,0.22238 -0.46868,-0.0203 -0.56401,-0.12064 -0.24307,-0.25581 z m -51.050124,-20.35204 -0.975359,-1.16438 1.10639,1.02648 c 1.034088,0.9594 1.290891,1.30228 0.975359,1.30228 -0.07207,0 -0.569943,-0.52397 -1.10639,-1.16438 z M 182.4773,215.2684 c 0.5197,-0.58219 1.03543,-1.05853 1.14607,-1.05853 0.11064,0 -0.22404,0.47634 -0.74374,1.05853 -0.5197,0.58219 -1.03544,1.05853 -1.14607,1.05853 -0.11064,0 0.22404,-0.47634 0.74374,-1.05853 z m -98.599758,-2.22291 -0.975359,-1.16438 1.106391,1.02649 c 1.034088,0.9594 1.290891,1.30227 0.975359,1.30227 -0.07207,0 -0.569943,-0.52397 -1.106391,-1.16438 z m 27.268568,-2.67997 c -11.628778,-1.02108 -20.599099,-4.25019 -26.64018,-9.58985 -3.154745,-2.78845 -6.577355,-7.76104 -7.623587,-11.07605 l -0.693155,-2.19627 1.700463,-2.31965 c 4.774868,-6.5135 13.92079,-10.76475 23.173239,-10.77148 7.44987,-0.005 14.07678,1.85849 25.29025,7.11321 5.35261,2.50828 7.2331,3.19936 8.64996,3.17887 1.34593,-0.0195 3.46212,-0.80718 8.24764,-3.07008 14.09654,-6.66575 23.15973,-8.50807 32.30344,-6.56648 4.34828,0.92332 10.68007,4.22765 13.6205,7.10804 l 2.31848,2.27114 -0.71409,2.70304 c -1.23307,4.66758 -3.31502,8.31114 -6.90414,12.08276 -2.75403,2.89406 -3.94111,3.78538 -7.4658,5.60572 -7.30106,3.77067 -16.08731,5.67971 -25.91656,5.63105 -7.34478,-0.0364 -12.39179,-1.48168 -15.84151,-4.53657 l -1.26413,-1.11945 -1.46386,1.35265 c -3.66655,3.388 -11.64727,5.00105 -20.77696,4.1994 z"
         id="path43" /><path
         style="fill:#935063"
         d="m 100.70501,174.12884 c 0.2766,-0.11746 0.72921,-0.11746 1.00581,0 0.27659,0.11746 0.0503,0.21356 -0.50291,0.21356 -0.55319,0 -0.7795,-0.0961 -0.5029,-0.21356 z m 67.59038,0 c 0.2766,-0.11746 0.72921,-0.11746 1.00581,0 0.2766,0.11746 0.0503,0.21356 -0.5029,0.21356 -0.5532,0 -0.77951,-0.0961 -0.50291,-0.21356 z m 49.61816,-44.84813 c 0.0193,-0.49324 0.11464,-0.59357 0.24307,-0.25581 0.11622,0.30565 0.10193,0.67085 -0.0318,0.81154 -0.13369,0.1407 -0.22878,-0.10938 -0.21131,-0.55573 z M 50.144563,125.89343 c 0.01931,-0.49325 0.114638,-0.59358 0.243071,-0.25581 0.116219,0.30565 0.101926,0.67084 -0.03176,0.81153 -0.133688,0.1407 -0.228777,-0.10938 -0.211308,-0.55572 z m 168.203077,-1.44666 c 0,-0.58219 0.0913,-0.82035 0.20292,-0.52926 0.11161,0.2911 0.11161,0.76743 0,1.05853 -0.11161,0.29109 -0.20292,0.0529 -0.20292,-0.52927 z M 49.859323,115.13174 c 0,-2.4452 0.06649,-3.44551 0.147764,-2.22291 0.08127,1.2226 0.08127,3.22321 0,4.44581 -0.08127,1.2226 -0.147764,0.22229 -0.147764,-2.2229 z m 168.456557,-9.13862 c 0.0193,-0.49325 0.11463,-0.59358 0.24307,-0.25581 0.11622,0.30565 0.10192,0.67084 -0.0318,0.81153 -0.13369,0.1407 -0.22877,-0.10938 -0.2113,-0.55572 z M 50.144563,104.72289 c 0.01931,-0.49325 0.114638,-0.59358 0.243071,-0.25582 0.116219,0.30565 0.101926,0.67085 -0.03176,0.81154 -0.133688,0.1407 -0.228777,-0.10938 -0.211308,-0.55572 z m 76.309167,-7.680704 c 0.71915,-0.09392 1.89595,-0.09392 2.6151,0 0.71915,0.09392 0.13075,0.170771 -1.30755,0.170771 -1.43831,0 -2.02671,-0.07685 -1.30755,-0.170771 z m 13.27668,0 c 0.71915,-0.09392 1.89595,-0.09392 2.6151,0 0.71916,0.09392 0.13076,0.170771 -1.30755,0.170771 -1.43831,0 -2.02671,-0.07685 -1.30755,-0.170771 z m -22.72363,-0.410537 c 0.39144,-0.107353 0.93458,-0.100293 1.20697,0.01569 0.27238,0.115982 -0.0479,0.203817 -0.71173,0.195188 -0.66383,-0.0086 -0.88669,-0.103524 -0.49524,-0.210877 z m 33.79519,0 c 0.39144,-0.107353 0.93458,-0.100293 1.20697,0.01569 0.27238,0.115982 -0.0479,0.203817 -0.71173,0.195188 -0.66383,-0.0086 -0.88669,-0.103524 -0.49524,-0.210877 z m -39.63655,-0.410408 c 0.2766,-0.117459 0.72922,-0.117459 1.00581,0 0.2766,0.11746 0.0503,0.213563 -0.5029,0.213563 -0.5532,0 -0.7795,-0.0961 -0.50291,-0.213563 z m 45.89005,-0.0088 c 0.29043,-0.122311 0.63743,-0.107268 0.77112,0.03343 0.13369,0.140696 -0.10393,0.240769 -0.52805,0.222384 -0.46868,-0.02032 -0.56401,-0.120647 -0.24307,-0.255811 z M 106.76501,95.78903 c 0.29043,-0.122311 0.63743,-0.107268 0.77112,0.03343 0.13369,0.140696 -0.10393,0.240768 -0.52805,0.222383 -0.46869,-0.02032 -0.56402,-0.120647 -0.24307,-0.255811 z m 54.71602,0 c 0.29043,-0.122311 0.63744,-0.107268 0.77112,0.03343 0.13369,0.140696 -0.10393,0.240768 -0.52805,0.222383 -0.46868,-0.02032 -0.56401,-0.120647 -0.24307,-0.255811 z m -4.04838,-39.791798 c 0.2766,-0.11746 0.72921,-0.11746 1.00581,0 0.2766,0.117459 0.0503,0.213562 -0.5029,0.213562 -0.5532,0 -0.77951,-0.0961 -0.50291,-0.213562 z m 7.45065,-0.013 c 0.39144,-0.107353 0.93458,-0.100293 1.20697,0.01569 0.27238,0.115982 -0.0479,0.203816 -0.71173,0.195187 -0.66383,-0.0086 -0.88669,-0.103523 -0.49524,-0.210877 z"
         id="path42" /><path
         style="fill:#d0084a"
         d="M 127.76128,237.02272 C 107.25744,234.54326 89.62086,222.71293 75.465392,201.94347 l -2.155797,-3.16307 0.454166,-3.27935 c 0.430858,-3.11105 1.973364,-7.8147 2.41152,-7.35358 0.112278,0.11817 0.604824,1.25237 1.094548,2.52047 3.6473,9.44434 13.050422,16.10024 26.352021,18.65301 12.54508,2.40758 23.61722,1.17333 28.30122,-3.15483 l 1.46386,-1.35265 1.26413,1.11945 c 3.44972,3.05489 8.49673,4.50021 15.84151,4.53657 9.82925,0.0487 18.6155,-1.86038 25.91656,-5.63105 7.17367,-3.70487 12.35603,-10.06516 14.3495,-17.61109 0.3815,-1.44411 0.85416,-2.52126 1.05034,-2.39365 1.31921,0.85805 3.78041,6.62758 4.28452,10.04373 0.3136,2.1251 0.27332,2.2589 -1.4861,4.93648 -7.23141,11.00515 -15.47759,19.81778 -24.54168,26.2275 -3.45086,2.44029 -11.52021,6.48933 -15.95223,8.00451 -8.61746,2.94606 -17.91821,3.99669 -26.3522,2.9768 z m 62.52311,-53.82769 -0.76642,-0.95267 0.90523,0.80659 c 0.49787,0.44362 0.90522,0.87233 0.90522,0.95267 0,0.33884 -0.32378,0.0887 -1.04403,-0.80659 z"
         id="path41" /><path
         style="fill:#690a25"
         d="M 70.980209,194.65303 C 60.838513,177.0098 54.180802,156.45461 51.052178,133.1267 50.028246,125.49197 50.0039,104.99732 51.011683,99.037087 51.833757,94.175166 53.347259,88.553822 54.702605,85.328512 l 0.998399,-2.375882 3.052116,1.463796 c 11.645953,5.585401 32.93806,10.278717 55.12799,12.151595 8.1862,0.690933 33.06987,0.692264 41.03702,0.0022 13.2571,-1.148256 24.30334,-2.868737 34.801,-5.420349 7.13482,-1.734224 17.17399,-5.071052 20.71967,-6.886821 1.32767,-0.679908 2.52708,-1.110022 2.66536,-0.955808 0.56978,0.635446 2.51103,6.414629 3.42599,10.199364 2.84584,11.771743 2.82981,29.717543 -0.0424,47.453203 -2.85632,17.63764 -9.79773,37.84283 -17.98383,52.34775 l -2.11874,3.75417 -0.29501,-2.10508 c -1.07649,-7.68143 -5.98805,-13.87248 -14.07946,-17.74727 -5.19814,-2.48926 -10.58792,-3.36074 -16.96771,-2.74354 -6.74426,0.65246 -12.10632,2.42116 -23.2004,7.6527 -3.31977,1.56549 -5.98565,2.56256 -6.85707,2.56464 -0.90542,0.002 -3.91521,-1.15612 -8.24763,-3.17404 -11.9313,-5.55725 -17.69602,-7.15905 -25.73116,-7.14975 -5.694426,0.007 -9.526971,0.89731 -13.979495,3.249 -7.793892,4.1165 -12.027692,9.75961 -13.264406,17.67975 l -0.516435,3.30734 z"
         id="path40" /><path
         style="fill:#000000"
         d="m 57.65876,83.884336 -2.310972,-1.14353 1.64584,-3.175582 c 4.449333,-8.58481 10.469723,-14.680365 18.186986,-18.414053 8.818057,-4.266262 18.963628,-5.588256 39.206836,-5.108749 6.69556,0.1586 18.10143,0.239196 25.3464,0.179102 26.20269,-0.21734 31.36036,-0.128181 37.71441,0.651959 16.78235,2.060513 26.59459,8.470225 33.98831,22.202399 0.92087,1.710307 1.58726,3.348401 1.48086,3.640208 -0.1064,0.291807 -1.21302,0.966056 -2.45914,1.49833 l -2.26569,0.967772 -3.1013,-3.152642 c -6.69463,-6.805466 -14.72241,-10.424701 -27.7363,-12.504604 -4.29597,-0.686591 -8.29439,-0.756698 -43.15654,-0.756698 -37.594672,0 -38.538858,0.01994 -43.853288,0.926105 -12.511194,2.13329 -20.754042,5.969415 -27.266339,12.689436 -1.431516,1.477177 -2.716684,2.676394 -2.855929,2.664927 -0.139245,-0.01147 -1.29311,-0.535438 -2.564144,-1.16438 z M 47.024138,75.013558 c 0.756741,-9.965072 6.160989,-20.048219 14.141018,-26.384054 6.994651,-5.553483 18.033377,-8.247564 27.019708,-6.594354 3.705297,0.681661 6.046787,1.401804 5.710066,1.756174 -0.100513,0.105781 -2.796045,0.659144 -5.990072,1.229697 -7.123937,1.272555 -11.425718,2.655537 -16.670062,5.359266 -9.04885,4.665147 -16.214481,12.504294 -22.133284,24.21365 -1.028937,2.03558 -1.973343,3.701055 -2.098679,3.701055 -0.125337,0 -0.115749,-1.476646 0.0213,-3.281434 z m 178.553242,0.42341 c -2.3363,-5.027128 -7.25134,-12.346062 -10.889,-16.214698 -5.72277,-6.086138 -12.53416,-10.206467 -20.59754,-12.459815 -3.2718,-0.91432 -12.46999,-2.763742 -13.7456,-2.763742 -1.16533,0 0.61057,-0.81456 3.33903,-1.531526 4.44388,-1.167733 12.70106,-1.066212 17.2628,0.212245 10.24639,2.871614 17.95169,9.397079 22.55635,19.102537 1.98551,4.184934 3.13913,7.964894 3.61824,11.855503 0.70598,5.732949 0.43208,6.052119 -1.54428,1.799496 z"
         id="path39" /></g></g></svg>
