<?xml version="1.0" encoding="UTF-8" standalone="no"?>
<!-- Created with Inkscape (http://www.inkscape.org/) -->

<svg
   width="885.7793"
   height="949.34937"
   viewBox="0 0 885.7793 949.34937"
   version="1.1"
   id="svg1"
   xml:space="preserve"
   xmlns="http://www.w3.org/2000/svg"
   xmlns:svg="http://www.w3.org/2000/svg"><defs
     id="defs1" /><g
     id="layer1"
     transform="translate(-141.34178,-32.527992)"><g
       id="g6"
       transform="matrix(0.97214335,0,0,0.96144218,179.12873,-126.86276)"><path
         style="fill:#000000;fill-opacity:1;fill-rule:nonzero;stroke:none"
         d="m 823.6557,686.20525 c 0,249.66667 -202,465.99995 -440,465.99995 -238,0 -422.000001,-216.33328 -422.000001,-465.99995 0,-249.66666 -33.33333,-452.66666 431.000001,-452 514,1 431,202.33334 431,452 z"
         id="path1" /><path
         style="fill:#000000;fill-opacity:1;fill-rule:nonzero;stroke:none"
         d="m 870.6557,327.53859 c -2.3333,-19.66667 -8.3333,-38.66667 -18.3333,-59.66667 -23.3334,-49 -62,-82 -113.6667,-96.33333 -23,-6.33334 -64.6667,-7 -87,-1 -13.6667,3.66666 -22.6667,7.66666 -16.6667,7.66666 6.3334,0 52.6667,9.33334 69,14 40.6667,11.33334 75,32 104,62.66667 18.3334,19.33333 43,56.33333 54.6667,81.66667 10,21.33333 11.3333,20 8,-9 z M 170.32237,168.20525 c -45.33334,-8.33333 -100.666671,5.33334 -136.000001,33.33334 -40.3333398,32 -67.33334,82.66666 -71.33334,133 -0.66666,9 -0.66666,16.33333 0,16.33333 0.66667,0 5.33334,-8.33333 10.33334,-18.66667 30.0000002,-59 66,-98.33333 111.66666,-122 26.333341,-13.66666 48.000001,-20.33333 84.000001,-27 16,-2.66666 29.66667,-5.66666 30.33334,-6 1.66666,-2 -10.33334,-5.66666 -29,-9 z M 791.6557,354.87192 c -37.3333,-69 -86.6667,-101.33333 -171.3333,-112 -16,-1.66667 -30.6667,-3 -58,-3.33333 0,0 0,0 0,0 -2,0 -3.6667,0 -5.6667,0 -9,-0.33334 -19.3333,-0.33334 -31.6667,-0.33334 -6,0 -6,0 -6,0 -23,0 -51.6666,0.33334 -88.6666,0.66667 -36.6667,0.33333 -94,-0.33333 -128,-1 -102.00003,-2.33333 -153.00003,4.33333 -197.33337,25.66667 -39.000001,19 -69.333331,49.66666 -91.666661,93 -8.3333398,16 -8.3333398,16 -8.3333398,16 11.6666698,5.66666 11.6666698,5.66666 11.6666698,5.66666 0.66667,0.33334 1.66667,0.66667 2.33333,1 1.66667,1 3,1.66667 4.33334,2.33334 3.33333,1.33333 5.66666,2.33333 6.33333,2.33333 0.66667,0.33333 7,-6 14.33333,-13.33333 32.66667,-33.66667 74.333341,-53 137.333341,-64 26.66666,-4.33334 31.66666,-4.66667 221.00003,-4.66667 175.6666,0 195.6666,0.33333 217.3333,4 65.6667,10.33333 106.3333,28.66667 140,63 15.6667,15.66667 15.6667,15.66667 15.6667,15.66667 11.3333,-4.66667 11.3333,-4.66667 11.3333,-4.66667 6.3333,-2.66667 11.6667,-6 12.3333,-7.66667 0.6667,-1.33333 -2.6666,-9.66666 -7.3333,-18.33333 z"
         id="path2" /><path
         style="fill:#efffd7;fill-opacity:1;fill-rule:nonzero;stroke:none"
         d="m 774.6557,383.87192 c -0.3333,-0.33333 -0.3333,-0.66667 -0.3333,-1 -13,-13 -13,-13 -13,-13 -33.6667,-34.33333 -74.3334,-52.66667 -140,-63 -21.6667,-3.66667 -41.6667,-4 -217.3334,-4 -189.3333,0 -194.3333,0.33333 -220.99997,4.66667 -63,11 -104.666661,30.33333 -137.333331,64 -7.33333,7.33333 -13.66667,13.66666 -14.33333,13.33333 -0.33334,0 -0.66667,0 -1,-0.33333 0,0.33333 0,0.33333 0,0.33333 36.33333,16.33333 89.333331,31 149.333331,42 0,0 0.33333,-0.33333 1,-0.66667 1.33333,-0.33333 3,-0.33333 3.66667,0.33334 0.66666,0.33333 0,1 -1,1 3,0.66666 5.66666,1 8.66666,1.66666 0,-0.33333 0.33334,-0.66666 0.66667,-0.66666 1.66667,-0.66667 3.33333,-0.66667 4,0 0.33333,0.66666 0,1 -1,1 2.66667,0.66666 5.66667,1 8.33333,1.66666 0.33334,-0.33333 0.33334,-0.33333 1,-0.66666 1.33334,-0.66667 3,-0.33334 3.66667,0.33333 0.66667,0.33333 0.33333,0.66667 -0.66667,1 3.33334,0.33333 6.66667,1 10.33334,1.33333 0,0 0.33333,-0.33333 0.66666,-0.33333 1.66667,-0.66667 3.33334,-0.66667 4,0 0.33334,0.33333 0,1 -0.66666,1 4,0.66667 8,1.33333 12,1.66667 0,0 0.33333,-0.33334 1,-0.66667 1.33333,-0.66667 3.33333,-0.66667 4,0 0.33333,0.66667 0,1 -1.33334,1.33333 4.33334,0.33334 8.66667,1 13,1.66667 -0.33333,-0.33333 -0.33333,-0.66667 0.33334,-0.66667 1.33333,-0.66666 3.66666,-0.66666 5,0 1.66666,0.33334 0.33333,1 -2.33334,1 -0.33333,0 -0.33333,0 -0.33333,0 3.66667,0.33334 7.66667,0.66667 11.3333,1.33334 0,0 0,0 0,0 0.3334,-0.33334 0.3334,-0.33334 0.6667,-0.33334 1.6667,-0.66666 3.3333,-0.66666 4,0 0.3333,0.33334 0.3333,0.66667 0,0.66667 6,0.66667 11.6667,1.33333 17.6667,2 0,-0.33333 0.3333,-0.33333 0.6666,-0.66667 1.3334,-0.33333 3.6667,-0.33333 5,0 1,0.66667 0.6667,1 -0.3333,1 3,0.33334 6,0.66667 9,1 4,0.33334 9,0.66667 14.6667,0.66667 0,0 0.3333,-0.33333 1,-0.33333 2,-0.66667 4.6666,-0.66667 6,0 1,0.33333 0.6666,0.66666 -0.3334,0.66666 12,0.66667 26.6667,1 42.3334,1.33334 0,0 0,0 0,0 3.6666,-0.66667 9.3333,-0.66667 12.6666,0 0.3334,0 0.6667,0 1,0 4.3334,0 8.6667,0 13,0 0.6667,0 1.3334,0 2.3334,0 6.6666,-0.66667 16.6666,-0.66667 22.3333,0 1,0 1.6667,0 2.3333,0 4,0 8,0 12,0 0.3334,0 0.6667,0 1,0 3.3334,-0.66667 9,-0.66667 12.6667,0 16,-0.33334 30.6667,-0.66667 43,-1.33334 -1.3333,0 -1.3333,-0.33333 0,-0.66666 2,-0.66667 4.6667,-0.66667 6,0 0.6667,0 0.6667,0.33333 0.3333,0.33333 5.6667,0 10.3334,-0.33333 14.3334,-0.66667 3.3333,-0.33333 6.6666,-0.66666 10,-1 -0.3334,-0.33333 0,-0.66666 1,-1 1.3333,-0.66666 3,-0.33333 3.6666,0.33334 0,0 0.3334,0 0.3334,0.33333 5.6666,-0.66667 11.6666,-1.33333 17.3333,-2 -0.3333,0 0,-0.33333 0.6667,-0.66667 1.6666,-0.66666 3.3333,-0.66666 4,0 0,0 0,0.33334 0,0.33334 4,-0.66667 8,-1 11.6666,-1.33334 -0.3333,0 -0.6666,0 -1,0 -2.6666,0 -4,-0.66666 -2.3333,-1 1.3333,-0.66666 3.6667,-0.66666 5,0 0.6667,0.33334 0.6667,0.66667 -0.3333,0.66667 5,-0.66667 9.6666,-1 14.6666,-1.66667 -2.3333,-0.33333 -2.6666,-0.66666 -1,-1.33333 1.3334,-0.66667 3,-0.66667 3.6667,0 0.3333,0.33333 0.3333,0.66667 0,1 4.3333,-0.66667 8.6667,-1.33333 13,-2 -1.6667,0 -2,-0.66667 -0.6667,-1 1.6667,-0.66667 3.3334,-0.66667 4,0 0.3334,0.33333 0.3334,0.33333 0,0.66667 3.6667,-0.66667 7.3334,-1 10.6667,-1.66667 -1.6667,-0.33333 -1.6667,-0.66667 -0.3333,-1.33333 1.3333,-0.66667 3.3333,-0.33334 4,0.33333 0,0 0,0.33333 0,0.33333 3,-0.33333 6.3333,-1 9.3333,-1.33333 -2.3333,-0.33333 -2.6667,-0.66667 -1.3333,-1.33333 1.6666,-0.66667 3.3333,-0.66667 4,0 0.3333,0.33333 0.3333,0.66666 0,0.66666 22.6666,-3.66666 44.3333,-8.33333 65.3333,-13.33333 29.6667,-7.33333 69,-20 92,-29.33333 -0.3333,-0.66667 -0.6667,-1.66667 -1,-2.66667 z m -499.3333,56.33333 c -3.3334,0 -4.6667,-0.66666 -2.6667,-1 2,-0.66666 4.6667,-0.66666 6.3333,0 1.3334,0.66667 -0.3333,1 -3.6666,1 z m 25.3333,2 c -4,0 -5.6667,-0.33333 -3.6667,-1 2,-0.33333 5.3334,-0.33333 7,0 2,0.66667 0.3334,1 -3.3333,1 z m 34.3333,2 c -6,0 -8.6666,-0.33333 -5.6666,-1 3.3333,-0.33333 8.3333,-0.33333 11.3333,0 3,0.66667 0.6667,1 -5.6667,1 z m 140,0 c -6.3333,0 -8.6666,-0.33333 -5.6666,-1 3,-0.33333 8,-0.33333 11.3333,0 3,0.66667 0.3333,1 -5.6667,1 z m 35.3334,-2 c -4.3334,0 -6,-0.33333 -3.3334,-1 2.3334,-0.33333 6,-0.33333 8,0 2,0.66667 0,1 -4.6666,1 z m 24.3333,-2 c -3.3333,0 -4.3333,-0.66666 -2.3333,-1 2,-0.66666 4.6666,-0.66666 6,0 1.3333,0.66667 -0.3334,1 -3.6667,1 z"
         id="path3" /><path
         style="fill:#efffd7;fill-opacity:1;fill-rule:nonzero;stroke:none"
         d="m 277.3224,439.20525 c 1.3333,0.66667 -0.3334,1 -3.6667,1 -3.3333,0 -4.6667,-0.66666 -2.6667,-1 2,-0.66666 4.6667,-0.66666 6.3334,0 z"
         id="path4" /><path
         style="fill:#efffd7;fill-opacity:1;fill-rule:nonzero;stroke:none"
         d="m 302.3224,441.20525 c 2,0.66667 0.3333,1 -3.3334,1 -4,0 -5.6666,-0.33333 -3.6666,-1 2,-0.33333 5.3333,-0.33333 7,0 z"
         id="path5" /><path
         style="fill:#efffd7;fill-opacity:1;fill-rule:nonzero;stroke:none"
         d="m 338.989,443.20525 c 3,0.66667 0.6667,1 -5.6666,1 -6,0 -8.6667,-0.33333 -5.6667,-1 3.3333,-0.33333 8.3333,-0.33333 11.3333,0 z"
         id="path6" /><path
         style="fill:#efffd7;fill-opacity:1;fill-rule:nonzero;stroke:none"
         d="m 434.3224,1151.8719 c 0.6666,0.6667 -0.6667,1.3333 -2.6667,1.3333 -2.3333,-0.3333 -3,-0.6666 -1.3333,-1.3333 1.3333,-0.6667 3.3333,-0.6667 4,0 z"
         id="path7" /><path
         style="fill:#efffd7;fill-opacity:1;fill-rule:nonzero;stroke:none"
         d="m 478.989,443.20525 c 3,0.66667 0.3334,1 -5.6666,1 -6.3334,0 -8.6667,-0.33333 -5.6667,-1 3,-0.33333 8,-0.33333 11.3333,0 z"
         id="path8" /><path
         style="fill:#efffd7;fill-opacity:1;fill-rule:nonzero;stroke:none"
         d="m 513.3224,441.20525 c 2,0.66667 0,1 -4.6667,1 -4.3333,0 -6,-0.33333 -3.3333,-1 2.3333,-0.33333 6,-0.33333 8,0 z"
         id="path9" /><path
         style="fill:#efffd7;fill-opacity:1;fill-rule:nonzero;stroke:none"
         d="m 536.6557,439.20525 c 1.3333,0.66667 -0.3333,1 -3.6667,1 -3.3333,0 -4.3333,-0.66666 -2.3333,-1 2,-0.66666 4.6667,-0.66666 6,0 z"
         id="path10" /><path
         style="fill:#efffd7;fill-opacity:1;fill-rule:nonzero;stroke:none"
         d="m 821.3224,644.87192 c 0.6666,1.66667 0.6666,3.66667 0,4.33333 -0.6667,0.66667 -1.3334,-0.66666 -1.3334,-3 0.3334,-2.33333 0.6667,-3 1.3334,-1.33333 z"
         id="path11" /><path
         style="fill:#efffd7;fill-opacity:1;fill-rule:nonzero;stroke:none"
         d="m 823.3224,629.87192 c 0.6666,1.66667 0.6666,4 0,5.33333 -0.6667,1.66667 -1,0.33334 -1,-2.66666 0,-3 0.3333,-4 1,-2.66667 z"
         id="path12" /><path
         style="fill:#efffd7;fill-opacity:1;fill-rule:nonzero;stroke:none"
         d="m 825.3224,612.87192 c 0.6666,1.33333 0.6666,4 0,5.33333 -0.6667,1.33334 -1,0.33334 -1,-2.66666 0,-3 0.3333,-4 1,-2.66667 z"
         id="path13" /><path
         style="fill:#efffd7;fill-opacity:1;fill-rule:nonzero;stroke:none"
         d="m 824.3224,464.87192 c 0,-2.33333 0.3333,-3 1,-1.33333 0.6666,1.66666 0.6666,3.66666 0,4.33333 -0.6667,0.66667 -1.3334,-0.66667 -1,-3 z"
         id="path14" /><path
         style="fill:#efffd7;fill-opacity:1;fill-rule:nonzero;stroke:none"
         d="m 827.3224,590.53859 c 0.6666,2 0.6666,5 0,6.33333 -0.3334,1.66667 -1,-0.33333 -1,-3.66667 0,-3.66666 0.6666,-4.66666 1,-2.66666 z"
         id="path15" /><path
         style="fill:#efffd7;fill-opacity:1;fill-rule:nonzero;stroke:none"
         d="m 826.3224,482.20525 c 0,-3.66666 0.6666,-4.66666 1,-2.66666 0.6666,2 0.6666,5 0,6.33333 -0.3334,1.66667 -1,0 -1,-3.66667 z"
         id="path16" /><path
         style="fill:#efffd7;fill-opacity:1;fill-rule:nonzero;stroke:none"
         d="m 829.6557,518.87192 c 0.3333,9.66667 0.3333,25.66667 0,35.33333 -0.3333,9.66667 -0.6667,1.66667 -0.6667,-17.66666 0,-19.33334 0.3334,-27.33334 0.6667,-17.66667 z"
         id="path17" /></g></g></svg>
