<?xml version="1.0" encoding="UTF-8" standalone="no"?>
<!-- Created with Inkscape (http://www.inkscape.org/) -->

<svg
   width="1000.0001"
   height="1000.0001"
   viewBox="0 0 264.58335 264.58335"
   version="1.1"
   id="svg1"
   xml:space="preserve"
   xmlns="http://www.w3.org/2000/svg"
   xmlns:svg="http://www.w3.org/2000/svg"><defs
     id="defs1" /><g
     id="layer1"><g
       id="g45"
       transform="translate(5.7340792,-8.2427446)"><path
         style="fill:#c26d88"
         d="m 115.66138,199.19535 c 0.4788,-0.0908 1.17165,-0.0873 1.53966,0.008 0.36802,0.095 -0.0237,0.16928 -0.87054,0.16507 -0.84682,-0.004 -1.14792,-0.0819 -0.66912,-0.17273 z m 22.32509,0 c 0.4788,-0.0908 1.17165,-0.0873 1.53966,0.008 0.36801,0.095 -0.0237,0.16928 -0.87055,0.16507 -0.84681,-0.004 -1.14791,-0.0819 -0.66911,-0.17273 z m -30.21301,-0.37413 c 0.37451,-0.0962 0.89414,-0.0899 1.15474,0.0141 0.2606,0.10397 -0.0458,0.18271 -0.68093,0.17497 -0.63511,-0.008 -0.84832,-0.0928 -0.47381,-0.18903 z m 38.87644,0 c 0.37451,-0.0962 0.89415,-0.0899 1.15475,0.0141 0.2606,0.10397 -0.0458,0.18271 -0.68093,0.17497 -0.63511,-0.008 -0.84833,-0.0928 -0.47382,-0.18903 z m -45.23487,-0.3679 c 0.26463,-0.10529 0.69766,-0.10529 0.96229,0 0.26462,0.10529 0.0481,0.19144 -0.48115,0.19144 -0.52926,0 -0.74577,-0.0862 -0.48114,-0.19144 z m 51.57865,0 c 0.26463,-0.10529 0.69766,-0.10529 0.96229,0 0.26463,0.10529 0.0481,0.19144 -0.48115,0.19144 -0.52925,0 -0.74577,-0.0862 -0.48114,-0.19144 z m -56.94341,-0.38746 c 0.27786,-0.10964 0.60985,-0.0961 0.737754,0.03 0.127904,0.12612 -0.09944,0.21583 -0.505201,0.19935 -0.448405,-0.0182 -0.539613,-0.10815 -0.232553,-0.22932 z m 62.33222,0.008 c 0.26463,-0.10529 0.69766,-0.10529 0.96229,0 0.26463,0.10529 0.0481,0.19144 -0.48114,0.19144 -0.52926,0 -0.74578,-0.0862 -0.48115,-0.19144 z M 91.046371,197.6864 c 0.27786,-0.10964 0.60985,-0.0962 0.737754,0.03 0.127904,0.12613 -0.09944,0.21583 -0.505201,0.19935 -0.448405,-0.0182 -0.539613,-0.10815 -0.232553,-0.22931 z m 72.340019,0.008 c 0.26463,-0.1053 0.69766,-0.1053 0.96229,0 0.26463,0.10529 0.0481,0.19144 -0.48114,0.19144 -0.52926,0 -0.74578,-0.0862 -0.48115,-0.19144 z m -76.959003,-0.38746 c 0.277861,-0.10964 0.60985,-0.0962 0.737754,0.03 0.127904,0.12612 -0.09944,0.21583 -0.505201,0.19935 -0.448405,-0.0182 -0.539613,-0.10815 -0.232553,-0.22931 z m 81.577993,0.008 c 0.26463,-0.1053 0.69766,-0.1053 0.96229,0 0.26462,0.10529 0.0481,0.19144 -0.48115,0.19144 -0.52926,0 -0.74577,-0.0862 -0.48114,-0.19144 z m -86.196977,-0.38746 c 0.277861,-0.10965 0.60985,-0.0962 0.737754,0.03 0.127905,0.12612 -0.09944,0.21583 -0.505201,0.19935 -0.448404,-0.0182 -0.539613,-0.10815 -0.232553,-0.22931 z m 90.840017,0 c 0.27786,-0.10965 0.60985,-0.0962 0.73775,0.03 0.12791,0.12612 -0.0994,0.21583 -0.5052,0.19935 -0.4484,-0.0182 -0.53961,-0.10815 -0.23255,-0.22931 z m -95.074085,-0.37956 c 0.27786,-0.10964 0.60985,-0.0961 0.737754,0.03 0.127904,0.12612 -0.09944,0.21583 -0.505201,0.19935 -0.448405,-0.0182 -0.539613,-0.10815 -0.232553,-0.22932 z m 99.693065,0 c 0.27786,-0.10964 0.60985,-0.0961 0.73776,0.03 0.1279,0.12612 -0.0994,0.21583 -0.50521,0.19935 -0.4484,-0.0182 -0.53961,-0.10815 -0.23255,-0.22932 z M 72.955351,196.1681 c 0.27786,-0.10964 0.60985,-0.0962 0.737754,0.03 0.127904,0.12612 -0.09944,0.21582 -0.505201,0.19934 -0.448405,-0.0182 -0.539613,-0.10815 -0.232553,-0.22931 z m 108.546119,0 c 0.27786,-0.10964 0.60985,-0.0962 0.73775,0.03 0.12791,0.12612 -0.0994,0.21582 -0.5052,0.19934 -0.4484,-0.0182 -0.53961,-0.10815 -0.23255,-0.22931 z M 68.721282,195.78855 c 0.277861,-0.10964 0.60985,-0.0962 0.737755,0.03 0.127904,0.12613 -0.09944,0.21583 -0.505202,0.19935 -0.448404,-0.0182 -0.539612,-0.10815 -0.232553,-0.22931 z m 117.014258,0 c 0.27786,-0.10964 0.60985,-0.0962 0.73775,0.03 0.12791,0.12613 -0.0994,0.21583 -0.5052,0.19935 -0.4484,-0.0182 -0.53961,-0.10815 -0.23255,-0.22931 z M 64.487214,195.409 c 0.27786,-0.10965 0.60985,-0.0962 0.737754,0.03 0.127904,0.12612 -0.09944,0.21583 -0.505201,0.19935 -0.448405,-0.0182 -0.539613,-0.10815 -0.232553,-0.22931 z m 125.482396,0 c 0.27786,-0.10965 0.60985,-0.0962 0.73775,0.03 0.12791,0.12612 -0.0994,0.21583 -0.5052,0.19935 -0.4484,-0.0182 -0.53961,-0.10815 -0.23255,-0.22931 z m 17.58582,-5.81356 c 0.38317,-0.41751 0.78329,-0.75911 0.88914,-0.75911 0.10585,0 -0.12105,0.3416 -0.50423,0.75911 -0.38318,0.4175 -0.78329,0.7591 -0.88914,0.7591 -0.10586,0 0.12105,-0.3416 0.50423,-0.7591 z M 46.034352,188.55167 c -0.478785,-0.60199 -0.46517,-0.61542 0.145327,-0.14331 0.370481,0.28651 0.673602,0.58541 0.673602,0.66422 0,0.31239 -0.316087,0.11133 -0.818929,-0.52091 z m 164.985308,-1.99265 c 0.38318,-0.41751 0.7833,-0.75911 0.88915,-0.75911 0.10585,0 -0.12105,0.3416 -0.50423,0.75911 -0.38318,0.4175 -0.78329,0.7591 -0.88915,0.7591 -0.10585,0 0.12106,-0.3416 0.50423,-0.7591 z m -169.784223,-2.37221 -0.733259,-0.85399 0.86606,0.72304 c 0.813882,0.67949 1.041288,0.98495 0.733258,0.98495 -0.07304,0 -0.462767,-0.3843 -0.866059,-0.854 z m 174.788123,-2.56197 c 0.38318,-0.41751 0.7833,-0.75911 0.88915,-0.75911 0.10585,0 -0.12105,0.3416 -0.50423,0.75911 -0.38318,0.4175 -0.7833,0.7591 -0.88915,0.7591 -0.10585,0 0.12105,-0.3416 0.50423,-0.7591 z M 14.935698,132.44118 c 0.01847,-0.44216 0.109677,-0.5321 0.232553,-0.22932 0.11119,0.27399 0.09752,0.60136 -0.03039,0.72748 -0.127904,0.12612 -0.218878,-0.0981 -0.202164,-0.49816 z m 225.242142,-4.90255 c 0.004,-0.83502 0.0831,-1.13193 0.17517,-0.6598 0.0921,0.47213 0.0886,1.15533 -0.008,1.51821 -0.0963,0.36289 -0.17167,-0.0234 -0.1674,-0.85841 z M 14.935698,122.57282 c 0.01847,-0.44216 0.109677,-0.5321 0.232553,-0.22932 0.11119,0.27399 0.09752,0.60136 -0.03039,0.72748 -0.127904,0.12612 -0.218878,-0.0981 -0.202164,-0.49816 z m 224.790542,-1.13866 c 0.0185,-0.44216 0.10968,-0.5321 0.23256,-0.22931 0.11119,0.27398 0.0975,0.60135 -0.0304,0.72747 -0.12791,0.12612 -0.21888,-0.0981 -0.20217,-0.49816 z M 109.89006,114.169 c 0.69182,-0.0845 1.7311,-0.0827 2.30949,0.004 0.57839,0.0866 0.0123,0.15572 -1.25787,0.15359 -1.27022,-0.002 -1.74345,-0.073 -1.05162,-0.15746 z m 33.48763,0 c 0.69183,-0.0845 1.7311,-0.0827 2.30949,0.004 0.57839,0.0866 0.0123,0.15572 -1.25787,0.15359 -1.27022,-0.002 -1.74345,-0.073 -1.05162,-0.15746 z m -44.464613,-0.36612 c 0.370481,-0.0955 0.976723,-0.0955 1.347203,0 0.37048,0.0955 0.0674,0.17358 -0.673601,0.17358 -0.740962,0 -1.044083,-0.0781 -0.673602,-0.17358 z m 56.197633,0 c 0.37048,-0.0955 0.97673,-0.0955 1.34721,0 0.37048,0.0955 0.0674,0.17358 -0.6736,0.17358 -0.74097,0 -1.04409,-0.0781 -0.67361,-0.17358 z m -63.888613,-0.38094 c 0.37451,-0.0962 0.894146,-0.0899 1.154746,0.0141 0.2606,0.10397 -0.04582,0.18271 -0.680928,0.17497 -0.63511,-0.008 -0.848328,-0.0928 -0.473818,-0.18903 z m 71.979163,0 c 0.37451,-0.0962 0.89415,-0.0899 1.15475,0.0141 0.2606,0.10397 -0.0458,0.18271 -0.68093,0.17497 -0.63511,-0.008 -0.84833,-0.0928 -0.47382,-0.18903 z m -77.928619,-0.37581 c 0.277861,-0.10964 0.60985,-0.0962 0.737754,0.03 0.127904,0.12612 -0.09944,0.21583 -0.505201,0.19935 -0.448405,-0.0182 -0.539613,-0.10815 -0.232553,-0.22932 z m 83.887479,0.008 c 0.26463,-0.10529 0.69766,-0.10529 0.96229,0 0.26463,0.10529 0.0481,0.19144 -0.48114,0.19144 -0.52926,0 -0.74578,-0.0862 -0.48115,-0.19144 z m -89.276294,-0.38746 c 0.277861,-0.10964 0.609851,-0.0962 0.737755,0.03 0.127904,0.12612 -0.09944,0.21583 -0.505202,0.19934 -0.448404,-0.0182 -0.539612,-0.10815 -0.232553,-0.22931 z m 94.665114,0.008 c 0.26463,-0.10529 0.69766,-0.10529 0.96229,0 0.26462,0.10529 0.0481,0.19144 -0.48115,0.19144 -0.52926,0 -0.74577,-0.0862 -0.48114,-0.19144 z m -99.284097,-0.38746 c 0.27786,-0.10964 0.60985,-0.0962 0.737754,0.03 0.127904,0.12613 -0.09944,0.21583 -0.505201,0.19935 -0.448405,-0.0182 -0.539613,-0.10815 -0.232553,-0.22931 z m 104.312047,0 c 0.27786,-0.10964 0.60985,-0.0962 0.73776,0.03 0.1279,0.12613 -0.0994,0.21583 -0.5052,0.19935 -0.44841,-0.0182 -0.53962,-0.10815 -0.23256,-0.22931 z M 71.030774,111.90748 c 0.277861,-0.10964 0.60985,-0.0962 0.737754,0.03 0.127905,0.12612 -0.09944,0.21583 -0.505201,0.19935 -0.448404,-0.0182 -0.539612,-0.10815 -0.232553,-0.22931 z m 112.780186,0 c 0.27786,-0.10964 0.60985,-0.0962 0.73776,0.03 0.1279,0.12612 -0.0994,0.21583 -0.5052,0.19935 -0.44841,-0.0182 -0.53962,-0.10815 -0.23256,-0.22931 z M 67.181621,111.52792 c 0.277861,-0.10964 0.60985,-0.0961 0.737754,0.03 0.127904,0.12612 -0.09944,0.21583 -0.505201,0.19935 -0.448404,-0.0182 -0.539613,-0.10815 -0.232553,-0.22932 z m 120.478499,0 c 0.27786,-0.10964 0.60985,-0.0961 0.73775,0.03 0.1279,0.12612 -0.0994,0.21583 -0.5052,0.19935 -0.44841,-0.0182 -0.53961,-0.10815 -0.23255,-0.22932 z m -127.406975,-0.7591 c 0.277861,-0.10964 0.60985,-0.0962 0.737755,0.03 0.127904,0.12613 -0.09944,0.21583 -0.505202,0.19935 -0.448404,-0.0182 -0.539612,-0.10815 -0.232553,-0.22931 z m 134.335445,0 c 0.27786,-0.10964 0.60985,-0.0962 0.73776,0.03 0.1279,0.12613 -0.0994,0.21583 -0.50521,0.19935 -0.4484,-0.0182 -0.53961,-0.10815 -0.23255,-0.22931 z m 3.07932,-0.37955 c 0.27786,-0.10964 0.60985,-0.0962 0.73776,0.03 0.1279,0.12612 -0.0994,0.21583 -0.5052,0.19935 -0.44841,-0.0182 -0.53962,-0.10815 -0.23256,-0.22931 z"
         id="path51" /><path
         style="fill:#e6486e"
         d="m 118.54905,199.19144 c 0.5851,-0.0872 1.45116,-0.0849 1.92458,0.005 0.47342,0.0901 -0.005,0.16147 -1.06381,0.15862 -1.05852,-0.003 -1.44586,-0.0766 -0.86077,-0.1638 z m 16.35361,0.004 c 0.47633,-0.0905 1.25579,-0.0905 1.73212,0 0.47633,0.0905 0.0866,0.16449 -0.86606,0.16449 -0.95267,0 -1.34239,-0.074 -0.86606,-0.16449 z m -25.40441,-0.36306 c 0.26463,-0.10529 0.69766,-0.10529 0.96229,0 0.26463,0.1053 0.0481,0.19145 -0.48115,0.19145 -0.52926,0 -0.74577,-0.0861 -0.48114,-0.19145 z m 35.22708,-0.0117 c 0.37451,-0.0962 0.89414,-0.0899 1.15474,0.0141 0.2606,0.10397 -0.0458,0.18271 -0.68093,0.17497 -0.63511,-0.008 -0.84832,-0.0928 -0.47381,-0.18903 z m -41.77064,-0.3679 c 0.26463,-0.10529 0.69766,-0.10529 0.96229,0 0.26463,0.10529 0.0481,0.19144 -0.48115,0.19144 -0.52926,0 -0.74577,-0.0862 -0.48114,-0.19144 z m 48.49933,0 c 0.26463,-0.10529 0.69766,-0.10529 0.96229,0 0.26463,0.10529 0.0481,0.19144 -0.48115,0.19144 -0.52926,0 -0.74577,-0.0862 -0.48114,-0.19144 z m -54.273062,-0.37955 c 0.26463,-0.10529 0.697659,-0.10529 0.962289,0 0.264629,0.10529 0.04811,0.19144 -0.481144,0.19144 -0.529259,0 -0.745774,-0.0862 -0.481145,-0.19144 z m 60.070852,-0.008 c 0.27786,-0.10964 0.60985,-0.0961 0.73775,0.03 0.1279,0.12612 -0.0994,0.21583 -0.5052,0.19935 -0.44841,-0.0182 -0.53961,-0.10815 -0.23255,-0.22932 z m -65.050693,-0.37955 c 0.27786,-0.10964 0.60985,-0.0962 0.737754,0.03 0.127904,0.12613 -0.09944,0.21583 -0.505201,0.19935 -0.448405,-0.0182 -0.539613,-0.10815 -0.232553,-0.22931 z m 70.054583,0 c 0.27787,-0.10964 0.60985,-0.0962 0.73776,0.03 0.1279,0.12613 -0.0994,0.21583 -0.5052,0.19935 -0.44841,-0.0182 -0.53962,-0.10815 -0.23256,-0.22931 z m -74.673567,-0.37955 c 0.277861,-0.10964 0.60985,-0.0962 0.737754,0.03 0.127904,0.12612 -0.09944,0.21583 -0.505201,0.19935 -0.448405,-0.0182 -0.539613,-0.10815 -0.232553,-0.22931 z m 79.292557,0 c 0.27786,-0.10964 0.60985,-0.0962 0.73775,0.03 0.12791,0.12612 -0.0994,0.21583 -0.5052,0.19935 -0.4484,-0.0182 -0.53961,-0.10815 -0.23255,-0.22931 z m -83.911541,-0.37955 c 0.277861,-0.10965 0.60985,-0.0962 0.737754,0.03 0.127904,0.12612 -0.09944,0.21583 -0.505201,0.19935 -0.448404,-0.0182 -0.539613,-0.10815 -0.232553,-0.22931 z m 88.530521,0 c 0.27786,-0.10965 0.60985,-0.0962 0.73776,0.03 0.1279,0.12612 -0.0994,0.21583 -0.50521,0.19935 -0.4484,-0.0182 -0.53961,-0.10815 -0.23255,-0.22931 z m -92.76459,-0.37956 c 0.277861,-0.10964 0.609851,-0.0961 0.737755,0.03 0.127904,0.12612 -0.09944,0.21583 -0.505202,0.19935 -0.448404,-0.0182 -0.539612,-0.10815 -0.232553,-0.22932 z m 97.38358,0 c 0.27786,-0.10964 0.60985,-0.0961 0.73775,0.03 0.1279,0.12612 -0.0994,0.21583 -0.5052,0.19935 -0.44841,-0.0182 -0.53961,-0.10815 -0.23255,-0.22932 z M 74.110097,196.1681 c 0.27786,-0.10964 0.60985,-0.0962 0.737754,0.03 0.127904,0.12612 -0.09944,0.21582 -0.505201,0.19934 -0.448405,-0.0182 -0.539613,-0.10815 -0.232553,-0.22931 z m 106.236623,0 c 0.27786,-0.10964 0.60985,-0.0962 0.73776,0.03 0.1279,0.12612 -0.0994,0.21582 -0.5052,0.19934 -0.44841,-0.0182 -0.53962,-0.10815 -0.23256,-0.22931 z M 69.876028,195.78855 c 0.277861,-0.10964 0.60985,-0.0962 0.737755,0.03 0.127904,0.12613 -0.09944,0.21583 -0.505202,0.19935 -0.448404,-0.0182 -0.539612,-0.10815 -0.232553,-0.22931 z m 114.704762,0 c 0.27786,-0.10964 0.60985,-0.0962 0.73776,0.03 0.1279,0.12613 -0.0994,0.21583 -0.5052,0.19935 -0.44841,-0.0182 -0.53962,-0.10815 -0.23256,-0.22931 z M 65.64196,195.409 c 0.27786,-0.10965 0.60985,-0.0962 0.737754,0.03 0.127904,0.12612 -0.09944,0.21583 -0.505201,0.19935 -0.448405,-0.0182 -0.539613,-0.10815 -0.232553,-0.22931 z m 123.1729,0 c 0.27786,-0.10965 0.60985,-0.0962 0.73776,0.03 0.1279,0.12612 -0.0994,0.21583 -0.50521,0.19935 -0.4484,-0.0182 -0.53961,-0.10815 -0.23255,-0.22931 z M 44.879606,187.41301 c -0.478785,-0.60199 -0.46517,-0.61542 0.145327,-0.1433 0.370481,0.2865 0.673602,0.5854 0.673602,0.66421 0,0.31239 -0.316087,0.11133 -0.818929,-0.52091 z m 47.472928,-0.4802 c -21.54701,-1.45812 -35.234151,-5.63391 -43.035436,-13.12962 -2.407761,-2.31345 -4.942414,-5.9989 -4.647288,-6.75727 0.439411,-1.12913 4.794686,-4.11812 8.919489,-6.12137 14.04163,-6.81947 35.219632,-10.55636 53.053361,-9.36134 7.36436,0.49348 12.80329,1.30198 16.15278,2.40112 2.2184,0.72796 2.2452,0.7277 4.78928,-0.0471 3.75561,-1.14383 8.64861,-1.83692 16.52478,-2.34072 12.1442,-0.77682 26.33174,0.51638 38.00563,3.46423 8.72219,2.20249 16.64809,5.22365 21.10867,8.04612 2.07567,1.3134 2.07832,1.34326 0.424,4.77793 -4.50009,9.343 -17.51103,15.66237 -37.27831,18.10594 -18.35968,2.26956 -34.40432,1.07621 -40.69158,-3.02654 l -1.43119,-0.93392 -1.41426,0.94637 c -1.87176,1.25251 -6.82541,2.76772 -11.11935,3.40117 -4.72706,0.69733 -13.640984,0.96209 -19.360576,0.57504 z"
         id="path50" /><path
         style="fill:#935164"
         d="m 213.50553,184.18681 c 1.59507,-1.67579 1.94066,-1.97712 1.94066,-1.69212 0,0.0609 -0.82276,0.87221 -1.82835,1.80287 l -1.82835,1.69213 z m 26.22071,-51.36608 c 0.0185,-0.44216 0.10968,-0.5321 0.23256,-0.22931 0.11119,0.27399 0.0975,0.60135 -0.0304,0.72747 -0.12791,0.12612 -0.21888,-0.0981 -0.20217,-0.49816 z M 14.966086,131.14437 c 0,-0.52188 0.08737,-0.73538 0.194145,-0.47444 0.106781,0.26094 0.106781,0.68794 0,0.94888 -0.10678,0.26095 -0.194145,0.0474 -0.194145,-0.47444 z m 0,-7.21149 c 0,-0.52189 0.08737,-0.73538 0.194145,-0.47444 0.106781,0.26094 0.106781,0.68794 0,0.94888 -0.10678,0.26094 -0.194145,0.0474 -0.194145,-0.47444 z m 91.452844,-9.75667 c 0.47633,-0.0905 1.25578,-0.0905 1.73212,0 0.47633,0.0905 0.0866,0.16448 -0.86606,0.16448 -0.95267,0 -1.3424,-0.074 -0.86606,-0.16448 z m 40.80551,-5.8e-4 c 0.4788,-0.0908 1.17165,-0.0873 1.53966,0.008 0.36801,0.095 -0.0237,0.16927 -0.87055,0.16506 -0.84681,-0.004 -1.14791,-0.0819 -0.66911,-0.17272 z m -50.228614,-0.37414 c 0.374511,-0.0962 0.894146,-0.0899 1.154746,0.0141 0.260601,0.10397 -0.04582,0.18271 -0.680927,0.17497 -0.63511,-0.008 -0.848329,-0.0928 -0.473819,-0.18903 z m 60.431704,0 c 0.37451,-0.0962 0.89415,-0.0899 1.15475,0.0141 0.2606,0.10397 -0.0458,0.18271 -0.68093,0.17497 -0.63511,-0.008 -0.84833,-0.0928 -0.47382,-0.18903 z m -67.944878,-0.3679 c 0.264629,-0.10529 0.697659,-0.10529 0.962288,0 0.26463,0.1053 0.04811,0.19144 -0.481144,0.19144 -0.529258,0 -0.745773,-0.0861 -0.481144,-0.19144 z m 75.443398,0 c 0.26463,-0.10529 0.69766,-0.10529 0.96229,0 0.26463,0.1053 0.0481,0.19144 -0.48114,0.19144 -0.52926,0 -0.74577,-0.0861 -0.48115,-0.19144 z m -81.217128,-0.37955 c 0.26463,-0.10529 0.697659,-0.10529 0.962289,0 0.264629,0.10529 0.04811,0.19144 -0.481144,0.19144 -0.529259,0 -0.745774,-0.0862 -0.481145,-0.19144 z m 86.990858,0 c 0.26463,-0.10529 0.69766,-0.10529 0.96229,0 0.26463,0.10529 0.0481,0.19144 -0.48114,0.19144 -0.52926,0 -0.74578,-0.0862 -0.48115,-0.19144 z m -91.9707,-0.38746 c 0.277861,-0.10964 0.609851,-0.0962 0.737755,0.03 0.127904,0.12612 -0.09944,0.21583 -0.505202,0.19934 -0.448404,-0.0182 -0.539612,-0.10815 -0.232553,-0.22931 z m 97.38358,0 c 0.27786,-0.10964 0.60985,-0.0962 0.73775,0.03 0.1279,0.12612 -0.0994,0.21583 -0.5052,0.19934 -0.44841,-0.0182 -0.53961,-0.10815 -0.23255,-0.22931 z M 74.110097,112.28703 c 0.27786,-0.10964 0.60985,-0.0962 0.737754,0.03 0.127904,0.12613 -0.09944,0.21583 -0.505201,0.19935 -0.448405,-0.0182 -0.539613,-0.10815 -0.232553,-0.22931 z m 106.621543,0 c 0.27786,-0.10964 0.60985,-0.0962 0.73775,0.03 0.12791,0.12613 -0.0994,0.21583 -0.5052,0.19935 -0.4484,-0.0182 -0.53961,-0.10815 -0.23255,-0.22931 z m 46.4179,-13.499496 -0.73326,-0.853993 0.86606,0.723043 c 0.47633,0.397673 0.86606,0.78197 0.86606,0.853993 0,0.303738 -0.30978,0.0795 -0.99886,-0.723043 z"
         id="path49" /><path
         style="fill:#d0084a"
         d="m 114.40592,199.08697 c -9.73079,-0.4463 -21.786282,-1.32506 -39.453821,-2.87591 -8.362285,-0.73404 -16.57237,-1.43993 -18.244633,-1.56865 l -3.040479,-0.23403 -3.69554,-2.92215 c -2.032546,-1.60718 -4.758066,-3.92838 -6.056709,-5.15822 -2.235902,-2.11745 -2.386721,-2.37438 -2.842768,-4.84273 -0.891861,-4.8272 -0.02981,-9.48539 2.406102,-13.00168 l 0.821143,-1.18533 1.490432,2.27386 c 5.69985,8.6959 17.853741,14.18317 36.283385,16.38132 12.328437,1.47044 23.783838,1.5411 31.188048,0.19238 3.50605,-0.63864 7.99503,-2.13439 9.57138,-3.18923 l 1.41426,-0.94637 1.43119,0.93392 c 6.28726,4.10275 22.3319,5.2961 40.69158,3.02654 19.51676,-2.41261 32.13585,-8.43137 37.07011,-17.68084 0.60008,-1.12489 1.19574,-2.43997 1.32369,-2.92241 0.2295,-0.86541 0.24675,-0.86802 1.28818,-0.19516 1.5355,0.99208 4.21924,4.75575 5.03368,7.05922 1.09005,3.08295 0.92467,8.36013 -0.38495,12.28307 -1.11695,3.34583 -2.13461,4.53127 -6.99393,8.14703 l -2.30949,1.71846 -9.81534,0.85508 c -19.37791,1.68815 -36.49274,3.05372 -43.11052,3.43974 -9.91646,0.57843 -26.15515,0.77487 -34.065,0.41209 z"
         id="path48" /><path
         style="fill:#a12849"
         d="m 61.407891,195.02944 c 0.277861,-0.10964 0.60985,-0.0961 0.737755,0.03 0.127904,0.12612 -0.09944,0.21583 -0.505202,0.19935 -0.448404,-0.0182 -0.539612,-0.10815 -0.232553,-0.22932 z m 131.641039,0 c 0.27786,-0.10964 0.60985,-0.0961 0.73775,0.03 0.12791,0.12612 -0.0994,0.21583 -0.5052,0.19935 -0.4484,-0.0182 -0.53961,-0.10815 -0.23255,-0.22932 z M 57.173823,194.64989 c 0.27786,-0.10964 0.60985,-0.0962 0.737754,0.03 0.127904,0.12612 -0.09944,0.21582 -0.505201,0.19934 -0.448405,-0.0182 -0.539613,-0.10815 -0.232553,-0.22931 z m 140.109177,0 c 0.27786,-0.10964 0.60985,-0.0962 0.73775,0.03 0.12791,0.12612 -0.0994,0.21582 -0.5052,0.19934 -0.4484,-0.0182 -0.53961,-0.10815 -0.23255,-0.22931 z M 38.336046,180.96062 c -0.478785,-0.60199 -0.46517,-0.61542 0.145327,-0.1433 0.370481,0.2865 0.673601,0.5854 0.673601,0.66421 0,0.31239 -0.316086,0.11133 -0.818928,-0.52091 z M 205.38929,164.63987 c -0.47878,-0.60199 -0.46517,-0.61542 0.14533,-0.1433 0.37048,0.2865 0.6736,0.5854 0.6736,0.66421 0,0.31239 -0.31608,0.11133 -0.81893,-0.52091 z m -158.536009,0.14136 c 0,-0.0788 0.303121,-0.37771 0.673602,-0.66422 0.610497,-0.47211 0.624111,-0.45869 0.145326,0.14331 -0.502841,0.63223 -0.818928,0.8333 -0.818928,0.52091 z m 29.951223,-11.50255 c 0.277861,-0.10964 0.60985,-0.0961 0.737754,0.03 0.127904,0.12612 -0.09944,0.21583 -0.505201,0.19935 -0.448405,-0.0182 -0.539613,-0.10815 -0.232553,-0.22932 z m 2.309492,-0.37955 c 0.277861,-0.10964 0.60985,-0.0962 0.737754,0.03 0.127904,0.12612 -0.09944,0.21583 -0.505201,0.19934 -0.448405,-0.0182 -0.539613,-0.10815 -0.232553,-0.22931 z m 40.031194,0 c 0.27786,-0.10964 0.60985,-0.0962 0.73775,0.03 0.12791,0.12612 -0.0994,0.21583 -0.5052,0.19934 -0.4484,-0.0182 -0.53961,-0.10815 -0.23255,-0.22931 z m 53.50323,0 c 0.27786,-0.10964 0.60985,-0.0962 0.73775,0.03 0.12791,0.12612 -0.0994,0.21583 -0.5052,0.19934 -0.4484,-0.0182 -0.53961,-0.10815 -0.23255,-0.22931 z m -91.224932,-0.37955 c 0.27786,-0.10964 0.60985,-0.0962 0.737754,0.03 0.127904,0.12613 -0.09944,0.21583 -0.505201,0.19935 -0.448405,-0.0182 -0.539613,-0.10815 -0.232553,-0.22931 z m 35.797122,0 c 0.27786,-0.10964 0.60985,-0.0962 0.73776,0.03 0.1279,0.12613 -0.0994,0.21583 -0.5052,0.19935 -0.44841,-0.0182 -0.53962,-0.10815 -0.23256,-0.22931 z m 15.39661,0 c 0.27787,-0.10964 0.60986,-0.0962 0.73776,0.03 0.1279,0.12613 -0.0994,0.21583 -0.5052,0.19935 -0.44841,-0.0182 -0.53961,-0.10815 -0.23256,-0.22931 z m 37.31273,0.008 c 0.26463,-0.1053 0.69766,-0.1053 0.96229,0 0.26463,0.10529 0.0481,0.19144 -0.48114,0.19144 -0.52926,0 -0.74578,-0.0862 -0.48115,-0.19144 z m -85.836112,-0.37956 c 0.264629,-0.10529 0.697659,-0.10529 0.962288,0 0.264629,0.1053 0.04811,0.19145 -0.481144,0.19145 -0.529259,0 -0.745774,-0.0862 -0.481144,-0.19145 z m 30.408312,0 c 0.26463,-0.10529 0.69766,-0.10529 0.96229,0 0.26463,0.1053 0.0481,0.19145 -0.48115,0.19145 -0.52926,0 -0.74577,-0.0862 -0.48114,-0.19145 z m 20.80948,-0.008 c 0.27786,-0.10964 0.60985,-0.0962 0.73776,0.03 0.1279,0.12612 -0.0994,0.21583 -0.5052,0.19935 -0.44841,-0.0182 -0.53962,-0.10815 -0.23256,-0.22931 z m 31.539,0.008 c 0.26463,-0.10529 0.69766,-0.10529 0.96229,0 0.26463,0.1053 0.0481,0.19145 -0.48114,0.19145 -0.52926,0 -0.74578,-0.0862 -0.48115,-0.19145 z m -79.477686,-0.3912 c 0.37451,-0.0962 0.894145,-0.0899 1.154746,0.0141 0.2606,0.10397 -0.04582,0.1827 -0.680928,0.17497 -0.63511,-0.008 -0.848329,-0.0928 -0.473818,-0.18903 z m 23.864746,0 c 0.37451,-0.0962 0.89415,-0.0899 1.15475,0.0141 0.2606,0.10397 -0.0458,0.1827 -0.68093,0.17497 -0.63511,-0.008 -0.84833,-0.0928 -0.47382,-0.18903 z m 27.32899,0 c 0.37451,-0.0962 0.89415,-0.0899 1.15475,0.0141 0.2606,0.10397 -0.0458,0.1827 -0.68093,0.17497 -0.63511,-0.008 -0.84833,-0.0928 -0.47382,-0.18903 z m 24.62726,0.001 c 0.37048,-0.0955 0.97672,-0.0955 1.3472,0 0.37048,0.0955 0.0674,0.17358 -0.6736,0.17358 -0.74096,0 -1.04409,-0.0781 -0.6736,-0.17358 z m -71.016881,-0.38578 c 0.476333,-0.0905 1.255787,-0.0905 1.732119,0 0.476333,0.0905 0.08661,0.16448 -0.866059,0.16448 -0.952666,0 -1.342392,-0.074 -0.86606,-0.16448 z m 13.856951,0 c 0.47633,-0.0905 1.25579,-0.0905 1.73212,0 0.47633,0.0905 0.0866,0.16448 -0.86606,0.16448 -0.95267,0 -1.34239,-0.074 -0.86606,-0.16448 z m 37.14962,-0.005 c 0.5851,-0.0872 1.45116,-0.0849 1.92458,0.005 0.47342,0.0901 -0.005,0.16147 -1.06381,0.15862 -1.05852,-0.003 -1.44586,-0.0766 -0.86077,-0.1638 z m 14.23658,5e-4 c 0.58218,-0.087 1.53485,-0.087 2.11703,0 0.58218,0.087 0.10585,0.15812 -1.05852,0.15812 -1.16437,0 -1.6407,-0.0711 -1.05851,-0.15812 z"
         id="path47" /><path
         style="fill:#680a25"
         d="m 60.253145,195.02944 c 0.277861,-0.10964 0.60985,-0.0961 0.737755,0.03 0.127904,0.12612 -0.09944,0.21583 -0.505202,0.19935 -0.448404,-0.0182 -0.539612,-0.10815 -0.232553,-0.22932 z m 133.950535,0 c 0.27786,-0.10964 0.60985,-0.0961 0.73775,0.03 0.1279,0.12612 -0.0994,0.21583 -0.5052,0.19935 -0.44841,-0.0182 -0.53961,-0.10815 -0.23255,-0.22932 z M 56.019077,194.64989 c 0.277861,-0.10964 0.60985,-0.0962 0.737754,0.03 0.127904,0.12612 -0.09944,0.21582 -0.505201,0.19934 -0.448405,-0.0182 -0.539613,-0.10815 -0.232553,-0.22931 z m 142.394613,0.008 c 0.26463,-0.10529 0.69766,-0.10529 0.96229,0 0.26462,0.10529 0.0481,0.19144 -0.48115,0.19144 -0.52926,0 -0.74577,-0.0862 -0.48114,-0.19144 z m 12.2471,-9.61788 c 1.35429,-3.82598 1.67522,-8.85183 0.76284,-11.94656 -2.062,-6.9942 -8.54345,-11.74876 -21.95922,-16.1085 -12.32601,-4.0056 -23.77804,-5.72328 -38.16207,-5.7239 -10.18628,-4.3e-4 -19.22638,0.96248 -24.0772,2.56461 -2.00441,0.66202 -2.0915,0.659 -4.78171,-0.16579 -5.67159,-1.73887 -10.60458,-2.21105 -22.856751,-2.18786 -9.784465,0.0185 -12.12696,0.13942 -16.936274,0.87413 -11.345465,1.73323 -20.932799,4.51118 -29.241595,8.4728 -4.132352,1.9703 -5.179755,2.66529 -7.535341,4.99991 -1.705451,1.69027 -3.159677,3.56923 -3.861122,4.98883 -1.035561,2.0958 -1.125254,2.61011 -1.125254,6.45239 0,2.2963 0.137621,4.77288 0.305824,5.50351 l 0.305824,1.32844 -2.147732,-2.27732 c -8.782476,-9.31236 -16.607464,-21.87607 -20.357558,-32.68584 -5.002287,-14.41926 -5.224592,-28.18317 -0.613601,-37.9907 1.503652,-3.19826 4.337715,-7.46214 4.713527,-7.09156 0.115874,0.11425 1.482078,0.54741 3.03601,0.96255 14.70661,3.92901 36.924812,6.84346 66.721274,8.75211 10.445439,0.66909 59.146609,0.67535 69.477219,0.009 29.71831,-1.91713 53.44417,-5.02649 66.97526,-8.77735 l 2.88687,-0.80025 1.21532,1.35283 c 1.5492,1.72449 3.67668,5.72861 4.72813,8.89875 2.17525,6.55846 2.47971,15.99755 0.78963,24.48113 -3.21519,16.13916 -13.02635,33.26957 -26.52014,46.30449 l -2.74947,2.65598 z m 19.95298,-82.83641 -0.73326,-0.854 0.86606,0.72304 c 0.47634,0.39768 0.86606,0.78198 0.86606,0.854 0,0.30374 -0.30977,0.0795 -0.99886,-0.72304 z M 24.528192,101.80008 c 0,-0.0653 0.562939,-0.62042 1.250975,-1.23355 l 1.250975,-1.114779 -1.130531,1.233549 c -1.053814,1.14983 -1.371419,1.408 -1.371419,1.11478 z m 203.956018,-1.68411 c -0.47878,-0.601994 -0.46517,-0.615419 0.14533,-0.143305 0.37048,0.286505 0.6736,0.585405 0.6736,0.664215 0,0.31239 -0.31609,0.11133 -0.81893,-0.52091 z m -2.6944,-2.277317 c -0.47879,-0.601991 -0.46518,-0.615416 0.14532,-0.143302 0.64117,0.495836 0.84508,0.807519 0.52828,0.807519 -0.0799,0 -0.38305,-0.298898 -0.6736,-0.664217 z"
         id="path46" /><path
         style="fill:#000000"
         d="m 118.06261,216.68869 c -20.709268,-1.85928 -35.28805,-5.75226 -50.359583,-13.44755 -4.960836,-2.53292 -14.161432,-8.22167 -13.82836,-8.5501 0.08976,-0.0885 2.054214,0.017 4.365445,0.23443 4.186203,0.39386 4.225006,0.40678 10.168427,3.38605 15.589102,7.81439 30.97155,11.88266 50.423911,13.33588 23.35476,1.74474 50.49831,-3.79006 69.69524,-14.21146 3.43102,-1.86259 4.15449,-2.10931 6.81417,-2.32372 1.63658,-0.13194 3.66451,-0.33857 4.50651,-0.45918 1.36197,-0.19509 1.47537,-0.15331 1.02762,0.37868 -0.72771,0.86462 -6.9372,4.76846 -11.41158,7.17434 -12.99854,6.98933 -27.26418,11.41735 -43.82388,13.60283 -5.619,0.74158 -22.95675,1.29469 -27.57792,0.8798 z M 25.942565,104.9556 c -1.444981,-0.37963 -2.722138,-0.78381 -2.838126,-0.89819 -0.382748,-0.37741 5.030359,-5.834133 7.754719,-7.817197 5.5349,-4.028856 14.469073,-7.517299 23.731181,-9.26609 12.505972,-2.36127 17.041969,-2.500193 77.136771,-2.362456 53.78222,0.123269 55.53651,0.17063 65.4356,1.766598 5.71305,0.921078 8.73755,1.609261 12.70221,2.890205 4.15746,1.343238 11.2384,4.690072 12.89466,6.094711 0.74096,0.628394 2.56782,2.14699 4.05969,3.374657 1.49187,1.227667 3.36526,2.948412 4.16309,3.823892 l 1.45059,1.59176 -1.46867,0.38071 c -5.26839,1.36565 -4.79959,1.37623 -7.24053,-0.16346 -6.71654,-4.23665 -17.55979,-7.515304 -30.02528,-9.078679 -10.63232,-1.333466 -14.99722,-1.447733 -60.23924,-1.576983 -52.059364,-0.148725 -61.878226,0.109628 -75.05849,1.974933 -10.623727,1.503497 -21.041364,4.921969 -27.777271,9.114919 -1.68574,1.04933 -1.306791,1.03714 -4.680904,0.15067 z"
         id="path45" /></g></g></svg>
