<?xml version="1.0" encoding="UTF-8" standalone="no"?>
<!-- Created with Inkscape (http://www.inkscape.org/) -->

<svg
   width="989.14777"
   height="591.45667"
   viewBox="0 0 989.14777 591.45667"
   version="1.1"
   id="svg1"
   xml:space="preserve"
   xmlns="http://www.w3.org/2000/svg"
   xmlns:svg="http://www.w3.org/2000/svg"><defs
     id="defs1" /><g
     id="layer1"
     transform="translate(-60.480778,-253.1132)"><path
       style="fill:#000000;fill-opacity:1;fill-rule:nonzero;stroke:none;stroke-width:0.887629"
       d="m 1013.329,548.69362 c -70.12257,182.2598 -178.11748,295.87629 -475.17732,295.87629 -297.05977,0 -477.544309,-211.25567 -477.544309,-378.72166 0,-167.1701 -21.3031,-212.73505 488.787639,-212.73505 491.15459,0 558.02269,50.59485 463.93399,295.58042 z"
       id="path1" /><path
       style="fill:#efffd7;fill-opacity:1;fill-rule:nonzero;stroke:none;stroke-width:0.887629"
       d="m 981.37443,326.7864 c -29.8835,-18.93609 -78.40727,-33.7299 -134.32789,-40.83093 -47.63603,-5.91753 -67.16386,-6.2134 -269.54325,-6.80516 -232.85468,-0.88763 -276.64437,0.29587 -335.52375,8.58042 -47.63608,6.80515 -94.08866,22.19072 -124.26804,40.83093 -5.91753,3.55051 -6.2134,4.43814 -12.72269,2.95876 37.87217,9.46804 85.80413,17.75257 144.38764,24.55773 0,-0.29588 0.29587,-0.59175 0.88763,-0.88763 1.1835,-0.29588 2.66288,-0.29588 3.25464,0.29588 0.29587,0.29587 0,0.59175 -1.18351,0.88762 9.17217,0.88763 18.34433,2.07114 28.10825,2.95876 0,-0.29587 0,-0.29587 0.59175,-0.59174 1.47938,-0.59176 2.95876,-0.59176 3.55052,0 0.29587,0.59174 0,0.88763 -0.88763,0.88763 4.73402,0.59174 9.17216,0.88763 13.90618,1.47937 0,-0.29587 0.29588,-0.59174 0.88763,-0.59174 1.18351,-0.59176 2.66289,-0.59176 3.25464,0 0.29588,0.29587 0,0.59174 -0.59175,0.88762 3.55051,0.29588 7.10103,0.59175 10.65154,0.88763 0,0 0.29589,0 0.29589,-0.29588 1.1835,-0.29587 2.66288,-0.29587 3.25463,0.29588 0.29588,0 0.29588,0.29588 0.29588,0.29588 0.29587,0 0.59175,0 0.88763,0 0,0 0.29587,-0.29588 0.88763,-0.59176 1.1835,-0.29587 2.66289,-0.29587 3.25463,0.29588 0.29588,0.29588 0,0.59175 -0.59174,0.88763 3.84638,0.29588 7.98866,0.59175 12.13092,0.88763 0.29588,0 0.29588,-0.29588 0.59175,-0.29588 1.18351,-0.59175 2.66289,-0.29587 3.25465,0.29588 0.29587,0 0.29587,0.29587 0.29587,0.29587 0.29587,0 0.59175,0 0.88763,0 -0.29588,0 0,-0.29587 0.59175,-0.59175 1.47938,-0.59175 2.95876,-0.29587 3.55052,0.29588 0.29587,0.29587 0,0.59175 -0.88763,0.59175 4.73402,0.59175 9.46804,0.88763 14.20206,1.18351 0,0 0,-0.29588 0.29588,-0.29588 1.1835,-0.59175 3.25464,-0.59175 4.43814,0 0.59176,0.29588 0.59176,0.59175 0,0.59175 0.88763,0 1.47938,0.29588 2.07113,0.29588 -0.59175,-0.29588 -0.29587,-0.59175 0.59176,-0.88763 1.1835,-0.59175 2.66288,-0.59175 3.25464,0 0.59175,0.59175 0,0.88763 -1.18351,0.88763 5.32577,0.59175 10.65154,0.88762 16.2732,1.18351 0,0 0,-0.29589 0.59175,-0.29589 1.18351,-0.59174 2.95877,-0.59174 4.14227,0 0.88763,0.29589 0.59175,0.59176 -0.29588,0.59176 3.55052,0.29587 7.39691,0.59176 10.94742,0.88763 4.73402,0.29587 10.65155,0.59175 18.04846,0.59175 -0.29588,0 -0.29588,-0.29588 0.59175,-0.59175 1.77526,-0.29587 4.14227,-0.29587 5.32577,0.29587 0.59176,0.29588 0.29588,0.29588 -0.88762,0.59176 10.94742,0.29587 24.26185,0.59175 39.05567,0.59175 1.77525,0 4.14229,0 5.91755,0.29588 2.66289,0 5.32578,0 7.98866,0 0,0 0.29585,0 0.29585,0 3.25467,-0.29588 7.69281,-0.29588 10.3557,0 0.29585,0 0.59169,0 0.59169,0 0,0 0,0 0,0 43.49382,0.59175 94.68045,0.59175 137.87842,0 0.29584,0 0.59169,0 0.88763,0 3.25458,-0.29588 7.98866,-0.29588 10.35561,0 0,0 0,0 0.29593,0 0,0 0,0 0,0 2.36695,0 4.73399,0 7.10103,0 1.77526,-0.29588 3.84637,-0.29588 5.62162,-0.29588 15.08969,0 28.69997,-0.29588 39.64746,-0.59175 -1.18357,-0.29588 -1.18357,-0.59176 0,-0.88763 1.47932,-0.29587 3.84636,-0.29587 5.02983,0.29587 0.59179,0 0.59179,0.29588 0.29594,0.29588 6.8051,0 12.4268,-0.29588 16.56901,-0.59175 3.84645,-0.29587 7.98866,-0.59176 11.83511,-0.88763 -0.88762,0 -0.88762,-0.29587 -0.29593,-0.59176 1.18356,-0.59174 3.25467,-0.59174 4.43814,0 0.29594,0 0.29594,0.29589 0.29594,0.29589 7.10103,-0.59176 14.20206,-0.88763 21.00716,-1.47939 -0.5917,0 -0.5917,-0.29587 0,-0.59175 1.18356,-0.59175 3.25467,-0.59175 4.43814,0 0.29594,0 0.29594,0.29588 0.29594,0.29588 4.73399,-0.29588 9.46798,-0.88763 13.90612,-1.18351 -1.77525,0 -2.36695,-0.29588 -1.18347,-0.88763 1.18347,-0.29587 2.95873,-0.29587 4.1423,0 0.59169,0.29588 0.59169,0.59175 0.29584,0.59175 0.59178,0 1.18348,0 1.77526,0 0,-0.29587 0.29585,-0.29587 0.59178,-0.59175 1.18348,-0.59175 2.66289,-0.29587 3.25458,0.29588 0,0 0,0 0,0 4.1423,-0.29588 7.98866,-0.88763 11.83511,-1.18351 -0.59178,0 -0.29593,-0.29587 0.5917,-0.88763 1.18356,-0.29587 2.66288,-0.29587 3.25467,0.29588 0,0 0,0.29588 0,0.29588 0.29584,0 0.59178,0 1.18347,0 0,-0.29588 0.29594,-0.29588 0.59178,-0.59176 1.18348,-0.29587 2.66289,-0.29587 3.25467,0.29588 3.25458,-0.29588 6.8051,-0.88763 10.05977,-1.18351 -0.59179,0 -0.29585,-0.29587 0.59178,-0.59174 1.18347,-0.59176 2.66289,-0.59176 3.25458,0 0,0 0,0.29587 0,0.29587 4.43814,-0.29587 8.87629,-0.88763 13.31443,-1.1835 -0.59169,-0.29589 -0.29584,-0.59176 0.59178,-0.88763 1.18348,-0.59176 2.66289,-0.59176 3.25467,0 0,0.29587 0.29585,0.29587 0.29585,0.29587 9.17214,-0.88763 18.34436,-1.77526 27.22065,-2.95876 -0.88763,0 -0.88763,-0.29588 0.29585,-0.88763 1.18347,-0.29588 2.66288,-0.29588 3.25466,0.29588 0,0 0,0.29587 0,0.29587 3.55052,-0.29587 7.10104,-0.88763 10.35562,-1.1835 -0.88763,-0.29588 -1.18348,-0.59176 0,-0.88763 1.18356,-0.59176 2.66288,-0.59176 3.25466,0 0.29585,0.29587 0.29585,0.29587 0.29585,0.29587 57.69588,-6.80515 104.7402,-15.38556 137.87837,-24.55773 7.101,-1.77525 7.101,-1.77525 7.101,-1.77525 -23.07827,5.91752 -21.00717,5.91752 -31.95457,-0.88763 z m -590.56912,41.1268 c -2.95876,0 -3.84638,-0.29587 -2.07113,-0.59176 1.77526,-0.59174 3.84639,-0.59174 5.0299,0 1.18351,0.29589 0,0.88763 -2.95877,0.59176 z m 35.20929,1.77526 c -3.25465,0 -4.43815,-0.29588 -2.95876,-0.88763 1.77525,-0.29587 4.43814,-0.29587 6.2134,0 1.47937,0.59175 0.29587,0.88763 -3.25464,0.88763 z m 251.49482,0 c -3.25458,0 -4.73399,-0.29588 -2.95873,-0.88763 1.47941,-0.29587 4.43814,-0.29587 5.91755,0 1.77526,0.59175 0.29585,0.88763 -2.95882,0.88763 z m 35.20931,-1.77526 c -2.66289,0 -3.84636,-0.29587 -2.07111,-0.59176 1.77526,-0.59174 4.14221,-0.59174 5.32578,0 0.88763,0.29589 -0.29594,0.88763 -3.25467,0.59176 z m 26.62887,-1.47938 c -2.36704,0 -3.25467,-0.29588 -2.07111,-0.88763 1.18348,-0.59175 3.25458,-0.59175 4.43815,0 1.18347,0.59175 0,0.88763 -2.36704,0.88763 z"
       id="path2" /><path
       style="fill:#efffd7;fill-opacity:1;fill-rule:nonzero;stroke:none;stroke-width:0.887629"
       d="m 390.80531,367.9132 c -2.95876,0 -3.84638,-0.29587 -2.07113,-0.59176 1.77526,-0.59174 3.84639,-0.59174 5.0299,0 1.18351,0.29589 0,0.88763 -2.95877,0.59176 z"
       id="path3" /><path
       style="fill:#efffd7;fill-opacity:1;fill-rule:nonzero;stroke:none;stroke-width:0.887629"
       d="m 423.05584,368.80083 c 1.77525,-0.29587 4.43814,-0.29587 6.2134,0 1.47937,0.59175 0.29587,0.88763 -3.25464,0.88763 -3.25465,0 -4.43815,-0.29588 -2.95876,-0.88763 z"
       id="path4" /><path
       style="fill:#efffd7;fill-opacity:1;fill-rule:nonzero;stroke:none;stroke-width:0.887629"
       d="m 674.55069,368.80083 c 1.47941,-0.29587 4.43814,-0.29587 5.91755,0 1.77526,0.59175 0.29585,0.88763 -2.95882,0.88763 -3.25458,0 -4.73399,-0.29588 -2.95873,-0.88763 z"
       id="path5" /><path
       style="fill:#efffd7;fill-opacity:1;fill-rule:nonzero;stroke:none;stroke-width:0.887629"
       d="m 712.71873,367.9132 c -2.66289,0 -3.84636,-0.29587 -2.07111,-0.59176 1.77526,-0.59174 4.14221,-0.59174 5.32578,0 0.88763,0.29589 -0.29594,0.88763 -3.25467,0.59176 z"
       id="path6" /><path
       style="fill:#efffd7;fill-opacity:1;fill-rule:nonzero;stroke:none;stroke-width:0.887629"
       d="m 737.27649,365.54619 c 1.18348,-0.59175 3.25458,-0.59175 4.43815,0 1.18347,0.59175 0,0.88763 -2.36704,0.88763 -2.36704,0 -3.25467,-0.29588 -2.07111,-0.88763 z"
       id="path7" /><path
       style="fill:#efffd7;fill-opacity:1;fill-rule:nonzero;stroke:none;stroke-width:0.887629"
       d="m 849.41358,732.13689 c 0,0 0.29584,0 0.29584,0 -2.36695,0.29594 -2.36695,0.29594 -2.36695,0.29594 0,0 0,0 0,0 0.5917,0.59169 -0.29593,0.88763 -2.07119,0.88763 -1.47932,0 -2.0711,-0.29594 -1.77526,-0.59179 -5.91746,0.29585 -5.91746,0.29585 -5.91746,0.29585 -1.77526,0.29594 -3.55052,0.29594 -5.32578,0.59178 0.5917,0 1.18348,0.29585 1.47932,0.29585 0.59179,0.59178 -0.59169,1.18356 -2.36695,1.18356 -2.07119,-0.29593 -2.36704,-0.59178 -0.88763,-1.18356 0.29585,0 0.5917,-0.29585 0.5917,-0.29585 -0.88763,0.29585 -1.77526,0.29585 -2.66289,0.29585 0,0 0,0 0,0 0.59178,0.59178 -0.29585,1.18356 -2.0711,1.18356 -1.47941,-0.29593 -2.07111,-0.59178 -1.77526,-0.88762 -5.02993,0.59169 -10.05977,0.88762 -15.08969,1.47932 0,0 0,0 0,0 0.59178,0.59178 -0.29585,0.88763 -2.07111,0.88763 -1.77525,0 -2.36704,-0.29585 -1.77525,-0.5917 -5.02993,0.29585 -10.3557,0.88763 -15.38563,1.18348 0.29593,0 0.29593,0.29585 0.29593,0.29585 0.5917,0.59178 -0.29593,0.88762 -2.07119,0.88762 -1.77526,0 -2.36695,-0.29584 -1.47932,-0.88762 -5.32577,0.59178 -10.65155,0.88762 -15.97732,1.47941 0.29585,0 0.59169,0 0.59169,0.29584 0.59178,0.59179 -0.29584,0.88763 -2.0711,0.88763 -2.07111,-0.29584 -2.36704,-0.59169 -1.18348,-1.18347 -6.2134,0.59178 -12.13096,1.18347 -17.75258,1.47941 0,0.29584 0.29585,0.29584 0.5917,0.29584 0.59178,0.59179 -0.5917,1.18348 -2.36695,0.88763 -2.0712,0 -2.36704,-0.29584 -1.18357,-0.88763 -6.2134,0.59179 -12.13087,0.88763 -17.75258,1.47942 0.29594,0 0.29594,0.29584 0.59179,0.29584 0.59178,0.59178 -0.59179,0.88763 -2.36704,0.88763 -2.07111,0 -2.36695,-0.29585 -1.18348,-0.88763 -6.2134,0.59178 -12.13096,0.88763 -18.04842,1.47941 0.29584,0 0.59169,0 0.88763,0.29585 0.59169,0.59178 -0.59179,0.88763 -2.36704,0.88763 -1.77526,0 -2.36704,-0.59178 -0.88763,-1.18348 0,0 0,0 0,0 -7.10103,0.5917 -13.61028,1.18348 -19.82369,1.47933 0.29585,0.29593 0.5917,0.29593 0.5917,0.59178 0.59178,0.59178 -0.29585,0.88763 -2.07111,0.88763 -2.0711,-0.29585 -2.66288,-0.59179 -1.18347,-1.18348 0,0 0,0 0,0 -7.98866,0.59169 -15.38563,1.18348 -21.89488,1.77526 0,0 0.29585,0 0.29585,0 1.18356,0.59169 0.29593,0.88763 -2.07111,0.88763 -2.0711,0 -3.25466,-0.29594 -2.66288,-0.59178 -5.02993,0.29584 -9.17214,0.59178 -13.01859,0.59178 -3.55051,0.29584 -7.69272,0.59169 -11.83502,0.88763 0.29585,0 0.29585,0 0.29585,0 1.18356,0.29584 0,0.88763 -2.95874,0.59169 -2.36704,0 -3.55051,-0.29585 -2.66288,-0.59169 -11.83503,0.59169 -24.85361,0.88763 -37.8722,1.18347 0.88763,0.29585 1.47941,0.29585 2.07119,0.29585 2.36695,0.59178 0.5917,0.88763 -3.84645,0.88763 -4.14221,0 -5.91747,-0.29585 -3.84636,-0.88763 0.29585,0 0.88763,0 1.18348,0 -22.48657,0.29593 -45.56493,0.59178 -64.79691,0.29593 0.29593,0.29585 -1.77526,0.5917 -5.62162,0.5917 -4.43815,0 -6.21341,-0.29585 -4.43815,-0.5917 -2.0711,-0.29593 -3.84636,-0.29593 -5.91755,-0.29593 0.29593,0 0.29593,0 0.59178,0 1.47941,0.59178 -0.29585,0.88763 -4.1423,0.88763 -3.55052,0 -5.02984,-0.29585 -2.95873,-0.88763 0.59178,0 1.18347,0 1.47941,0 -2.36704,-0.29585 -4.73408,-0.29585 -7.10103,-0.29585 -5.32578,-0.29584 -11.24333,-0.59178 -17.16089,-0.88763 0.29594,0.29585 -0.59169,0.59179 -2.66288,0.59179 -2.07111,0 -3.25458,-0.59179 -2.07111,-0.88763 -0.88763,0 -2.0711,-0.29594 -2.95873,-0.29594 0,0 0.29584,0.29594 0.59169,0.29594 0.88763,0.29584 -0.29585,0.88763 -3.25458,0.59169 -2.66289,0 -3.84645,-0.29585 -2.07119,-0.59169 0.59178,-0.29594 1.18356,-0.29594 1.77526,-0.29594 -5.91747,-0.29585 -12.13087,-0.88763 -18.64018,-1.18347 0.59175,0.29584 -0.59175,0.59178 -2.36701,0.59178 -2.36701,0 -3.55051,-0.29594 -2.36701,-0.88763 0,0 0.29587,0 0.29587,0 -6.80515,-0.59178 -13.90618,-0.88763 -21.59897,-1.47941 0.88763,0.29584 0,0.59178 -2.36701,0.59178 -2.367,0 -3.25463,-0.29594 -2.07113,-0.88763 0.29587,0 0.29587,0 0.59176,0 -6.50929,-0.59178 -13.01856,-0.88763 -19.52784,-1.47941 0,0 0,0 0,0 0.59175,0.59178 -0.59176,0.88763 -2.36701,0.88763 -2.07113,0 -2.36702,-0.59178 -0.88763,-1.18348 0,0 0,0 0.29587,0 -5.62165,-0.29593 -11.53917,-0.88763 -17.75258,-1.47941 0.59176,0.59178 -0.59174,0.88763 -2.367,0.88763 -1.77526,0 -2.36701,-0.29585 -0.88763,-0.88763 0,0 0,0 0.29587,-0.29584 -5.91753,-0.29594 -11.53917,-0.88763 -17.75257,-1.18357 0.59175,0.29594 -0.29588,0.88763 -2.07114,0.59178 -2.07114,0 -2.66288,-0.29584 -1.18351,-0.88763 0,0 0.29589,0 0.29589,0 -5.0299,-0.59178 -10.35568,-0.88762 -15.97732,-1.47941 0.59174,0.59179 -0.59176,0.88763 -2.07114,0.88763 -2.07114,-0.29584 -2.66289,-0.59169 -1.18351,-1.18347 0,0 0,0 0,0 -0.88763,0 -1.77525,0 -2.95876,-0.29585 0.59175,0.29585 0.88763,0.29585 1.18351,0.59169 0.59175,0.59179 -0.59176,0.88763 -2.36702,0.88763 -2.07113,-0.29584 -2.367,-0.59169 -0.88763,-1.18347 0.29589,-0.29585 0.88763,-0.29585 1.47939,-0.29585 -4.43815,-0.29594 -8.87629,-0.59178 -13.31444,-1.18356 -0.29587,0 -0.29587,0 -0.59175,0 0.59175,0.59178 -0.29587,0.88762 -2.07113,0.88762 -2.07113,0 -2.36702,-0.59169 -1.1835,-0.88762 0.29587,-0.29585 0.29587,-0.29585 0.29587,-0.29585 -5.32577,-0.29585 -10.65155,-0.88763 -15.97732,-1.47941 0.59175,0.59178 -0.29587,0.88763 -2.07113,0.88763 -2.07114,0 -2.36702,-0.29585 -1.18351,-0.88763 0,0 0.29588,0 0.29588,-0.29585 -5.32577,-0.29585 -10.65155,-0.88763 -15.68145,-1.18347 0.29588,0.59169 -0.88763,0.88762 -2.36701,0.88762 -2.07113,-0.29593 -2.36701,-0.59178 -1.1835,-1.18356 0,0 0,0 0.29587,0 -1.1835,0 -2.07113,-0.29585 -2.95876,-0.29585 0.29587,0 0.59176,0.29585 0.88763,0.29585 0.59175,0.59178 -0.59176,1.18356 -2.36701,1.18356 -2.07114,-0.29593 -2.36701,-0.59178 -0.88763,-1.18356 0.59175,-0.29585 1.18351,-0.29585 1.77525,-0.29585 -4.14226,-0.29584 -8.28453,-0.88763 -12.13092,-1.18347 0,0.59169 -0.88763,0.88763 -2.36701,0.88763 -2.07113,-0.29594 -2.36701,-0.59179 -1.1835,-1.18357 -0.88763,0 -1.47939,0 -2.36702,0 0.29588,0 0.29588,0 0.59176,0.29594 0.29587,0.29584 0,0.59169 -0.29588,0.59169 8.58041,1.47941 13.90619,4.1423 33.43402,13.90622 69.82681,34.91337 138.47011,53.25773 225.45774,59.76698 104.44436,7.69281 226.04952,-17.1608 311.85359,-63.61335 12.72274,-7.10103 17.16088,-8.87628 25.14954,-10.05985 -0.88763,0 -0.88763,-0.29585 0.29585,-0.88763 z m -560.38971,4.43815 c -2.07114,0 -2.36701,-0.29585 -0.88762,-0.88763 1.1835,-0.5917 2.66288,-0.5917 3.25463,0 0.59175,0.59178 -0.59175,0.88763 -2.36701,0.88763 z m 18.93608,1.77525 c -2.07113,0 -2.36701,-0.59169 -0.88762,-0.88762 1.1835,-0.5917 2.66288,-0.5917 3.25464,0 0.59174,0.59178 -0.59176,0.88762 -2.36702,0.88762 z m 39.64743,3.25467 c -2.07114,0 -2.36701,-0.29584 -0.88763,-0.88763 1.1835,-0.59178 2.66289,-0.29584 3.25464,0 0.59175,0.59179 -0.59175,1.18348 -2.36701,0.88763 z m 20.71134,1.77526 c -2.07113,0 -2.36701,-0.29585 -1.1835,-0.88763 1.47937,-0.59178 2.95876,-0.59178 3.55051,0 0.29588,0.59178 -0.59175,0.88763 -2.36701,0.88763 z m 20.71134,1.77526 c -2.07113,0 -2.36701,-0.59178 -1.18351,-1.18348 1.18351,-0.29593 2.66289,-0.29593 3.25465,0.29585 0.59174,0.59178 -0.29589,0.88763 -2.07114,0.88763 z m 22.19072,1.77526 c -1.77526,-0.29585 -2.36701,-0.59179 -0.88763,-1.18348 1.18351,-0.29593 2.66289,-0.29593 3.25464,0.29585 0.59176,0.59178 -0.29587,0.88763 -2.36701,0.88763 z m 25.14949,1.47941 c -2.36701,0 -3.25464,-0.29594 -2.07114,-0.88763 1.18351,-0.59178 3.25464,-0.59178 4.43814,0 1.18352,0.59169 0,0.88763 -2.367,0.88763 z m 164.50722,3.25458 c -3.84636,0 -5.02993,-0.29585 -2.95874,-0.88763 2.07111,-0.29585 5.32578,-0.29585 6.8051,0 1.77526,0.59178 0,0.88763 -3.84636,0.88763 z m 37.87219,-1.77526 c -2.95882,0 -3.84645,-0.29585 -2.07119,-0.59169 1.47941,-0.59179 3.84645,-0.59179 5.02993,0 1.18347,0.29584 0,0.88763 -2.95874,0.59169 z m 28.40413,-1.47932 c -2.36704,0 -3.25467,-0.29594 -2.07119,-0.88763 1.18356,-0.59178 2.95882,-0.59178 4.14229,0 1.18348,0.59169 0.29585,0.88763 -2.0711,0.88763 z m 23.96598,-1.77526 c -2.36704,0 -3.25467,-0.29594 -2.07119,-0.88763 1.18356,-0.29593 3.25466,-0.29593 4.43814,0 1.18356,0.59169 0,0.88763 -2.36695,0.88763 z m 22.48657,-1.77526 c -2.36704,0 -3.25467,-0.29593 -2.07111,-0.59178 1.18348,-0.59178 2.95874,-0.59178 4.14221,0 1.18357,0.29585 0.29594,0.59178 -2.0711,0.59178 z m 20.71131,-1.47941 c -2.36695,0 -3.25458,-0.59178 -2.07111,-0.88763 1.18348,-0.59178 2.95874,-0.59178 4.1423,0 1.18348,0.29585 0.29585,0.88763 -2.07119,0.88763 z m 19.52783,-1.77526 c -1.77525,0 -2.36695,-0.29584 -0.88762,-0.88763 1.18356,-0.59178 2.66288,-0.29584 3.25466,0 0.59179,0.59179 -0.29584,1.18348 -2.36704,0.88763 z m 20.7114,-1.47941 c -2.07119,-0.29584 -2.36704,-0.59169 -0.88762,-1.18347 1.18347,-0.29585 2.66288,-0.29585 3.25458,0.29584 0.59178,0.59179 -0.5917,0.88763 -2.36696,0.88763 z m 18.93606,-1.77526 c -2.07111,0 -2.36704,-0.59169 -0.88763,-0.88762 1.18347,-0.5917 2.66289,-0.5917 3.25467,0 0.59169,0.59178 -0.59178,0.88762 -2.36704,0.88762 z m 18.93605,-1.77525 c -2.0711,0 -2.36695,-0.29585 -0.88763,-0.88763 1.18357,-0.5917 2.66289,-0.5917 3.25467,0 0.59178,0.59178 -0.59178,0.88763 -2.36704,0.88763 z"
       id="path8" /></g></svg>
