<?xml version="1.0" encoding="UTF-8" standalone="no"?>
<!-- Created with Inkscape (http://www.inkscape.org/) -->

<svg
   width="1000.0001"
   height="1000.0001"
   viewBox="0 0 264.58335 264.58335"
   version="1.1"
   id="svg1"
   xml:space="preserve"
   xmlns="http://www.w3.org/2000/svg"
   xmlns:svg="http://www.w3.org/2000/svg"><defs
     id="defs1" /><g
     id="layer1"><g
       id="g51"
       transform="translate(-5.7340807,2.1502802)"><path
         style="fill:#d99faf"
         d="m 131.03575,158.64239 c 0.51114,-0.081 1.26772,-0.0789 1.6813,0.005 0.41357,0.0837 -0.005,0.14998 -0.92934,0.14734 -0.92471,-0.003 -1.26309,-0.0711 -0.75196,-0.15216 z m 11.43282,0 c 0.51113,-0.081 1.26772,-0.0789 1.68129,0.005 0.41358,0.0837 -0.005,0.14998 -0.92933,0.14734 -0.92472,-0.003 -1.2631,-0.0711 -0.75196,-0.15216 z m -16.48133,-0.34259 c 0.32365,-0.0887 0.85325,-0.0887 1.1769,0 0.32365,0.0887 0.0588,0.16123 -0.58845,0.16123 -0.6473,0 -0.9121,-0.0726 -0.58845,-0.16123 z m 21.85685,0 c 0.32365,-0.0887 0.85326,-0.0887 1.17691,0 0.32365,0.0887 0.0589,0.16123 -0.58845,0.16123 -0.6473,0 -0.91211,-0.0726 -0.58846,-0.16123 z m -25.54931,-0.35385 c 0.32717,-0.0894 0.78112,-0.0835 1.00878,0.0131 0.22766,0.0966 -0.04,0.16971 -0.59485,0.16253 -0.55483,-0.007 -0.7411,-0.0862 -0.41393,-0.17559 z m 29.4163,0.0108 c 0.23117,-0.0978 0.60947,-0.0978 0.84064,0 0.23118,0.0978 0.042,0.17782 -0.42032,0.17782 -0.46236,0 -0.6515,-0.08 -0.42032,-0.17782 z m -32.61716,-0.35256 c 0.23118,-0.0978 0.60947,-0.0978 0.84065,0 0.23118,0.0978 0.042,0.17782 -0.42033,0.17782 -0.46235,0 -0.6515,-0.08 -0.42032,-0.17782 z m 35.97975,0 c 0.23118,-0.0978 0.60947,-0.0978 0.84065,0 0.23118,0.0978 0.042,0.17782 -0.42033,0.17782 -0.46235,0 -0.6515,-0.08 -0.42032,-0.17782 z m -39.00608,-0.35256 c 0.23117,-0.0978 0.60947,-0.0978 0.84064,0 0.23118,0.0978 0.042,0.17783 -0.42032,0.17783 -0.46236,0 -0.6515,-0.08 -0.42032,-0.17783 z m 42.05343,-0.007 c 0.24274,-0.10185 0.53276,-0.0893 0.6445,0.0278 0.11173,0.11715 -0.0869,0.20048 -0.44134,0.18517 -0.39173,-0.0169 -0.47141,-0.10046 -0.20316,-0.213 z m -44.38623,-0.35256 c 0.24273,-0.10185 0.53276,-0.0893 0.64449,0.0278 0.11174,0.11715 -0.0869,0.20048 -0.44134,0.18517 -0.39172,-0.0169 -0.4714,-0.10046 -0.20315,-0.213 z m 47.0763,0 c 0.24274,-0.10185 0.53276,-0.0893 0.6445,0.0278 0.11174,0.11715 -0.0869,0.20048 -0.44134,0.18517 -0.39172,-0.0169 -0.4714,-0.10046 -0.20316,-0.213 z m -49.76638,-0.35256 c 0.24274,-0.10184 0.53276,-0.0893 0.6445,0.0278 0.11174,0.11716 -0.0869,0.20048 -0.44134,0.18517 -0.39172,-0.0169 -0.4714,-0.10045 -0.20316,-0.213 z m 52.45646,0 c 0.24274,-0.10184 0.53276,-0.0893 0.6445,0.0278 0.11173,0.11716 -0.0869,0.20048 -0.44134,0.18517 -0.39173,-0.0169 -0.47141,-0.10045 -0.20316,-0.213 z m -54.81027,-0.35256 c 0.24273,-0.10184 0.53276,-0.0893 0.64449,0.0278 0.11174,0.11715 -0.0869,0.20047 -0.44134,0.18517 -0.39172,-0.0169 -0.4714,-0.10046 -0.20315,-0.21301 z m 57.16408,0 c 0.24274,-0.10184 0.53276,-0.0893 0.6445,0.0278 0.11174,0.11715 -0.0869,0.20047 -0.44134,0.18517 -0.39172,-0.0169 -0.4714,-0.10046 -0.20316,-0.21301 z m 2.35382,-0.35256 c 0.24274,-0.10184 0.53276,-0.0893 0.6445,0.0278 0.11173,0.11715 -0.0869,0.20048 -0.44134,0.18517 -0.39173,-0.0169 -0.47141,-0.10046 -0.20316,-0.21301 z m -64.22553,-0.35255 c 0.24273,-0.10185 0.53276,-0.0893 0.64449,0.0278 0.11174,0.11715 -0.0869,0.20048 -0.44134,0.18517 -0.39172,-0.0169 -0.4714,-0.10046 -0.20315,-0.213 z m 66.57934,0 c 0.24274,-0.10185 0.53277,-0.0893 0.6445,0.0278 0.11174,0.11715 -0.0869,0.20048 -0.44134,0.18517 -0.39172,-0.0169 -0.4714,-0.10046 -0.20316,-0.213 z M 77.145569,155.2598 c 0,-0.0607 0.491779,-0.57629 1.092843,-1.14582 l 1.092842,-1.03549 -0.987624,1.14581 c -0.920604,1.06806 -1.198061,1.30787 -1.198061,1.0355 z m 24.483881,-0.13052 c 0.24274,-0.10185 0.53276,-0.0893 0.6445,0.0278 0.11173,0.11715 -0.0869,0.20048 -0.44134,0.18517 -0.39172,-0.0169 -0.4714,-0.10046 -0.20316,-0.213 z m 95.02436,-0.90498 -0.64057,-0.79325 0.75659,0.67162 c 0.41612,0.36939 0.75658,0.72635 0.75658,0.79325 0,0.28214 -0.27062,0.0738 -0.8726,-0.67162 z m 47.94891,-13.13278 c 1.00455,-1.06648 1.90211,-1.93906 1.99458,-1.93906 0.0925,0 -0.65378,0.87258 -1.65832,1.93906 -1.00455,1.06649 -1.90212,1.93907 -1.99459,1.93907 -0.0925,0 0.65378,-0.87258 1.65833,-1.93907 z m -215.903945,-0.0881 -0.815198,-0.96954 0.924713,0.85471 c 0.864283,0.79886 1.078918,1.08436 0.815198,1.08436 -0.06023,0 -0.476354,-0.43629 -0.924713,-0.96953 z m 222.720715,-14.1908 c 0,-0.87258 0.0656,-1.22954 0.14572,-0.79325 0.0802,0.43629 0.0802,1.15022 0,1.58651 -0.0802,0.43629 -0.14572,0.0793 -0.14572,-0.79326 z m -124.25535,-2.0116 c 0.41613,-0.084 1.09705,-0.084 1.51317,0 0.41612,0.084 0.0757,0.15279 -0.75658,0.15279 -0.83224,0 -1.17271,-0.0688 -0.75659,-0.15279 z m 21.18434,0 c 0.41612,-0.084 1.09705,-0.084 1.51317,0 0.41612,0.084 0.0757,0.15279 -0.75658,0.15279 -0.83225,0 -1.17271,-0.0688 -0.75659,-0.15279 z m -27.73499,-0.34806 c 0.32717,-0.0894 0.78112,-0.0835 1.00878,0.0131 0.22765,0.0966 -0.04,0.16971 -0.59486,0.16253 -0.55483,-0.007 -0.74109,-0.0862 -0.41392,-0.17559 z m 34.97097,0 c 0.32717,-0.0894 0.78112,-0.0835 1.00878,0.0131 0.22765,0.0966 -0.04,0.16971 -0.59486,0.16253 -0.55483,-0.007 -0.74109,-0.0862 -0.41392,-0.17559 z m -39.85313,-0.34173 c 0.23118,-0.0978 0.60947,-0.0978 0.84065,0 0.23117,0.0978 0.042,0.17782 -0.42033,0.17782 -0.46236,0 -0.6515,-0.08 -0.42032,-0.17782 z m 44.38623,0 c 0.23118,-0.0978 0.60947,-0.0978 0.84065,0 0.23118,0.0978 0.042,0.17782 -0.42033,0.17782 -0.46235,0 -0.6515,-0.08 -0.42032,-0.17782 z m -48.08509,-0.35256 c 0.23118,-0.0978 0.60947,-0.0978 0.84065,0 0.23118,0.0978 0.042,0.17783 -0.42032,0.17783 -0.46236,0 -0.6515,-0.08 -0.42033,-0.17783 z m 52.14122,-0.007 c 0.24273,-0.10184 0.53276,-0.0893 0.64449,0.0278 0.11174,0.11715 -0.0869,0.20048 -0.44134,0.18517 -0.39172,-0.0169 -0.4714,-0.10046 -0.20315,-0.21301 z m -55.14653,-0.35255 c 0.24273,-0.10185 0.53276,-0.0893 0.64449,0.0278 0.11174,0.11715 -0.0869,0.20048 -0.44134,0.18517 -0.39172,-0.0169 -0.4714,-0.10046 -0.20315,-0.213 z m 58.50912,0 c 0.24274,-0.10185 0.53276,-0.0893 0.6445,0.0278 0.11173,0.11715 -0.0869,0.20048 -0.44134,0.18517 -0.39173,-0.0169 -0.4714,-0.10046 -0.20316,-0.213 z m -61.53546,-0.35256 c 0.24274,-0.10184 0.53276,-0.0893 0.6445,0.0278 0.11174,0.11715 -0.0869,0.20048 -0.44134,0.18517 -0.39172,-0.0169 -0.4714,-0.10045 -0.20316,-0.213 z m 64.56179,0 c 0.24274,-0.10184 0.53277,-0.0893 0.6445,0.0278 0.11174,0.11715 -0.0869,0.20048 -0.44134,0.18517 -0.39172,-0.0169 -0.4714,-0.10045 -0.20316,-0.213 z M 103.31075,122.694 c 0.24274,-0.10184 0.53276,-0.0893 0.6445,0.0278 0.11173,0.11715 -0.0869,0.20047 -0.44135,0.18517 -0.39172,-0.0169 -0.4714,-0.10046 -0.20315,-0.21301 z m -2.35382,-0.35256 c 0.24274,-0.10184 0.53276,-0.0893 0.6445,0.0278 0.11174,0.11715 -0.0869,0.20048 -0.44134,0.18517 -0.39172,-0.0169 -0.4714,-0.10046 -0.20316,-0.21301 z m 145.32708,-7.69171 c -0.81678,-0.87258 -1.4094,-1.58651 -1.31693,-1.58651 0.0925,0 0.83641,0.71393 1.65319,1.58651 0.81679,0.87258 1.40941,1.58651 1.31693,1.58651 -0.0925,0 -0.8364,-0.71393 -1.65319,-1.58651 z m -219.577341,0.39573 c 0,-0.0732 0.264804,-0.35085 0.588454,-0.61698 0.533326,-0.43854 0.545219,-0.42607 0.126956,0.13311 -0.439279,0.58727 -0.71541,0.77403 -0.71541,0.48387 z"
         id="path57" /><path
         style="fill:#ca7089"
         d="m 125.32112,124.80552 c 0.32717,-0.0894 0.78112,-0.0835 1.00878,0.0131 0.22765,0.0966 -0.04,0.16971 -0.59486,0.16252 -0.55483,-0.007 -0.74109,-0.0862 -0.41392,-0.17558 z m 25.55571,0 c 0.32717,-0.0894 0.78112,-0.0835 1.00878,0.0131 0.22765,0.0966 -0.04,0.16971 -0.59486,0.16252 -0.55483,-0.007 -0.74109,-0.0862 -0.41392,-0.17558 z m -31.42563,-0.34908 c 0.24273,-0.10184 0.53276,-0.0893 0.64449,0.0278 0.11174,0.11716 -0.0869,0.20048 -0.44134,0.18517 -0.39172,-0.0169 -0.4714,-0.10045 -0.20315,-0.213 z m 37.66104,0 c 0.24274,-0.10184 0.53276,-0.0893 0.6445,0.0278 0.11173,0.11716 -0.0869,0.20048 -0.44134,0.18517 -0.39173,-0.0169 -0.4714,-0.10045 -0.20316,-0.213 z m 4.37137,-0.35256 c 0.24274,-0.10184 0.53276,-0.0893 0.6445,0.0278 0.11174,0.11715 -0.0869,0.20047 -0.44134,0.18517 -0.39172,-0.0169 -0.4714,-0.10046 -0.20316,-0.21301 z"
         id="path56" /><path
         style="fill:#e6486e"
         d="m 133.88933,158.64657 c 0.41612,-0.084 1.09705,-0.084 1.51317,0 0.41612,0.084 0.0757,0.15279 -0.75659,0.15279 -0.83224,0 -1.1727,-0.0688 -0.75658,-0.15279 z m 5.5529,-0.004 c 0.51114,-0.081 1.26772,-0.0789 1.6813,0.005 0.41358,0.0837 -0.005,0.14998 -0.92934,0.14734 -0.92471,-0.003 -1.26309,-0.0711 -0.75196,-0.15216 z m -11.60557,-0.33306 c 0.23118,-0.0978 0.60947,-0.0978 0.84065,0 0.23118,0.0978 0.042,0.17783 -0.42032,0.17783 -0.46236,0 -0.65151,-0.08 -0.42033,-0.17783 z m 18.49427,0 c 0.23117,-0.0978 0.60947,-0.0978 0.84064,0 0.23118,0.0978 0.042,0.17783 -0.42032,0.17783 -0.46236,0 -0.6515,-0.08 -0.42032,-0.17783 z m -22.50836,-0.3599 c 0.24273,-0.10184 0.53276,-0.0893 0.64449,0.0278 0.11174,0.11716 -0.0869,0.20048 -0.44134,0.18517 -0.39172,-0.0169 -0.4714,-0.10045 -0.20315,-0.213 z m -3.3626,-0.35256 c 0.24274,-0.10184 0.53276,-0.0893 0.6445,0.0278 0.11174,0.11715 -0.0869,0.20047 -0.44134,0.18517 -0.39172,-0.0169 -0.4714,-0.10046 -0.20316,-0.21301 z m -3.02633,-0.35255 c 0.24274,-0.10185 0.53276,-0.0893 0.6445,0.0278 0.11173,0.11715 -0.0869,0.20048 -0.44134,0.18517 -0.39173,-0.0169 -0.47141,-0.10046 -0.20316,-0.213 z m 42.36868,-0.35256 c 0.24273,-0.10185 0.53276,-0.0893 0.64449,0.0278 0.11174,0.11715 -0.0869,0.20048 -0.44134,0.18517 -0.39172,-0.0169 -0.4714,-0.10046 -0.20315,-0.213 z m -40.11995,-13.02728 c -9.24939,-1.08035 -14.33273,-2.89416 -18.81581,-6.71375 -2.376535,-2.02482 -5.27904,-6.33494 -6.096059,-9.05246 -0.658805,-2.19127 -0.465272,-3.05497 1.141763,-5.09547 l 0.918021,-1.16564 4.700855,0.71436 c 13.48809,2.04972 23.83859,2.64365 41.45666,2.37887 13.78263,-0.20714 15.41304,-0.30141 26.05457,-1.50642 3.80181,-0.4305 5.41315,-0.49315 5.67313,-0.22057 0.45704,0.47919 -0.7011,4.6394 -2.10092,7.54684 -1.22712,2.54874 -4.58538,6.35067 -7.15237,8.0973 -5.17807,3.52325 -15.5758,5.82065 -22.10285,4.88365 -3.54063,-0.50827 -6.11543,-1.5291 -7.74131,-3.06919 l -1.2937,-1.22543 -1.40977,1.2652 c -2.71234,2.43419 -8.21307,3.74896 -13.23221,3.16271 z"
         id="path55" /><path
         style="fill:#975668"
         d="m 81.769135,151.96329 c 0.231178,-0.0978 0.60947,-0.0978 0.840648,0 0.231178,0.0978 0.04203,0.17783 -0.420324,0.17783 -0.462357,0 -0.651503,-0.08 -0.420324,-0.17783 z m 110.629315,0 c 0.23118,-0.0978 0.60948,-0.0978 0.84065,0 0.23118,0.0978 0.042,0.17783 -0.42032,0.17783 -0.46236,0 -0.6515,-0.08 -0.42033,-0.17783 z M 30.36263,142.41331 c -0.418263,-0.55918 -0.40637,-0.57165 0.126956,-0.13311 0.32365,0.26612 0.588454,0.54376 0.588454,0.61697 0,0.29017 -0.276131,0.10341 -0.71541,-0.48386 z m -3.026334,-3.17302 c -0.418263,-0.55918 -0.40637,-0.57165 0.126956,-0.13311 0.32365,0.26612 0.588454,0.54376 0.588454,0.61697 0,0.29017 -0.276131,0.10341 -0.71541,-0.48386 z m -4.974452,-10.87054 c 0.01613,-0.41071 0.09581,-0.49425 0.203157,-0.213 0.09714,0.2545 0.08519,0.55858 -0.02655,0.67574 -0.111736,0.11715 -0.19121,-0.0911 -0.17661,-0.46274 z m 0,-3.17302 c 0.01613,-0.41071 0.09581,-0.49425 0.203157,-0.213 0.09714,0.2545 0.08519,0.55858 -0.02655,0.67574 -0.111736,0.11715 -0.19121,-0.0911 -0.17661,-0.46274 z m 5.689862,-11.2093 c 0,-0.0732 0.264804,-0.35085 0.588454,-0.61697 0.533326,-0.43854 0.54522,-0.42607 0.126957,0.13311 -0.439279,0.58727 -0.715411,0.77403 -0.715411,0.48386 z"
         id="path54" /><path
         style="fill:#d0084a"
         d="m 131.01012,158.49783 c -6.24967,-0.35705 -17.19081,-1.6404 -27.04532,-3.17228 l -7.311093,-1.13651 -1.321682,-3.55217 c -3.542819,-9.52173 -4.108156,-17.69048 -1.657383,-23.9481 0.392487,-1.00214 0.395649,-0.99859 1.025729,1.15339 1.369636,4.67785 5.588519,9.6402 10.354719,12.17944 5.35499,2.85293 14.48964,4.53004 20.20486,3.70959 3.52617,-0.5062 5.88196,-1.43853 7.65463,-3.02942 l 1.40977,-1.2652 1.2937,1.22543 c 1.62588,1.54009 4.20068,2.56092 7.74131,3.06919 3.14725,0.45181 6.01699,0.26126 11.28371,-0.74922 6.74954,-1.29498 11.11684,-3.59443 14.89273,-7.84125 2.34891,-2.64187 3.68754,-5.15245 4.80624,-9.01405 0.69925,-2.4137 0.78863,-2.55187 1.24639,-1.92664 1.67785,2.29168 2.7712,6.67781 2.7712,11.11704 0,5.23097 -1.18125,10.62871 -3.74299,17.10366 l -0.99526,2.51558 -2.5907,0.40833 c -16.68251,2.62938 -30.34601,3.70592 -40.02056,3.15319 z"
         id="path53" /><path
         style="fill:#680a25"
         d="m 72.060667,163.12213 c -0.254857,-0.14233 -2.127861,-0.77091 -4.16223,-1.39684 -6.381853,-1.96357 -15.236233,-5.58485 -21.520597,-8.80154 -17.239796,-8.82429 -25.190234,-18.3794 -23.70617,-28.49089 1.306905,-8.90443 9.157228,-15.42092 23.899793,-19.83902 1.927097,-0.57751 3.686071,-1.05003 3.908833,-1.05003 0.222761,0 1.139267,0.76984 2.03668,1.71075 2.012126,2.10965 7.029289,5.24348 11.630461,7.26464 7.103548,3.12037 18.563767,6.58721 27.457283,8.30611 5.57706,1.07791 5.232242,0.87547 4.088097,2.4001 -2.801098,3.73259 -3.950048,8.83967 -3.371805,14.98768 0.436502,4.64099 1.646173,9.12673 4.21141,15.6169 0.114697,0.29019 -0.284199,0.31228 -1.460235,0.0808 -0.889922,-0.17512 -4.233766,-0.71662 -7.430763,-1.20333 -5.772679,-0.87882 -5.822636,-0.88032 -7.251828,-0.21748 -1.945993,0.90253 -4.318519,3.81737 -6.262394,7.69386 -1.170057,2.33333 -1.72834,3.12711 -2.066535,2.93824 z m 128.507713,-3.35348 c -1.81669,-3.65353 -4.22762,-6.58226 -6.04676,-7.34541 -1.54678,-0.6489 -2.22904,-0.58327 -13.64005,1.31216 -3.88379,0.64512 -7.10123,1.14251 -7.14986,1.10531 -0.0486,-0.0372 0.27248,-0.92494 0.71358,-1.97275 4.74168,-11.26365 5.18125,-22.44939 1.12753,-28.69251 l -0.91112,-1.40322 6.47253,-1.16007 c 11.60608,-2.08017 23.98244,-5.64195 31.86011,-9.16898 4.8105,-2.15378 11.43755,-6.42735 11.89187,-7.66867 0.27427,-0.7494 0.99288,-0.66462 4.7199,0.55685 12.46287,4.0845 19.84906,10.37529 21.40534,18.23087 2.69704,13.61383 -12.32753,26.85174 -42.15769,37.14447 -3.2945,1.13675 -6.17028,2.06682 -6.39062,2.06682 -0.22034,0 -1.07298,-1.35219 -1.89476,-3.00487 z"
         id="path52" /><path
         style="fill:#000000"
         d="m 173.48387,200.09988 c -9.57226,-2.78681 -17.91674,-4.30306 -27.15294,-4.93387 -11.73483,-0.80147 -26.19006,0.98077 -38.74572,4.7771 -2.21482,0.66967 -4.07674,1.16537 -4.13761,1.10155 -0.23054,-0.24171 2.97526,-2.74138 5.67491,-4.42492 6.01506,-3.75105 14.62857,-6.76853 22.70087,-7.95257 5.96621,-0.87511 16.28139,-0.54476 21.91571,0.70187 5.74714,1.2716 9.97056,2.74344 14.82732,5.16726 5.40791,2.69888 11.82194,7.13512 10.08659,6.97635 -0.25383,-0.0232 -2.57994,-0.65897 -5.16913,-1.41277 z m -47.23792,-27.14517 c -9.93841,-0.59572 -22.07237,-2.20937 -32.959933,-4.38322 -8.543115,-1.70576 -20.195911,-4.73823 -20.405243,-5.31018 -0.190026,-0.5192 1.796117,-4.36593 2.254216,-4.36593 0.161634,0 2.738279,0.6317 5.725879,1.40377 15.42485,3.98616 31.431431,6.48088 47.732381,7.43938 18.30263,1.07619 42.89523,-1.80925 64.99998,-7.62643 5.80721,-1.52825 6.12436,-1.57519 6.55775,-0.97062 0.84648,1.18084 2.0781,3.94623 1.82752,4.10342 -0.34624,0.21719 -11.80513,3.24898 -14.87613,3.93592 -21.98055,4.91673 -42.5687,6.87008 -60.85642,5.77389 z M 11.014476,118.2631 c 0.863159,-10.47225 7.442192,-19.97622 16.637295,-24.033971 3.479215,-1.53536 6.257636,-2.077444 10.823975,-2.111812 4.025935,-0.0303 9.415261,0.826873 9.415261,1.4975 0,0.135897 -2.075714,0.614525 -4.612697,1.063618 -5.167794,0.914794 -8.836044,2.025602 -12.471912,3.776705 -7.625572,3.67262 -13.843521,10.45482 -18.553161,20.23678 -0.563298,1.16997 -1.119862,2.12722 -1.236809,2.12722 -0.116947,0 -0.117825,-1.15022 -0.002,-2.55604 z m 250.791094,0.20871 c -3.24244,-6.96303 -9.37935,-14.49304 -14.55842,-17.86321 -4.69896,-3.057755 -10.96838,-5.226784 -18.03365,-6.239097 -1.70778,-0.244691 -3.10505,-0.557314 -3.10505,-0.69472 0,-0.137405 1.17271,-0.550298 2.60601,-0.917539 3.44315,-0.882202 10.39479,-0.897449 13.49375,-0.0296 5.01206,1.403608 8.62985,3.446973 12.1844,6.881882 5.15151,4.978104 8.94179,13.405134 8.64238,19.214834 l -0.10614,2.05964 z m -47.80245,-8.08893 c -5.93882,-1.22908 -18.73804,-2.59034 -31.27212,-3.32594 -3.60638,-0.21165 -19.94859,-0.47306 -36.31601,-0.58092 -44.16833,-0.29105 -64.083791,0.46529 -81.795049,3.10638 l -4.959793,0.73961 -2.583325,-1.53817 c -2.786055,-1.65888 -6.450488,-5.08863 -5.956055,-5.5746 0.299211,-0.2941 7.236355,-1.75247 11.733779,-2.46676 7.883437,-1.252057 19.88113,-2.30077 32.449026,-2.836353 10.664287,-0.45446 72.349377,-0.453931 83.056057,7.13e-4 14.23132,0.604311 25.31704,1.625598 34.63471,3.19077 4.08036,0.68541 11.68318,2.35544 12.18566,2.67668 0.83146,0.53157 -2.56166,3.43799 -6.80551,5.82934 l -2.18569,1.2316 z"
         id="path51" /></g></g></svg>
