<?xml version="1.0" encoding="UTF-8" standalone="no"?>
<!-- Created with Inkscape (http://www.inkscape.org/) -->

<svg
   width="1062.4344"
   height="401.52921"
   viewBox="0 0 1062.4344 401.52921"
   version="1.1"
   id="svg1"
   xml:space="preserve"
   xmlns="http://www.w3.org/2000/svg"
   xmlns:svg="http://www.w3.org/2000/svg"><defs
     id="defs1" /><g
     id="layer1"
     transform="translate(-7.2058414,-331.85068)"><g
       id="g6"
       transform="matrix(0.83618985,0,0,0.72835481,-2.0032205,115.10313)"><path
         style="fill:#000000;fill-opacity:1;fill-rule:nonzero;stroke:none"
         d="m 1222.8465,498.50176 c 0,105.33333 -258.33338,190.66667 -576.66671,190.66667 -318.33333,0 -576.333332,-85.33334 -576.333332,-190.66667 0,-105.33333 38.666662,-202.33333 576.333332,-190.66667 529.00001,11.33334 576.66671,85.33334 576.66671,190.66667 z"
         id="path1" /><path
         style="fill:#000000;fill-opacity:1;fill-rule:nonzero;stroke:none"
         d="m 805.51312,813.83509 c -24.66666,-12.33333 -46,-19.66666 -75,-26 -28.33333,-6.33333 -80.33333,-8 -110.33333,-3.66666 -40.66667,6 -84,21.33333 -114.33333,40 -13.66667,8.66666 -29.66667,21.33333 -28.66667,22.33333 0.33333,0.33333 9.66667,-2 21,-5.33333 63,-19.33334 136,-28.33334 195,-24.33334 46.66667,3.33334 88.66667,11 137,25 13,3.66667 24.66667,7 26,7 8.66667,1 -23.66667,-21.33333 -50.66667,-35 z m 164,-169.66666 c 0,0 0,0 0,0 -0.66666,-1.66667 -1.66666,-3 -2.33333,-4.33334 0,0 0,0 0,0 -1,-1.66666 -1.66667,-3.33333 -2.66667,-4.33333 -2.33333,-3 -3.66666,-3 -33,4.66667 -111.33333,29.33333 -235.33333,44 -327.66666,38.66666 -82,-5 -162.66667,-17.33333 -240.33334,-37.66666 -15.33333,-3.66667 -28.33333,-7 -29,-7 -1,0 -3.66666,3.66666 -6,8.33333 0,0 0,0 0,0 -0.66666,1 -1.33333,2.33333 -1.66666,3.33333 0,0 0,0 0,0.33334 -2.33334,4.33333 -4,9 -3.66667,10 1,3 59.66667,18.33333 102.66667,26.66666 55,11 116,19.33334 166.33333,22.33334 92,5.33333 195.66667,-4.33334 306.66667,-29.33334 15.33333,-3.33333 73,-18.66666 75,-19.66666 0.66666,-0.66667 -1.33334,-6.33334 -4.33334,-12 z M 149.84646,297.83509 c -23,0 -37,2.66667 -54.666672,10.33334 -46.33333,20.66666 -79.33333,68.33333 -83.66667,121.33333 -0.66666,7 -0.66666,12.66667 0,12.66667 0.33334,0 3.33334,-4.66667 6,-10.66667 24,-49.33333 55.33334,-83.33333 93.666672,-102 18.33333,-8.66667 36.66667,-14.33333 62.66667,-19 13,-2.33333 23.33333,-4.66667 23.33333,-5.33333 0,-3.33334 -27,-7.66667 -47.33333,-7.33334 z m 1088.00004,37.66667 c -18,-17.33333 -36,-27.66667 -61.3334,-34.66667 -15.6666,-4.33333 -50.6666,-4.33333 -68,0 -7.3333,2 -13.3333,4 -13.3333,4.66667 0,0.66667 7.3333,2.33333 15.6667,3.66667 35.6666,5 67.3333,16 91,31.33333 26,17 57,55 73.3333,90 5.6667,12 5.6667,12 5.6667,12 0.6666,-10.33333 0.6666,-10.33333 0.6666,-10.33333 1.3334,-29.33334 -17.6666,-71.66667 -43.6666,-96.66667 z m -147.3334,21 c -2.3333,-1.66667 -40.6666,-10 -61.3333,-13.66667 -47.00001,-7.66666 -102.66668,-13 -174.33334,-16 -54,-2.33333 -365,-2.33333 -418.66667,0 -63.33333,2.66667 -123.66667,8 -163.66667,14.33334 -22.66666,3.66666 -57.33333,11 -59,12.33333 -1.66666,1.66667 7,11 17,19 0.33334,0 0.33334,0 0.33334,0 4,3.66667 8.66666,6.66667 12.66666,9.33333 13,7.66667 13,7.66667 13,7.66667 0.33334,0 0.33334,0 0.33334,0 24.66666,-3.66667 24.66666,-3.66667 24.66666,-3.66667 89.33334,-13.33333 189.66667,-17.33333 412.33334,-15.66666 82.33333,0.33333 164.66666,1.66666 183,2.66666 63,4 127.66664,10.66667 157.33334,17 11.3333,2.33334 11.3333,2.33334 11.3333,2.33334 11,-6.33334 11,-6.33334 11,-6.33334 1.6667,-1 3,-2 4.6667,-3 0.3333,0 0.3333,0 0.3333,0 3,-1.66666 5.6667,-3.33333 8,-5.33333 0.3334,0 0.6667,-0.33333 1,-0.66667 8.6667,-5.66666 15.3334,-11 18.6667,-15 0.6667,-1 1,-1.66666 1.3333,-2.33333 1,-1.33333 1,-2.66667 0,-3 z"
         id="path2" /><path
         style="fill:#efffd7;fill-opacity:1;fill-rule:nonzero;stroke:none"
         d="m 1056.5131,368.50176 c -11,6.33333 -11,6.33333 -11,6.33333 -11,-2.33333 -11,-2.33333 -11,-2.33333 -29.6666,-6.33333 -94.33331,-13 -157.33331,-16.66667 -18.33333,-1.33333 -100.66667,-2.66666 -183,-3 -222.66667,-1.66666 -323,2.33334 -412.33333,15.66667 -24.66667,3.66667 -24.66667,3.66667 -24.66667,3.66667 7.33333,4 15,7.66666 22.33333,11 35.66667,15.66666 93.66667,33.33333 138.33334,42 28,5.33333 26.33333,4.33333 20.66666,12 -3.33333,4.33333 -6.33333,9 -8.66666,14.33333 0.66666,-0.33333 1.66666,2 3.33333,8 -2.66667,-9.33333 -1.33333,-14 6.33333,-23.33333 4.66667,-6 4.66667,-6 4.66667,-6 20,3 20,3 20,3 0,0 0.33333,-0.33334 0.66667,-0.33334 1.33333,-0.66666 2.66666,-0.66666 3.33333,0 0.33333,0.33334 0,0.66667 -0.66667,1 0.33334,0 0.33334,0 0.33334,0 2.66666,0.33334 5.66666,0.66667 8.33333,1 0,0 0.33333,0 0.66667,-0.33333 1.33333,-0.66667 2.66666,-0.33333 3.33333,0 0.33333,0.66667 0,0.66667 -0.66667,1 3.33334,0.33333 6.66667,1 10,1.33333 0,0 0.33334,-0.33333 1,-0.66666 1,-0.33334 2.66667,-0.33334 3,0.33333 0.66667,0.33333 0,0.66667 -0.66666,0.66667 4,0.66666 8,1.33333 12.33333,1.66666 -0.66667,0 -0.33333,-0.33333 0.33333,-0.66666 1.33334,-0.66667 2.66667,-0.66667 3.33334,0 0.66666,0.66666 0,1 -1.66667,1 5,0.66666 9.66667,1 14,1.66666 -1,-0.33333 -1.33333,-0.66666 -0.33333,-1 1,-0.33333 3,-0.33333 4,0 1.33333,0.66667 0.33333,1 -2,1 -0.66667,0 -1,0 -1.66667,0 6.33333,0.33334 12.33333,1 18.33333,1.66667 -0.66666,-0.33333 -0.66666,-0.66667 0,-1 1,-0.33333 3,-0.33333 4,0 1.33334,0.66667 0.33334,1 -2,1 -0.33333,0 -0.33333,0 -0.33333,0 5.33333,0.33333 11,1 16.33333,1.33333 0,-0.33333 0.33334,-0.33333 0.66667,-0.33333 1.33333,-0.66667 2.66667,-0.66667 3.33333,0 0,0.33333 0,0.33333 0,0.33333 1,0.33334 1.66667,0.33334 2.66667,0.33334 -1.33333,-0.33334 -1.33333,-0.33334 0,-0.66667 1.33333,-0.66667 3.66667,-0.66667 5,0 1,0.33333 -0.33333,0.66667 -3,0.66667 7,0.33333 14,0.66666 21.33333,1 0,0 0,0 0.33334,0 1.66666,-0.33334 3.66666,-0.33334 5,0 0,0 0.33333,0 0.33333,0.33333 1,0 2,0 3,0 0,0 0.33333,-0.33333 1,-0.33333 2,-0.33334 5.33333,-0.33334 7.33333,0 1.33334,0.33333 1.33334,0.33333 0.33334,0.66666 21.66666,0.33334 45,0.33334 72,0 9.66666,-0.33333 18.33333,-0.33333 26,-0.33333 0.33333,0 0.33333,0 0.33333,0 0,-0.33333 0.33333,-0.33333 0.66667,-0.33333 2,-0.33334 5.33333,-0.33334 7.66666,0 0,0 0,0 0,0 2,0 3.66667,0 5.33334,0 1.33333,-0.33334 2.66666,-0.33334 4,-0.33334 7.66666,0 14.33333,-0.33333 20.66666,-0.66666 -2,0 -2.66666,-0.33334 -1.33333,-0.66667 1.66667,-0.66667 4,-0.66667 5,0 0.66667,0.33333 0.66667,0.33333 0,0.66667 0.66667,-0.33334 1.33333,-0.33334 2,-0.33334 0,0 0.33333,-0.33333 0.66667,-0.33333 1.33333,-0.66667 2.66666,-0.66667 3.33333,0 0,0 0,0 0,0.33333 6,-0.66666 12,-1 18,-1.66666 0,0 0,-0.33334 0.66667,-0.66667 1.33333,-0.33333 2.66666,-0.33333 3.33333,0.33333 0,0 0,0 0,0 3.66667,-0.33333 7,-0.66666 10.66667,-1 -1.33334,0 -1.33334,-0.66666 -0.33334,-1 1.33334,-0.66666 2.66667,-0.33333 3.33334,0 0,0.33334 0,0.66667 0,0.66667 4.33333,-0.33333 8.66666,-1 13.66666,-1.33333 -1,-0.33334 -1,-0.66667 0,-1 1.33334,-0.66667 2.66667,-0.66667 3.33334,0 0,0.33333 0,0.33333 0,0.33333 1.33333,0 2.66666,0 4.33333,-0.33333 3,-0.33334 5.66667,-0.66667 8,-1 -1.33333,0 -1.66667,-0.33334 -0.33333,-1 1,-0.33334 2.66666,-0.33334 3,0.33333 0.33333,0 0.33333,0.33333 0,0.66667 11.66666,-1.33334 16.66666,-1.33334 17.66666,0 1.33334,1 0.33334,6.66666 -1.33333,13.66666 3,-11.33333 3.66667,-11.66666 6,-8.66666 0,0 -0.33333,-0.33334 -0.33333,-0.33334 -4.33334,-7 -4.33334,-7 -4.33334,-7 32.33334,-5.66666 32.33334,-5.66666 32.33334,-5.66666 58.66666,-10.66667 121,-28.66667 160.66664,-46.33334 10,-4.33333 21.6667,-11 32,-17 -1.6666,0.66667 -3.3333,1.66667 -5,2.66667 z m -291.33331,74 c -2.33333,0 -3.33333,-0.33333 -2,-1 1,-0.33333 3,-0.33333 4,0 1.33333,0.66667 0.33333,1 -2,1 z"
         id="path3" /><path
         style="fill:#ffffff;fill-opacity:1;fill-rule:nonzero;stroke:none"
         d="m 522.84646,440.83509 c -0.66667,0 -1,0 -1.66667,0 -1,-0.33333 -1.33333,-0.66666 -0.33333,-1 1,-0.33333 3,-0.33333 4,0 1.33333,0.66667 0.33333,1 -2,1 z"
         id="path4" /><path
         style="fill:#ffffff;fill-opacity:1;fill-rule:nonzero;stroke:none"
         d="m 765.17979,442.50176 c -2.33333,0 -3.33333,-0.33333 -2,-1 1,-0.33333 3,-0.33333 4,0 1.33333,0.66667 0.33333,1 -2,1 z"
         id="path5" /><path
         style="fill:#efffd7;fill-opacity:1;fill-rule:nonzero;stroke:none"
         d="m 966.84646,621.16843 c -4.66667,-9 -10,-17.33334 -15.33334,-24 -0.33333,0.66666 -1.66666,-0.33334 -4.33333,-3.66667 -3.33333,-4 -3.33333,-4 -3.33333,-4 2.66666,2.33333 2.66666,2.33333 2.66666,2.33333 -3.66666,-3.66666 -7,-6.33333 -10,-7.66666 -2,-0.66667 -3.66666,-1.33334 -6.33333,-1.66667 -0.33333,0.33333 -1,0.33333 -2.33333,0.33333 -1.33334,0 -2.33334,0 -2.66667,-0.33333 -8,0.33333 -23,2.66667 -57.33333,8.33333 -19.66667,3.33334 -36,6 -36,5.66667 -0.33334,0 0.33333,-1.66667 1,-4 -1.66667,4.33333 -1.66667,4.33333 -1.66667,4.33333 -13,2.33334 -13,2.33334 -13,2.33334 -18.66667,2.66666 -36.66667,5.33333 -54,7.66666 0.33333,0 0.33333,0 0.66667,0 0.33333,0.66667 -0.66667,1 -2.33334,1 -1.66666,0 -2,-0.33333 -1.66666,-0.66666 -23.33334,3 -45,5 -65,6.33333 0.66666,0 1.33333,0.33333 2,0.33333 1.33333,0.66667 0.33333,1 -2,1 -2.33334,0 -3.33334,-0.33333 -2.33334,-1 0.33334,0 1,0 1.33334,0 -20.66667,1.33334 -39.66667,2 -56.66667,1.66667 0,0 0.33333,0 0.33333,0.33333 2,0.33334 0.33334,0.66667 -3.66666,0.66667 -4.33334,0 -6,-0.33333 -4,-0.66667 0.33333,-0.33333 0.66666,-0.33333 1,-0.33333 -5.33334,0 -10.33334,-0.33333 -15.33334,-0.66667 -3.66666,0 -7.33333,-0.33333 -11.66666,-0.66666 0.66666,0.33333 -0.33334,0.66666 -2.33334,0.66666 -2.33333,0 -3.33333,-0.33333 -2,-1 0,0 0.33334,0 0.33334,0 -5.33334,-0.33333 -11.33334,-1 -17.66667,-1.66666 0.33333,0 0.33333,0 0.33333,0 0.33334,0.66666 -0.66666,1 -2.33333,1 -2,0 -2.33333,-0.33334 -1,-1 0.33333,0 0.33333,0 0.66667,-0.33334 -4.66667,-0.33333 -9.66667,-1 -14.33334,-1.33333 0,0 0,0 0,0 0.66667,0.66667 -0.33333,1 -2.33333,1 -2,0 -2.33333,-0.66667 -1,-1 0.33333,-0.33333 0.66667,-0.33333 0.66667,-0.33333 -4,-0.33334 -8.33334,-1 -12.66667,-1.33334 0,0 0,0 0,0 0.66667,0.66667 -0.33333,1 -2,1 -2,-0.33333 -2.66667,-0.66666 -1.33333,-1.33333 0.33333,0 0.66666,0 1,0 -22.33334,-2.66667 -46,-6 -68.66667,-9.66667 -37,-5.66666 -37,-5.66666 -37,-5.66666 -0.33333,-1.33334 -0.33333,-1.33334 -0.33333,-1.33334 0,1 -2.33334,1 -7.66667,0 -4.33333,-1 -21.33333,-3.66666 -37.33333,-6 -13,-2 -20.33334,-3 -25,-3.33333 0.33333,0.33333 -0.66667,0.33333 -2.33334,0.33333 -1.66666,0 -2.66666,0 -2.66666,-0.33333 -2.33334,0.33333 -4,1 -6.66667,2 -2,1 -4,2.33333 -6,4.33333 -4.33333,4.66667 -4.33333,4.66667 -4.33333,4.66667 -3.66667,4.66667 -5.33334,6 -5.66667,5.66667 -5.33333,6.33333 -10.66667,14.66666 -15.33333,24.33333 -0.33334,0.66667 -0.66667,1 -1,1.66667 2.33333,-4.33334 5,-8.33334 6,-8.33334 0.66666,0 13.66666,3.33334 29,7.33334 77.66666,20 158.33333,32.33333 240.33333,37.33333 92.33333,5.33333 216.33333,-9 327.66667,-38.33333 29.33333,-7.66667 30.66666,-8 33,-5 0.66666,1 1.66666,2.66666 2.66666,4.33333 -0.33333,-0.33333 -0.33333,-0.66667 -0.66666,-1.33333 z m -497.33334,-22 c -2,-0.33334 -2.66666,-0.66667 -1,-1.33334 1,-0.33333 2.66667,-0.33333 3,0.33334 0.66667,0.66666 -0.33333,1 -2,1 z m 11.66667,1.66666 c -2,0 -2.33333,-0.66666 -1,-1 1.33333,-0.66666 2.66667,-0.66666 3.33333,0 0.66667,0.66667 -0.33333,1 -2.33333,1 z m 23.66667,3.66667 c -2,-0.33333 -2.33334,-0.66667 -1,-1.33333 1.33333,-0.33334 2.66666,-0.33334 3.33333,0.33333 0.66667,0.66667 -0.33333,1 -2.33333,1 z m 12,1.66667 c -2,0 -2.33334,-0.66667 -1,-1 1.33333,-0.66667 2.66666,-0.66667 3.33333,0 0.33333,0.66666 -0.66667,1 -2.33333,1 z m 13.66666,1.66666 c -2,0 -2.66666,-0.33333 -1,-1 1,-0.66666 2.66667,-0.33333 3,0 0.66667,0.66667 -0.33333,1 -2,1 z m 12.66667,1.66667 c -2.33333,0 -3.33333,-0.33333 -2,-1 1,-0.33333 3,-0.33333 4,0 1.33333,0.66667 0.33333,1 -2,1 z m 15.33333,1.66667 c -2.33333,0 -3.33333,-0.33334 -2,-0.66667 1,-0.66667 3,-0.66667 4,0 1.33334,0.33333 0.33334,0.66667 -2,0.66667 z m 16,2 c -2.66666,-0.33334 -3.66666,-0.66667 -2,-1 1.66667,-0.33334 4,-0.33334 5,0 1.33334,0.66666 0,1 -3,1 z m 19.66667,1.66666 c -3.33333,0 -4.66667,-0.33333 -3,-1 1.66667,-0.33333 4.33333,-0.33333 6,0 1.33333,0.66667 0,1 -3,1 z m 26,1.66667 c -4.66667,0 -6.33333,-0.33333 -3.66667,-1 2.66667,-0.33333 6.33334,-0.33333 8.33334,0.33333 2.33333,0.33334 0,0.66667 -4.66667,0.66667 z m 42.66667,0 c -4.66667,0 -6.66667,-0.33333 -4,-1 2.66666,-0.33333 6.33333,-0.33333 8.66666,0.33333 2,0.33334 0,0.66667 -4.66666,0.66667 z m 15,0 c -4.66667,0 -6.33334,-0.33333 -3.66667,-1 2.66667,-0.33333 6.33333,-0.33333 8.33333,0.33333 2.33334,0.33334 0,0.66667 -4.66666,0.66667 z m 26.33333,-1.66667 c -3.33333,0 -4.66667,-0.33333 -3,-1 1.66667,-0.33333 4.33333,-0.33333 6,0 1.66667,0.66667 0.33333,1 -3,1 z m 18.66667,-1.66666 c -2.33334,0 -3.33334,-0.33334 -2,-1 1,-0.33334 3,-0.33334 4,0 1.33333,0.66666 0.33333,1 -2,1 z m 17,-2 c -2.33334,0 -3.33334,-0.33334 -2.33334,-0.66667 1.33334,-0.66667 3.33334,-0.66667 4.33334,0 1.33333,0.33333 0.33333,0.66667 -2,0.66667 z m 14.33333,-1.33334 c -2,-0.33333 -2.33333,-0.66666 -1,-1.33333 1,-0.33333 2.66667,-0.33333 3,0.33333 0.66667,0.66667 -0.33333,1 -2,1 z m 13.33333,-2 c -2,0 -2.33333,-0.33333 -1,-1 1.33334,-0.66666 2.66667,-0.33333 3.33334,0 0.66666,0.66667 -0.33334,1 -2.33334,1 z m 13.66667,-1.66666 c -2,0 -2.33333,-0.66667 -1,-1 1.33333,-0.66667 2.66667,-0.66667 3.33333,0 0.33334,0.66666 -0.66666,1 -2.33333,1 z m 12,-1.66667 c -2,-0.33333 -2.66667,-0.66667 -1.33333,-1.33333 1.33333,-0.33334 3,-0.33334 3.33333,0.33333 0.66667,0.66667 -0.33333,1 -2,1 z m 11.66667,-2 c -2,0 -2.33334,-0.33333 -1,-1 1.33333,-0.66667 2.66666,-0.33333 3.33333,0 0.33333,0.66667 -0.66667,1 -2.33333,1 z m 12,-1.66667 c -2,0 -2.33334,-0.66666 -1,-1 1,-0.66666 2.66666,-0.66666 3,0 0.66666,0.66667 -0.33334,1 -2,1 z"
         id="path6" /></g></g></svg>
