<?xml version="1.0" encoding="UTF-8" standalone="no"?>
<!-- Created with Inkscape (http://www.inkscape.org/) -->

<svg
   width="1000.0001"
   height="1000.0001"
   viewBox="0 0 264.58335 264.58335"
   version="1.1"
   id="svg1"
   xml:space="preserve"
   xmlns="http://www.w3.org/2000/svg"
   xmlns:svg="http://www.w3.org/2000/svg"><defs
     id="defs1" /><g
     id="layer1"><g
       id="g57"
       transform="translate(1.7918999,1.4335204)"><path
         style="fill:#a49a9d"
         d="m 161.57887,163.0129 c 0,-0.0549 0.20836,-0.2633 0.46302,-0.46302 0.41964,-0.32911 0.429,-0.31975 0.0999,0.0999 -0.34564,0.44073 -0.56291,0.58089 -0.56291,0.36313 z M 92.601907,133.21488 c 0,-0.80037 0.0496,-1.12779 0.110223,-0.7276 0.06062,0.40018 0.06062,1.05502 0,1.4552 -0.06062,0.40019 -0.110223,0.0728 -0.110223,-0.7276 z m 23.137903,-10.24089 c 0.32742,-0.0631 0.8632,-0.0631 1.19062,0 0.32742,0.0631 0.0595,0.11466 -0.59531,0.11466 -0.65484,0 -0.92273,-0.0516 -0.59531,-0.11466 z m 2.66237,0.006 c 0.19099,-0.0764 0.4192,-0.067 0.50712,0.0209 0.0879,0.0879 -0.0684,0.15045 -0.34727,0.13896 -0.30822,-0.0127 -0.37092,-0.0754 -0.15985,-0.15985 z m 19.96454,-0.003 c 0.25743,-0.0671 0.61462,-0.0627 0.79375,0.01 0.17913,0.0725 -0.0315,0.12736 -0.46806,0.12197 -0.43656,-0.005 -0.58312,-0.0647 -0.32569,-0.13177 z m 4.36059,-0.25646 c 0.1819,-0.0734 0.47955,-0.0734 0.66145,0 0.18191,0.0734 0.0331,0.13345 -0.33072,0.13345 -0.36381,0 -0.51263,-0.06 -0.33073,-0.13345 z m -33.46476,-0.27271 c 0.25743,-0.0671 0.61462,-0.0627 0.79375,0.01 0.17913,0.0725 -0.0315,0.12736 -0.46805,0.12197 -0.43657,-0.005 -0.58313,-0.0647 -0.3257,-0.13178 z m -3.03121,-0.26197 c 0.191,-0.0764 0.4192,-0.067 0.50712,0.0209 0.0879,0.0879 -0.0684,0.15045 -0.34726,0.13896 -0.30823,-0.0127 -0.37092,-0.0754 -0.15986,-0.15985 z m -2.38125,-0.26458 c 0.191,-0.0764 0.4192,-0.067 0.50712,0.0209 0.0879,0.0879 -0.0683,0.15045 -0.34726,0.13896 -0.30823,-0.0127 -0.37092,-0.0754 -0.15986,-0.15985 z m -4.497912,-0.52917 c 0.190996,-0.0764 0.419199,-0.067 0.507118,0.0209 0.08792,0.0879 -0.06835,0.15045 -0.347266,0.13896 -0.308224,-0.0127 -0.370919,-0.0754 -0.159852,-0.15985 z m -0.214974,-3.62332 c 0,-0.0549 0.208359,-0.2633 0.463021,-0.46302 0.419645,-0.32911 0.429005,-0.31975 0.0999,0.0999 -0.345644,0.44072 -0.562916,0.58088 -0.562916,0.36312 z m 56.356246,-7.57302 c -0.23847,-0.15411 -0.2711,-0.2581 -0.0818,-0.26053 0.17331,-0.002 0.3887,0.11501 0.47864,0.26053 0.20301,0.32849 0.11142,0.32849 -0.39688,0 z m -33.27135,-2.29905 c 0.25466,-0.0666 0.67138,-0.0666 0.92604,0 0.25466,0.0665 0.0463,0.121 -0.46302,0.121 -0.50932,0 -0.71768,-0.0545 -0.46302,-0.121 z m 5.55625,-0.26458 c 0.25466,-0.0665 0.67138,-0.0665 0.92604,0 0.25466,0.0666 0.0463,0.121 -0.46302,0.121 -0.50932,0 -0.71768,-0.0545 -0.46302,-0.121 z m 12.83229,-0.004 c 0.32742,-0.0631 0.8632,-0.0631 1.19062,0 0.32743,0.0631 0.0595,0.11467 -0.59531,0.11467 -0.65484,0 -0.92273,-0.0516 -0.59531,-0.11467 z m -7.27604,-0.26736 c 0.40018,-0.0606 1.05502,-0.0606 1.45521,0 0.40018,0.0606 0.0728,0.11022 -0.72761,0.11022 -0.80036,0 -1.12778,-0.0496 -0.7276,-0.11022 z m 26.62302,-1.33185 c -0.32911,-0.41964 -0.31975,-0.429 0.0999,-0.0999 0.25467,0.19972 0.46302,0.40808 0.46302,0.46302 0,0.21776 -0.21727,0.0776 -0.56291,-0.36313 z m -59.76208,-3.34104 c 0,-0.0549 0.20836,-0.2633 0.46302,-0.46302 0.41964,-0.32911 0.429,-0.31975 0.0999,0.0999 -0.34564,0.44072 -0.56291,0.58088 -0.56291,0.36312 z m 51.72604,-0.42927 c -0.43138,-0.18537 -0.44649,-0.23083 -0.0818,-0.24599 0.24607,-0.0102 0.52099,0.10047 0.61092,0.24599 0.18803,0.30424 0.17884,0.30424 -0.52916,0 z m 14.38604,-0.99219 c -0.32911,-0.41964 -0.31975,-0.429 0.0999,-0.0999 0.44073,0.34564 0.58089,0.56291 0.36313,0.56291 -0.0549,0 -0.2633,-0.20836 -0.46302,-0.46302 z m -43.93669,-0.51147 c 0.19099,-0.0764 0.4192,-0.067 0.50712,0.0209 0.0879,0.0879 -0.0684,0.15045 -0.34727,0.13897 -0.30823,-0.0127 -0.37092,-0.0754 -0.15985,-0.15986 z m 4.0845,-0.002 c 0.25466,-0.0666 0.67138,-0.0666 0.92604,0 0.25467,0.0665 0.0463,0.121 -0.46302,0.121 -0.50932,0 -0.71768,-0.0545 -0.46302,-0.121 z m 17.73212,-9.7e-4 c 0.25743,-0.0671 0.61462,-0.0627 0.79375,0.01 0.17913,0.0725 -0.0315,0.12737 -0.46806,0.12197 -0.43656,-0.005 -0.58312,-0.0647 -0.32569,-0.13177 z m -12.82079,-0.26197 c 0.191,-0.0764 0.4192,-0.067 0.50712,0.0209 0.0879,0.0879 -0.0684,0.15045 -0.34727,0.13896 -0.30822,-0.0127 -0.37092,-0.0754 -0.15985,-0.15985 z m 4.74905,-0.006 c 0.32912,-0.0633 0.80537,-0.0609 1.05833,0.005 0.25297,0.0662 -0.0163,0.118 -0.5984,0.11507 -0.58208,-0.003 -0.78905,-0.0571 -0.45993,-0.12041 z m -29.83486,-0.44193 c 0,-0.05494 0.20836,-0.263303 0.46302,-0.463022 0.41965,-0.329108 0.42901,-0.319749 0.0999,0.09989 -0.34564,0.440732 -0.56292,0.580892 -0.56292,0.363132 z"
         id="path63" /><path
         style="fill:#bc7289"
         d="m 129.90005,171.92528 c 0.25743,-0.0671 0.61462,-0.0627 0.79375,0.01 0.17913,0.0725 -0.0315,0.12736 -0.46806,0.12197 -0.43656,-0.005 -0.58312,-0.0647 -0.32569,-0.13177 z m 3.58338,0.003 c 0.19099,-0.0764 0.4192,-0.067 0.50711,0.0209 0.0879,0.0879 -0.0684,0.15045 -0.34726,0.13896 -0.30823,-0.0127 -0.37092,-0.0754 -0.15985,-0.15985 z m 37.11216,-35.95693 c 0.0127,-0.30823 0.0754,-0.37092 0.15985,-0.15986 0.0764,0.191 0.067,0.4192 -0.0209,0.50712 -0.0879,0.0879 -0.15045,-0.0684 -0.13896,-0.34726 z m -77.787498,-7.9375 c 0.0127,-0.30823 0.07539,-0.37092 0.159853,-0.15986 0.07643,0.191 0.06703,0.4192 -0.02089,0.50712 -0.08792,0.0879 -0.150453,-0.0684 -0.138965,-0.34726 z m 33.118178,-4.80516 c 1.2733,-0.0485 3.3569,-0.0485 4.6302,0 1.27331,0.0485 0.23151,0.0882 -2.3151,0.0882 -2.54662,0 -3.58841,-0.0397 -2.3151,-0.0882 z m 13.64257,-0.24833 c 0.191,-0.0764 0.4192,-0.067 0.50712,0.0209 0.0879,0.0879 -0.0684,0.15045 -0.34726,0.13896 -0.30823,-0.0127 -0.37092,-0.0754 -0.15986,-0.15985 z m 4.34909,-0.26622 c 0.25466,-0.0666 0.67138,-0.0666 0.92604,0 0.25466,0.0665 0.0463,0.121 -0.46302,0.121 -0.50932,0 -0.71768,-0.0545 -0.46302,-0.121 z m 6.74688,-0.52202 c 0.1819,-0.0734 0.47955,-0.0734 0.66145,0 0.18191,0.0734 0.0331,0.13346 -0.33072,0.13346 -0.36381,0 -0.51263,-0.0601 -0.33073,-0.13346 z m -47.60847,-0.27009 c 0.191,-0.0764 0.4192,-0.067 0.50712,0.0209 0.0879,0.0879 -0.0684,0.15045 -0.34726,0.13896 -0.30823,-0.0127 -0.37092,-0.0754 -0.15986,-0.15985 z m 50.27084,0 c 0.19099,-0.0764 0.4192,-0.067 0.50711,0.0209 0.0879,0.0879 -0.0684,0.15045 -0.34726,0.13896 -0.30823,-0.0127 -0.37092,-0.0754 -0.15985,-0.15985 z"
         id="path62" /><path
         style="fill:#e6486d"
         d="m 131.08564,171.9334 c 0.1819,-0.0734 0.47956,-0.0734 0.66146,0 0.1819,0.0734 0.0331,0.13345 -0.33073,0.13345 -0.3638,0 -0.51263,-0.06 -0.33073,-0.13345 z m 1.32292,0 c 0.1819,-0.0734 0.47955,-0.0734 0.66146,0 0.1819,0.0734 0.0331,0.13345 -0.33073,0.13345 -0.36381,0 -0.51263,-0.06 -0.33073,-0.13345 z m -9.32657,-3.68229 c -0.43656,-0.0611 -1.92484,-0.24063 -3.30729,-0.39908 -5.57992,-0.63951 -8.76238,-1.8822 -11.0707,-4.32291 -1.16015,-1.22669 -1.3432,-1.54964 -1.11745,-1.97146 0.72735,-1.35906 3.31837,-2.68517 6.36732,-3.25884 3.16761,-0.596 8.64975,0.35419 15.66076,2.71439 1.70118,0.57269 3.27299,1.04125 3.49292,1.04125 0.21993,0 1.92368,-0.48432 3.78612,-1.07626 7.07891,-2.24993 12.6498,-2.97982 16.21853,-2.12494 2.01697,0.48316 5.29167,2.06914 5.29167,2.56283 0,0.772 -0.78109,1.89662 -2.24915,3.23834 -1.63537,1.49464 -3.52836,2.23951 -7.97065,3.13636 -3.37065,0.6805 -12.07696,0.68727 -14.01417,0.0109 -1.25023,-0.43652 -1.46032,-0.44071 -2.91041,-0.058 -1.54248,0.4071 -6.63509,0.72309 -8.1775,0.5074 z"
         id="path61" /><path
         style="fill:#d0094b"
         d="m 127.7122,171.81115 c -8.55788,-0.32382 -13.126,-1.45923 -17.4625,-4.34032 -3.19432,-2.12224 -3.82156,-3.05432 -3.18396,-4.73133 l 0.25562,-0.67232 1.38503,1.46447 c 1.58411,1.67496 4.11921,3.02484 6.83498,3.63944 5.08009,1.14968 12.51282,1.4447 15.58972,0.61878 1.61592,-0.43375 1.76486,-0.43311 3.04271,0.0131 1.93322,0.67508 10.64363,0.6675 14.01027,-0.0122 4.46799,-0.90204 6.33255,-1.63923 7.99952,-3.16274 0.8308,-0.75931 1.71448,-1.83605 1.96372,-2.39274 l 0.45317,-1.01218 0.55917,0.71087 c 0.30754,0.39097 0.67699,1.13756 0.82098,1.65907 0.33182,1.20175 0.11378,1.45717 -2.99266,3.50571 -3.35317,2.21126 -8.26993,3.77428 -13.66535,4.34417 -3.26037,0.34438 -11.25591,0.53297 -15.61042,0.3682 z m 20.05873,-13.37701 c 0.19099,-0.0764 0.4192,-0.067 0.50711,0.0209 0.0879,0.0879 -0.0684,0.15045 -0.34726,0.13896 -0.30823,-0.0127 -0.37092,-0.0754 -0.15985,-0.15985 z m -29.10417,-0.26458 c 0.191,-0.0764 0.4192,-0.067 0.50712,0.0209 0.0879,0.0879 -0.0683,0.15046 -0.34727,0.13897 -0.30822,-0.0127 -0.37092,-0.0754 -0.15985,-0.15985 z"
         id="path60" /><path
         style="fill:#5e5e5e"
         d="m 170.59559,135.17721 c 0.0127,-0.30823 0.0754,-0.37092 0.15985,-0.15986 0.0764,0.191 0.067,0.4192 -0.0209,0.50712 -0.0879,0.0879 -0.15045,-0.0684 -0.13896,-0.34726 z m 0.0307,-6.32796 c 0.005,-0.43656 0.0647,-0.58312 0.13178,-0.32569 0.0671,0.25743 0.0627,0.61462 -0.01,0.79375 -0.0725,0.17913 -0.12736,-0.0315 -0.12197,-0.46806 z m -47.4616,-5.60469 c 0.19099,-0.0764 0.4192,-0.067 0.50711,0.0209 0.0879,0.0879 -0.0683,0.15046 -0.34726,0.13897 -0.30823,-0.0127 -0.37092,-0.0754 -0.15985,-0.15985 z m 9.90534,-0.002 c 0.25466,-0.0665 0.67138,-0.0665 0.92604,0 0.25466,0.0666 0.0463,0.121 -0.46302,0.121 -0.50933,0 -0.71769,-0.0545 -0.46302,-0.121 z m -19.30955,-0.26555 c 0.25743,-0.0671 0.61462,-0.0627 0.79375,0.01 0.17913,0.0725 -0.0315,0.12736 -0.46806,0.12197 -0.43656,-0.005 -0.58312,-0.0647 -0.32569,-0.13177 z m 26.60212,0.003 c 0.191,-0.0764 0.4192,-0.067 0.50712,0.0209 0.0879,0.0879 -0.0684,0.15045 -0.34726,0.13896 -0.30823,-0.0127 -0.37092,-0.0754 -0.15986,-0.15985 z m -29.38528,-0.25907 c 0.1819,-0.0734 0.47955,-0.0734 0.66146,0 0.1819,0.0734 0.0331,0.13345 -0.33073,0.13345 -0.36381,0 -0.51263,-0.06 -0.33073,-0.13345 z m 37.04166,-0.26458 c 0.1819,-0.0734 0.47956,-0.0734 0.66146,0 0.1819,0.0734 0.0331,0.13345 -0.33073,0.13345 -0.3638,0 -0.51263,-0.0601 -0.33073,-0.13345 z m -42.84596,-0.2701 c 0.191,-0.0764 0.4192,-0.067 0.50712,0.0209 0.0879,0.0879 -0.0684,0.15045 -0.34727,0.13896 -0.30822,-0.0127 -0.37092,-0.0754 -0.15985,-0.15985 z m 52.3875,-0.79375 c 0.191,-0.0764 0.4192,-0.067 0.50712,0.0209 0.0879,0.0879 -0.0684,0.15045 -0.34727,0.13896 -0.30822,-0.0127 -0.37092,-0.0754 -0.15985,-0.15985 z m 3.98461,-7.95519 c -0.32911,-0.41965 -0.31975,-0.42901 0.0999,-0.0999 0.44073,0.34564 0.58089,0.56292 0.36313,0.56292 -0.0549,0 -0.2633,-0.20836 -0.46302,-0.46302 z m -2.75995,-1.80054 c -0.49319,-0.39512 -0.48995,-0.40001 0.0817,-0.12298 0.32742,0.15867 0.59531,0.34383 0.59531,0.41147 0,0.20246 -0.13721,0.144 -0.67703,-0.28849 z m -47.21255,-1.80663 c 0,-0.0558 0.23829,-0.16374 0.52953,-0.23991 0.29124,-0.0762 0.46281,-0.0305 0.38126,0.10144 -0.14241,0.23043 -0.91079,0.34725 -0.91079,0.13847 z m 50.51539,-1.94908 -0.64143,-0.72761 0.7276,0.64143 c 0.40018,0.35279 0.7276,0.68021 0.7276,0.72761 0,0.2075 -0.21425,0.0386 -0.81377,-0.64143 z m -35.89716,-0.24853 c 0.25466,-0.0665 0.67138,-0.0665 0.92604,0 0.25466,0.0666 0.0463,0.121 -0.46302,0.121 -0.50932,0 -0.71768,-0.0545 -0.46302,-0.121 z m 16.53954,-0.005 c 0.32912,-0.0633 0.80537,-0.0609 1.05833,0.005 0.25297,0.0662 -0.0163,0.118 -0.59839,0.11507 -0.58209,-0.003 -0.78906,-0.0571 -0.45994,-0.12041 z m -10.97826,-0.26081 c 0.25744,-0.0671 0.61462,-0.0627 0.79375,0.01 0.17914,0.0725 -0.0315,0.12736 -0.46805,0.12197 -0.43656,-0.005 -0.58313,-0.0647 -0.3257,-0.13178 z m 4.09909,-0.004 c 0.32912,-0.0633 0.80537,-0.0609 1.05834,0.005 0.25296,0.0662 -0.0163,0.118 -0.5984,0.11506 -0.58208,-0.003 -0.78905,-0.0571 -0.45994,-0.1204 z m 17.79015,-4.57537 c -0.23847,-0.15411 -0.2711,-0.2581 -0.0818,-0.26054 0.17331,-0.002 0.3887,0.11502 0.47863,0.26054 0.20302,0.32848 0.11143,0.32848 -0.39687,0 z m -6.15156,-1.49815 c 0.1819,-0.0734 0.47955,-0.0734 0.66145,0 0.18191,0.0734 0.0331,0.13345 -0.33072,0.13345 -0.36381,0 -0.51263,-0.0601 -0.33073,-0.13345 z m -24.27552,-0.35394 c -0.23847,-0.15411 -0.2711,-0.25809 -0.0818,-0.26053 0.17331,-0.002 0.38869,0.11501 0.47863,0.26053 0.20302,0.32849 0.11142,0.32849 -0.39687,0 z m 4.83368,-0.18335 c 0.25743,-0.0671 0.61462,-0.0627 0.79375,0.01 0.17913,0.0725 -0.0315,0.12737 -0.46806,0.12197 -0.43656,-0.005 -0.58312,-0.0647 -0.32569,-0.13177 z m 12.82725,0.008 c 0.1819,-0.0734 0.47956,-0.0734 0.66146,0 0.1819,0.0734 0.0331,0.13346 -0.33073,0.13346 -0.3638,0 -0.51263,-0.0601 -0.33073,-0.13346 z m -7.92096,-0.27009 c 0.191,-0.0764 0.4192,-0.067 0.50712,0.0209 0.0879,0.0879 -0.0683,0.15045 -0.34727,0.13896 -0.30822,-0.0127 -0.37092,-0.0754 -0.15985,-0.15985 z m 1.43867,-0.002 c 0.25466,-0.0665 0.67138,-0.0665 0.92604,0 0.25466,0.0666 0.0463,0.121 -0.46302,0.121 -0.50932,0 -0.71768,-0.0545 -0.46302,-0.121 z"
         id="path59" /><path
         style="fill:#690a25"
         d="m 105.84962,163.8404 c -7.599616,-8.31368 -13.064625,-21.51606 -13.060494,-31.55156 0.0015,-3.58022 0.552696,-7.38692 1.412751,-9.75635 0.35703,-0.9836 0.700938,-1.84017 0.764238,-1.90347 0.0633,-0.0633 0.700269,0.063 1.415486,0.28075 1.533348,0.46675 7.820989,1.31505 12.677479,1.71038 1.89177,0.154 3.8563,0.33429 4.36562,0.40065 0.50933,0.0664 4.61698,0.19548 9.12813,0.28693 16.65422,0.33762 35.00892,-1.09445 43.07664,-3.36091 3.49433,-0.98166 3.18807,-1.07282 3.83015,1.14002 1.95198,6.72727 1.70868,17.41574 -0.6013,26.41554 -1.68535,6.56624 -4.32411,12.1339 -7.38323,15.57831 -1.00379,1.13021 -1.2517,1.29419 -1.3678,0.9047 -0.68358,-2.29339 -2.31459,-3.70426 -5.48308,-4.74304 -1.87228,-0.61381 -2.61344,-0.71238 -5.34847,-0.71133 -3.51148,10e-4 -6.16948,0.49258 -11.50937,2.12708 -5.00084,1.53072 -4.31526,1.53485 -9.27502,-0.0559 -6.2803,-2.01433 -9.4327,-2.61733 -12.78625,-2.44578 -5.5117,0.28196 -8.71196,2.36057 -8.74987,5.68317 -0.007,0.618 -0.0274,1.12401 -0.0453,1.12448 -0.0178,4.6e-4 -0.495,-0.50518 -1.06034,-1.12364 z"
         id="path58" /><path
         style="fill:#010101"
         d="m 95.763767,120.74804 c -0.472943,-0.13656 -0.859896,-0.30102 -0.859896,-0.36547 0,-0.31659 1.359979,-3.07814 2.149925,-4.36561 2.061187,-3.35934 3.810174,-5.59859 5.508604,-7.05272 3.71501,-3.18066 3.61287,-3.11072 6.89355,-4.72034 1.09141,-0.53548 2.19112,-1.08216 2.44381,-1.21485 0.25269,-0.13269 0.78847,-0.24648 1.19062,-0.25287 0.40216,-0.006 1.20745,-0.18549 1.78953,-0.398 1.76963,-0.64609 7.20884,-1.39088 10.84792,-1.48541 1.89177,-0.0491 7.01146,-0.0764 11.37708,-0.0605 8.20879,0.0298 8.94161,0.1002 14.2875,1.37268 7.22421,1.71956 12.64692,6.16191 15.96794,13.08111 1.2782,2.66309 1.61614,3.90408 1.06461,3.90956 -0.20009,0.002 -0.60888,0.0694 -0.90843,0.14989 -0.43472,0.11676 -0.76435,-0.16429 -1.63341,-1.39267 -1.31219,-1.85476 -3.96574,-4.45825 -5.71161,-5.60386 -2.21036,-1.45041 -4.63712,-2.45957 -8.24993,-3.4307 -1.02977,-0.2768 -1.34283,-0.34517 -3.83646,-0.83788 -2.76313,-0.54596 -13.53609,-0.83095 -19.84375,-0.52496 -5.67856,0.27548 -11.89526,0.97701 -13.89063,1.56752 -0.43656,0.12919 -1.25142,0.31195 -1.81081,0.40613 -1.51601,0.25523 -6.60888,2.67627 -8.86273,4.21316 -2.30447,1.5714 -4.421406,3.63537 -5.928826,5.78048 -0.588001,0.83675 -1.081606,1.51062 -1.096902,1.49749 -0.01529,-0.0131 -0.414763,-0.13559 -0.887705,-0.27214 z m -4.034896,-1.70461 c 0,-2.09406 3.639086,-9.97631 6.161235,-13.34522 2.460524,-3.2866 5.445954,-6.260634 7.837844,-7.807939 2.45295,-1.586807 2.96678,-1.769784 5.87014,-2.090377 1.87118,-0.206619 1.48327,0.274063 -1.44805,1.794383 -2.66279,1.381047 -4.04295,2.388095 -7.44096,5.429343 -2.883643,2.58088 -6.396354,7.57705 -9.290028,13.21331 -0.9296,1.81066 -1.690181,3.07358 -1.690181,2.8065 z m 82.014279,-1.3239 c -0.14192,-0.37328 -0.25803,-0.74223 -0.25803,-0.81991 0,-0.23105 -0.75733,-1.89286 -2.2712,-4.9837 -2.40287,-4.90592 -6.38932,-9.66563 -10.19552,-12.173165 -0.99204,-0.65356 -1.91669,-1.188292 -2.05478,-1.188292 -0.13809,0 -0.29076,-0.09539 -0.33927,-0.21198 -0.0485,-0.116589 -0.98116,-0.655557 -2.07256,-1.197706 l -1.98438,-0.985726 1.5875,0.122366 c 0.87313,0.0673 1.83617,0.179013 2.1401,0.248248 1.50492,0.342815 2.79066,0.823296 3.05481,1.141578 0.16161,0.19473 0.40466,0.354054 0.54011,0.354054 0.13545,0 1.10633,0.636041 2.1575,1.413424 1.95817,1.448129 4.1845,3.816329 5.71582,6.080049 1.35661,2.00545 3.10619,5.93318 3.67456,8.24923 0.8327,3.3932 1.02137,5.83484 0.30534,3.95153 z"
         id="path57" /></g></g></svg>
