<?xml version="1.0" encoding="UTF-8" standalone="no"?>
<!-- Created with Inkscape (http://www.inkscape.org/) -->

<svg
   width="780.88806"
   height="942.21893"
   viewBox="0 0 780.88806 942.21893"
   version="1.1"
   id="svg1"
   xml:space="preserve"
   xmlns="http://www.w3.org/2000/svg"
   xmlns:svg="http://www.w3.org/2000/svg"><defs
     id="defs1" /><g
     id="layer1"
     transform="translate(-136.60487,-66.18763)"><g
       id="g6"
       transform="translate(-441.64512,-205.59342)"><path
         style="fill:#000000;fill-opacity:1;fill-rule:nonzero;stroke:none"
         d="m 1292,742 c 0,260.6667 -144.3333,472 -323,472 -178.33333,0 -323,-211.3333 -323,-472 0,-260.66667 0,-409.66667 323,-407 380.3333,3.33333 323,146.33333 323,407 z"
         id="path1" /><path
         style="fill:#efffd7;fill-opacity:1;fill-rule:nonzero;stroke:none"
         d="m 1241,533.66667 c 0,-1.33334 0,-3 0,-4.33334 -1.6667,-2.66666 -4,-6.66666 -7,-13.33333 -7,-14.66667 -18.3333,-33.33333 -29.3333,-48 -0.3334,0.33333 -0.3334,0.33333 -0.6667,0.33333 -0.6667,0 -2.3333,-2.33333 -3.6667,-5.33333 -0.3333,-0.66667 -0.6666,-1.33333 -1,-1.66667 -3.3333,-4.33333 -6.6666,-8.33333 -9.6666,-11 -2,-2 -3.6667,-3.66666 -5.6667,-5.33333 0,0 0,0 0,0.33333 0,2.33334 -1,1.66667 -5.3333,-3.66666 C 1177,439.33333 1176,438.33333 1176,438 c -6,-4.66667 -12.6667,-9 -19.6667,-13.33333 0,0 0,0.33333 0,0.33333 1.6667,3.66667 1,3.66667 -3,0 -1.3333,-1.33333 -2,-2.33333 -1.6666,-3 -7.6667,-4 -16.3334,-8 -26.3334,-12 -8,-3.33333 -10.3333,-4 -29.6666,-10 -6.3334,-1.66667 -18,-3.33333 -32.6667,-4.66667 0.3333,0.66667 -2,1 -5.3333,1 -4.6667,-0.33333 -6,-0.66666 -3.6667,-1.66666 0.3333,0 0.3333,0 0.6667,0 -14,-1 -29.6667,-1.66667 -45.6667,-2 0,0 0,0 0,0 C 1008.3333,393 1006.6667,393 1004.3333,393 c -2.6666,0 -4.3333,-0.33333 -4.99997,-0.33333 -2,-0.33334 -4,-0.33334 -6,-0.33334 -0.66666,0.33334 -3,0.66667 -6.66666,0.66667 -3.33334,0 -5.66667,-0.33333 -6.33334,-0.33333 0,-0.33334 0,0 0,0 -1.66666,0 -3.33333,0 -5,0 0,0.33333 -1.66666,0.66666 -4,0.66666 -1.66666,0 -3,-0.33333 -3.33333,-0.66666 C 958.33333,393 949.66667,393.33333 941.66667,394 c -3.33334,0 -6.33334,0.33333 -9.33334,0.66667 0,0 0.33334,0 0.33334,0.33333 2,0.66667 0.33333,1.33333 -3.33334,1.33333 -3,0 -4.66666,-0.33333 -4.66666,-1 C 917,396 909.33333,397 902,398 c 2,0.66667 0.33333,1.33333 -3.66667,1.33333 -1.66666,0 -3,0 -4,-0.33333 -27,4 -50.66666,9 -60.66666,13.33333 C 830.33333,414 824,416 819.66667,417 c -0.33334,0.33333 -1,0.33333 -1.33334,0.33333 C 819,417.66667 819.33333,418 819,419 c -1,2.66667 -7,4 -7,1.66667 0,-0.33334 0,-0.33334 0,-0.33334 -16,8.33334 -46.66667,31 -61.33333,46.33334 -12,12.33333 -23.66667,27.66666 -33.33334,44 0.33334,-0.66667 1,-1.66667 1.66667,-2.33334 3.33333,-4 3.33333,-3.66666 0.66667,1.33334 -2.66667,5 -4.33334,6.66666 -4.33334,4 0,0 0,0 0,0 -4,6.66666 -7.33333,13.66666 -10.66666,20.66666 -4,8.66667 -7.33334,15.66667 -8.33334,17.33334 4.33334,1.66666 11.33334,3.33333 19.66667,5.66666 0.33333,-0.33333 0.66667,-0.66666 1,-1 1.66667,-1 3.33333,-0.66666 4,0.33334 0.33333,0.66666 0,1 -1,1.33333 7.33333,1.66667 16,3.66667 25,5.33333 0,-0.33333 0.33333,-0.66666 1,-0.66666 1.33333,-1 3,-1 3.66667,0 0.33333,0.66666 0.33333,1 -0.33334,1.33333 4,0.66667 8.33334,1.33333 12.33334,2 0,0 0.33333,-0.33333 0.66666,-0.33333 1.33334,-1 3.33334,-1 4,0.33333 0.33334,0.33333 0,0.66667 0,1 8.66667,1.33333 17.66667,2.66667 26,3.66667 5,0.66666 10,1.33333 14.33334,2 0,-0.33334 0.33333,-0.66667 0.66666,-0.66667 1.33334,-1 3.66667,-1 5.33334,0 0.66666,0.33333 0.66666,1 -0.66667,1.33333 7,1 12.33333,1.66667 14.33333,2 0.33334,0 1,0.33334 1.66667,0.33334 0,-0.33334 0.33333,-0.66667 1,-0.66667 2,-1 4.66667,-1 6,0 1,0.33333 0.66667,1 0,1 12.33333,1 36.33333,2 62.33333,2.66667 C 898.66667,578.66667 900,579 901,579 c 0.33333,-0.33333 0.66667,-0.66667 1,-1 1.66667,-1 3.33333,-0.66667 4,0.33333 0.33333,0.33334 0.33333,0.33334 0.33333,0.66667 23.66667,0.66667 48,0.33333 72,-0.33333 -0.33333,-0.33334 0,-0.33334 0.66667,-0.66667 2,-0.66667 5.33333,-0.66667 7.33333,0 0.33334,0 0.33334,0.33333 0.66667,0.33333 14,-0.66666 28,-1.33333 41.6667,-2.33333 -0.3334,0 0,-0.66667 1,-1 1.3333,-1 3,-1 3.6666,0 0.3334,0.33333 0.3334,0.66667 0.3334,0.66667 0.3333,0 0.6666,0 1,0 0.3333,-0.33334 0.6666,-0.33334 1,-0.66667 1.6666,-1 3.3333,-1 4,0 0,0.33333 0,0.33333 0,0.33333 8.6666,-0.66666 17,-1.33333 25.3333,-2.33333 -2.6667,0 -3.3333,-0.66667 -1.6667,-1.33333 2,-0.66667 5.3334,-0.66667 7,0 1,0.33333 1,0.66666 1,1 8,-1 16,-1.66667 23.6667,-2.66667 -0.6667,-0.33333 -0.6667,-0.66667 0.3333,-1.33333 1.3334,-0.66667 3.6667,-0.66667 5,0 0.3334,0.33333 0.3334,0.33333 0.3334,0.33333 5.3333,-0.66667 10.6666,-1.33333 15.6666,-2 -1.3333,-0.33333 -1.6666,-0.66667 -0.6666,-1.33333 1.3333,-1 3.6666,-1 5.3333,0 0.3333,0.33333 0.3333,0.33333 0.3333,0.66666 5,-0.66666 9.6667,-1.66666 14.6667,-2.33333 -0.6667,-0.33333 -0.6667,-1 0.3333,-1.33333 1.6667,-1 3.3334,-1 4,0 0,0.33333 0.3334,0.33333 0.3334,0.66666 9.6666,-1.66666 19,-3.66666 28,-5.66666 -0.6667,-0.33334 -0.3334,-0.66667 0.6666,-1.33334 1.3334,-1 3.3334,-0.66666 4,0.33334 0,0 0,0 0,0.33333 23.3334,-5.33333 43.3334,-11.33333 58.6667,-17.66667 3.6667,-1.66666 6.6667,-3 9.3333,-4 -0.3333,-0.66666 -0.3333,-1 -0.3333,-1.66666 z m -487.66667,30.66666 c -2.33333,0 -3,-1 -1.33333,-2 1.33333,-0.66666 3.33333,-0.66666 4,0.33334 0.66667,1 -0.66667,2 -2.66667,1.66666 z m 18.33334,3 c -2.33334,0 -2.66667,-0.66666 -1,-1.66666 1.33333,-1 3,-1 3.66666,0.33333 0.66667,1 -0.33333,1.66667 -2.66666,1.33333 z m 25,3 C 793.33333,570 792,569.33333 794,568.66667 c 2,-0.66667 5,-0.66667 6.33333,0 1.33334,1 -0.33333,1.66666 -3.66666,1.66666 z m 52.33333,6 c -5,0 -7,-0.66666 -4.66667,-1.33333 C 847,574 851,574 853.66667,575 856.33333,575.66667 854,576.33333 849,576.33333 Z m 17.33333,0.33334 C 864,576.66667 863.33333,576 865,575 c 1.66667,-1 3.33333,-1 4,0 0.66667,1.33333 -0.66667,2 -2.66667,1.66667 z M 938,395 c 2,-1 5,-1 7,0 2,0.66667 0.33333,1.33333 -3.33333,1.33333 -4,0 -5.66667,-0.66666 -3.66667,-1.33333 z m 3.66667,184 c -20,0 -28,-0.66667 -18,-1.33333 9.66666,-0.33334 26,-0.33334 35.66666,0 10,0.66666 2,1.33333 -17.66666,1.33333 z m 81.00003,-2.66667 c -3.3334,0 -4.3334,-0.66666 -2.3334,-1.33333 2,-1 4.6667,-1 6,0 1.3334,1 -0.3333,1.33333 -3.6666,1.33333 z M 1042.3333,396 C 1037,396 1035,395.66667 1037.6667,394.66667 1040,394 1044.3333,394 1047,394.66667 c 2.3333,1 0.3333,1.33333 -4.6667,1.33333 z m 14.3334,177.33333 c -3,0 -4,-0.66666 -2.6667,-1.33333 1.3333,-1 3.6667,-1 5.3333,0 1.3334,0.66667 0,1.33333 -2.6666,1.33333 z"
         id="path2" /><path
         style="fill:#000000;fill-opacity:1;fill-rule:nonzero;stroke:none"
         d="m 1241.3333,272.33333 c 0,0 0.3334,-0.33333 1,-0.33333 0.6667,0 1.3334,0 2.3334,0 2.3333,-0.33333 5.6666,-0.33333 9.6666,0.33333 4,0.33334 8.6667,1 14,2.66667 3,0.66667 5.6667,1.66667 8.6667,3 3,1 6,2.33333 9,4 3.3333,1.66667 6.3333,3.33333 9.6667,5.33333 1.3333,1 3,2 4.6666,3.33334 1.6667,1 3,2.33333 4.6667,3.33333 6.3333,5 12.3333,11 18,17.66667 2.6667,3.66666 5.3333,7 8,11 1,2 2.3333,3.66666 3.6667,5.66666 1,2 2,4 3.3333,6 1,2 2,4 3,6 1,2.33334 2,4.33334 3,6.33334 1,2 2,4.33333 2.6667,6.33333 1.3333,3.33333 1.3333,3.33333 1.3333,3.33333 0.3333,1 0.6667,2 1,3.33334 1.6667,4.33333 3,8.66666 4,13 0.6667,2.33333 1.3333,4.66666 1.6667,6.66666 0.6666,2.33334 1,4.66667 1.3333,6.66667 0.3333,2.33333 0.6667,4.33333 1,6.66667 0.3333,2 0.6667,4.33333 1,6.33333 0,2.33333 0.3333,4.33333 0.6667,6.66667 0,2 0,4.33333 0,6.33333 0.3333,4.33333 0.6666,8.33333 0.3333,12.33333 -0.3333,4 -0.3333,8 -0.6667,11.66667 -0.6666,7.66667 -1.3333,14.66667 -2.6666,21 -0.6667,3.33333 -1.3334,6.33333 -2,9.33333 -0.6667,3 -1.3334,5.66667 -2,8.33334 -0.6667,2.33333 -1.3334,5 -2,7 -0.6667,2.33333 -1.3334,4.33333 -2,6 -1.3334,3.66666 -2.3334,6.33333 -3,8.33333 -1,2 -1.3334,3 -1.3334,3 C 1342,498.66667 1342,498.66667 1342,498.66667 c 0,0 0,-1 -0.3333,-3 0,-2 -0.3334,-5 -0.6667,-8.66667 0,-2 -0.3333,-4 -0.3333,-6.33333 -0.3334,-2 -0.6667,-4.66667 -0.6667,-7 -0.3333,-2.66667 -0.6667,-5.33334 -0.6667,-8.33334 -0.3333,-2.66666 -0.6666,-5.66666 -1,-8.66666 -0.6666,-3.33334 -0.6666,-6.33334 -1.3333,-9.66667 -0.3333,-3.33333 -1,-6.66667 -1.3333,-10.33333 -0.3334,-3.33334 -1.3334,-7 -2,-10.33334 -0.3334,-3.66666 -1.3334,-7.33333 -2,-11 -0.3334,-1.66666 -1,-3.66666 -1.3334,-5.33333 -0.3333,-2 -1,-3.66667 -1.3333,-5.66667 -0.6667,-1.66666 -1,-3.66666 -1.6667,-5.66666 -0.3333,-1.66667 -1,-3.33334 -1.6666,-5.33334 -0.6667,-1.66666 -1,-3.66666 -1.6667,-5.66666 -0.6667,-1.66667 -1.3333,-3.33334 -2,-5.33334 -1.3333,-3.66666 -2.6667,-7 -4.3333,-10.66666 -0.3334,-1 -0.6667,-1.66667 -1,-2.66667 -1.3334,-2.66667 -1.3334,-2.66667 -1.3334,-2.66667 -0.6666,-1.66666 -1.6666,-3.33333 -2.3333,-5 -1,-1.66666 -2,-3.33333 -2.6667,-5 -1,-1.66666 -1.6666,-3.33333 -2.6666,-5 -1,-1.33333 -2,-3 -3,-4.66666 -1,-1.66667 -2,-3 -3,-4.66667 -1,-1.33333 -2,-3 -3,-4.33333 -1,-1.33334 -2,-3 -3,-4.33334 -4.3334,-5.66666 -8.6667,-11 -12.6667,-16 -0.6667,-0.66666 -1,-1.33333 -1.6667,-2 -0.6666,-0.66666 -1,-1 -1.6666,-1.66666 -1,-1.33334 -2,-2.66667 -3,-3.66667 -1,-1.33333 -2,-2.33333 -3,-3.66667 -1,-1 -2,-2 -3,-3.33333 -2,-2 -4,-4 -6,-6 -2,-2 -3.6667,-4 -5.3334,-5.66667 -3.6666,-3.66666 -7,-6.66666 -9.6666,-9.33333 C 1247,279.33333 1245,277 1243.3333,275.66667 1242,274.33333 1241,273.33333 1241,273.33333 Z"
         id="path3" /><path
         style="fill:#000000;fill-opacity:1;fill-rule:nonzero;stroke:none"
         d="m 608.66667,517 c 0,0 -0.33334,-0.33333 -0.66667,-0.66667 -0.66667,-0.33333 -1.33333,-1 -2,-1.66666 -1.66667,-1.33334 -4,-3.66667 -6.33333,-7 -2.66667,-3 -5.66667,-7 -8.33334,-12 -1.33333,-2.33334 -2.66666,-5 -4,-8 -1,-3 -2.33333,-6 -3.33333,-9.33334 C 582.66667,475 582,471.66667 581,468 c -0.33333,-2 -0.66667,-4 -1,-5.66667 -0.33333,-2 -0.66667,-4 -1,-6 -1,-8 -1,-16.33333 0,-25.33333 0.33333,-4.33333 1,-8.66667 2,-13 0.33333,-2.33333 0.66667,-4.66667 1.33333,-6.66667 0.66667,-2.33333 1.33334,-4.33333 2,-6.66666 0.33334,-2.33334 1.33334,-4.33334 2,-6.66667 0.66667,-2 1.33334,-4.33333 2.33334,-6.33333 0.66666,-2.33334 1.66666,-4.33334 2.66666,-6.66667 1.33334,-3 1.33334,-3 1.33334,-3 0.33333,-1 1,-2 1.33333,-3.33333 2.33333,-4 4.33333,-8 6.66667,-12 1.33333,-2 2.33333,-4 3.66666,-5.66667 1,-2 2.33334,-4 3.66667,-5.66667 1.33333,-2 2.66667,-3.66666 4,-5.66666 1.33333,-1.66667 2.66667,-3.33334 4,-5 1.33333,-1.66667 2.66667,-3.33334 4,-5 1.33333,-1.66667 3,-3 4.33333,-4.66667 3,-3 5.66667,-6.33333 8.66667,-9 3,-2.66667 5.66667,-5.33333 8.66667,-7.66667 6,-5 11.33333,-9.33333 17,-13 2.66666,-2 5.33333,-3.66666 7.66666,-5.33333 2.66667,-1.33333 5,-3 7.33334,-4.33333 C 676,294.33333 678,293.33333 680,292 c 2.33333,-1 4,-2 5.66667,-2.66667 3.66666,-1.66666 6.33333,-3 8.33333,-3.66666 1.66667,-1 2.66667,-1.33334 2.66667,-1.33334 1,1 1,1 1,1 0,0 -1,1 -2,2.66667 -1.33334,1.33333 -3.33334,3.66667 -5.66667,6.66667 -1.33333,1.33333 -2.66667,3 -4,4.66666 -1.66667,1.66667 -3,3.33334 -4.66667,5.33334 -1.66666,2 -3.33333,4 -5.33333,6.33333 -1.66667,2.33333 -3.66667,4.66667 -5.66667,7 -1.66666,2.33333 -4,5 -6,7.66667 -2,2.66666 -4,5.33333 -6,8 -2,3 -4,6 -6.33333,9 -2,2.66666 -4,6 -6,9 -1,1.66666 -2,3.33333 -3,5 -1,1.66666 -2,3 -3,4.66666 -0.66667,1.66667 -1.66667,3.33334 -2.66667,5 -1,1.66667 -2,3.33334 -2.66666,5.33334 -1,1.66666 -2,3.33333 -2.66667,5 -1,1.66666 -1.66667,3.33333 -2.66667,5.33333 -1.66666,3.33333 -3,7 -4.33333,10.33333 -0.33333,1 -1,2 -1.33333,2.66667 C 623,397.66667 623,397.66667 623,397.66667 c -0.66667,2 -1.33333,3.66666 -2,5.66666 -0.66667,1.66667 -1,3.33334 -1.66667,5.33334 -0.66666,1.66666 -1,3.66666 -1.66666,5.33333 -0.33334,1.66667 -0.66667,3.66667 -1.33334,5.33333 -0.33333,1.66667 -0.66666,3.66667 -1,5.33334 -0.33333,2 -0.66666,3.66666 -1,5.33333 -0.33333,2 -0.33333,3.66667 -0.66666,5.33333 -1,7 -2,13.66667 -2.66667,20.33334 0,0.66666 0,1.66666 0,2.33333 -0.33333,1 -0.33333,1.66667 -0.33333,2.33333 0,1.66667 -0.33334,3.33334 -0.33334,5 0,1.33334 0,3 -0.33333,4.33334 0,1.66666 0,3.33333 0,4.66666 -0.33333,3 -0.33333,5.66667 -0.33333,8.66667 0,2.66667 -0.33334,5.33333 -0.33334,7.66667 0,5 0,9.66666 0,13.33333 0.33334,4 0.33334,7 0.33334,9 0,2 0,3.33333 0,3.33333 z"
         id="path4" /></g></g></svg>
