<?xml version="1.0" encoding="UTF-8" standalone="no"?>
<!-- Created with Inkscape (http://www.inkscape.org/) -->

<svg
   width="1080"
   height="1080"
   viewBox="0 0 1080 1080"
   version="1.1"
   id="svg1"
   xmlns="http://www.w3.org/2000/svg"
   xmlns:svg="http://www.w3.org/2000/svg">
  <defs
     id="defs1" />
  <g
     id="layer1">
    <g
       id="g17"
       transform="translate(-42.658615,10.796509)">
      <path
         style="fill:#1d1d1b;fill-opacity:1;fill-rule:nonzero;stroke:none;stroke-width:3.19111"
         d="m 484.26598,685.91738 c -3.19112,-8.50964 -7.44596,-15.95556 -12.76446,-23.40152 -4.25484,-7.44591 -10.63706,-13.82814 -15.95556,-21.27406 -11.70076,-12.76445 -25.5289,-25.5289 -41.48448,-35.10225 -7.44594,-5.31852 -14.89186,-9.57333 -23.40151,-12.76444 -8.50961,-4.25484 -17.01926,-7.44596 -26.5926,-10.63706 -8.50964,-2.1274 -17.01925,-4.25481 -26.5926,-5.3185 -7.44594,-1.06373 -7.44594,-1.06373 -7.44594,-1.06373 -6.38223,-1.06369 -6.38223,-1.06369 -6.38223,-1.06369 -4.25481,0 -9.57334,0 -13.82815,0 -4.2548,0 -9.57333,0 -13.82814,0 -5.31854,1.06369 -9.57334,1.06369 -13.82817,2.12742 -9.57335,1.06369 -18.08296,3.1911 -27.65629,6.38222 -8.50965,2.12738 -17.0193,5.3185 -25.52891,9.57334 -8.50965,4.25481 -15.95557,8.50961 -23.40151,13.82815 -15.95558,9.57333 -29.78372,21.27409 -41.48448,35.10223 -5.3185,6.38223 -11.70072,12.76446 -15.95556,20.21037 -5.3185,7.44596 -9.57334,14.89188 -12.76446,23.40152 11.70077,-11.70075 25.52891,-23.40152 39.35709,-32.97485 13.82814,-9.57334 27.65629,-18.08296 42.54816,-25.5289 7.44592,-3.19112 14.89186,-6.38223 22.33779,-8.50962 7.44592,-3.19111 14.89188,-5.31853 23.40148,-7.44595 7.44596,-1.0637 14.89188,-3.19111 23.40152,-4.2548 3.19111,0 7.44592,0 11.70073,-1.06371 3.19111,0 7.44595,0 11.70075,0 31.91113,0 63.82226,7.44593 92.54228,21.27408 14.89187,6.38223 28.72002,14.89186 42.54816,25.5289 13.82818,9.57333 26.59263,20.2104 39.35709,32.97485 z"
         id="path1" />
      <path
         style="fill:#1d1d1b;fill-opacity:1;fill-rule:nonzero;stroke:none;stroke-width:3.19111"
         d="m 171.53691,535.93507 c 9.57333,-20.2104 22.33779,-38.29335 37.22963,-55.31264 13.82817,-15.95557 30.84743,-30.8474 47.86669,-43.61186 9.57333,-5.31853 19.14668,-10.63706 28.72002,-15.95556 9.57333,-4.25484 19.14667,-8.50965 27.65631,-13.82818 9.57335,-5.3185 19.14669,-9.57333 29.78371,-14.89184 9.57335,-4.25484 20.21041,-9.57334 30.84744,-14.89186 0,0 0,-1.06371 0,-2.12742 0,0 0,0 -1.06369,-1.0637 -11.70076,-2.12742 -23.40152,-2.12742 -35.10225,-1.06369 -11.70075,1.06369 -23.40151,4.25481 -35.10223,7.44591 -11.70077,4.25481 -22.33779,9.57334 -31.91113,17.01927 -9.57335,6.38222 -19.14668,13.82817 -27.65633,22.33778 -8.50964,7.44595 -17.01925,15.95557 -24.46521,24.46521 -8.50961,8.50964 -14.89183,18.08299 -21.27406,27.65633 -12.76446,20.21037 -22.33779,41.48446 -28.72002,62.75852 0,1.06373 0,2.12743 1.0637,2.12743 1.06369,0 1.06369,0 2.12742,-1.0637 z"
         id="path2" />
      <path
         style="fill:#1d1d1b;fill-opacity:1;fill-rule:nonzero;stroke:none;stroke-width:3.19111"
         d="m 681.05113,685.91738 c 11.70086,-12.76445 25.52887,-23.40152 38.29342,-32.97485 13.82836,-10.63704 27.65637,-19.14667 42.54831,-25.5289 29.78364,-13.82815 61.69478,-21.27408 93.60593,-21.27408 3.19108,0 7.44585,0 11.70085,0 4.25466,1.06371 7.44586,1.06371 11.70052,1.06371 7.44619,1.06369 15.95551,3.1911 23.40171,4.2548 7.44585,2.12742 15.95551,4.25484 23.40137,7.44595 7.44585,2.12739 14.89193,5.3185 22.33778,8.50962 14.89194,7.44594 28.72007,15.95556 42.54808,25.5289 13.8284,9.57333 26.5928,21.2741 39.3572,32.97485 -3.1911,-8.50964 -7.4461,-15.95556 -12.7644,-23.40152 -5.3186,-7.44591 -10.6373,-13.82814 -17.0194,-20.21037 -11.70056,-13.82814 -25.52891,-25.5289 -40.42062,-35.10223 -7.44608,-5.31854 -15.95551,-9.57334 -23.40171,-13.82815 -8.50943,-4.25484 -17.01909,-7.44596 -26.59245,-9.57334 -8.50977,-3.19112 -18.08313,-5.31853 -26.59256,-6.38222 -5.31858,-1.06373 -9.57336,-1.06373 -13.82836,-2.12742 -5.31824,0 -9.57335,0 -13.82801,0 -5.3187,0 -9.57336,0 -13.82813,0 -7.44608,1.06369 -7.44608,1.06369 -7.44608,1.06369 -6.38228,1.06373 -6.38228,1.06373 -6.38228,1.06373 -9.57324,1.06369 -19.14659,3.1911 -27.65602,5.3185 -8.50978,3.1911 -17.01955,6.38222 -25.52899,10.63706 -8.50966,3.19111 -17.01943,7.44592 -24.46529,12.76444 -14.89193,9.57335 -28.71995,22.3378 -40.4208,35.10225 -6.38228,7.44592 -11.70051,13.82815 -15.95563,21.27406 -5.31824,7.44596 -9.57336,14.89188 -12.76444,23.40152 z"
         id="path3" />
      <path
         style="fill:#1d1d1b;fill-opacity:1;fill-rule:nonzero;stroke:none;stroke-width:3.19111"
         d="m 995.90768,534.87134 c -6.38216,-21.27406 -15.95551,-42.54815 -27.65637,-62.75852 -6.38227,-9.57334 -13.82801,-19.14669 -21.27386,-27.65633 -7.4462,-8.50964 -15.95552,-17.01926 -24.46529,-24.46521 -9.57336,-8.50961 -18.08313,-15.95556 -28.72007,-22.33778 -9.57335,-7.44593 -20.21029,-12.76446 -30.84745,-17.01927 -11.70063,-3.1911 -23.40148,-6.38222 -35.10234,-7.44591 -11.70051,-1.06373 -23.40136,-1.06373 -36.1658,1.06369 0,1.0637 -1.06358,1.0637 -1.06358,2.12741 0,1.06371 1.06358,1.06371 1.06358,1.06371 10.63693,5.31852 21.27421,10.63702 30.84757,14.89186 9.57335,5.31851 19.14659,9.57334 28.71994,14.89184 9.57336,5.31853 19.14671,9.57334 28.72007,13.82818 9.57335,5.3185 19.14671,10.63703 27.65614,15.95556 18.08302,12.76446 34.03864,27.65629 48.93058,43.61186 13.82801,17.01929 26.59245,35.10224 37.22938,55.31264 0,1.0637 1.06392,1.0637 2.1275,1.0637 0,0 1.0637,-1.0637 0,-2.12743 z"
         id="path4" />
    </g>
  </g>
</svg>
