<?xml version="1.0" encoding="UTF-8" standalone="no"?>
<!-- Created with Inkscape (http://www.inkscape.org/) -->

<svg
   width="1006.3727"
   height="417.64468"
   viewBox="0 0 1006.3727 417.64468"
   version="1.1"
   id="svg1"
   xmlns="http://www.w3.org/2000/svg"
   xmlns:svg="http://www.w3.org/2000/svg">
  <defs
     id="defs1" />
  <g
     id="layer1"
     transform="translate(-32.743915,-330.69528)">
    <g
       id="g26"
       transform="matrix(3.0191181,0,0,3.0191181,1304.799,-2217.4404)">
      <path
         style="fill:#1d1d1b;fill-opacity:1;fill-rule:nonzero;stroke:none"
         d="m -176,903 c -5,1.33333 -10,3.33333 -14.66667,6 -2.33333,1.33333 -4.66666,2.66667 -6.66666,4.33333 -2.33334,1.66667 -4.33334,3.33334 -6,5.66667 -1.66667,2.33333 -3.33334,4.66667 -4,7.33333 -1,2.66667 -1.33334,5.66667 -1.33334,8.66667 0.33334,3 1,5.66667 2.33334,8.33333 1,2.66667 2.33333,5 4,7.33334 3.33333,4.66666 7,8.66666 11,12 4,3.66666 8.66666,7 13,9.66666 1,0.66667 2.33333,1.33334 3.66666,2 1,0.66667 2.33334,1 3.33334,1.66667 2.66666,1.33333 5,2.33333 7.66666,3 5,1.66667 10.33334,3 15.66667,3.33333 0.33333,0 0.33333,-0.33333 0.33333,-0.33333 0,-0.33333 0,-0.33333 0,-0.66667 -5,-2.33333 -9.33333,-4.33333 -14,-7 -2,-1.33333 -4.33333,-2.66666 -6.33333,-4 -1,-0.66666 -2,-1.33333 -3,-2 -1,-1 -2,-1.66666 -3.33333,-2.33333 -4,-3 -8.33334,-6 -12.33334,-9 -4,-3 -7.66666,-6 -11,-10 -3,-3.66667 -5.33333,-8 -6,-12.33333 -0.33333,-2.33334 -0.33333,-4.66667 0.33334,-7 0.66666,-2.33334 1.66666,-4.33334 3,-6.33334 1.33333,-2 3,-4 5,-5.66666 1.66666,-1.66667 3.66666,-3.33334 6,-4.66667 2,-1.33333 4.33333,-2.66667 6.66666,-4 2,-1 4.66667,-2.33333 7,-3 0,0 0,0 0,0 0,-0.33333 0.33334,-0.33333 0.33334,-0.66667 -0.33334,0 -0.33334,-0.33333 -0.66667,-0.33333 z"
         id="path1" />
      <path
         style="fill:#1d1d1b;fill-opacity:1;fill-rule:nonzero;stroke:none"
         d="m -88,960 c -1.66667,-2 -3.33333,-4.33333 -5.33333,-6.33333 C -95,951.66667 -97,949.66667 -99,948 c -2,-2 -4,-3.66667 -6,-5.33333 -2.33333,-1.66667 -4.33333,-3.33334 -6.66667,-5 -4.66666,-3 -9.66666,-5.66667 -14.66666,-8 -5,-2.33334 -10.33334,-4 -15.66667,-5.33334 C -147.33333,923 -153,922 -158.33333,921.66667 -164,921 -169.66667,921 -175,921.33333 c -5.66667,0.66667 -11.33333,1 -16.66667,2 -2.66666,0.66667 -5.33333,1.33334 -8,2 -1.33333,0.66667 -2.66666,1 -4,1.66667 -0.66666,0.33333 -1.33333,0.66667 -2,0.66667 -0.66666,0.33333 -1,1 -0.66666,4.33333 0,0 0,0.33333 0.33333,0.66667 0,0 0,0 0,0 0.33333,0.66666 0.66667,1 1,1.66666 0.33333,0.33334 0.66667,0.66667 1,0.66667 0,0.33333 0.33333,0.33333 0.33333,0.33333 0.33334,0 0.33334,0 0.66667,0 2,-0.66666 2,-0.66666 2,-0.66666 C -197.33333,934 -197.33333,934 -197.33333,934 c 2.66666,-0.66667 5,-1.33333 7.66666,-2 2.33334,-0.66667 5,-1.33333 7.66667,-2 1,0 2.33333,-0.33333 3.66667,-0.66667 1.33333,0 2.66666,-0.33333 4,-0.33333 5,-0.66667 10.33333,-1 15.66666,-0.66667 5,0.33334 10.33334,0.66667 15.33334,1.66667 C -138,931 -133,932.33333 -128,934.33333 c 5,1.66667 9.66667,4 14.33333,6.66667 2.33334,1 4.66667,2.66667 6.66667,4 2.33333,1.33333 4.33333,3 6.66667,4.66667 2,1.66666 4,3.33333 6,5.33333 2,1.66667 4,3.66667 5.66666,5.66667 0.33334,0 0.33334,0 0.66667,0 0,-0.33334 0,-0.33334 0,-0.66667 z"
         id="path2" />
      <path
         style="fill:#1d1d1b;fill-opacity:1;fill-rule:nonzero;stroke:none"
         d="m -113.33333,880.66667 c -0.33334,-2 -1,-3.66667 -1.33334,-5.33334 -0.66666,-1.66666 -1.66666,-3.33333 -2.33333,-4.66666 -1.66667,-3.33334 -3.66667,-6.33334 -6.33333,-9 -2.33334,-2.66667 -5,-5 -8,-7 C -132,854 -132.66667,853.66667 -133.66667,853 -134.33333,852.66667 -135,852 -136,851.66667 c -2.33333,-1.33334 -2.33333,-1.33334 -2.33333,-1.33334 -2.66667,-1 -2.66667,-1 -2.66667,-1 -1,-0.66666 -1,-0.66666 -1,-0.66666 -1.33333,-0.33334 -1.33333,-0.33334 -1.33333,-0.33334 -1,-0.33333 -1.66667,-0.66666 -2.66667,-1 -2.66667,-0.66666 -2.66667,-0.66666 -2.66667,-0.66666 -1,-0.33334 -1.66666,-0.33334 -2.66666,-0.66667 -3.66667,-0.66667 -7.33334,-0.66667 -10.66667,-0.66667 -7.33333,0.33334 -14.33333,2.33334 -20.33333,6 3.33333,0.33334 6.66666,0.66667 10,1.33334 C -169,853 -166,853.33333 -162.66667,854 c 3,0.66667 6,1.66667 9,2.33333 1.33334,0.66667 2.66667,1 4.33334,1.66667 0.66666,0 1.33333,0.33333 2,0.66667 1,0.33333 1,0.33333 1,0.33333 1,0.66667 1,0.66667 1,0.66667 2.33333,0.66666 2.33333,0.66666 2.33333,0.66666 2,1 2,1 2,1 0.33333,0.33334 0.66667,0.33334 1,0.66667 1,0.33333 1,0.33333 1,0.33333 0.66667,0.33334 1.33333,0.66667 2,1.33334 2.66667,1.33333 5.33333,3 8,4.66666 2.66667,1.66667 5.33333,3.66667 7.66667,5.66667 2.66666,2 5.33333,4.33333 8,6.66667 z"
         id="path3" />
      <path
         style="fill:#1d1d1b;fill-opacity:1;fill-rule:nonzero;stroke:none"
         d="m -333.66667,902.66667 c 2.66667,1 5,2 7.33334,3 2.33333,1.33333 4.33333,2.66666 6.66666,4 2,1.33333 4,3 6,4.66666 C -312,916 -310.33333,918 -309,920 c 1.33333,2 2.66667,4 3,6.33333 0.66667,2.33334 0.66667,4.66667 0.33333,7 -0.66666,4.66667 -3,8.66667 -6,12.66667 -3,3.66667 -7,7 -11,10 -4,3 -8,5.66667 -12.33333,8.66667 -1,1 -2,1.66666 -3,2.33333 -1,0.66667 -2.33333,1.33333 -3.33333,2 -2,1.33333 -4.33334,2.66667 -6.33334,4 -4.33333,2.66667 -9,5 -13.66666,7.33333 -0.33334,0 -0.33334,0.33334 -0.33334,0.33334 0,0.33333 0.33334,0.33333 0.33334,0.33333 5.33333,-0.33333 10.66666,-1.33333 15.66666,-3 2.66667,-1 5,-2 7.66667,-3.33333 1.33333,-0.33334 2.33333,-1 3.66667,-1.66667 1,-0.66667 2.33333,-1.33333 3.33333,-2 4.66667,-2.66667 9,-5.66667 13,-9.33333 4,-3.66667 8,-7.66667 11,-12.33334 1.66667,-2 3,-4.66666 4.33333,-7.33333 1,-2.33333 1.66667,-5.33333 2,-8.33333 0.33334,-2.66667 -0.33333,-5.66667 -1,-8.33334 -1,-3 -2.66666,-5.33333 -4.33333,-7.66666 -1.66667,-2 -3.66667,-4 -5.66667,-5.66667 -2.33333,-1.66667 -4.66666,-3 -7,-4.33333 -4.66666,-2.33334 -9.66666,-4.33334 -14.66666,-5.66667 0,0 -0.33334,0 -0.33334,0.33333 z"
         id="path4" />
      <path
         style="fill:#1d1d1b;fill-opacity:1;fill-rule:nonzero;stroke:none"
         d="m -420.66667,959.33333 c 2,-2 3.66667,-4 5.66667,-5.66666 2,-1.66667 4,-3.66667 6.33333,-5.33334 2,-1.66666 4,-3 6.33334,-4.66666 C -400,942.33333 -398,941 -395.66667,939.66667 -391,937 -386,935 -381,933 c 4.66667,-1.66667 10,-3 15,-4 5,-1 10.33333,-1.66667 15.66667,-2 5,0 10.33333,0 15.66666,0.66667 1,0.33333 2.33334,0.33333 3.66667,0.66666 1.33333,0 2.66667,0.33334 4,0.66667 2.33333,0.33333 5,1 7.66667,1.66667 2.33333,0.66666 5,1.33333 7.33333,2 4,1 4,1 4,1 1.66667,0.33333 1.66667,0.33333 1.66667,0.33333 0.33333,0 0.33333,0 0.66666,0 0,0 0.33334,0 0.66667,-0.33333 0,0 0.33333,-0.33334 0.66667,-0.66667 0.33333,-0.33333 0.66666,-1 1.33333,-1.66667 0,0 0,0 0,0 0,-0.33333 0,-0.33333 0,-0.66666 0.66667,-3 0,-4 -0.66667,-4 -0.66666,-0.33334 -1.33333,-0.66667 -2,-1 -1,-0.33334 -2.33333,-1 -3.66666,-1.33334 -2.66667,-1 -5.33334,-1.66666 -8.33334,-2.33333 -5.33333,-1 -11,-1.33333 -16.66666,-1.66667 -5.33334,-0.33333 -11,-0.33333 -16.66667,0 -5.33333,0.33334 -11,1.33334 -16.33333,2.66667 -5.33334,1.33333 -10.66667,3.33333 -15.66667,5.33333 -5,2.33334 -10,5 -14.33333,8 -2.33334,1.66667 -4.66667,3.33334 -6.66667,5 -2.33333,1.66667 -4.33333,3.66667 -6.33333,5.33334 -2,2 -4,4 -5.66667,6 -1.66667,2 -3.66667,4 -5.33333,6.33333 0,0 0,0.33333 0.33333,0.33333 z"
         id="path5" />
      <path
         style="fill:#1d1d1b;fill-opacity:1;fill-rule:nonzero;stroke:none"
         d="m -396,879.33333 c 3,-2.33333 5.33333,-4.33333 8,-6.66666 2.66667,-2 5,-3.66667 7.66667,-5.66667 2.66666,-1.66667 5.33333,-3.33333 8,-4.66667 0.66666,-0.33333 1.33333,-0.66666 2,-1 1,-0.66666 1,-0.66666 1,-0.66666 0.33333,0 0.66666,-0.33334 1,-0.33334 2.33333,-1 2.33333,-1 2.33333,-1 2,-1 2,-1 2,-1 C -363,858 -363,858 -363,858 c 1,-0.66667 1,-0.66667 1,-0.66667 0.66667,0 1.33333,-0.33333 2.33333,-0.66666 1.33334,-0.66667 2.66667,-1 4.33334,-1.33334 2.66666,-1 5.66666,-1.66666 9,-2.33333 3,-0.66667 6,-1.33333 9.33333,-1.66667 3.33333,-0.33333 6.66667,-0.66666 10,-1 -5.66667,-4 -13,-6 -20,-6.33333 -3.66667,0 -7.33333,0.33333 -11,1 -0.66667,0 -1.66667,0.33333 -2.66667,0.33333 -2.66666,1 -2.66666,1 -2.66666,1 C -364,846.33333 -365,846.66667 -366,847 c -1,0.66667 -1,0.66667 -1,0.66667 C -368.33333,848 -368.33333,848 -368.33333,848 -371,849 -371,849 -371,849 c -2.33333,1.33333 -2.33333,1.33333 -2.33333,1.33333 C -374,851 -375,851.33333 -375.66667,852 c -0.66666,0.33333 -1.66666,0.66667 -2.33333,1.33333 -3,2 -5.66667,4.66667 -8,7.33334 -2.33333,2.66666 -4.66667,5.66666 -6.33333,8.66666 -0.66667,1.66667 -1.33334,3.33334 -2,5 -0.66667,1.66667 -1.33334,3.33334 -1.66667,5 z"
         id="path6" />
    </g>
  </g>
</svg>
