<?xml version="1.0" encoding="UTF-8" standalone="no"?>
<!-- Created with Inkscape (http://www.inkscape.org/) -->

<svg
   width="868.94012"
   height="530.55701"
   viewBox="0 0 868.94012 530.55701"
   version="1.1"
   id="svg1"
   xmlns="http://www.w3.org/2000/svg"
   xmlns:svg="http://www.w3.org/2000/svg">
  <defs
     id="defs1" />
  <g
     id="layer1"
     transform="translate(-105.52992,-274.72153)">
    <g
       id="g22"
       transform="matrix(2.8212338,0,0,2.4728563,-1865.5721,-464.94537)">
      <path
         style="fill:#1d1d1b;fill-opacity:1;fill-rule:nonzero;stroke:none"
         d="m 773.66667,512 c 41.33333,0 75,-36.66667 75,-81.66667 0,-45.33333 -33.66667,-82 -75,-82 -41.33334,0 -75,36.66667 -75,82 0,45 33.66666,81.66667 75,81.66667 z m 0,-156.33333 c 37.33333,0 67.66666,33.33333 67.66666,74.66666 0,41 -30.33333,74.33334 -67.66666,74.33334 C 736.33333,504.66667 706,471.33333 706,430.33333 706,389 736.33333,355.66667 773.66667,355.66667 Z"
         id="path1" />
      <path
         style="fill:#1d1d1b;fill-opacity:1;fill-rule:nonzero;stroke:none"
         d="m 712.66667,335 c 4,-4.33333 8.33333,-8 12.66666,-11.33333 4.33334,-3 9.33334,-5.66667 14,-7.66667 2.33334,-1.33333 5,-2 7.66667,-2.66667 0.66667,0 1.33333,-0.33333 2,-0.33333 0.33333,-0.33333 1,-0.33333 1.66667,-0.66667 0.66666,0 1.33333,-0.33333 2,-0.66666 C 754.33333,311 754.33333,311 754.33333,311 c 2.33334,-1 5,-2 7.33334,-3.33333 2.66666,-1.33334 5.33333,-2.66667 8,-4.33334 0,-1.33333 0,-1.33333 0,-1.33333 -3,-1.33333 -6,-2.33333 -9.33334,-2.66667 -3,-0.33333 -6,-0.33333 -9,0.33334 -3,0.33333 -6,1.33333 -8.66666,3 -3,1.33333 -5.33334,3 -8,4.66666 -5,3.66667 -9.66667,7.66667 -13.33334,12 -4,4.66667 -7,9.66667 -9.66666,15 z"
         id="path2" />
      <path
         style="fill:#1d1d1b;fill-opacity:1;fill-rule:nonzero;stroke:none"
         d="m 756,445 c 0,16.66667 13.66667,30.33333 30.33333,30.33333 16.66667,0 30.33334,-13.66666 30.33334,-30.33333 0,-16.66667 -13.66667,-30.33333 -30.33334,-30.33333 C 769.66667,414.66667 756,428.33333 756,445 Z"
         id="path3" />
      <path
         style="fill:#fdfdfd;fill-opacity:1;fill-rule:nonzero;stroke:none"
         d="m 794.66667,432.66667 c 0,4.66666 3.66666,8.66666 8.33333,8.66666 4.66667,0 8.66667,-4 8.66667,-8.66666 0,-4.66667 -4,-8.33334 -8.66667,-8.33334 -4.66667,0 -8.33333,3.66667 -8.33333,8.33334 z"
         id="path4" />
      <path
         style="fill:#1d1d1b;fill-opacity:1;fill-rule:nonzero;stroke:none"
         d="m 931.66667,513.66667 c 41.33333,0 75.00003,-37 75.00003,-82 0,-45.33334 -33.6667,-82 -75.00003,-82 -41.33334,0 -75,36.66666 -75,82 0,45 33.66666,82 75,82 z m 0,-156.66667 C 969,357 999.33333,390.33333 999.33333,431.66667 999.33333,472.66667 969,506 931.66667,506 894.33333,506 864,472.66667 864,431.66667 864,390.33333 894.33333,357 931.66667,357 Z"
         id="path5-3" />
      <path
         style="fill:#1d1d1b;fill-opacity:1;fill-rule:nonzero;stroke:none"
         d="m 993,339.66667 c -2.33333,-5.33334 -5.66667,-10.33334 -9.66667,-15 C 979.66667,320.33333 975,316.33333 970,312.66667 967.33333,311 965,309.33333 962.33333,308 c -2.66666,-1.66667 -5.66666,-2.66667 -8.66666,-3 -3.33334,-0.66667 -6.33334,-0.66667 -9.33334,-0.33333 C 941,305 938,306 935.33333,307.33333 935,308.66667 935,308.66667 935,308.66667 c 3,1.66666 5.33333,3 8,4.33333 2.66667,1.33333 5,2.33333 7.33333,3.33333 2,0.66667 2,0.66667 2,0.66667 0.33334,0.33333 1,0.66667 1.66667,0.66667 0.66667,0.33333 1.33333,0.33333 2,0.66666 0.66667,0 1,0.33334 1.66667,0.33334 2.66666,0.66666 5.33333,1.33333 7.66666,2.66666 5,2 9.66667,4.66667 14,7.66667 C 984,332.33333 988,336 992,340.33333 Z"
         id="path6-3" />
      <path
         style="fill:#1d1d1b;fill-opacity:1;fill-rule:nonzero;stroke:none"
         d="M 949.33333,446.33333 C 949.33333,463 935.66667,476.66667 919,476.66667 902.33333,476.66667 888.66667,463 888.66667,446.33333 888.66667,429.66667 902.33333,416 919,416 c 16.66667,0 30.33333,13.66667 30.33333,30.33333 z"
         id="path7-4" />
      <path
         style="fill:#fdfdfd;fill-opacity:1;fill-rule:nonzero;stroke:none"
         d="m 910.66667,434 c 0,4.66667 -3.66667,8.66667 -8.33334,8.66667 -4.66666,0 -8.66666,-4 -8.66666,-8.66667 0,-4.66667 4,-8.33333 8.66666,-8.33333 4.66667,0 8.33334,3.66666 8.33334,8.33333 z"
         id="path8-1" />
    </g>
  </g>
  <path
     style="fill:#ffffff;stroke-width:1.2691"
     d="M 192.70745,506.92819 C 142.82499,499.77238 106.2841,482.47341 74.891277,451.15237 40.363987,416.70401 21.747967,372.18079 21.804437,324.18652 c 0.0566,-48.07271 18.52789,-92.36209 52.87716,-126.78548 28.719933,-28.7819 64.410693,-47.1883 104.928913,-54.11382 20.06926,-3.43032 53.0978,-2.8224 71.91865,1.32371 74.89352,16.49854 130.98047,71.77633 146.93425,144.81442 3.34124,15.29652 3.34124,54.43557 0,69.73209 -7.96197,36.45077 -23.69678,64.96555 -50.84449,92.14093 -27.86897,27.89736 -59.02348,44.5461 -98.43674,52.60384 -12.83215,2.62344 -46.64968,4.43543 -56.47473,3.02598 z m 80.37006,-74.11172 c 25.73345,-7.24863 46.5292,-24.82183 55.58798,-46.97396 4.84495,-11.84772 5.71668,-31.63532 1.93782,-43.98682 -3.78904,-12.38475 -10.93932,-23.65247 -20.82582,-32.81826 -45.66855,-42.33935 -126.10297,-25.14929 -145.2601,31.04428 -3.39158,9.9485 -3.87792,27.38927 -1.05908,37.98003 7.71419,28.98337 34.13776,50.93564 69.01098,57.33322 9.21971,1.69138 30.17299,0.36091 40.60822,-2.57849 z"
     id="path5" />
  <path
     style="fill:#ffffff;stroke-width:1.2691"
     d="M 641.26715,510.20005 C 616.1973,507.87312 594.38728,501.86082 572.16691,491.15138 519.62599,465.82852 482.57768,418.70992 470.4055,361.7297 c -3.25578,-15.24092 -3.25578,-53.29022 0,-68.53114 15.61852,-73.11318 73.32637,-129.95764 147.48579,-145.27921 42.89023,-8.86126 87.33772,-2.98002 126.87256,16.78761 36.30961,18.15501 69.13649,51.43768 85.49531,86.68238 33.08115,71.2726 17.37743,152.41153 -40.00922,206.72214 -39.64954,37.52423 -95.50358,57.05236 -148.98279,52.08857 z m 1.56884,-72.95799 c 20.87603,-4.2779 44.2642,-20.16724 54.32225,-36.90517 12.56103,-20.90327 13.74064,-46.19237 3.13263,-67.15873 -7.16307,-14.15758 -21.09473,-27.39923 -36.74911,-34.92903 -15.20602,-7.31414 -24.14385,-9.2986 -41.88014,-9.2986 -17.76137,0 -26.71194,1.99193 -41.88014,9.3203 -17.92454,8.66007 -32.60922,23.75719 -39.50557,40.61516 -4.52009,11.04926 -5.67486,31.34993 -2.42013,42.54578 7.64396,26.29432 30.59179,47.62039 59.34975,55.15539 11.50653,3.01487 32.63409,3.31811 45.63046,0.6549 z"
     id="path6" />
</svg>
