<?xml version="1.0" encoding="UTF-8" standalone="no"?>
<!-- Created with Inkscape (http://www.inkscape.org/) -->

<svg
   width="1039.2339"
   height="578.09033"
   viewBox="0 0 1039.2339 578.09033"
   version="1.1"
   id="svg1"
   xmlns="http://www.w3.org/2000/svg"
   xmlns:svg="http://www.w3.org/2000/svg">
  <defs
     id="defs1" />
  <g
     id="layer1"
     transform="matrix(1.281744,0,0,1.4622588,-172.52476,-500.57459)">
    <g
       id="g1"
       transform="matrix(2.3074356,0,0,2.3074356,-611.46926,-706.01522)">
      <path
         style="fill:#1d1d1b;fill-opacity:1;fill-rule:nonzero;stroke:none"
         d="m 596,625.66667 c 39,0 71,-28 71,-62.33334 0,-4.66666 -0.66667,-9.66666 -2,-14 -0.33333,-2 -2.33333,-3.33333 -4.33333,-2.66666 -2,0.33333 -3.33334,2.66666 -2.66667,4.66666 1,3.66667 1.33333,7.66667 1.33333,12 0,30.33334 -28.33333,55 -63.33333,55 -35,0 -63.33333,-24.66666 -63.33333,-55 0,-7.66666 1.66666,-15 5.33333,-22 0.66667,-1.66666 0,-4 -1.66667,-5 -2,-1 -4.33333,0 -5,1.66667 -4,8 -6,16.33333 -6,25.33333 0,34.33334 31.66667,62.33334 70.66667,62.33334 z"
         id="path1" />
      <path
         style="fill:#1d1d1b;fill-opacity:1;fill-rule:nonzero;stroke:none"
         d="m 614.33333,487.66667 c -2,-3 -4.33333,-6 -7,-8.33334 -2.33333,-2.66666 -5.33333,-5 -8,-7.33333 -6,-4.33333 -12.33333,-8 -19,-11 -3.33333,-1.33333 -7,-2.66667 -10.33333,-3.66667 -3.66667,-1 -7.33333,-1.66666 -10.66667,-2.33333 -3.66666,-0.33333 -7.33333,-0.66667 -11,-0.66667 -3.66666,0 -7.33333,0 -11,1 6.66667,3 13.33334,5.66667 19.66667,8.33334 9.33333,3.66666 9.33333,3.66666 9.33333,3.66666 9.66667,4 9.66667,4 9.66667,4 9.33333,4 9.33333,4 9.33333,4 9.33334,4 9.33334,4 9.33334,4 6.33333,3 12.66666,5.66667 19.66666,8.33334 z"
         id="path2" />
      <path
         style="fill:#1d1d1b;fill-opacity:1;fill-rule:nonzero;stroke:none"
         d="m 558.33333,563 c 0,15.33333 12.66667,28 28,28 15.33334,0 28,-12.66667 28,-28 0,-4.66667 -1,-9 -3,-13 -15.66666,-0.33333 -32,-1.66667 -47.33333,-4 -3.66667,4.66667 -5.66667,10.66667 -5.66667,17 z"
         id="path3" />
      <path
         style="fill:#ffffff;fill-opacity:1;fill-rule:nonzero;stroke:none"
         d="m 587.66667,555 c 0,4.66667 4,8.66667 9,8.66667 5,0 9,-4 9,-8.66667 0,-2 -0.66667,-3.66667 -1.66667,-5.33333 -4.66667,0 -9.33333,-0.33334 -14,-0.66667 -1.66667,1.33333 -2.33333,3.66667 -2.33333,6 z"
         id="path4" />
      <path
         style="fill:#1d1d1b;fill-opacity:1;fill-rule:nonzero;stroke:none"
         d="m 538.66667,492.33333 c -3.66667,2.66667 -7,5.33334 -10,8.33334 -3,3 -6,6.33333 -8.66667,10 -1,2 -2.33333,4 -3,6.33333 -1,2.33333 -1.66667,5 -1.66667,7.66667 0,1.66666 0.33334,3 0.66667,4.33333 0,0.66667 0.33333,1.33333 0.66667,2 0.33333,0.66667 0.33333,1.33333 1,2 0.33333,0.66667 0.66666,1.33333 1,2 C 519,535.33333 519.33333,536 520,536.66667 521.33333,538 521.33333,538 521.33333,538 c 0.66667,0.33333 1,1 1.66667,1.33333 C 525,541 527,542 529,543 c 2.33333,1 4.33333,1.66667 6.66667,2.33333 4,1.33334 8.33333,2.33334 12.33333,3 8.33333,1.66667 16.33333,3 24.66667,4 C 577,552.66667 581,553 585,553.33333 c 4.33333,0.33334 8.33333,0.66667 12.66667,1 6,0.33334 6,0.33334 6,0.33334 6.33333,0 6.33333,0 6.33333,0 C 614,555 618.33333,555 622.33333,555 c 16.66667,0 33,-0.66667 49.33334,-2 2,0 3.33333,-1.66667 3,-3.33333 0,-1.66667 -1.66667,-3 -3.33334,-3 -8,0 -16.33333,0 -24.33333,0 -4,0 -8.33333,0 -12.33333,-0.33334 -4,0 -8,0 -12,-0.33333 -4.33334,0 -8.33334,-0.33333 -12.33334,-0.66667 -6,-0.33333 -6,-0.33333 -6,-0.33333 C 598,544.66667 598,544.66667 598,544.66667 590,544 582,543.33333 574,542.33333 570,541.66667 566,541 562,540.66667 558,540 554,539 550,538.33333 c -4,-0.66666 -7.66667,-1.66666 -11.33333,-2.66666 C 537,535 535,534.33333 533.66667,533.66667 532,533 530.66667,532 529.33333,531 c -0.33333,0 -0.66666,-0.33333 -1,-0.66667 C 528.33333,530 528,530 527.66667,529.66667 527.66667,529.33333 527.33333,529 527,529 c 0,-0.33333 -0.33333,-0.66667 -0.33333,-1 -0.66667,-1 -1,-2 -1,-3.33333 -0.33334,-2.66667 1,-6 2.66666,-9 1.66667,-3.33334 4,-6.33334 6.33334,-9.33334 2.66666,-3 5.33333,-6 8,-8.66666 0,-0.33334 0,-0.33334 0,-0.33334 1.33333,-1 1.33333,-3.33333 0,-4.33333 -1,-1.33333 -2.66667,-1.33333 -4,-0.66667 z"
         id="path5" />
      <path
         style="fill:#1d1d1b;fill-opacity:1;fill-rule:nonzero;stroke:none"
         d="m 402,625.66667 c 39,0 71,-28 71,-62.33334 0,-9 -2,-17.33333 -6,-25.33333 -1,-1.66667 -3.33333,-2.66667 -5,-1.66667 -2,1 -2.66667,3.33334 -1.66667,5 3.33334,7 5,14.33334 5,22 0,30.33334 -28.33333,55 -63.33333,55 -35,0 -63.33333,-24.66666 -63.33333,-55 0,-4.33333 0.66666,-8.33333 1.66666,-12 0.33334,-2 -0.66666,-4.33333 -2.66666,-4.66666 -2,-0.66667 -4.33334,0.66666 -4.66667,2.66666 -1.33333,4.33334 -1.66667,9.33334 -1.66667,14 0,34.33334 31.66667,62.33334 70.66667,62.33334 z"
         id="path6" />
      <path
         style="fill:#1d1d1b;fill-opacity:1;fill-rule:nonzero;stroke:none"
         d="m 383.66667,487.66667 c 7,-2.66667 13.33333,-5.33334 19.66666,-8.33334 9.33334,-4 9.33334,-4 9.33334,-4 9.66666,-4 9.66666,-4 9.66666,-4 9.33334,-4 9.33334,-4 9.33334,-4 9.66666,-3.66666 9.66666,-3.66666 9.66666,-3.66666 C 447.66667,461 454,458.33333 460.66667,455.33333 c -3.66667,-1 -7.33334,-1 -11,-1 -3.66667,0 -7,0.33334 -10.66667,0.66667 -3.66667,0.66667 -7.33333,1.33333 -10.66667,2.33333 -3.66666,1 -7,2.33334 -10.33333,3.66667 -7,3 -13.33333,6.66667 -19,11 -3,2.33333 -5.66667,4.66667 -8.33333,7.33333 -2.66667,2.33334 -5,5.33334 -7,8.33334 z"
         id="path7" />
      <path
         style="fill:#1d1d1b;fill-opacity:1;fill-rule:nonzero;stroke:none"
         d="m 439.66667,563 c 0,15.33333 -12.33334,28 -28,28 -15.33334,0 -28,-12.66667 -28,-28 0,-4.66667 1,-9 3,-13 16,-0.33333 32,-1.66667 47.33333,-4 3.66667,4.66667 5.66667,10.66667 5.66667,17 z"
         id="path8" />
      <path
         style="fill:#ffffff;fill-opacity:1;fill-rule:nonzero;stroke:none"
         d="m 410.33333,555 c 0,4.66667 -4,8.66667 -9,8.66667 -4.66666,0 -8.66666,-4 -8.66666,-8.66667 0,-2 0.33333,-3.66667 1.33333,-5.33333 4.66667,0 9.33333,-0.33334 14.33333,-0.66667 1.33334,1.33333 2,3.66667 2,6 z"
         id="path9" />
      <path
         style="fill:#1d1d1b;fill-opacity:1;fill-rule:nonzero;stroke:none"
         d="m 455.33333,497.66667 c 3,2.66666 5.66667,5.66666 8,8.66666 2.66667,3 4.66667,6 6.33334,9.33334 1.66666,3 3,6.33333 2.66666,9 0,1.33333 -0.33333,2.33333 -1,3.33333 0,0.33333 0,0.66667 -0.33333,1 -0.33333,0 -0.33333,0.33333 -0.66667,0.66667 C 470,530 470,530 469.66667,530.33333 469.33333,530.66667 469,531 468.66667,531 c -1,1 -2.66667,2 -4,2.66667 -1.66667,0.66666 -3.33334,1.33333 -5.33334,2 -3.33333,1 -7.33333,2 -11.33333,2.66666 -4,0.66667 -8,1.66667 -12,2.33334 -4,0.33333 -8,1 -12,1.66666 -8,1 -16,1.66667 -24,2.33334 C 394,545 394,545 394,545 c -6.33333,0.33333 -6.33333,0.33333 -6.33333,0.33333 -4,0.33334 -8,0.66667 -12,0.66667 -4,0.33333 -8.33334,0.33333 -12.33334,0.33333 -4,0.33334 -8,0.33334 -12.33333,0.33334 -8,0 -16.33333,0 -24.33333,0 -1.66667,0 -3.33334,1.33333 -3.33334,3.33333 0,1.66667 1.33334,3 3,3 16.33334,1.33333 33,2 49.33334,2 C 380,555 384,555 388,554.66667 c 6.33333,0 6.33333,0 6.33333,0 6.33334,-0.33334 6.33334,-0.33334 6.33334,-0.33334 4,-0.33333 8,-0.66666 12.33333,-1 4,-0.33333 8.33333,-0.66666 12.33333,-1 8.33334,-1 16.66667,-2.33333 24.66667,-4 4,-0.66666 8.33333,-1.66666 12.66667,-3 2,-0.66666 4,-1.33333 6.33333,-2.33333 2,-1 4.33333,-2 6.33333,-3.66667 0.33334,-0.33333 1,-1 1.33334,-1.33333 C 478,536.66667 478,536.66667 478,536.66667 478.66667,536 479,535.33333 479.33333,535 c 0.66667,-0.66667 1,-1.33333 1.33334,-2 C 481,532.33333 481,531.66667 481.33333,531 481.66667,530.33333 482,529.66667 482,529 c 0.33333,-1.33333 0.66667,-2.66667 0.66667,-4.33333 C 482.66667,522 482,519.33333 481.33333,517 c -1,-2.33333 -2,-4.33333 -3.33333,-6.33333 -2.33333,-3.66667 -5.33333,-7 -8.66667,-10 -3,-3 -6.33333,-5.66667 -10,-8.33334 C 458,491.33333 456,492 455,493.33333 c -1,1.33334 -0.66667,3 0.33333,4 z"
         id="path10" />
    </g>
    <path
       style="fill:#ffffff;stroke-width:1.2691"
       d="m 742.42068,718.84238 c -57.74161,-7.90752 -105.82364,-46.09535 -120.01283,-95.31688 -5.2202,-18.10858 -4.78288,-44.03998 1.06248,-63.00046 1.77285,-5.75055 2.47155,-6.66248 4.67709,-6.10441 1.42609,0.36085 12.87256,2.72552 25.4366,5.25482 12.56404,2.5293 24.10187,4.85212 25.63962,5.16182 2.70386,0.54456 2.73581,0.73347 0.97031,5.73741 -12.8183,36.33092 7.98928,75.68749 45.26015,85.60748 28.4214,7.56463 60.56132,-7.02298 73.80691,-33.49934 5.99587,-11.98505 7.73439,-20.9353 6.87795,-35.40902 l -0.69464,-11.73913 17.9829,-5.5e-4 c 9.89059,-3e-4 32.75432,-0.60079 50.80827,-1.33442 18.05397,-0.73363 33.0878,-1.07148 33.4085,-0.75077 0.32072,0.32071 0.90465,5.97259 1.29764,12.55974 3.72139,62.37586 -44.14988,117.32775 -114.1999,131.09115 -12.67155,2.4897 -40.17624,3.40575 -52.32105,1.74256 z"
       id="path11" />
    <path
       style="fill:#ffffff;stroke-width:1.2691"
       d="m 292.10522,718.31341 c -49.81415,-8.15483 -89.91977,-35.59018 -109.3292,-74.78965 -8.84153,-17.85646 -11.24716,-28.41439 -11.35634,-49.84122 -0.0577,-11.32274 0.41714,-18.53024 1.27745,-19.39044 0.97548,-0.97534 10.64767,-0.99842 33.63102,-0.0802 17.74396,0.70886 40.31292,1.29649 50.15324,1.30582 l 17.8915,0.017 -0.59588,12.37454 c -0.42672,8.86174 -0.0214,14.61683 1.42771,20.27339 7.63912,29.81837 33.19912,49.84325 63.62052,49.84325 28.29585,0 51.97677,-17.3943 61.69395,-45.31595 3.5146,-10.09895 3.56403,-28.43636 0.10623,-39.40471 l -2.50324,-7.94039 2.72504,-0.54483 c 1.49877,-0.29966 13.00472,-2.56923 25.56876,-5.04349 12.56404,-2.47426 24.01292,-4.83149 25.44196,-5.23829 2.23226,-0.63546 2.89129,0.21023 4.6787,6.00385 8.36316,27.108 5.82139,57.23345 -6.99361,82.88922 -6.48962,12.9923 -13.53376,22.40459 -25.64431,34.26557 -19.29323,18.89564 -43.24127,31.68429 -71.55051,38.20915 -17.38238,4.00638 -43.98241,5.06937 -60.24299,2.40743 z"
       id="path12" />
  </g>
</svg>
