<?xml version="1.0" encoding="UTF-8" standalone="no"?>
<!-- Created with Inkscape (http://www.inkscape.org/) -->

<svg
   width="892.45251"
   height="533.73792"
   viewBox="0 0 892.45251 533.73792"
   version="1.1"
   id="svg1"
   xmlns="http://www.w3.org/2000/svg"
   xmlns:svg="http://www.w3.org/2000/svg">
  <defs
     id="defs1" />
  <g
     id="layer1"
     transform="translate(-93.773796,-273.13104)">
    <g
       id="g19">
      <g
         id="g18"
         transform="matrix(2.2595611,0,0,2.4657109,-1803.6464,-554.20347)">
        <path
           style="fill:#1d1d1b;fill-opacity:1;fill-rule:nonzero;stroke:none"
           d="m 1180.6667,480.33333 c 0,17 -13.3334,30.33334 -30,30.33334 -17,0 -30.3334,-13.33334 -30.3334,-30.33334 0,-16.66666 13.3334,-30 30.3334,-30 16.6666,0 30,13.33334 30,30 z"
           id="path1" />
        <path
           style="fill:#fdfdfd;fill-opacity:1;fill-rule:nonzero;stroke:none"
           d="m 1142.3333,468.33333 c 0,4.66667 -4,8.33334 -8.6666,8.33334 -4.6667,0 -8.3334,-3.66667 -8.3334,-8.33334 0,-4.66666 3.6667,-8.66666 8.3334,-8.66666 4.6666,0 8.6666,4 8.6666,8.66666 z"
           id="path2" />
        <path
           style="fill:#1d1d1b;fill-opacity:1;fill-rule:nonzero;stroke:none"
           d="m 896.33333,480.33333 c 0,17 13.33334,30.33334 30,30.33334 17,0 30.33334,-13.33334 30.33334,-30.33334 0,-16.66666 -13.33334,-30 -30.33334,-30 -16.66666,0 -30,13.33334 -30,30 z"
           id="path3" />
        <path
           style="fill:#fdfdfd;fill-opacity:1;fill-rule:nonzero;stroke:none"
           d="m 934.66667,468.33333 c 0,4.66667 4,8.33334 8.66666,8.33334 4.66667,0 8.33334,-3.66667 8.33334,-8.33334 0,-4.66666 -3.66667,-8.66666 -8.33334,-8.66666 -4.66666,0 -8.66666,4 -8.66666,8.66666 z"
           id="path4" />
        <path
           style="fill:#1d1d1b;fill-opacity:1;fill-rule:nonzero;stroke:none"
           d="m 1204.6667,372.33333 c -2,-5.33333 -5,-10.33333 -8.6667,-15 -4,-4.66666 -8.3333,-9 -13.3333,-12.66666 -2.3334,-1.66667 -4.6667,-3.33334 -7.3334,-5 -2.6666,-1.66667 -5.6666,-2.66667 -8.6666,-3.33334 -3,-0.66666 -6.3334,-1 -9.3334,-0.66666 -3,0.33333 -6,1 -9,2.66666 -0.3333,1 -0.3333,1 -0.3333,1 2.6667,2 5.3333,3.33334 7.6667,4.66667 2.6666,1.33333 5,2.66667 7.3333,3.66667 2,0.66666 2,0.66666 2,0.66666 0.3333,0.33334 1,0.66667 1.6667,0.66667 0.6666,0.33333 1.3333,0.66667 2,0.66667 0.3333,0.33333 1,0.33333 1.6666,0.66666 C 1173,351 1175.6667,351.66667 1178,353 c 4.6667,2.33333 9.3333,5 13.6667,8.33333 4.3333,3.33334 8.3333,7.33334 12,11.66667 z"
           id="path5-5" />
        <path
           style="fill:#1d1d1b;fill-opacity:1;fill-rule:nonzero;stroke:none"
           d="m 1100.3333,358.66667 c -2,1 -3.6666,2.33333 -5.3333,4 -1,0.66666 -1.6667,1.33333 -2.3333,2 -1,1 -1.6667,1.66666 -2.3334,2.66666 -1.3333,1.66667 -2.6666,3.66667 -3.6666,6 -1,2 -1.6667,4.33334 -2,7 -0.3334,2.33334 -0.3334,5 0.3333,7.66667 0.3333,2.33333 1.6667,4.66667 3,7 1.3333,2 3,3.66667 4.3333,5.33333 1.6667,1.66667 3.6667,3 5.3334,4.33334 0.6666,0.66666 1.6666,1 2.6666,1.66666 C 1101,407 1102,407.66667 1103,408 c 1.6667,1.33333 3.6667,2.33333 5.3333,3.33333 4,2 7.6667,3.66667 11.6667,5 8,3 16,5 24.3333,6 2,0.33334 4.3334,0.33334 6.3334,0.66667 1,0 2,0 3,0.33333 0.6666,0 1.6666,0 2.6666,0.33334 4,0.33333 7.6667,1 11.6667,2 7.3333,1.66666 15,4.33333 22.3333,7.33333 7,3 14.3334,6.66667 21,10.66667 1.6667,1 3.3334,2 5,3 2.6667,1.66666 2.6667,1.66666 2.6667,1.66666 2.3333,1.66667 2.3333,1.66667 2.3333,1.66667 3.3334,2.33333 6.6667,4.66667 10,7 0,0 0,0 0,0 1,0.66667 2.3334,0.33333 3,-0.66667 0.6667,-0.66666 0.3334,-2 -0.3333,-2.66666 C 1230.6667,451 1227.6667,448.33333 1224.3333,446 1222,444 1222,444 1222,444 c -2.6667,-1.66667 -2.6667,-1.66667 -2.6667,-1.66667 -1.6666,-1 -3.3333,-2.33333 -5,-3.33333 -6.6666,-4.66667 -14,-8.66667 -21.3333,-12.33333 -7.3333,-3.33334 -15.3333,-6.33334 -23.3333,-8.66667 -4,-1 -8,-2 -12,-2.66667 -1,0 -2,-0.33333 -3,-0.33333 -1.3334,0 -2.3334,-0.33333 -3.3334,-0.33333 -2,-0.33334 -3.6666,-0.66667 -5.6666,-0.66667 -7.6667,-1.33333 -15.3334,-3.33333 -22.3334,-6 -3.6666,-1.33333 -7.3333,-3 -10.6666,-5 -1.6667,-0.66667 -3,-1.66667 -4.6667,-2.66667 -1,-0.66666 -1.6667,-1.33333 -2.3333,-1.66666 -1,-0.66667 -1.6667,-1 -2.3334,-1.66667 -3,-2.33333 -5.6666,-4.66667 -7.3333,-7.33333 -1,-1.33334 -1.3333,-2.66667 -1.6667,-4 -0.3333,-1.33334 -0.6666,-3 -0.6666,-4.33334 0.3333,-1.66666 0.6666,-3 1.3333,-4.66666 0.3333,-1.66667 1.3333,-3 2,-4.66667 2,-3 4.3333,-6 7,-8.66667 0,0 0,0 0,0 C 1105,362 1105,360 1104,359 c -1.3333,-1 -2.6667,-1 -3.6667,-0.33333 z"
           id="path6-7" />
        <path
           style="fill:#1d1d1b;fill-opacity:1;fill-rule:nonzero;stroke:none"
           d="m 1149.3333,552 c 39.6667,0 62,-37.66667 63,-39 19,-33 6.6667,-65.66667 4,-72 -0.6666,-2 -3,-3 -4.6666,-2 -2,0.66667 -3,3 -2,5 2.3333,5.66667 13.3333,35.33333 -3.6667,65 -0.3333,0.33333 -21,35.66667 -56.6667,35.66667 0,0 0,0 0,0 -34.3333,0 -65.6666,-33 -67.3333,-70.66667 -1.6667,-35 24.6667,-58.66667 30,-63 1.6667,-1.33333 1.6667,-3.66667 0.6667,-5.33333 C 1111.3333,404 1109,404 1107.3333,405.33333 c -6,4.66667 -34.6666,30.33334 -33,69 1,19 9.3334,38.66667 23,53.33334 14.6667,15.66666 33,24.33333 52,24.33333 z"
           id="path7-6" />
        <path
           style="fill:#1d1d1b;fill-opacity:1;fill-rule:nonzero;stroke:none"
           d="m 870.66667,373 c 3.66666,-4.33333 7.66666,-8.33333 12,-11.66667 4.33333,-3.33333 9,-6 14,-8.33333 2.33333,-1.33333 5,-2 7.33333,-2.66667 0.66667,-0.33333 1.33333,-0.33333 2,-0.66666 0.66667,0 1,-0.33334 1.66667,-0.66667 0.66666,0 1.33333,-0.33333 2,-0.66667 1.66666,-0.66666 1.66666,-0.66666 1.66666,-0.66666 2.33334,-1 4.66667,-2.33334 7.33334,-3.66667 2.33333,-1.33333 5,-2.66667 7.66666,-4.66667 0,-1 0,-1 0,-1 C 923.33333,336.66667 920,336 917,335.66667 c -3,-0.33334 -6,0 -9.33333,0.66666 -3,0.66667 -5.66667,1.66667 -8.33334,3.33334 -2.66666,1.66666 -5.33333,3.33333 -7.66666,5 -5,3.66666 -9.33334,8 -13,12.66666 -3.66667,4.66667 -7,9.66667 -9,15 z"
           id="path8-1" />
        <path
           style="fill:#1d1d1b;fill-opacity:1;fill-rule:nonzero;stroke:none"
           d="M 970.66667,363.33333 C 973,366 975.33333,369 977.33333,372 c 1,1.66667 1.66667,3 2.33334,4.66667 0.33333,1.66666 0.66666,3 1,4.66666 0,1.33334 0,3 -0.33334,4.33334 -0.33333,1.33333 -1,2.66666 -2,4 -1.33333,2.66666 -4,5 -7,7.33333 -1,0.66667 -1.66666,1 -2.33333,1.66667 -1,0.33333 -1.66667,1 -2.33333,1.66666 -1.66667,1 -3.33334,2 -5,2.66667 -3.33334,2 -7,3.66667 -10.33334,5 -7.33333,2.66667 -15,4.66667 -22.66666,6 C 927,414 925,414.33333 923,414.66667 c -1,0 -2,0.33333 -3,0.33333 -1,0 -2,0.33333 -3.33333,0.33333 -4,0.66667 -8,1.66667 -12,2.66667 -8,2.33333 -15.66667,5.33333 -23.33334,8.66667 C 874,430.33333 867,434.33333 860,439 c -1.66667,1 -3.33333,2.33333 -5,3.33333 C 852.33333,444 852.33333,444 852.33333,444 850,446 850,446 850,446 c -3.33333,2.33333 -6.33333,5 -9.33333,7.66667 -1,0.66666 -1.33334,2 -0.33334,3 C 841,457.33333 842,457.66667 843,457 c 0,0 0,0 0,0 3.33333,-2.33333 6.66667,-4.66667 10,-7 2.33333,-1.66667 2.33333,-1.66667 2.33333,-1.66667 C 858,446.66667 858,446.66667 858,446.66667 c 1.66667,-1 3.33333,-2 5,-3 7,-4 14,-7.66667 21.33333,-10.66667 7,-3 14.66667,-5.66667 22.33334,-7.33333 3.66666,-1 7.33333,-1.66667 11.33333,-2 1,-0.33334 2,-0.33334 3,-0.33334 C 922,423 922.66667,423 924,423 c 2,-0.33333 4,-0.33333 6,-0.66667 8.33333,-1 16.33333,-3 24.33333,-6 4,-1.33333 8,-3 11.66667,-5 2,-1 3.66667,-2 5.66667,-3.33333 0.66666,-0.33333 1.66666,-1 2.66666,-1.66667 0.66667,-0.66666 1.66667,-1 2.33334,-1.66666 2,-1.33334 3.66666,-2.66667 5.33333,-4.33334 1.66667,-1.66666 3.33333,-3.33333 4.66667,-5.33333 1.33333,-2.33333 2.33333,-4.66667 3,-7 0.33333,-2.66667 0.66666,-5.33333 0.33333,-7.66667 -0.33333,-2.66666 -1.33333,-5 -2.33333,-7 -1,-2.33333 -2.33334,-4.33333 -3.66667,-6 -0.66667,-1 -1.33333,-1.66666 -2,-2.66666 -1,-0.66667 -1.66667,-1.33334 -2.33333,-2 -1.66667,-1.66667 -3.66667,-3 -5.33334,-4 -1.66666,-1 -3.33333,-0.33334 -4.33333,1 -0.66667,1 -0.33333,2.66666 0.33333,3.66666 z"
           id="path9-8" />
        <path
           style="fill:#1d1d1b;fill-opacity:1;fill-rule:nonzero;stroke:none"
           d="m 925,552 c 0,0 0,0 0,0 19,0 37.33333,-8.66667 52,-24.33333 13.66667,-14.66667 22,-34.33334 23,-53.33334 1.6667,-38.66666 -27,-64.33333 -32.66667,-69 C 965.66667,404 963.33333,404 962,405.66667 c -1.33333,1.66666 -1,4 0.33333,5.33333 5.33334,4.33333 31.66667,28 30.33334,63 -2,37.66667 -33.33334,70.66667 -67.66667,70.66667 0,0 0,0 0,0 -35.33333,0 -56.33333,-35.33334 -56.33333,-35.66667 -17.33334,-29.66667 -6.33334,-59.33333 -4,-65 1,-2 0,-4.33333 -1.66667,-5 -2,-1 -4.33333,0 -5,2 -2.66667,6.33333 -15,39 4,72 1,1.33333 23.33333,39 63,39 z"
           id="path10-9" />
      </g>
      <path
         style="fill:#ffffff;stroke-width:1.2691"
         d="m 275.39365,787.32046 c -46.96928,-4.28363 -100.31118,-48.67474 -122.60612,-102.03279 -17.60144,-42.12518 -19.13465,-92.94446 -4.16505,-138.05352 3.87245,-11.66917 3.7184,-11.54571 32.85813,-26.33316 39.30691,-19.94696 63.31677,-27.08322 108.60503,-32.27984 9.47659,-1.08739 22.97808,-3.36886 30.00333,-5.06994 13.84502,-3.3524 37.88647,-11.79551 47.78554,-16.7818 l 6.1824,-3.11414 4.41745,4.22407 c 19.70708,18.84435 41.7532,54.99641 50.94557,83.54252 7.04956,21.89179 8.42447,31.29311 8.35202,57.10928 -0.0592,21.08446 -0.42653,25.02107 -3.603,38.60999 -20.20088,86.41926 -88.36589,146.60069 -158.7753,140.17933 z m 33.90615,-84.85754 c 28.78886,-8.89197 49.17551,-38.62598 49.17551,-71.72261 0,-29.78549 -15.17893,-55.84042 -39.48079,-67.76952 -40.5417,-19.90077 -85.54747,3.2136 -95.7761,49.18935 -2.74294,12.32897 -1.84757,33.11972 1.88098,43.6769 8.53894,24.1776 25.67888,41.42781 47.00961,47.31209 9.35619,2.58099 27.70918,2.24236 37.19079,-0.68621 z"
         id="path18" />
      <path
         style="fill:#ffffff;stroke-width:1.2691"
         d="M 781.98877,787.27031 C 752.26044,784.38961 724.0551,769.87654 698.62339,744.37464 671.48756,717.16391 652.91,681.77759 645.11435,642.45121 c -3.71697,-18.75089 -3.99675,-50.4528 -0.59573,-67.50505 4.80562,-24.09477 14.36507,-48.2708 27.34742,-69.1621 7.91252,-12.73291 20.51359,-29.0079 28.31045,-36.56455 l 5.59445,-5.42209 9.4412,4.35139 c 22.45127,10.34763 47.60545,17.31088 73.62841,20.38202 26.94113,3.17949 34.33447,4.44338 49.34612,8.43565 19.29178,5.13056 39.91393,13.33674 61.60181,24.51323 28.20255,14.53372 27.42277,13.87856 31.52608,26.4879 10.73044,32.97431 13.13988,71.93872 6.471,104.64598 -7.01085,34.3844 -23.8522,64.33399 -51.92793,92.34528 -31.6435,31.57088 -66.82269,45.90127 -103.86886,42.31144 z m 33.68001,-84.80739 c 14.92646,-4.61032 29.9572,-16.76442 38.26622,-30.94269 5.40333,-9.22009 9.63959,-23.82007 10.43238,-35.95451 2.26939,-34.73554 -17.3141,-66.10495 -47.84858,-76.64519 -11.48072,-3.96304 -28.98741,-3.96454 -40.80497,-0.003 -22.48876,7.53788 -40.49119,27.72297 -46.07522,51.66151 -3.12543,13.39858 -2.04701,35.09904 2.35651,47.41866 7.89957,22.10048 23.63202,37.57826 45.32568,44.59198 9.8989,3.20038 27.76802,3.14154 38.34798,-0.12627 z"
         id="path19" />
    </g>
  </g>
</svg>
