<?xml version="1.0" encoding="UTF-8" standalone="no"?>
<!-- Created with Inkscape (http://www.inkscape.org/) -->

<svg
   width="995.77911"
   height="488.63141"
   viewBox="0 0 995.77911 488.63141"
   version="1.1"
   id="svg1"
   xmlns="http://www.w3.org/2000/svg"
   xmlns:svg="http://www.w3.org/2000/svg">
  <defs
     id="defs1" />
  <g
     id="layer1"
     transform="translate(-42.110432,-295.68427)">
    <g
       id="g25">
      <g
         id="g24"
         transform="matrix(2.6997144,0,0,3.0796097,-2053.1549,-2544.7424)">
        <path
           style="fill:#1d1d1b;fill-opacity:1;fill-rule:nonzero;stroke:none"
           d="m 1031,1008.3333 c 5,10 15.3333,16.3334 27.3333,16.3334 17,0 31,-13.6667 31,-31.00003 0,-3.66667 -0.6666,-7 -1.6666,-10.33334 C 1067,996 1047.6667,1004.3333 1031,1008.3333 Z"
           id="path1" />
        <path
           style="fill:#fdfdfd;fill-opacity:1;fill-rule:nonzero;stroke:none"
           d="m 1065.6667,997.66667 c 0,5.00003 4,8.66663 9,8.66663 5,0 9,-3.6666 9,-8.66663 0,-5 -4,-9 -9,-9 -5,0 -9,4 -9,9 z"
           id="path2" />
        <path
           style="fill:#1d1d1b;fill-opacity:1;fill-rule:nonzero;stroke:none"
           d="m 1135,942.33333 c -12.6667,11 -26,21 -40,30.33334 -13.6667,9.33333 -28.3333,18 -43.6667,24.33333 -7.6666,3.3333 -15.3333,6.3333 -23.3333,8.3333 -8,2 -16,3 -24,2.6667 -4,-0.3333 -8,-1 -11.66667,-2.3333 -3.66666,-1.6667 -7,-3.6667 -9.66666,-6.00003 -3,-2.66667 -5,-6 -7,-9.66667 C 974,986.33333 973,982.66667 972,978.66667 c 0,0 0,0 0,0 -0.33333,-1.33334 -1.66667,-2.33334 -3,-2 -1,0.33333 -2,1.66666 -1.66667,3 C 968,984 969.33333,988 971,992.33333 c 2,4 4.33333,7.99997 7.66667,11.33337 C 982,1007 986,1009.3333 990,1011.3333 c 4.33333,1.6667 9,2.6667 13.3333,3 9,1 18,0 26.3334,-1.6666 8.6666,-2 17,-4.6667 25,-7.6667 16,-6.33333 31.3333,-14.66667 46,-23.66667 14.6666,-9 28.6666,-19 42,-29.66666 2.6666,-2 3,-6 1,-8.66667 -2,-2.33333 -6,-3 -8.6667,-0.66667 z"
           id="path3" />
        <path
           style="fill:#1d1d1b;fill-opacity:1;fill-rule:nonzero;stroke:none"
           d="m 1059,1069.3333 c 15.3333,0 30.6667,-5.6666 44,-16.6666 11.6667,-9.3334 18,-19.6667 19,-20.6667 21,-33.33333 9,-68.66667 6.3333,-75.33333 -7,2.66666 -7,2.66666 -7,2.66666 C 1123,963 1135.3333,997 1115.6667,1028 c -1,1.3333 -22,34 -56.6667,34 -1.3333,0 -2.6667,0 -3.6667,0 -5,-0.3333 -30.3333,-3.3333 -45.3333,-25.3333 -5.3333,-7.6667 -8.3333,-17 -9.3333,-27 -7.33337,0.6666 -7.33337,0.6666 -7.33337,0.6666 1,11.3334 4.66667,21.6667 10.66667,30.6667 16.6667,24.6667 45.3333,28 50.6667,28.3333 1.3333,0 2.6666,0 4.3333,0 z"
           id="path4" />
        <path
           style="fill:#1d1d1b;fill-opacity:1;fill-rule:nonzero;stroke:none"
           d="m 1126,1075.3333 c -8,1 -16.3333,1.6667 -24.6667,1.3334 -8,-0.3334 -16.3333,-1.3334 -24.3333,-3 -16,-3.6667 -31.3333,-9.6667 -45,-18.3334 -1.6667,-1 -4,-0.3333 -5,1.3334 -1.3333,1.6666 -0.6667,4 1,5 0,0 0,0.3333 0.3333,0.3333 14.6667,8.3333 31,14 47.6667,17 8.3333,1.3333 17,2 25.3333,2 8.6667,0 17,-0.6667 25.3334,-2.3333 1,0 1.6666,-1 1.3333,-2 0,-1 -1,-1.3334 -2,-1.3334 z"
           id="path5" />
        <path
           style="fill:#1d1d1b;fill-opacity:1;fill-rule:nonzero;stroke:none"
           d="m 890.33333,1008.3333 c -5.33333,10 -15.66666,16.3334 -27.66666,16.3334 -17,0 -31,-13.6667 -31,-31.00003 0,-3.66667 0.66666,-7 1.66666,-10.33334 20.66667,12.66667 40,20.99997 57,24.99997 z"
           id="path6" />
        <path
           style="fill:#fdfdfd;fill-opacity:1;fill-rule:nonzero;stroke:none"
           d="m 855.33333,997.66667 c 0,5.00003 -4,8.66663 -9,8.66663 -5,0 -8.66666,-3.6666 -8.66666,-8.66663 0,-5 3.66666,-9 8.66666,-9 5,0 9,4 9,9 z"
           id="path7" />
        <path
           style="fill:#1d1d1b;fill-opacity:1;fill-rule:nonzero;stroke:none"
           d="m 778.33333,951.66667 c 13.33334,10.66666 27.33334,20.66666 42,29.66666 14.66667,9 30,17.33334 46,23.66667 8.33334,3 16.33334,5.6667 25,7.6667 8.66667,1.6666 17.33334,2.6666 26.33334,1.6666 4.66666,-0.3333 9,-1.3333 13.33333,-3 4.33333,-2 8.33333,-4.3333 11.33333,-7.6666 3.33334,-3.3334 6,-7.33337 7.66667,-11.33337 C 952,988 953,984 953.66667,979.66667 954,978.33333 953.33333,977 952,976.66667 c -1.33333,0 -2.66667,0.66666 -3,2 0,0 0,0 0,0 -0.66667,4 -2,7.66666 -3.66667,11.33333 -1.66666,3.66667 -4,7 -7,9.66667 -2.66666,2.33333 -6,4.33333 -9.66666,6.00003 C 925,1007 921,1007.6667 917,1008 c -7.66667,0.3333 -16,-0.6667 -24,-2.6667 -8,-2 -15.66667,-5 -23.33333,-8.3333 C 854.33333,990.66667 840,982 826,972.66667 c -14,-9.33334 -27,-19.33334 -40,-30.33334 -2.33333,-2.33333 -6.33333,-2 -8.33333,0.66667 -2.33334,2.66667 -2,6.33333 0.66666,8.66667 z"
           id="path8" />
        <path
           style="fill:#1d1d1b;fill-opacity:1;fill-rule:nonzero;stroke:none"
           d="m 862.33333,1069.3333 c 1.33334,0 2.66667,0 4,0 5.66667,-0.3333 34,-3.6666 51,-28.3333 5.66667,-9 9.33334,-19.3333 10.33334,-30.6667 -7.33334,-0.6666 -7.33334,-0.6666 -7.33334,-0.6666 -0.66666,10 -4,19.3333 -9.33333,27 -15,22 -40.33333,25 -45,25.3333 -1.33333,0 -2.66667,0 -4,0 -34.33333,0 -55.66667,-32.6667 -56.33333,-34 -19.66667,-31 -7.66667,-65 -6,-68.66667 -7,-2.66666 -7,-2.66666 -7,-2.66666 -2.66667,6.66666 -14.66667,42 6.66666,75.33333 0.66667,1 7.33334,11.3333 18.66667,20.6667 13.66667,11 28.66667,16.6666 44.33333,16.6666 z"
           id="path9" />
        <path
           style="fill:#1d1d1b;fill-opacity:1;fill-rule:nonzero;stroke:none"
           d="m 794.33333,1078.6667 c 8.33334,1.6666 17,2.3333 25.33334,2.3333 8.33333,0 17,-0.6667 25.33333,-2 16.66667,-3 33,-8.6667 48,-17 1.66667,-1 2.33333,-3.3333 1.33333,-5.3333 -1,-1.6667 -3.33333,-2.3334 -5,-1.3334 0,0 -0.33333,0 -0.33333,0 -13.66667,8.6667 -29,14.6667 -45,18.3334 -8,1.6666 -16.33333,2.6666 -24.33333,3 C 811.33333,1077 803,1076.3333 795,1075.3333 c -1,0 -1.66667,0.6667 -2,1.3334 0,1 0.66667,2 1.33333,2 z"
           id="path10" />
        <path
           style="fill:#1d1d1b;fill-opacity:1;fill-rule:nonzero;stroke:none"
           d="m 1066.3333,925.33333 c -1.6666,0.33334 -3.3333,0.33334 -4.6666,0.66667 -1.6667,0.33333 -3,0.66667 -4.3334,1 -3,0.66667 -6,1.66667 -8.6666,2.66667 -5.6667,2 -11,5 -16,8 -5,3.33333 -9.6667,6.66666 -14,11 -2,2 -4,4 -6,6.33333 -1,1.33333 -2,2.33333 -3,3.66667 -0.6667,1.33333 -1.6667,2.66666 -2.3334,4 1.6667,-0.33334 3,-0.66667 4.3334,-1.33334 1.6666,-0.33333 3,-1 4.3333,-1.33333 3,-1.33333 5.6667,-2.33333 8.3333,-3.66667 5,-2.33333 10,-5.33333 15,-8.33333 4.6667,-3 9.3334,-6.33333 14,-10 2.3334,-2 4.6667,-3.66667 6.6667,-6 1,-1 2.3333,-2 3.3333,-3 1,-1 2,-2.33333 3,-3.66667 z"
           id="path11" />
        <path
           style="fill:#1d1d1b;fill-opacity:1;fill-rule:nonzero;stroke:none"
           d="m 869,922.33333 c 1.33333,1.33334 2.33333,2.66667 3.66667,4 1.33333,1 2.66666,2.33334 4,3.33334 2.33333,2.33333 5,4.66666 7.66666,6.66666 5.33334,4.33334 11,8 16.66667,11.66667 5.66667,3.66667 11.33333,7 17.33333,10.33333 3,1.33334 6,3 9.33334,4.33334 1.66666,0.66666 3.33333,1.33333 4.66666,2 1.66667,0.66666 3.33334,1.33333 5.33334,1.66666 -1,-1.66666 -2,-3 -3,-4.33333 -1.33334,-1.33333 -2.33334,-2.66667 -3.33334,-4 -2.33333,-2.66667 -5,-5.33333 -7.33333,-7.66667 -5.33333,-4.66666 -10.66667,-8.66666 -16.33333,-12.66666 -6,-3.66667 -12,-7 -18.33334,-9.66667 -3.33333,-1.33333 -6.66666,-2.33333 -10,-3.33333 -1.66666,-0.66667 -3.33333,-1 -5,-1.33334 -1.66666,-0.66666 -3.33333,-1 -5.33333,-1 z"
           id="path12" />
      </g>
      <path
         style="fill:#ffffff;stroke-width:1.2691"
         d="M 260.16451,724.43246 C 225.62293,720.12191 194.55724,703.4547 163.6323,672.64151 138.44821,647.54843 123.51544,626.06163 111.75912,598.0011 96.790631,562.27362 90.254681,520.79111 93.232517,480.41605 c 1.150211,-15.59516 5.568546,-46.62017 6.817083,-47.8687 0.1622,-0.16221 3.98767,2.60717 8.50104,6.15416 19.32198,15.18487 53.87771,40.49905 68.05643,49.85548 l 15.31781,10.10811 0.0496,16.54289 c 0.0603,20.14478 2.65138,31.37823 11.27935,48.90157 4.91897,9.99039 7.79889,13.91619 16.82808,22.93936 11.83412,11.82626 23.01893,18.41823 37.49382,22.09769 8.89959,2.26224 25.70301,2.50592 35.20556,0.51053 16.15587,-3.39248 35.30137,-15.47406 45.90053,-28.96511 3.32528,-4.23255 6.46314,-7.69556 6.97301,-7.69556 0.50987,0 6.04013,1.09919 12.28947,2.44263 19.26517,4.14152 35.31782,5.57995 54.01221,4.8399 l 17.5201,-0.69357 -0.68941,4.00281 c -7.85045,45.58103 -31.20775,85.08826 -65.19139,110.26667 -30.85351,22.8593 -70.75479,34.65537 -103.43126,30.57755 z"
         id="path24" />
      <path
         style="fill:#ffffff;stroke-width:1.2691"
         d="M 783.10362,723.38944 C 761.13923,718.80472 735.23107,707.6452 718.36588,695.50473 684.26827,670.95942 660.85223,633.02294 652.50163,588.7976 l -1.73764,-9.20266 17.39982,0.68882 c 18.56759,0.73503 34.67052,-0.71255 53.89193,-4.84466 6.24934,-1.34344 11.96027,-2.41965 12.69095,-2.39159 0.73068,0.0281 3.87515,3.46426 6.9877,7.63598 9.96485,13.35575 27.18625,24.62755 43.50522,28.47513 10.28513,2.42496 27.59634,2.42315 37.1847,-0.004 23.82319,-6.03022 45.35027,-24.85753 56.47477,-49.39208 6.16059,-13.58688 8.80783,-27.06315 8.86807,-45.14453 l 0.0529,-15.86369 17.4061,-11.61232 c 18.80327,-12.54443 48.08061,-33.98265 64.36262,-47.12929 l 10.15276,-8.19768 1.55127,6.81865 c 15.18395,66.7413 3.37224,142.95193 -29.80257,192.28996 -26.37554,39.22605 -59.54799,68.81578 -93.20396,83.13769 -22.50092,9.57499 -54.80055,13.58246 -75.1826,9.32802 z"
         id="path25" />
    </g>
  </g>
</svg>
