<?xml version="1.0" encoding="UTF-8" standalone="no"?>
<!-- Created with Inkscape (http://www.inkscape.org/) -->

<svg
   width="1080"
   height="1080"
   viewBox="0 0 1080 1080"
   version="1.1"
   id="svg1"
   xmlns="http://www.w3.org/2000/svg"
   xmlns:svg="http://www.w3.org/2000/svg">
  <defs
     id="defs1" />
  <g
     id="layer1">
    <g
       id="g22"
       transform="matrix(2.8212338,0,0,2.4728563,-1865.5721,-464.94537)">
      <path
         style="fill:#1d1d1b;fill-opacity:1;fill-rule:nonzero;stroke:none"
         d="m 773.66667,512 c 41.33333,0 75,-36.66667 75,-81.66667 0,-45.33333 -33.66667,-82 -75,-82 -41.33334,0 -75,36.66667 -75,82 0,45 33.66666,81.66667 75,81.66667 z m 0,-156.33333 c 37.33333,0 67.66666,33.33333 67.66666,74.66666 0,41 -30.33333,74.33334 -67.66666,74.33334 C 736.33333,504.66667 706,471.33333 706,430.33333 706,389 736.33333,355.66667 773.66667,355.66667 Z"
         id="path1" />
      <path
         style="fill:#1d1d1b;fill-opacity:1;fill-rule:nonzero;stroke:none"
         d="m 712.66667,335 c 4,-4.33333 8.33333,-8 12.66666,-11.33333 4.33334,-3 9.33334,-5.66667 14,-7.66667 2.33334,-1.33333 5,-2 7.66667,-2.66667 0.66667,0 1.33333,-0.33333 2,-0.33333 0.33333,-0.33333 1,-0.33333 1.66667,-0.66667 0.66666,0 1.33333,-0.33333 2,-0.66666 C 754.33333,311 754.33333,311 754.33333,311 c 2.33334,-1 5,-2 7.33334,-3.33333 2.66666,-1.33334 5.33333,-2.66667 8,-4.33334 0,-1.33333 0,-1.33333 0,-1.33333 -3,-1.33333 -6,-2.33333 -9.33334,-2.66667 -3,-0.33333 -6,-0.33333 -9,0.33334 -3,0.33333 -6,1.33333 -8.66666,3 -3,1.33333 -5.33334,3 -8,4.66666 -5,3.66667 -9.66667,7.66667 -13.33334,12 -4,4.66667 -7,9.66667 -9.66666,15 z"
         id="path2" />
      <path
         style="fill:#1d1d1b;fill-opacity:1;fill-rule:nonzero;stroke:none"
         d="m 756,445 c 0,16.66667 13.66667,30.33333 30.33333,30.33333 16.66667,0 30.33334,-13.66666 30.33334,-30.33333 0,-16.66667 -13.66667,-30.33333 -30.33334,-30.33333 C 769.66667,414.66667 756,428.33333 756,445 Z"
         id="path3" />
      <path
         style="fill:#fdfdfd;fill-opacity:1;fill-rule:nonzero;stroke:none"
         d="m 794.66667,432.66667 c 0,4.66666 3.66666,8.66666 8.33333,8.66666 4.66667,0 8.66667,-4 8.66667,-8.66666 0,-4.66667 -4,-8.33334 -8.66667,-8.33334 -4.66667,0 -8.33333,3.66667 -8.33333,8.33334 z"
         id="path4" />
      <path
         style="fill:#1d1d1b;fill-opacity:1;fill-rule:nonzero;stroke:none"
         d="m 931.66667,513.66667 c 41.33333,0 75.00003,-37 75.00003,-82 0,-45.33334 -33.6667,-82 -75.00003,-82 -41.33334,0 -75,36.66666 -75,82 0,45 33.66666,82 75,82 z m 0,-156.66667 C 969,357 999.33333,390.33333 999.33333,431.66667 999.33333,472.66667 969,506 931.66667,506 894.33333,506 864,472.66667 864,431.66667 864,390.33333 894.33333,357 931.66667,357 Z"
         id="path5-3" />
      <path
         style="fill:#1d1d1b;fill-opacity:1;fill-rule:nonzero;stroke:none"
         d="m 993,339.66667 c -2.33333,-5.33334 -5.66667,-10.33334 -9.66667,-15 C 979.66667,320.33333 975,316.33333 970,312.66667 967.33333,311 965,309.33333 962.33333,308 c -2.66666,-1.66667 -5.66666,-2.66667 -8.66666,-3 -3.33334,-0.66667 -6.33334,-0.66667 -9.33334,-0.33333 C 941,305 938,306 935.33333,307.33333 935,308.66667 935,308.66667 935,308.66667 c 3,1.66666 5.33333,3 8,4.33333 2.66667,1.33333 5,2.33333 7.33333,3.33333 2,0.66667 2,0.66667 2,0.66667 0.33334,0.33333 1,0.66667 1.66667,0.66667 0.66667,0.33333 1.33333,0.33333 2,0.66666 0.66667,0 1,0.33334 1.66667,0.33334 2.66666,0.66666 5.33333,1.33333 7.66666,2.66666 5,2 9.66667,4.66667 14,7.66667 C 984,332.33333 988,336 992,340.33333 Z"
         id="path6-3" />
      <path
         style="fill:#1d1d1b;fill-opacity:1;fill-rule:nonzero;stroke:none"
         d="M 949.33333,446.33333 C 949.33333,463 935.66667,476.66667 919,476.66667 902.33333,476.66667 888.66667,463 888.66667,446.33333 888.66667,429.66667 902.33333,416 919,416 c 16.66667,0 30.33333,13.66667 30.33333,30.33333 z"
         id="path7-4" />
      <path
         style="fill:#fdfdfd;fill-opacity:1;fill-rule:nonzero;stroke:none"
         d="m 910.66667,434 c 0,4.66667 -3.66667,8.66667 -8.33334,8.66667 -4.66666,0 -8.66666,-4 -8.66666,-8.66667 0,-4.66667 4,-8.33333 8.66666,-8.33333 4.66667,0 8.33334,3.66666 8.33334,8.33333 z"
         id="path8-1" />
    </g>
  </g>
</svg>
