<?xml version="1.0" encoding="utf-8"?>
<!-- Generator: Adobe Illustrator 17.0.0, SVG Export Plug-In . SVG Version: 6.00 Build 0)  -->
<!DOCTYPE svg PUBLIC "-//W3C//DTD SVG 1.1//EN" "http://www.w3.org/Graphics/SVG/1.1/DTD/svg11.dtd">
<svg version="1.1" id="Layer_1" xmlns="http://www.w3.org/2000/svg" xmlns:xlink="http://www.w3.org/1999/xlink" x="0px" y="0px"
	 width="1000px" height="1000px" viewBox="0 0 1000 1000" enable-background="new 0 0 1000 1000" xml:space="preserve">
<g>
	<path fill="#302420" d="M970.763,482.221c-0.421,60.299-16.325,112.298-40.808,161.758
		c-31.15,62.926-75.138,115.721-130.882,158.374c-39.635,30.327-84.018,51.773-131.296,67.591
		c-30.674,10.262-62.122,17.819-94.009,21.391c-26.741,2.996-53.552,7.294-80.81,5.992c-84.184-4.023-164.765-21.196-239.066-62.734
		c-41.69-23.307-78.065-52.951-109.69-88.799c-43.825-49.678-75.57-106.196-96.793-168.65
		c-12.392-36.467-19.091-74.127-16.331-112.813c1.819-25.488,8.354-50.173,16.594-74.307
		c27.733-81.228,73.508-150.767,136.968-208.442c32.449-29.49,68.588-53.075,110.873-66.786
		c24.694-8.007,49.809-10.211,75.346-9.947c33.467,0.345,65.287,7.867,95.111,23.33c2.66,1.379,5.594,2.234,8.243,3.631
		c17.168,9.049,33.568,9.082,51.463,0.054c18.627-9.396,38.566-16.124,59.041-21.243c68.451-17.116,132.018-7.964,190.461,32.863
		c36.094,25.215,66.325,56.085,92.654,91.233c23.483,31.349,43.42,64.761,61.195,99.551c18.844,36.884,32.03,75.794,39.803,116.401
		C971.07,462.367,970.357,474.631,970.763,482.221z M499.849,868.922c15.033,0,30.272,1.605,45.061-0.294
		c48.466-6.225,96.09-15.721,142.166-33.341c70.924-27.121,128.48-71.611,174.177-131.141
		c37.416-48.741,63.91-103.569,78.209-163.605c7.171-30.106,9.497-60.619,3.139-91.572c-6.398-31.146-17.247-60.628-29.833-89.615
		c-21.459-49.421-51.693-93.284-86.398-134.09c-21.498-25.277-45.838-47.707-74.317-65.184
		c-23.223-14.252-47.531-26.329-74.953-29.411c-40.213-4.52-79.531-0.722-116.977,15.985c-9.605,4.285-19.336,8.286-28.972,12.501
		c-16.542,7.235-33.36,8.593-50.489,2.349c-16.229-5.916-32.332-12.186-48.621-17.928c-19.162-6.755-38.66-12.192-59.147-13.106
		c-41.977-1.874-80.052,10.329-115.485,32.004c-36.181,22.132-67.863,49.433-95.822,81.397
		c-46.333,52.969-79.403,112.723-96.781,181.153c-11.019,43.39-10.212,85.938,3.243,128.83
		c18.193,57.995,44.71,111.271,82.581,159.023c33.665,42.45,73.894,76.899,121.494,102.51
		C343.152,853.602,419.832,868.978,499.849,868.922z"/>
	<path fill="#DF4036" d="M499.849,868.922c-80.017,0.056-156.698-15.321-227.725-53.536c-47.6-25.611-87.829-60.06-121.494-102.51
		C112.76,665.124,86.242,611.848,68.05,553.853c-13.455-42.892-14.262-85.441-3.243-128.83
		c17.378-68.429,50.448-128.184,96.781-181.153c27.959-31.964,59.642-59.265,95.822-81.397
		c35.433-21.675,73.508-33.878,115.485-32.004c20.487,0.914,39.985,6.352,59.147,13.106c16.289,5.742,32.392,12.012,48.621,17.928
		c17.128,6.244,33.947,4.886,50.489-2.349c9.636-4.215,19.367-8.216,28.972-12.501c37.446-16.707,76.764-20.505,116.977-15.985
		c27.422,3.082,51.73,15.159,74.953,29.411c28.479,17.477,52.819,39.908,74.317,65.184c34.705,40.807,64.939,84.67,86.398,134.09
		c12.587,28.987,23.435,58.469,29.833,89.615c6.358,30.953,4.032,61.466-3.139,91.572c-14.299,60.036-40.793,114.863-78.209,163.605
		c-45.697,59.53-103.253,104.019-174.177,131.141c-46.076,17.62-93.7,27.116-142.166,33.341
		C530.122,870.527,514.882,868.922,499.849,868.922z M509.176,253.123c-19.553,0-39.109-0.217-58.659,0.045
		c-42.124,0.564-83.998,3.877-125.457,11.75c-86.806,16.484-152.944,63.372-200.851,136.792
		c-10.705,16.406-18.324,34.371-23.243,53.503c-3.072,11.948-3.206,23.717-1.286,35.733c4.38,27.421,16.571,51.367,33.193,73.121
		c24.421,31.962,55.022,57.517,87.087,81.284c43.937,32.566,91.838,57.146,145.69,68.78c36.79,7.947,73.955,12.081,111.713,12.563
		c66.484,0.85,131.989-4.418,196.1-23.431c46.076-13.664,88.255-33.776,123.649-67.065c21.953-20.647,43.077-42.141,61.178-66.11
		c20.494-27.137,36.74-56.771,41.66-91.324c0.963-6.759,1.522-13.41,0.312-20.168c-3.209-17.924-9.26-34.575-19.077-50.162
		c-23.159-36.769-52.95-67.263-87.11-93.603c-15.473-11.931-32.23-22.102-50.099-30.249
		c-36.677-16.721-75.561-24.223-115.386-28.317C588.849,252.18,549.025,252.269,509.176,253.123z"/>
	<path fill="#302420" d="M509.176,253.123c39.849-0.853,79.674-0.943,119.412,3.143c39.825,4.094,78.71,11.596,115.386,28.317
		c17.869,8.147,34.627,18.318,50.099,30.249c34.16,26.34,63.95,56.833,87.11,93.603c9.817,15.586,15.868,32.238,19.077,50.162
		c1.21,6.758,0.651,13.409-0.312,20.168c-4.92,34.554-21.166,64.188-41.66,91.324c-18.102,23.968-39.226,45.463-61.178,66.11
		c-35.394,33.289-77.573,53.401-123.649,67.065c-64.11,19.013-129.616,24.281-196.1,23.431
		c-37.758-0.483-74.923-4.616-111.713-12.563c-53.851-11.633-101.753-36.214-145.69-68.78
		c-32.065-23.766-62.666-49.322-87.087-81.284c-16.622-21.755-28.813-45.7-33.193-73.121c-1.919-12.016-1.785-23.785,1.286-35.733
		c4.919-19.132,12.538-37.096,23.243-53.503c47.906-73.42,114.044-120.309,200.851-136.792
		c41.459-7.873,83.334-11.187,125.457-11.75C470.067,252.906,489.623,253.123,509.176,253.123z M499.7,700.326
		c37.197,1.547,76.717-2.544,115.853-10.021c36.149-6.906,71.645-16.309,104.618-33.306c23.476-12.101,45.182-26.787,63.87-45.602
		c5.372-5.408,5.16-8.203-0.607-12.791c-18.86-15.007-38.969-28.254-60.666-38.636c-31.518-15.081-64.767-23.166-100.055-22.891
		c-32.741,0.255-64.027,8.186-94.91,17.37c-16.582,4.931-31.786,4.99-48.397,0.787c-29.051-7.351-58.342-13.718-88.515-15.645
		c-47.238-3.016-90.873,8.098-131.808,30.97c-13.8,7.71-26.496,17.091-37.243,28.846c-4.536,4.962-4.254,8.615,0.792,13.408
		c0.544,0.517,1.082,1.047,1.668,1.514c33.672,26.814,69.701,49.234,111.02,62.758C387.915,694.303,441.706,702.16,499.7,700.326z
		 M794.15,352.98c-0.06-0.759,0.116-1.637-0.224-2.206c-0.747-1.251-1.577-2.564-2.683-3.474
		c-31.8-26.139-67.202-45.286-107.63-54.126c-36.717-8.029-73.798-13.516-111.518-13.493c-38.36,0.024-76.72,0.036-115.08,0.031
		c-36.119-0.005-71.929,2.991-107.657,8.646c-29.124,4.609-57.15,12.328-83.94,24.317c-25.435,11.382-48.487,26.515-69,46.636
		c2.783,1.824,4.46,3.744,6.398,4.059c12.58,2.046,25.165,4.328,37.844,5.451c51.659,4.575,103.381,8.704,155.241,9.62
		c48.124,0.85,96.274,0.41,144.412,0.256c14.28-0.046,28.665-0.124,42.813-1.79c36.63-4.315,73.564-2.712,110.249-6.892
		c23.088-2.631,46.2-4.858,69.147-8.617C773.357,359.623,784.508,359.159,794.15,352.98z"/>
	<path fill="#DF4036" d="M499.7,700.326c-57.994,1.834-111.785-6.023-164.381-23.239c-41.319-13.524-77.348-35.944-111.02-62.758
		c-0.586-0.467-1.124-0.997-1.668-1.514c-5.046-4.793-5.328-8.446-0.792-13.408c10.747-11.755,23.444-21.136,37.243-28.846
		c40.936-22.872,84.57-33.986,131.808-30.97c30.174,1.927,59.464,8.294,88.515,15.645c16.611,4.203,31.815,4.144,48.397-0.787
		c30.884-9.184,62.169-17.115,94.91-17.37c35.288-0.275,68.537,7.81,100.055,22.891c21.697,10.382,41.806,23.63,60.666,38.636
		c5.767,4.588,5.979,7.383,0.607,12.791c-18.688,18.815-40.394,33.501-63.87,45.602c-32.974,16.997-68.469,26.4-104.618,33.306
		C576.417,697.781,536.897,701.873,499.7,700.326z"/>
	<path fill="#FFFFFF" d="M794.15,352.98c-9.642,6.179-20.793,6.644-31.628,8.418c-22.947,3.758-46.06,5.986-69.147,8.617
		c-36.685,4.18-73.62,2.577-110.249,6.892c-14.148,1.667-28.533,1.745-42.813,1.79c-48.138,0.154-96.288,0.594-144.412-0.256
		c-51.86-0.916-103.582-5.045-155.241-9.62c-12.679-1.123-25.264-3.405-37.844-5.451c-1.938-0.315-3.616-2.236-6.398-4.059
		c20.513-20.121,43.565-35.253,69-46.636c26.79-11.989,54.816-19.708,83.94-24.317c35.728-5.655,71.538-8.651,107.657-8.646
		c38.36,0.005,76.72-0.007,115.08-0.031c37.72-0.023,74.801,5.464,111.518,13.493c40.428,8.84,75.83,27.987,107.63,54.126
		c1.107,0.91,1.936,2.222,2.683,3.474C794.266,351.343,794.09,352.221,794.15,352.98z"/>
</g>
</svg>
