<?xml version="1.0" encoding="utf-8"?>
<!-- Generator: Adobe Illustrator 17.0.0, SVG Export Plug-In . SVG Version: 6.00 Build 0)  -->
<!DOCTYPE svg PUBLIC "-//W3C//DTD SVG 1.1//EN" "http://www.w3.org/Graphics/SVG/1.1/DTD/svg11.dtd">
<svg version="1.1" id="Layer_1" xmlns="http://www.w3.org/2000/svg" xmlns:xlink="http://www.w3.org/1999/xlink" x="0px" y="0px"
	 width="1000px" height="1000px" viewBox="0 0 1000 1000" enable-background="new 0 0 1000 1000" xml:space="preserve">
<g>
	<path fill="#302420" d="M502.259,902.053c-107.749,0.333-202.482-29.72-285.504-93.839c-36.73-28.367-68.094-62.287-95.184-100.134
		c-41.007-57.287-68.275-120.665-84.964-188.847c-2.554-10.434-2.874-21.008,0.004-31.29
		c27.766-99.191,71.099-190.741,136.205-271.032c31.87-39.303,69.628-72.219,114.31-96.89
		c35.373-19.532,73.326-25.166,112.591-20.91c20.754,2.249,40.71,9.68,60.029,18.259c38.278,16.997,40.893,17.645,82.838-0.31
		c23.894-10.228,48.051-18.33,74.591-18.885c37.653-0.788,72.4,9.337,104.06,28.228c42.038,25.083,78.046,57.604,108.95,95.802
		c50.309,62.182,88.841,130.985,117.208,205.618c3.159,8.311,5.032,17.196,8.883,25.144c13.242,27.329,11.26,54.985,2.932,82.912
		c-23.871,80.044-60.107,153.741-114.948,217.219c-48.547,56.194-107.121,98.131-178.592,121.139
		c-30.79,9.912-61.618,18.943-93.757,23.34C547.736,900.883,523.43,900.863,502.259,902.053z M501.43,873.394
		c32.961,1.214,66.563-2.595,100.099-9.61c100.412-21.006,181.006-72.347,242.306-154.572
		c36.745-49.288,63.162-103.599,82.473-161.765c15.445-46.521,15.997-50.035,0.071-96.206
		c-14.58-42.268-34.047-82.14-56.237-121.016c-28.805-50.466-63.662-95.763-105.532-135.907
		c-24.317-23.315-51.819-41.762-83.068-54.064c-26.603-10.473-53.711-16.78-83.058-10.177c-17.583,3.956-34.266,9.681-50.75,16.386
		c-30.624,12.456-61.039,14.797-91.912,0.63c-11.018-5.056-22.64-8.87-34.152-12.761c-27.543-9.308-55.228-10.883-83.677-3.107
		c-26.362,7.205-49.47,20.472-71.193,36.117c-38.557,27.767-70.517,62.377-97.085,101.52
		c-43.956,64.761-78.48,134.167-100.589,209.627c-5.698,19.446-5.752,37.184-0.007,56.651
		c18.608,63.052,48.569,120.176,87.838,172.412c47.882,63.692,108.734,111.15,183.613,139.167
		C391.866,865.913,445.22,875.125,501.43,873.394z"/>
	<path fill="#DF4036" d="M501.43,873.394c-56.209,1.732-109.564-7.481-160.86-26.674c-74.879-28.017-135.731-75.475-183.613-139.167
		c-39.269-52.236-69.23-109.36-87.838-172.412c-5.745-19.468-5.691-37.206,0.007-56.651
		c22.109-75.46,56.633-144.866,100.589-209.627c26.568-39.143,58.528-73.754,97.085-101.52
		c21.723-15.645,44.831-28.912,71.193-36.117c28.449-7.776,56.134-6.2,83.677,3.107c11.512,3.891,23.134,7.705,34.152,12.761
		c30.873,14.166,61.289,11.826,91.912-0.63c16.484-6.705,33.167-12.43,50.75-16.386c29.347-6.603,56.455-0.296,83.058,10.177
		c31.249,12.302,58.751,30.748,83.068,54.064c41.87,40.144,76.727,85.441,105.532,135.907
		c22.19,38.876,41.657,78.748,56.237,121.016c15.927,46.171,15.374,49.685-0.071,96.206
		c-19.311,58.167-45.728,112.477-82.473,161.765c-61.3,82.224-141.894,133.566-242.306,154.572
		C567.993,870.799,534.391,874.607,501.43,873.394z M503.796,706.826c28.538,0.05,56.568-3.017,84.621-8.389
		c59.266-11.35,113.202-34.573,161.017-70.962c36.805-28.011,71.644-58.516,103.067-92.658c7.689-8.355,15.138-16.929,22.78-25.328
		c3.819-4.197,4.167-8.532,1.024-13.178c-2.728-4.032-5.583-7.98-8.26-12.046c-25.752-39.109-59.16-70.864-95.712-99.581
		c-37.284-29.293-77.594-53.103-123.111-67.345c-40.817-12.771-81.676-19.437-124.309-7.139
		c-21.177,6.109-43.347,4.985-64.934-1.546c-14.817-4.482-30.111-6.057-45.641-6.527c-37.655-1.141-71.97,10.469-105.003,26.804
		c-64.493,31.895-117.231,77.935-160.654,134.971c-7.861,10.325-15.503,20.819-23.212,31.26c-5.914,8.01-6.002,8.934,0.284,16.729
		c27.634,34.267,59.747,63.961,93.502,92.054C301.751,672.604,397.147,705.252,503.796,706.826z"/>
	<path fill="#302420" d="M503.796,706.826c-106.649-1.574-202.044-34.222-284.539-102.88
		c-33.754-28.093-65.867-57.787-93.502-92.054c-6.287-7.795-6.198-8.719-0.284-16.729c7.709-10.441,15.351-20.934,23.212-31.26
		c43.422-57.036,96.16-103.076,160.654-134.971c33.032-16.336,67.348-27.945,105.003-26.804c15.53,0.471,30.824,2.045,45.641,6.527
		c21.587,6.531,43.757,7.655,64.934,1.546c42.633-12.298,83.493-5.632,124.309,7.139c45.517,14.242,85.827,38.051,123.111,67.345
		c36.551,28.717,69.959,60.472,95.712,99.581c2.677,4.065,5.532,8.013,8.26,12.046c3.143,4.646,2.795,8.981-1.024,13.178
		c-7.642,8.398-15.091,16.973-22.78,25.328c-31.422,34.142-66.262,64.647-103.067,92.658
		c-47.814,36.389-101.751,59.612-161.017,70.962C560.364,703.809,532.334,706.876,503.796,706.826z M503.916,677.442
		c28.802,0.765,60.013-3.427,90.99-10.026c54.975-11.711,103.574-36.52,147.287-71.412c5.64-4.501,5.616-7.416-0.195-10.864
		c-16.745-9.933-34.111-18.582-52.318-25.583c-25.981-9.99-52.551-15.125-80.638-15.075c-32.899,0.059-64.514,5.948-95.245,16.582
		c-11.48,3.973-21.464,4.664-32.774,0.174c-9.714-3.857-20.266-5.592-30.433-8.321c-68.465-18.378-129.472,1.328-187.367,36.754
		c-4.001,2.448-4.081,6.909-0.25,9.981c17.753,14.236,36.457,27.344,57.092,36.778C377.417,662.649,437.464,677.891,503.916,677.442
		z M262.967,392.477c20.915,4.327,36.479,8.865,52.348,10.565c37.808,4.049,75.708,8.377,113.667,9.619
		c54.231,1.774,108.585,3.188,162.756-2.82c21.704-2.407,43.63-3.187,65.178-6.507c19.096-2.943,37.829-8.297,56.66-12.843
		c2.013-0.486,4.386-2.323,5.246-4.162c1.831-3.917-1.698-5.9-4.322-7.435c-22.376-13.089-45.641-24.281-70.303-32.443
		c-23.798-7.876-47.592-15.198-73.199-14.584c-15.569,0.374-30.376,4.456-45.407,7.324c-20.182,3.85-40.024,4.417-60.114-0.388
		c-11.77-2.815-23.731-5.402-35.752-6.499C366.927,326.571,315.268,352.416,262.967,392.477z"/>
	<path fill="#DF4036" d="M503.916,677.442c-66.452,0.449-126.499-14.793-183.849-41.012c-20.635-9.434-39.34-22.542-57.092-36.778
		c-3.831-3.072-3.751-7.533,0.25-9.981c57.895-35.426,118.902-55.131,187.367-36.754c10.167,2.729,20.719,4.464,30.433,8.321
		c11.31,4.49,21.294,3.799,32.774-0.174c30.731-10.634,62.345-16.523,95.245-16.582c28.087-0.051,54.657,5.085,80.638,15.075
		c18.207,7.001,35.573,15.65,52.318,25.583c5.812,3.448,5.836,6.363,0.195,10.864c-43.714,34.893-92.312,59.702-147.287,71.412
		C563.929,674.014,532.718,678.206,503.916,677.442z"/>
	<path fill="#FFFFFF" d="M262.967,392.477c52.301-40.061,103.96-65.907,166.759-60.173c12.02,1.097,23.982,3.684,35.752,6.499
		c20.09,4.805,39.932,4.238,60.114,0.388c15.031-2.867,29.838-6.95,45.407-7.324c25.607-0.614,49.4,6.708,73.199,14.584
		c24.663,8.162,47.927,19.354,70.303,32.443c2.624,1.535,6.153,3.518,4.322,7.435c-0.86,1.839-3.232,3.676-5.246,4.162
		c-18.831,4.546-37.564,9.899-56.66,12.843c-21.547,3.32-43.474,4.099-65.178,6.507c-54.172,6.009-108.525,4.594-162.756,2.82
		c-37.96-1.242-75.859-5.569-113.667-9.619C299.446,401.342,283.881,396.804,262.967,392.477z"/>
</g>
</svg>
