<?xml version="1.0" encoding="utf-8"?>
<!-- Generator: Adobe Illustrator 17.0.0, SVG Export Plug-In . SVG Version: 6.00 Build 0)  -->
<!DOCTYPE svg PUBLIC "-//W3C//DTD SVG 1.1//EN" "http://www.w3.org/Graphics/SVG/1.1/DTD/svg11.dtd">
<svg version="1.1" id="Layer_1" xmlns="http://www.w3.org/2000/svg" xmlns:xlink="http://www.w3.org/1999/xlink" x="0px" y="0px"
	 width="1000px" height="1000px" viewBox="0 0 1000 1000" enable-background="new 0 0 1000 1000" xml:space="preserve">
<g>
	<path fill="#302420" d="M509.612,880.971c-67.946,0.338-127.411-9.862-184.397-33.621c-36.869-15.373-69.894-36.659-100.593-62.068
		c-66.289-54.868-110.318-125.154-142.356-203.836c-4.57-11.223-7.655-23.055-12.318-34.234c-6.78-16.256-5.933-32.014-1.278-48.796
		c25.211-90.878,70.572-170.914,128.818-244.375c29.302-36.956,64.524-66.695,105.019-90.43
		c33.67-19.735,70.063-28.539,109.112-27.083c11.657,0.435,22.444,3.894,33.271,7.263c10.132,3.153,20.007,7.211,29.816,11.301
		c17.018,7.096,33.908,7.461,51.144,0.694c16.229-6.371,32.979-11,49.881-15.426c25.376-6.645,49.708-3.214,74.185,3.45
		c38.4,10.455,70.435,32.043,99.824,57.848c40.44,35.509,72.637,77.796,100.981,123.388c28.618,46.033,53.118,93.957,71.246,145.055
		c4.569,12.879,8.216,26.082,12.504,39.064c2.04,6.177,0.495,11.813-0.91,17.856c-6.212,26.728-15.321,52.479-25.855,77.716
		c-17.36,41.59-38.403,81.172-66.373,116.738c-48.699,61.924-109.209,107.965-183.889,134.022
		C607.615,872.886,556.239,882.5,509.612,880.971z M508.827,856.021c39.398,1.6,102.66-11.573,144.844-26.998
		c83.669-30.595,146.336-86.016,193.429-160.382c25.901-40.902,42.394-85.907,57.208-131.7c4.712-14.567,3.865-27.809-1.024-42.16
		c-25.297-74.251-61.519-142.631-108.522-205.336c-20.172-26.91-42.465-51.947-68.326-73.561
		c-24.19-20.217-50.525-36.872-81.261-45.353c-16.903-4.664-34.064-9.597-51.764-6.242c-14.167,2.685-28.425,5.348-41.992,10.781
		c-8.466,3.39-17.295,5.939-26.078,8.454c-17.252,4.939-34.318,5.313-51.541-1.127c-15.682-5.864-31.856-10.394-47.695-15.855
		c-15.676-5.406-31.665-4.876-47.505-2.2c-31.341,5.294-59.459,18.692-85.682,36.263c-30.725,20.588-56.339,46.928-79.45,75.272
		c-55.13,67.612-92.908,144.623-119.554,227.425c-4.194,13.031-3.762,24.929,0.358,37.782c10.06,31.386,24.271,60.842,39.902,89.678
		c26.351,48.612,58.453,92.875,100.072,129.693c31.076,27.492,65.415,49.788,104.347,64.765
		C391.787,845.684,446.783,856.106,508.827,856.021z"/>
	<path fill="#DF4036" d="M508.827,856.021c-62.045,0.084-117.04-10.337-170.236-30.801c-38.932-14.977-73.27-37.273-104.347-64.765
		c-41.619-36.818-73.721-81.08-100.072-129.693c-15.631-28.836-29.842-58.292-39.902-89.678c-4.12-12.853-4.551-24.751-0.358-37.782
		c26.646-82.802,64.424-159.813,119.554-227.425c23.112-28.344,48.725-54.684,79.45-75.272
		c26.223-17.571,54.341-30.969,85.682-36.263c15.841-2.675,31.829-3.206,47.505,2.2c15.839,5.462,32.014,9.992,47.695,15.855
		c17.223,6.439,34.288,6.065,51.541,1.127c8.784-2.515,17.613-5.063,26.078-8.454c13.567-5.433,27.825-8.096,41.992-10.781
		c17.7-3.354,34.861,1.578,51.764,6.242c30.736,8.481,57.071,25.136,81.261,45.353c25.862,21.614,48.155,46.651,68.326,73.561
		c47.003,62.705,83.225,131.085,108.522,205.336c4.889,14.351,5.737,27.593,1.024,42.16c-14.814,45.793-31.307,90.798-57.208,131.7
		c-47.093,74.366-109.76,129.786-193.429,160.382C611.488,844.448,548.225,857.622,508.827,856.021z M155.927,515.709
		c17.646,12.821,30.078,27.285,43.747,40.458c12.639,12.182,24.925,24.749,37.91,36.549c21.47,19.51,43.945,37.81,69.17,52.38
		c51.922,29.991,107.911,45.339,167.863,46.053c16.79,0.2,33.585-0.076,50.377-0.054c29.949,0.038,59.088-5.36,87.927-12.889
		c39.724-10.37,74.927-29.922,108.007-53.585c31.093-22.243,59.922-47.181,86.846-74.351c9.653-9.741,19.775-19.041,30.014-28.172
		c7.473-6.665,7.919-7.169,1.588-14.022c-36.238-39.228-71.917-78.939-113.33-113.087c-17.746-14.633-35.912-28.244-55.843-39.666
		c-42.823-24.542-88.128-33.481-136.627-21.985c-21.206,5.026-42.149,4.788-63.45,0.435c-52.55-10.738-101.632-1.058-147.097,26.967
		c-12.314,7.591-24.253,15.902-35.744,24.693C238.516,422.743,198.062,468.44,155.927,515.709z"/>
	<path fill="#302420" d="M155.927,515.709c42.136-47.269,82.59-92.966,131.356-130.277c11.491-8.791,23.43-17.103,35.744-24.693
		c45.464-28.025,94.547-37.705,147.097-26.967c21.301,4.353,42.244,4.591,63.45-0.435c48.499-11.496,93.805-2.557,136.627,21.985
		c19.931,11.422,38.097,25.034,55.843,39.666c41.413,34.148,77.092,73.859,113.33,113.087c6.332,6.854,5.886,7.358-1.588,14.022
		c-10.239,9.131-20.361,18.43-30.014,28.172c-26.924,27.17-55.752,52.108-86.846,74.351
		c-33.079,23.664-68.282,43.215-108.007,53.585c-28.839,7.529-57.978,12.928-87.927,12.889c-16.793-0.022-33.587,0.254-50.377,0.054
		c-59.952-0.714-115.941-16.062-167.863-46.053c-25.225-14.57-47.701-32.87-69.17-52.38c-12.985-11.8-25.271-24.367-37.91-36.549
		C186.005,542.994,173.573,528.531,155.927,515.709z M695.659,606.71c-2.533-4.088-7.093-5.256-11.088-6.957
		c-19.704-8.388-40.314-12.621-61.502-16.187c-31.564-5.313-62.035-3.498-92.565,4.705c-26.382,7.088-26.399,7.032-53.114,0.128
		c-1.473-0.38-2.881-1.009-4.352-1.396c-55.775-14.689-108.575-6.921-158.662,21.108c-5.612,3.141-5.928,6.774-0.71,9.934
		c31.545,19.1,65.197,33.373,101.539,39.707c39.777,6.933,79.756,9.619,120.424,6.376c55.962-4.463,107.306-20.921,154.682-50.571
		C692.857,611.962,695.655,610.435,695.659,606.71z M300.11,410.467c5.874,5.855,11.357,6.411,16.215,7.187
		c36.126,5.769,72.493,9.823,109.064,10.636c77.791,1.73,155.591,2.524,233.234-4.441c15.679-1.406,30.866-4.789,48.229-9.258
		c-26.867-24.343-54.861-42.199-87.227-52.059c-22.003-6.703-45.028-8.731-67.866-4.763c-32.664,5.675-65.141,5.242-97.82,0.521
		c-18.136-2.62-36.34-3.203-54.62,0.265C361.476,365.734,330.245,385.099,300.11,410.467z"/>
	<path fill="#DF4036" d="M695.659,606.71c-0.005,3.725-2.802,5.252-5.349,6.846c-47.376,29.651-98.72,46.109-154.682,50.571
		c-40.668,3.243-80.647,0.557-120.424-6.376c-36.342-6.334-69.994-20.607-101.539-39.707c-5.218-3.16-4.901-6.794,0.71-9.934
		c50.087-28.028,102.887-35.797,158.662-21.108c1.472,0.388,2.88,1.016,4.352,1.396c26.715,6.904,26.732,6.96,53.114-0.128
		c30.531-8.203,61.001-10.018,92.565-4.705c21.188,3.566,41.798,7.799,61.502,16.187
		C688.567,601.453,693.127,602.621,695.659,606.71z"/>
	<path fill="#FFFFFF" d="M300.11,410.467c30.135-25.368,61.366-44.733,99.209-51.912c18.279-3.468,36.484-2.885,54.62-0.265
		c32.68,4.721,65.156,5.154,97.82-0.521c22.838-3.968,45.863-1.94,67.866,4.763c32.366,9.86,60.36,27.716,87.227,52.059
		c-17.363,4.469-32.55,7.852-48.229,9.258c-77.643,6.965-155.442,6.171-233.234,4.441c-36.571-0.813-72.938-4.868-109.064-10.636
		C311.466,416.878,305.983,416.321,300.11,410.467z"/>
</g>
</svg>
