<?xml version="1.0" encoding="utf-8"?>
<!-- Generator: Adobe Illustrator 17.0.0, SVG Export Plug-In . SVG Version: 6.00 Build 0)  -->
<!DOCTYPE svg PUBLIC "-//W3C//DTD SVG 1.1//EN" "http://www.w3.org/Graphics/SVG/1.1/DTD/svg11.dtd">
<svg version="1.1" id="Layer_1" xmlns="http://www.w3.org/2000/svg" xmlns:xlink="http://www.w3.org/1999/xlink" x="0px" y="0px"
	 width="1000px" height="1000px" viewBox="0 0 1000 1000" enable-background="new 0 0 1000 1000" xml:space="preserve">
<g>
	<path fill="#302420" d="M489.73,822.579c-75.119-0.8-158.922-17.824-236.304-60.673c-68.492-37.927-122.945-91.14-167.154-155.277
		c-12.358-17.93-23.689-36.467-33.032-56.197c-7.9-16.684-8.11-32.919-0.448-50.003c19.458-43.385,43.491-83.995,71.578-122.293
		c27.684-37.748,58.341-72.832,93.087-104.255c27.502-24.871,57.71-45.889,91.18-61.89c37.393-17.876,76.453-21.047,116.393-10.422
		c10.076,2.681,19.564,7.627,29.247,11.711c4.143,1.747,8.126,3.889,12.125,5.961c20.773,10.764,41.436,11.027,62.746,0.906
		c16.233-7.71,32.782-14.71,50.286-19.529c20.884-5.751,41.874-5.081,62.61-1.81c31.58,4.982,60.159,18.248,87.194,35.201
		c39.953,25.056,73.923,56.655,104.437,92.396c40.184,47.065,75.616,97.297,103.796,152.477c5.1,9.987,9.227,20.466,14.042,30.605
		c4.136,8.711,4.051,17.567,0.909,26.32c-5.064,14.104-10.596,27.905-18.54,40.869c-28.513,46.528-62.469,88.674-103.036,124.964
		c-52.248,46.74-112.647,79.734-179.771,100.177C602.591,816.581,552.817,822.376,489.73,822.579z M485.433,797.524
		c55.2,0.713,94.649-4.596,133.655-13.553c38.438-8.827,74.515-23.847,109.397-41.989c37.024-19.255,70.616-43.065,99.893-73.016
		c17.421-17.822,33.768-36.565,49.048-56.143c18.552-23.77,34.778-49.17,48.404-76.18c3.691-7.315,3.824-13.649,0.442-21.31
		c-8.851-20.046-20.07-38.721-30.927-57.665c-35.107-61.254-78.525-115.814-130.06-164.032
		c-21.065-19.708-44.608-35.796-69.857-49.495c-20.773-11.271-43.261-17.637-66.516-20.608c-20.495-2.619-40.532,1.374-59.849,8.339
		c-10.606,3.824-20.97,8.356-31.316,12.86c-25.516,11.109-51.012,11.38-76.641,0.456c-9.693-4.132-19.5-7.997-29.201-12.111
		c-35.087-14.878-70.175-14.815-105.304-0.178c-36.624,15.261-68.308,37.996-97.269,64.719
		c-27.759,25.615-52.835,53.666-74.937,84.332c-25.555,35.455-50.889,71.064-68.959,111.147
		c-17.664,39.182-18.184,31.276,3.57,70.228c15.459,27.68,35.762,52.065,55.866,76.53c45.51,55.383,102.368,94.982,168.226,122.251
		C373.097,786.947,436.116,796.01,485.433,797.524z"/>
	<path fill="#DF4036" d="M485.433,797.524c-49.317-1.514-112.336-10.577-172.334-35.419
		c-65.858-27.268-122.716-66.868-168.226-122.251c-20.104-24.464-40.407-48.85-55.866-76.53
		c-21.754-38.952-21.234-31.046-3.57-70.228c18.07-40.082,43.404-75.692,68.959-111.147c22.103-30.665,47.179-58.717,74.937-84.332
		c28.961-26.723,60.645-49.458,97.269-64.719c35.129-14.638,70.217-14.701,105.304,0.178c9.701,4.114,19.508,7.979,29.201,12.111
		c25.63,10.925,51.126,10.653,76.641-0.456c10.346-4.505,20.71-9.036,31.316-12.86c19.317-6.964,39.354-10.957,59.849-8.339
		c23.254,2.971,45.743,9.336,66.516,20.608c25.248,13.699,48.792,29.786,69.857,49.495c51.535,48.217,94.953,102.778,130.06,164.032
		c10.857,18.944,22.076,37.619,30.927,57.665c3.383,7.661,3.249,13.994-0.442,21.31c-13.627,27.01-29.852,52.41-48.404,76.18
		c-15.281,19.578-31.627,38.321-49.048,56.143c-29.277,29.951-62.869,53.761-99.893,73.016
		c-34.882,18.142-70.959,33.162-109.397,41.989C580.082,792.928,540.633,798.236,485.433,797.524z M392.179,436.551
		c-3.92,0.509-10.621,1.285-17.292,2.262c-28.526,4.176-55.135,14.625-81.904,24.717c-35.851,13.516-70.927,29.287-108.689,37.348
		c-16.193,3.456-32.417,6.404-48.92,7.783c-3.803,0.318-7.579,1.004-9.094,5.26c-3.986,11.198,1.918,20.061,13.35,20.077
		c2.254,0.003,4.539-0.007,6.758-0.346c39.496-6.029,78.228-14.692,115.48-29.797c26.445-10.723,53.52-19.938,80.511-29.255
		c32.834-11.333,66.021-13.575,99.477-2.161c5.666,1.933,11.722,2.694,17.46,4.451c13.882,4.25,28.151,4.299,42.464,4.853
		c23.774,0.92,46.184-5.627,68.582-11.91c22.986-6.448,45.929-7.822,68.922-1.368c16.625,4.668,33.032,10.172,49.373,15.78
		c27.026,9.274,53.802,19.289,80.908,28.316c22.154,7.378,44.832,12.969,68.074,15.826c11.982,1.473,24.006,2.235,35.868-1.036
		c4.737-1.306,8.082-4.235,8.56-9.285c0.829-8.756-0.59-14.499-12.233-13.946c-27.451,1.304-53.927-4.158-79.841-12.1
		c-23.701-7.264-46.979-15.926-70.366-24.189c-18.446-6.516-36.674-13.66-55.181-19.995c-32.712-11.196-65.825-15.265-99.598-4.386
		c-8.579,2.764-17.341,4.972-26.046,7.333c-19.027,5.16-38.033,8.536-57.914,3.994c-10.254-2.343-20.554-4.305-30.722-7.182
		C432.116,442.489,414.125,436.657,392.179,436.551z"/>
	<path fill="#302420" d="M392.179,436.551c21.946,0.106,39.936,5.938,57.987,11.045c10.168,2.877,20.469,4.84,30.722,7.182
		c19.881,4.542,38.887,1.166,57.914-3.994c8.706-2.361,17.467-4.57,26.046-7.333c33.773-10.88,66.886-6.81,99.598,4.386
		c18.506,6.335,36.734,13.478,55.181,19.995c23.388,8.262,46.665,16.925,70.366,24.189c25.914,7.942,52.39,13.404,79.841,12.1
		c11.643-0.553,13.062,5.19,12.233,13.946c-0.478,5.05-3.823,7.978-8.56,9.285c-11.862,3.271-23.887,2.509-35.868,1.036
		c-23.243-2.856-45.92-8.448-68.074-15.826c-27.106-9.027-53.882-19.042-80.908-28.316c-16.341-5.607-32.748-11.112-49.373-15.78
		c-22.993-6.454-45.936-5.08-68.922,1.368c-22.398,6.283-44.807,12.83-68.582,11.91c-14.313-0.554-28.582-0.604-42.464-4.853
		c-5.737-1.756-11.794-2.517-17.46-4.451c-33.456-11.414-66.643-9.173-99.477,2.161c-26.991,9.317-54.066,18.532-80.511,29.255
		c-37.252,15.105-75.984,23.768-115.48,29.797c-2.219,0.339-4.504,0.349-6.758,0.346c-11.432-0.016-17.336-8.878-13.35-20.077
		c1.515-4.255,5.29-4.941,9.094-5.26c16.503-1.38,32.726-4.327,48.92-7.783c37.762-8.061,72.839-23.832,108.689-37.348
		c26.769-10.092,53.378-20.541,81.904-24.717C381.558,437.837,388.259,437.06,392.179,436.551z"/>
</g>
</svg>
