<?xml version="1.0" encoding="utf-8"?>
<!-- Generator: Adobe Illustrator 17.0.0, SVG Export Plug-In . SVG Version: 6.00 Build 0)  -->
<!DOCTYPE svg PUBLIC "-//W3C//DTD SVG 1.1//EN" "http://www.w3.org/Graphics/SVG/1.1/DTD/svg11.dtd">
<svg version="1.1" id="Layer_1" xmlns="http://www.w3.org/2000/svg" xmlns:xlink="http://www.w3.org/1999/xlink" x="0px" y="0px"
	 width="1000px" height="1000px" viewBox="0 0 1000 1000" enable-background="new 0 0 1000 1000" xml:space="preserve">
<g>
	<path fill="#302420" d="M496.276,911.994c-90.317-0.909-177.091-24.45-254.57-78.268c-51.606-35.846-93.532-81.049-127.774-133.603
		C75.835,641.654,50.284,577.951,35.4,510.014c-4.948-22.588-4.258-45.092,2.508-68.191
		c24.035-82.056,65.349-154.47,118.134-221.009c24.371-30.72,51.964-58.102,83.062-81.865c22.85-17.46,47.796-31.597,75.204-40.482
		c43.724-14.174,87.282-14.91,129.92,4.72c8.64,3.978,17.615,7.459,25.684,12.396c20.204,12.363,40.107,12.107,60.901,1.493
		c11.266-5.75,23.235-10.157,35-14.888c53.539-21.528,105.613-16.215,156.42,9.05c36.095,17.95,66.547,43.666,93.385,73.067
		c52.367,57.366,93.948,122.05,124.211,193.718c10.186,24.124,18.8,48.806,24.843,74.448c3.751,15.915,4.194,31.377,1.13,47.164
		c-19.86,102.328-66.41,191.127-135.552,268.667c-52.632,59.024-116.806,99.83-192.27,122.75
		C584.165,907.396,551.327,911.569,496.276,911.994z M511.82,884.08c34.171,0.632,59.801-3.582,102.843-14.932
		c79.188-20.882,145.299-62.784,199.776-123.842c22.93-25.701,41.898-54.039,59.688-83.265
		c33.455-54.962,55.927-114.053,65.557-177.85c1.326-8.783,0.856-17.251-1.194-25.982c-8.6-36.622-22.624-71.2-39.18-104.775
		c-24.431-49.542-55.927-94.488-92.013-136.109c-26.186-30.203-55.956-56.631-90.936-76.492
		c-40.513-23.002-83.301-30.181-128.76-17.202c-16.164,4.615-31.131,11.972-46.365,18.842c-26.841,12.103-53.748,13.29-80.404-1.089
		c-6.997-3.774-14.226-7.159-21.507-10.36c-40.485-17.797-81.665-20.264-122.808-3.182c-15.321,6.361-29.848,14.992-43.971,23.814
		c-41.053,25.644-73.912,60.198-103.332,98.116c-44.718,57.636-80.349,120.229-102.958,189.964
		c-6.565,20.251-8.79,40.701-4.481,61.174c9.691,46.041,23.633,90.785,46.046,132.461c14.705,27.342,30.658,53.954,48.777,79.191
		c32.449,45.196,72.579,82.37,119.963,111.298C344.798,865.517,419.414,884.559,511.82,884.08z"/>
	<path fill="#DF4036" d="M511.82,884.08c-92.406,0.479-167.021-18.563-235.259-60.221c-47.384-28.927-87.514-66.102-119.963-111.298
		c-18.119-25.237-34.072-51.848-48.777-79.191c-22.413-41.676-36.355-86.42-46.046-132.461c-4.309-20.473-2.085-40.923,4.481-61.174
		c22.609-69.734,58.239-132.328,102.958-189.964c29.42-37.918,62.278-72.473,103.332-98.116
		c14.123-8.822,28.65-17.453,43.971-23.814c41.142-17.082,82.323-14.615,122.808,3.182c7.282,3.201,14.51,6.586,21.507,10.36
		c26.656,14.379,53.563,13.192,80.404,1.089c15.234-6.869,30.201-14.227,46.365-18.842c45.459-12.979,88.247-5.801,128.76,17.202
		c34.98,19.861,64.75,46.289,90.936,76.492c36.086,41.621,67.581,86.566,92.013,136.109c16.557,33.574,30.58,68.153,39.18,104.775
		c2.05,8.73,2.52,17.199,1.194,25.982c-9.63,63.797-32.103,122.888-65.557,177.85c-17.789,29.226-36.757,57.565-59.688,83.265
		c-54.476,61.059-120.588,102.96-199.776,123.842C571.621,880.498,545.991,884.712,511.82,884.08z M504.943,701.47
		c33.1,1.596,70.242-2.769,107.08-9.53c39.318-7.216,77.706-18.138,112.196-38.879c61.54-37.007,113.727-84.21,152.622-145.194
		c18.068-28.329,18.067-28.353-0.491-56.346c-2.197-3.314-4.575-6.531-7.11-9.593c-11.17-13.486-22.317-26.994-33.675-40.321
		c-34.461-40.44-74.525-73.994-122.064-98.135c-60.064-30.501-122.95-41.859-189.705-28.101c-10.782,2.222-21.594,6.05-32.996,4.197
		c-10.992-1.786-22.043-3.262-32.976-5.357c-61.276-11.746-118.72-0.444-172.831,29.275
		c-46.649,25.62-85.475,60.918-120.299,100.705c-15.731,17.972-30.266,36.959-41.918,57.989c-3.769,6.804-4.429,13.175-1.226,20.422
		c11.607,26.26,23.906,52.029,41.273,75.2c22.716,30.307,50.82,54.713,80.989,77.143c33.769,25.106,71.323,42.094,112.168,51.088
		C403.482,696.494,451.722,701.648,504.943,701.47z"/>
	<path fill="#302420" d="M504.943,701.47c-53.221,0.178-101.461-4.975-148.961-15.435c-40.845-8.995-78.399-25.982-112.168-51.088
		c-30.169-22.43-58.273-46.836-80.989-77.143c-17.367-23.171-29.667-48.94-41.273-75.2c-3.203-7.247-2.544-13.618,1.226-20.422
		c11.652-21.03,26.187-40.017,41.918-57.989c34.825-39.787,73.65-75.085,120.299-100.705
		c54.112-29.719,111.556-41.021,172.831-29.275c10.932,2.096,21.983,3.571,32.976,5.357c11.401,1.852,22.214-1.975,32.996-4.197
		c66.755-13.757,129.641-2.4,189.705,28.101c47.539,24.141,87.602,57.695,122.064,98.135c11.357,13.328,22.505,26.835,33.675,40.321
		c2.536,3.062,4.913,6.279,7.11,9.593c18.558,27.993,18.559,28.017,0.491,56.346c-38.895,60.983-91.082,108.186-152.622,145.194
		c-34.49,20.741-72.877,31.663-112.196,38.879C575.185,698.701,538.043,703.065,504.943,701.47z M745.005,606.796
		c-23.044-18.849-41.895-29.596-72.906-40.134c-43.23-14.691-87.034-18.702-131.278-4.219c-8.308,2.72-16.455,5.944-24.627,9.068
		c-7.572,2.894-14.66,3.286-22.91,0.845c-19.807-5.86-40.101-10.055-60.146-15.132c-14.091-3.569-28.485-4.742-42.682-2.683
		c-46.958,6.811-91.073,22.221-132.178,46.022c-5.852,3.388-5.817,6.425-0.339,10.209c55.267,38.183,117.724,55.956,183.616,60.766
		c49.943,3.646,100.205,3.956,150.063-4.244C646.481,658.27,697.444,639.683,745.005,606.796z M241.553,370.108
		c8.546,2.6,13.74,4.678,19.134,5.737c27.249,5.351,54.703,8.938,82.379,11.735c47.512,4.802,95.028,8.37,142.773,8.754
		c64.477,0.518,128.723-3.526,192.751-10.756c22.032-2.488,43.91-6.493,65.747-10.426c4.668-0.841,10.791-1.386,13.1-7.024
		c-1.534-2.091-2.263-3.548-3.392-4.559c-42.974-38.46-144.325-80.601-212.756-63.627c-9.167,2.274-18.795,2.417-28.121,4.827
		c-12.422,3.21-25.289,2.49-37.926,0.412c-14.095-2.318-28.05-5.67-42.211-7.344c-10.986-1.299-22.417-2.224-33.259-0.639
		c-21.152,3.093-42.264,6.92-62.546,14.3C302.489,324.139,271.497,342.697,241.553,370.108z"/>
	<path fill="#DF4036" d="M745.005,606.796c-47.56,32.887-98.524,51.474-153.387,60.497c-49.858,8.2-100.12,7.89-150.063,4.244
		c-65.892-4.81-128.349-22.583-183.616-60.766c-5.478-3.784-5.513-6.821,0.339-10.209c41.105-23.801,85.22-39.211,132.178-46.022
		c14.196-2.059,28.59-0.886,42.682,2.683c20.045,5.077,40.339,9.271,60.146,15.132c8.249,2.441,15.337,2.05,22.91-0.845
		c8.171-3.123,16.318-6.348,24.627-9.068c44.245-14.483,88.048-10.472,131.278,4.219C703.11,577.2,721.961,587.946,745.005,606.796z
		"/>
	<path fill="#FFFFFF" d="M241.553,370.108c29.944-27.411,60.936-45.97,95.674-58.609c20.283-7.38,41.394-11.207,62.546-14.3
		c10.842-1.585,22.273-0.66,33.259,0.639c14.161,1.674,28.116,5.026,42.211,7.344c12.637,2.078,25.504,2.798,37.926-0.412
		c9.326-2.41,18.955-2.554,28.121-4.827c68.431-16.974,169.782,25.167,212.756,63.627c1.129,1.01,1.858,2.467,3.392,4.559
		c-2.309,5.638-8.432,6.184-13.1,7.024c-21.837,3.933-43.715,7.938-65.747,10.426c-64.028,7.23-128.275,11.274-192.751,10.756
		c-47.745-0.384-95.262-3.952-142.773-8.754c-27.676-2.797-55.13-6.383-82.379-11.735
		C255.293,374.786,250.099,372.708,241.553,370.108z"/>
</g>
</svg>
