<?xml version="1.0" encoding="utf-8"?>
<!-- Generator: Adobe Illustrator 17.0.0, SVG Export Plug-In . SVG Version: 6.00 Build 0)  -->
<!DOCTYPE svg PUBLIC "-//W3C//DTD SVG 1.1//EN" "http://www.w3.org/Graphics/SVG/1.1/DTD/svg11.dtd">
<svg version="1.1" id="Layer_1" xmlns="http://www.w3.org/2000/svg" xmlns:xlink="http://www.w3.org/1999/xlink" x="0px" y="0px"
	 width="1000px" height="1000px" viewBox="0 0 1000 1000" enable-background="new 0 0 1000 1000" xml:space="preserve">
<g>
	<path fill="#302420" d="M505.071,891.038c-108.433-1.889-201.546-31.761-282.481-97.805
		c-54.952-44.84-94.591-101.107-127.523-162.782c-19.772-37.03-35.481-75.731-45.508-116.706
		c-2.602-10.632-2.56-19.922,0.282-30.589c21.042-78.978,59.337-149.46,104.698-216.615c25.945-38.411,56.266-72.999,91.753-102.736
		c31.911-26.741,67.619-47.07,109.387-53.438c25.67-3.914,51.61-2.93,76.492,6.136c18.121,6.603,36.276,13.193,54.032,20.696
		c19.009,8.032,37.25,8.251,56.054-0.706c14.495-6.905,29.501-12.662,44.962-17.368c33.238-10.116,65.58-5.54,97.036,6.119
		c31.272,11.592,58.948,29.53,83.469,52.386c48.99,45.662,86.667,99.847,119.429,157.719c23.074,40.759,41.508,83.54,57.717,127.562
		c8.661,23.524,8.954,45.488,2.104,68.419c-19.751,66.123-48.071,128.052-89.646,183.599
		c-58.565,78.247-133.984,131.268-228.627,157.625C586.319,884.356,543.232,887.85,505.071,891.038z M501.657,862.325
		c19.235-1.563,37.787-0.4,56.372-3.073c30.574-4.397,60.449-11.359,89.452-21.58c48.484-17.088,92.959-41.343,131.149-76.374
		c46.565-42.713,81.945-93.412,109.16-150.202c15.781-32.93,28.281-66.918,36.595-102.491c1.525-6.524,1.783-12.415-0.235-18.932
		c-8.619-27.821-18.649-55.06-30.476-81.701c-25.105-56.552-58.272-108.116-95.961-156.926
		c-24.402-31.604-52.512-59.324-86.396-80.807c-19.282-12.225-39.915-21.985-62.373-25.831c-29.39-5.033-57.977-1.314-84.584,13.487
		c-33.697,18.745-67.585,19.231-101.923,1.18c-10.697-5.624-21.954-10.581-33.475-14.167c-36.858-11.472-73.49-10.655-108.82,5.816
		c-40.237,18.759-73.607,46.672-102.728,79.842c-24.087,27.436-44.642,57.447-63.705,88.516
		c-30.136,49.115-55.028,100.634-73.098,155.485c-5.853,17.767-6.061,34.466,0.019,52.073
		c21.808,63.147,51.319,122.257,92.1,175.298c19.23,25.011,40.317,48.607,64.89,68.637
		C314.66,833.371,403.01,863.732,501.657,862.325z"/>
	<path fill="#DF4036" d="M501.657,862.325c-98.647,1.408-186.997-28.954-264.036-91.749c-24.573-20.03-45.66-43.626-64.89-68.637
		c-40.781-53.041-70.293-112.151-92.1-175.298c-6.08-17.607-5.872-34.306-0.019-52.073c18.07-54.851,42.962-106.371,73.098-155.485
		c19.063-31.069,39.618-61.08,63.705-88.516c29.121-33.17,62.491-61.083,102.728-79.842c35.33-16.471,71.962-17.288,108.82-5.816
		c11.522,3.586,22.778,8.543,33.475,14.167c34.337,18.051,68.225,17.565,101.923-1.18c26.607-14.801,55.194-18.52,84.584-13.487
		c22.458,3.846,43.091,13.606,62.373,25.831c33.884,21.483,61.993,49.203,86.396,80.807c37.688,48.81,70.855,100.374,95.961,156.926
		c11.827,26.642,21.857,53.88,30.476,81.701c2.018,6.516,1.76,12.408,0.235,18.932c-8.315,35.573-20.815,69.561-36.595,102.491
		c-27.214,56.79-62.595,107.489-109.16,150.202c-38.19,35.031-82.665,59.287-131.149,76.374
		c-29.002,10.221-58.878,17.183-89.452,21.58C539.444,861.925,520.892,860.761,501.657,862.325z M847.566,503.295
		c-5.558-10.031-12.104-16.082-18.698-22.029c-43.224-38.984-87.286-76.969-134.323-111.346
		c-18.271-13.353-36.825-26.383-57.178-36.431c-28.165-13.903-58.735-17.335-89.486-18.445c-28.279-1.02-56.615-0.421-84.924-0.661
		c-19.578-0.166-38.463,3.743-57.237,8.84c-32.45,8.811-61.181,25.214-88.905,43.507c-52.194,34.439-97.343,77.449-143.563,119.126
		c-4.184,3.773-7.961,8.08-11.439,12.521c-2.23,2.848-1.734,6.638,1.454,8.361c25.133,13.582,45.342,33.745,68.056,50.546
		c35.96,26.6,74.07,49.055,117.373,61.737c90.328,26.454,181.636,27.861,273.213,8.771c41.203-8.589,80.421-23.587,116.854-45.539
		C776.917,559.265,810.627,530.396,847.566,503.295z"/>
	<path fill="#302420" d="M847.566,503.295c-36.939,27.101-70.649,55.97-108.803,78.959c-36.433,21.952-75.651,36.949-116.854,45.539
		c-91.578,19.091-182.885,17.683-273.213-8.771c-43.302-12.682-81.413-35.137-117.373-61.737
		c-22.714-16.801-42.923-36.964-68.056-50.546c-3.188-1.723-3.684-5.513-1.454-8.361c3.478-4.441,7.255-8.748,11.439-12.521
		c46.22-41.677,91.369-84.687,143.563-119.126c27.724-18.293,56.455-34.696,88.905-43.507c18.774-5.098,37.66-9.006,57.237-8.84
		c28.31,0.239,56.645-0.359,84.924,0.661c30.751,1.11,61.321,4.542,89.486,18.445c20.354,10.047,38.907,23.077,57.178,36.431
		c47.036,34.376,91.099,72.362,134.323,111.346C835.462,487.213,842.008,493.264,847.566,503.295z M513.714,401.474
		c45.174-1.233,90.633,3.048,135.525-4.749c8.075-1.403,18.011,4.164,24.138-5.654c-6.307-4.773-12.524-9.673-18.937-14.298
		c-26.919-19.414-57.024-29.818-90.16-31.152c-31.488-1.268-62.982-2.697-94.486-3.124c-17.757-0.241-35.295,2.651-52.642,7.061
		c-30.205,7.678-56.242,23.87-82.795,39.092c-1.167,0.669-2.419,2.421-2.412,3.662c0.017,2.978,2.592,3.64,4.997,3.741
		c16.141,0.676,32.382,0.372,48.403,2.115c17.719,1.928,35.406,3.243,53.202,3.29C463.601,401.524,488.658,401.474,513.714,401.474z
		"/>
	<path fill="#FFFFFF" d="M513.714,401.474c-25.056,0-50.112,0.049-75.168-0.017c-17.795-0.047-35.483-1.362-53.202-3.29
		c-16.021-1.743-32.262-1.44-48.403-2.115c-2.404-0.101-4.98-0.763-4.997-3.741c-0.007-1.241,1.245-2.993,2.412-3.662
		c26.553-15.222,52.59-31.414,82.795-39.092c17.347-4.41,34.885-7.302,52.642-7.061c31.504,0.427,62.998,1.856,94.486,3.124
		c33.136,1.334,63.24,11.738,90.16,31.152c6.414,4.626,12.63,9.525,18.937,14.298c-6.127,9.818-16.062,4.251-24.138,5.654
		C604.346,404.523,558.887,400.241,513.714,401.474z"/>
</g>
</svg>
