<?xml version="1.0" encoding="utf-8"?>
<!-- Generator: Adobe Illustrator 17.0.0, SVG Export Plug-In . SVG Version: 6.00 Build 0)  -->
<!DOCTYPE svg PUBLIC "-//W3C//DTD SVG 1.1//EN" "http://www.w3.org/Graphics/SVG/1.1/DTD/svg11.dtd">
<svg version="1.1" id="Layer_1" xmlns="http://www.w3.org/2000/svg" xmlns:xlink="http://www.w3.org/1999/xlink" x="0px" y="0px"
	 width="1000px" height="1000px" viewBox="0 0 1000 1000" enable-background="new 0 0 1000 1000" xml:space="preserve">
<g>
	<path fill="#302420" d="M510.725,876.655c-93.709-0.888-174.501-20.576-247.973-66.671
		c-43.646-27.382-80.859-61.656-111.969-102.683C100.741,641.305,66.22,567.698,43.093,488.467
		c-0.881-3.018-2.231-5.896-3.216-8.887c-7.924-24.051-8.203-47.866-0.821-72.427c29.641-98.622,75.947-188.361,142.084-267.401
		c25.659-30.664,55.309-57.182,91.212-75.881C327.636,35.076,384.428,32,442.602,53.981c14.827,5.602,29.551,11.549,44.018,18.017
		c13.162,5.885,25.925,6.062,38.952,0.115c10.828-4.943,21.594-10.05,32.599-14.567c23.618-9.692,47.817-16.573,73.772-16.332
		c31.565,0.293,61.302,7.763,89.271,21.891c20.634,10.423,39.488,23.545,56.753,39.195c33.882,30.713,62.476,65.776,86.627,104.354
		c35.915,57.371,66.625,117.403,88.304,181.74c4.548,13.497,8.978,27.068,12.598,40.833c2.651,10.081,2.396,20.666,0.207,30.826
		c-17.552,81.473-46.348,158.34-93.562,227.67c-13.5,19.824-29.646,37.368-45.763,54.951
		c-43.883,47.873-97.109,81.568-158.088,103.259c-29.151,10.369-59.034,17.582-89.541,23.267
		C553.538,873.898,528.146,873.967,510.725,876.655z M499.054,847.211c22.283-0.633,44.74,0.94,66.773-3.264
		c33.611-6.413,66.93-13.913,99.093-26.15c70.334-26.76,128.243-69.596,173.278-130.121
		c48.374-65.013,78.407-138.013,97.275-216.264c4.85-20.116,3.687-39.057-2.666-58.649
		c-28.281-87.217-69.584-167.612-125.823-239.999c-24.043-30.947-52.193-58.014-86.162-78.393
		c-45.876-27.522-93.845-33.5-144.182-13.913c-11.116,4.326-21.882,9.565-32.746,14.52c-19.594,8.935-39.547,10.577-60.582,5.21
		c-13.312-3.396-25.362-9.406-37.724-14.82c-23.542-10.311-48.041-17.961-73.618-18.557c-34.911-0.813-67.539,8.76-97.31,27.639
		c-33.395,21.177-60.918,48.676-85.628,79.106c-39.462,48.596-69.047,103.217-94.496,160.04
		c-14.633,32.673-26.589,66.48-33.397,101.878c-1.063,5.528-2.467,10.666-0.801,16.355c4.244,14.491,7.848,29.172,12.219,43.622
		c13.894,45.934,34.77,88.793,57.326,130.995c28.198,52.756,65.954,97.499,111.525,135.825
		c15.241,12.818,31.433,24.438,48.99,34.056C355.416,831.943,424.97,848.813,499.054,847.211z"/>
	<path fill="#DF4036" d="M499.054,847.211c-74.085,1.601-143.638-15.268-208.655-50.883c-17.557-9.618-33.749-21.239-48.99-34.056
		c-45.571-38.326-83.327-83.069-111.525-135.825c-22.557-42.203-43.432-85.061-57.326-130.995
		c-4.371-14.45-7.975-29.131-12.219-43.622c-1.666-5.689-0.262-10.827,0.801-16.355c6.807-35.398,18.764-69.206,33.397-101.878
		c25.449-56.823,55.033-111.444,94.496-160.04c24.711-30.43,52.233-57.928,85.628-79.106c29.771-18.879,62.398-28.452,97.31-27.639
		c25.577,0.596,50.076,8.246,73.618,18.557c12.363,5.415,24.413,11.424,37.724,14.82c21.035,5.367,40.988,3.725,60.582-5.21
		c10.865-4.955,21.63-10.195,32.746-14.52c50.337-19.587,98.306-13.608,144.182,13.913c33.969,20.379,62.119,47.446,86.162,78.393
		c56.239,72.387,97.542,152.781,125.823,239.999c6.353,19.592,7.516,38.534,2.666,58.649
		c-18.869,78.25-48.901,151.251-97.275,216.264c-45.035,60.525-102.944,103.362-173.278,130.121
		c-32.163,12.237-65.482,19.737-99.093,26.15C543.794,848.151,521.338,846.578,499.054,847.211z M508.01,686.434
		c12.939,0.877,25.445-2.235,38.122-3.316c63.142-5.383,118.123-30.443,167.483-69.206c31.435-24.687,59.441-53.007,86.482-82.255
		c25.388-27.461,48.294-57.213,76.345-82.222c4.686-4.178,4.378-6.61-0.759-11.945c-9.395-9.755-19.008-19.3-28.424-29.035
		c-32.121-33.211-63.685-66.992-99.634-96.242c-29.063-23.648-58.756-46.221-92.271-63.574
		c-30.374-15.727-61.463-20.586-94.595-11.501c-33.812,9.271-67.446,9.139-101.177-1.112c-38.364-11.66-75.292-6.366-111.5,9.917
		c-33.054,14.864-61.783,36.165-89.854,58.395c-48.286,38.239-88.905,84.341-130.435,129.457c-5.324,5.784-5.318,8.977,0.324,14.158
		c20.592,18.907,39.037,39.694,56.751,61.315c27.275,33.29,57.209,63.889,90.023,92.08
		C342.266,659.232,421.803,681.51,508.01,686.434z"/>
	<path fill="#302420" d="M508.01,686.434c-86.207-4.925-165.744-27.202-233.119-85.084c-32.814-28.191-62.749-58.79-90.023-92.08
		c-17.714-21.621-36.159-42.408-56.751-61.315c-5.642-5.181-5.648-8.374-0.324-14.158c41.53-45.117,82.149-91.218,130.435-129.457
		c28.071-22.23,56.801-43.531,89.854-58.395c36.209-16.283,73.136-21.577,111.5-9.917c33.73,10.252,67.365,10.383,101.177,1.112
		c33.132-9.085,64.221-4.226,94.595,11.501c33.515,17.353,63.208,39.925,92.271,63.574c35.949,29.25,67.513,63.031,99.634,96.242
		c9.416,9.735,19.029,19.279,28.424,29.035c5.137,5.334,5.446,7.767,0.759,11.945c-28.051,25.009-50.957,54.761-76.345,82.222
		c-27.041,29.248-55.046,57.569-86.482,82.255c-49.36,38.763-104.341,63.822-167.483,69.206
		C533.455,684.2,520.949,687.312,508.01,686.434z M304.67,584.16c2.211,8.083,6.708,10.194,10.518,12.927
		c73.156,52.506,156.044,64.86,242.889,55.839c49.057-5.096,93.189-25.602,132.794-55.227c3.059-2.288,6.831-4.175,5.951-9.914
		c-19.255-9.259-40.44-12.401-61.742-14.649c-39.869-4.207-79.406-1.741-118.467,7.357c-4.719,1.099-9.089,2-13.974,0.649
		c-19.996-5.529-40.694-6.651-61.096-9.696c-40.072-5.981-79.246-1.969-118.269,6.857
		C317.198,579.677,311.342,582.031,304.67,584.16z M515.587,329.765c27.234-0.788,59.125-0.955,90.914-2.851
		c30.159-1.799,60.212-5.391,90.305-8.26c2.171-0.207,4.83,0.291,5.822-2.753c0.891-2.734-0.457-4.458-2.443-5.888
		c-21.349-15.378-43.173-30.191-67.216-40.903c-18.316-8.161-37.433-12.647-58.03-6.04c-13.553,4.347-27.976,5.966-41.992,8.891
		c-15.026,3.136-30.007,3.289-45.048-0.006c-16.319-3.574-32.653-7.101-49.046-10.315c-19.843-3.89-39.581-3.64-58.958,2.823
		c-28.956,9.658-54.707,25.375-79.701,42.465c-0.96,0.656-1.125,2.723-1.325,4.179c-0.257,1.867,0.952,2.432,2.966,2.743
		c30.607,4.725,61.182,9.022,92.139,11.667C432.995,328.851,471.959,328.518,515.587,329.765z"/>
	<path fill="#DF4036" d="M304.67,584.16c6.672-2.129,12.528-4.482,18.605-5.857c39.023-8.826,78.196-12.838,118.269-6.857
		c20.402,3.045,41.1,4.167,61.096,9.696c4.884,1.351,9.254,0.45,13.974-0.649c39.06-9.098,78.598-11.564,118.467-7.357
		c21.302,2.248,42.487,5.39,61.742,14.649c0.88,5.739-2.892,7.626-5.951,9.914c-39.605,29.625-83.736,50.131-132.794,55.227
		c-86.846,9.021-169.733-3.333-242.889-55.839C311.378,594.353,306.881,592.242,304.67,584.16z"/>
	<path fill="#FFFFFF" d="M515.587,329.765c-43.628-1.247-82.593-0.914-121.613-4.248c-30.957-2.645-61.532-6.942-92.139-11.667
		c-2.014-0.311-3.223-0.876-2.966-2.743c0.2-1.456,0.365-3.522,1.325-4.179c24.994-17.09,50.745-32.808,79.701-42.465
		c19.377-6.463,39.115-6.713,58.958-2.823c16.393,3.214,32.727,6.741,49.046,10.315c15.042,3.294,30.022,3.142,45.048,0.006
		c14.016-2.925,28.439-4.544,41.992-8.891c20.597-6.607,39.714-2.121,58.03,6.04c24.043,10.712,45.867,25.526,67.216,40.903
		c1.986,1.43,3.333,3.155,2.443,5.888c-0.992,3.044-3.651,2.546-5.822,2.753c-30.093,2.87-60.146,6.462-90.305,8.26
		C574.713,328.811,542.821,328.977,515.587,329.765z"/>
</g>
</svg>
