<?xml version="1.0" encoding="utf-8"?>
<!-- Generator: Adobe Illustrator 17.0.0, SVG Export Plug-In . SVG Version: 6.00 Build 0)  -->
<!DOCTYPE svg PUBLIC "-//W3C//DTD SVG 1.1//EN" "http://www.w3.org/Graphics/SVG/1.1/DTD/svg11.dtd">
<svg version="1.1" id="Layer_1" xmlns="http://www.w3.org/2000/svg" xmlns:xlink="http://www.w3.org/1999/xlink" x="0px" y="0px"
	 width="1000px" height="1000px" viewBox="0 0 1000 1000" enable-background="new 0 0 1000 1000" xml:space="preserve">
<g>
	<path fill="#302420" d="M383.634,98.639c25.247-1.943,47.36,2.828,68.303,13.487c8.329,4.239,16.795,8.215,25.27,12.158
		c16.309,7.588,32.206,7.825,48.857-0.306c14.433-7.048,29.124-13.679,44.623-18.582c38.208-12.086,75.333-9.385,111.857,6.027
		c46.491,19.618,84.359,50.977,116.291,89.198c69.453,83.133,118.552,177.214,148.573,281.373
		c3.687,12.791,4.221,24.524,1.251,37.387c-17.04,73.806-48.348,140.859-93.959,201.254
		c-32.539,43.087-70.708,80.348-115.694,110.39c-36.938,24.668-77.118,42.218-119.772,54.425
		c-32.852,9.402-66.675,12.33-100.414,15.906c-5.057,0.536-10.208,0.423-15.307,0.285c-67.738-1.835-132.928-14.914-194.364-44.353
		c-70.618-33.838-127.235-83.895-172.021-147.883c-38.869-55.536-67.027-116.037-84.045-181.529
		c-4.694-18.066-3.902-36.553,1.827-55.201c28.231-91.889,70.251-176.722,130.422-251.724
		c33.655-41.95,72.206-79.289,121.854-102.871C331.954,106.317,357.762,98.699,383.634,98.639z M505.568,871.417
		c18.698-0.953,37.633-0.341,56.055-3.125c90.628-13.695,167.746-54.817,231.393-120.021
		c57.414-58.819,96.432-129.026,121.355-207.328c7.798-24.499,7.427-47.571-0.686-72.192
		c-16.067-48.758-38.054-94.683-62.066-139.763c-31.94-59.966-73.908-112.112-125.076-156.741
		c-9.563-8.341-19.992-16.039-31.004-22.309c-44.078-25.098-89.556-30.26-136.666-8.025c-11.504,5.43-23.571,9.691-35.466,14.263
		c-14.886,5.722-29.702,5.027-44.912,0.364c-15.563-4.771-30.127-11.733-44.734-18.578c-14.973-7.016-30.369-10.497-46.899-9.941
		c-34.2,1.151-64.661,13.008-92.945,31.506c-45.647,29.853-81.065,69.543-111.654,114.234
		c-41.197,60.189-70.46,125.947-94.512,194.478c-8.928,25.437-8.913,49.662-0.283,74.801
		c21.992,64.059,51.764,123.683,94.614,176.729c41.525,51.405,92.221,90.539,152.231,117.25
		C388.622,861.192,446.009,872.024,505.568,871.417z"/>
	<path fill="#DF4036" d="M505.568,871.417c-59.559,0.607-116.945-10.224-171.254-34.397
		c-60.009-26.711-110.706-65.845-152.231-117.25c-42.85-53.046-72.622-112.671-94.614-176.729
		c-8.63-25.138-8.645-49.363,0.283-74.801c24.052-68.531,53.315-134.289,94.512-194.478
		c30.589-44.691,66.007-84.381,111.654-114.234c28.284-18.498,58.745-30.355,92.945-31.506c16.53-0.556,31.926,2.925,46.899,9.941
		c14.607,6.845,29.171,13.807,44.734,18.578c15.21,4.663,30.026,5.357,44.912-0.364c11.895-4.572,23.962-8.833,35.466-14.263
		c47.11-22.235,92.589-17.072,136.666,8.025c11.012,6.27,21.441,13.967,31.004,22.309c51.168,44.629,93.135,96.775,125.076,156.741
		c24.011,45.08,45.999,91.005,62.066,139.763c8.113,24.621,8.483,47.692,0.686,72.192c-24.923,78.302-63.941,148.51-121.355,207.328
		c-63.648,65.204-140.765,106.326-231.393,120.021C543.201,871.075,524.266,870.463,505.568,871.417z M820.52,488.939
		c-39.439-20.722-69.098-46.269-100.82-68.934c-33.234-23.746-67.054-46.614-103.835-64.688
		c-18.548-9.115-37.447-13.81-58.845-12.778c-39.85,1.921-79.934,4.229-119.67-2.878c-9.567-1.711-18.765,0.505-27.35,4.373
		c-24.795,11.172-49.472,22.477-72.766,36.798c-47.275,29.065-87.587,67.361-132.906,98.984c-6.601,4.606-6.337,9.283,0.61,13.904
		c26.259,17.468,49.828,38.267,73.855,58.553c36.049,30.437,76.059,54.251,120.889,69.525
		c39.347,13.406,80.122,14.905,121.039,13.292c70.115-2.765,132.915-25.956,188.294-69.263
		C743.089,539.178,775.281,509.87,820.52,488.939z"/>
	<path fill="#302420" d="M820.52,488.939c-45.24,20.931-77.431,50.24-111.505,76.886c-55.379,43.308-118.179,66.498-188.294,69.263
		c-40.917,1.614-81.692,0.114-121.039-13.292c-44.83-15.274-84.839-39.088-120.889-69.525
		c-24.027-20.286-47.596-41.085-73.855-58.553c-6.947-4.621-7.211-9.298-0.61-13.904c45.319-31.622,85.631-69.919,132.906-98.984
		c23.294-14.321,47.972-25.626,72.766-36.798c8.585-3.868,17.783-6.084,27.35-4.373c39.736,7.107,79.82,4.799,119.67,2.878
		c21.398-1.031,40.297,3.663,58.845,12.778c36.782,18.074,70.601,40.943,103.835,64.688
		C751.422,442.669,781.081,468.217,820.52,488.939z"/>
</g>
</svg>
