<?xml version="1.0" encoding="utf-8"?>
<!-- Generator: Adobe Illustrator 17.0.0, SVG Export Plug-In . SVG Version: 6.00 Build 0)  -->
<!DOCTYPE svg PUBLIC "-//W3C//DTD SVG 1.1//EN" "http://www.w3.org/Graphics/SVG/1.1/DTD/svg11.dtd">
<svg version="1.1" id="Layer_1" xmlns="http://www.w3.org/2000/svg" xmlns:xlink="http://www.w3.org/1999/xlink" x="0px" y="0px"
	 width="1000px" height="1000px" viewBox="0 0 1000 1000" enable-background="new 0 0 1000 1000" xml:space="preserve">
<g>
	<path fill="#302420" d="M492.699,821.704c-23.938,0.818-54.383-0.48-84.247-5.603c-71.496-12.268-139.581-34.237-198.824-77.932
		c-51.322-37.852-93.127-84.373-124.807-139.854c-9.393-16.45-18.237-33.145-26.489-50.231c-10.026-20.76-9.201-40.384-0.538-61.362
		c16.552-40.084,37.657-77.619,61.657-113.511c31.784-47.53,69.592-90.005,112.583-127.667
		c26.917-23.581,56.735-43.013,90.289-55.992c18.379-7.109,37.582-10.953,57.346-12.136c21.748-1.301,41.904,5.061,61.922,12.106
		c10.672,3.755,21.09,8.231,31.623,12.38c16.924,6.666,33.854,6.828,50.794,0.054c7.729-3.09,15.547-5.972,23.181-9.28
		c20.461-8.867,42.265-12.056,64.103-13.566c21.297-1.473,42.328,3.079,62.305,10.239c30.877,11.066,58.509,27.945,84.058,48.72
		c51.875,42.182,91.402,94.811,128.063,149.799c20.167,30.25,36.981,62.533,54.143,94.621c12.713,23.771,11.829,46.153,0.538,68.994
		c-7.375,14.918-15.691,29.437-24.504,43.562c-17.248,27.642-34.987,54.896-56.784,79.417
		c-54.207,60.983-119.739,104.105-198.442,125.964C601.509,816.857,567.041,821.789,492.699,821.704z M505.868,795.781
		c41.096,1.575,83.737-4.307,126.113-13.725c68.363-15.194,127.265-47.779,178.731-94.745
		c32.262-29.441,57.974-64.126,80.486-101.16c11-18.096,19.422-37.748,29.248-56.572c4.628-8.866,4.678-17.345-0.375-25.959
		c-1.532-2.613-2.774-5.401-4.074-8.144c-34.367-72.551-79.849-137.753-132.992-197.53c-24.755-27.846-53.779-51.234-86.54-69.597
		c-45.879-25.716-93.28-29.135-142.311-10.157c-8.485,3.284-16.887,6.799-25.443,9.887c-21.521,7.766-43.016,8.299-64.432-0.615
		c-8.394-3.494-16.784-7.054-25.372-10.015c-12.826-4.422-25.098-10.068-39.125-11.313c-33.691-2.991-64.886,4.311-94.108,20.485
		c-27.996,15.495-53.466,34.626-76.556,56.773c-47.453,45.515-85.932,98.031-118.612,154.818
		c-11.706,20.34-22.029,41.494-30.829,63.386c-4.913,12.223-4.77,23.075,1.139,34.882c15.991,31.953,33.565,62.869,54.984,91.559
		c52.965,70.947,121.37,120.631,205.991,146.432C394.248,790.462,448.485,796.966,505.868,795.781z"/>
	<path fill="#DF4036" d="M505.868,795.781c-57.383,1.185-111.62-5.319-164.075-21.313
		c-84.621-25.801-153.026-75.484-205.991-146.432c-21.419-28.691-38.992-59.606-54.984-91.559
		c-5.909-11.807-6.052-22.659-1.139-34.882c8.799-21.891,19.123-43.046,30.829-63.386c32.68-56.786,71.16-109.302,118.612-154.818
		c23.09-22.147,48.56-41.277,76.556-56.773c29.222-16.174,60.416-23.476,94.108-20.485c14.027,1.245,26.299,6.891,39.125,11.313
		c8.588,2.961,16.977,6.521,25.372,10.015c21.415,8.914,42.91,8.381,64.432,0.615c8.556-3.087,16.957-6.602,25.443-9.887
		c49.031-18.978,96.432-15.559,142.311,10.157c32.76,18.363,61.784,41.751,86.54,69.597c53.143,59.777,98.625,124.98,132.992,197.53
		c1.299,2.743,2.541,5.532,4.074,8.144c5.052,8.615,5.002,17.093,0.375,25.959c-9.825,18.824-18.248,38.476-29.248,56.572
		c-22.512,37.035-48.224,71.719-80.486,101.16c-51.466,46.966-110.368,79.551-178.731,94.745
		C589.605,791.474,546.964,797.356,505.868,795.781z M410.634,394.625c-12.005,0.061-21.697,0.679-31.536,2.48
		c-42.184,7.718-81.459,23.63-120.63,40.329c-44.585,19.007-87.038,43.329-134.786,54.601c-7.095,1.675-10.023,7.038-8.889,13.645
		c1.2,6.985,5.498,10.805,12.584,10.431c10.686-0.566,20.928-3.429,30.934-7.058c27.124-9.836,54.051-20.174,80.002-32.854
		c31.414-15.351,63.895-28.029,96.888-39.527c38.783-13.515,78.167-16.434,118.731-9.718c33.844,5.603,67.888,5.285,101.94-0.081
		c15.668-2.469,31.323-7.14,47.365-5.238c24.097,2.856,47.813,7.414,70.741,16.048c32.787,12.346,63.507,28.987,95.02,43.994
		c28.819,13.724,58.241,25.896,89.416,33.303c12.702,3.018,16.553-0.523,15.948-13.669c-0.364-7.893-6.185-9.859-11.947-11.749
		c-37.597-12.329-73.479-28.715-109.372-45.204c-27.553-12.657-54.393-26.951-83.462-36.286
		c-27.656-8.881-55.516-15.876-84.803-13.361c-15.094,1.296-30.18,3.3-45.089,5.985c-26.499,4.771-52.726,4.013-79.299,0.049
		C443.205,398.181,426.199,393.046,410.634,394.625z"/>
	<path fill="#302420" d="M410.634,394.625c15.565-1.579,32.571,3.556,49.756,6.119c26.573,3.964,52.8,4.722,79.299-0.049
		c14.909-2.685,29.996-4.689,45.089-5.985c29.286-2.515,57.147,4.481,84.803,13.361c29.07,9.335,55.909,23.629,83.462,36.286
		c35.893,16.488,71.775,32.874,109.372,45.204c5.762,1.89,11.583,3.856,11.947,11.749c0.606,13.145-3.246,16.687-15.948,13.669
		c-31.174-7.407-60.597-19.579-89.416-33.303c-31.513-15.007-62.232-31.648-95.02-43.994c-22.928-8.633-46.644-13.191-70.741-16.048
		c-16.042-1.901-31.697,2.769-47.365,5.238c-34.052,5.366-68.096,5.684-101.94,0.081c-40.564-6.716-79.948-3.797-118.731,9.718
		c-32.992,11.497-65.473,24.176-96.888,39.527c-25.951,12.68-52.878,23.019-80.002,32.854c-10.006,3.628-20.248,6.492-30.934,7.058
		c-7.086,0.375-11.384-3.445-12.584-10.431c-1.135-6.607,1.794-11.971,8.889-13.645c47.748-11.272,90.201-35.594,134.786-54.601
		c39.171-16.699,78.446-32.611,120.63-40.329C388.937,395.304,398.629,394.686,410.634,394.625z"/>
</g>
</svg>
