<?xml version="1.0" encoding="utf-8"?>
<!-- Generator: Adobe Illustrator 17.0.0, SVG Export Plug-In . SVG Version: 6.00 Build 0)  -->
<!DOCTYPE svg PUBLIC "-//W3C//DTD SVG 1.1//EN" "http://www.w3.org/Graphics/SVG/1.1/DTD/svg11.dtd">
<svg version="1.1" id="Layer_1" xmlns="http://www.w3.org/2000/svg" xmlns:xlink="http://www.w3.org/1999/xlink" x="0px" y="0px"
	 width="1000px" height="1000px" viewBox="0 0 1000 1000" enable-background="new 0 0 1000 1000" xml:space="preserve">
<g>
	<path fill="#302420" d="M499.152,863.366c-91.227-3.668-178.006-22.609-255.435-74.228
		C179.882,746.581,129.725,691.649,92.9,624.457c-19.971-36.44-36.304-74.263-46.243-114.865
		c-4.683-19.131-3.835-37.375,2.803-55.327c15.222-41.161,33.87-80.688,58.045-117.48c27.208-41.41,57.619-80.123,93.75-114.232
		c33.353-31.486,69.967-57.739,113.201-74.177c38.172-14.514,76.444-14.303,114.846-1.731c13.334,4.365,26.556,9.313,39.32,15.117
		c19.08,8.676,37.67,8.08,56.637,0.079c10.785-4.549,21.739-8.743,32.784-12.621c50.483-17.724,99.809-14.39,148.31,7.852
		c40.356,18.507,75.887,43.716,107.234,74.992c62.65,62.509,106.334,136.562,136.254,219.603
		c8.761,24.317,8.925,46.921,1.502,70.867c-16.613,53.596-41.737,102.957-74.275,148.435c-13.646,19.073-28.371,37.656-44.6,54.546
		c-50.185,52.224-109.523,90.562-178.819,112.643c-32.774,10.443-66.061,18.273-100.596,21.034
		C535.118,860.626,517.387,864.619,499.152,863.366z M504.15,835.419c16.451-0.659,32.926-0.967,49.342-2.122
		c8.538-0.601,16.938-2.93,25.454-4.083c49.586-6.717,95.422-24.252,138.856-48.442c42.869-23.876,79.867-54.753,111.837-92.184
		c46.055-53.922,78.562-114.759,98.746-182.584c3.571-11.999,3.08-22.769-0.71-34.36c-6.339-19.388-13.597-38.347-21.817-57.021
		c-30.099-68.384-71.871-128.38-127.569-178.361c-28.798-25.842-60.452-47.348-97.243-60.396
		c-40.623-14.407-81.151-15.827-121.466,1.326c-5.765,2.453-11.754,4.406-17.429,7.042c-27.847,12.933-56.016,13.04-84.497,2.429
		c-13.209-4.922-26.276-10.241-39.573-14.907c-29.892-10.488-59.692-10.515-89.632,0.544c-22.944,8.475-44.546,19.278-64.234,33.766
		c-32.949,24.247-63.727,50.86-88.75,83.517c-10.954,14.296-22,28.562-32.146,43.428c-27.91,40.889-51.759,83.928-68.85,130.616
		c-5.357,14.635-7.205,28.455-1.313,43.269c3.449,8.671,4.907,18.118,8.088,26.916c28.771,79.585,72.724,148.862,137.973,203.868
		c41.95,35.365,89.19,60.568,141.395,77.107C407.38,829.599,455.22,835.935,504.15,835.419z"/>
	<path fill="#DF4036" d="M504.15,835.419c-48.93,0.516-96.77-5.819-143.536-20.635c-52.204-16.538-99.445-41.742-141.395-77.107
		c-65.249-55.006-109.203-124.283-137.973-203.868c-3.181-8.799-4.638-18.245-8.088-26.916c-5.892-14.814-4.044-28.634,1.313-43.269
		c17.09-46.688,40.94-89.727,68.85-130.616c10.146-14.865,21.193-29.132,32.146-43.428c25.023-32.657,55.801-59.27,88.75-83.517
		c19.688-14.488,41.29-25.291,64.234-33.766c29.94-11.059,59.74-11.032,89.632-0.544c13.297,4.666,26.364,9.985,39.573,14.907
		c28.481,10.611,56.65,10.504,84.497-2.429c5.675-2.636,11.664-4.589,17.429-7.042c40.315-17.152,80.843-15.733,121.466-1.326
		c36.791,13.049,68.445,34.554,97.243,60.396c55.698,49.981,97.47,109.978,127.569,178.361c8.22,18.674,15.478,37.633,21.817,57.021
		c3.79,11.591,4.281,22.361,0.71,34.36c-20.184,67.825-52.691,128.662-98.746,182.584c-31.971,37.431-68.968,68.309-111.837,92.184
		c-43.434,24.19-89.27,41.725-138.856,48.442c-8.516,1.154-16.917,3.482-25.454,4.083C537.076,834.452,520.6,834.76,504.15,835.419z
		 M499.954,641.26c18.8-0.743,37.769-0.153,56.366-2.503c39.761-5.025,78.183-15.71,115.382-30.83
		c42.24-17.169,83.236-36.486,119.637-64.502c16.145-12.426,32.504-24.615,49.261-36.195c13.797-9.534,15.189-10.701,1.181-24.044
		c-3.404-3.242-6.926-6.387-10.611-9.301c-15.364-12.153-30.802-24.212-46.23-36.284c-32.243-25.229-66.458-47.299-104.298-63.201
		c-26.915-11.31-54.69-18.305-84.441-16.982c-18.184,0.808-35.581,5.296-53.372,7.846c-17.805,2.552-35.675,6.976-53.597,5.355
		c-20.204-1.827-40.242-5.949-60.214-9.794c-24.934-4.801-49.683-4.927-74.606-0.021c-39.355,7.746-73.609,26.445-105.62,49.509
		c-29.885,21.532-59.063,44.047-88.461,66.249c-4.362,3.294-8.401,7.073-12.278,10.941c-5.409,5.396-5.129,9.324,1.605,12.944
		c21.535,11.577,40.696,26.545,59.77,41.574c31.653,24.941,66.712,43.965,103.426,60.014c30.914,13.513,62.574,25.149,95.936,31.163
		C438.904,638.628,469.235,642.076,499.954,641.26z"/>
	<path fill="#302420" d="M499.954,641.26c-30.719,0.816-61.05-2.632-91.163-8.061c-33.362-6.014-65.022-17.649-95.936-31.163
		c-36.715-16.049-71.773-35.074-103.426-60.014c-19.074-15.029-38.235-29.997-59.77-41.574c-6.734-3.62-7.014-7.548-1.605-12.944
		c3.877-3.867,7.915-7.646,12.278-10.941c29.398-22.202,58.576-44.717,88.461-66.249c32.012-23.064,66.266-41.763,105.62-49.509
		c24.923-4.906,49.671-4.781,74.606,0.021c19.971,3.845,40.009,7.967,60.214,9.794c17.922,1.621,35.792-2.803,53.597-5.355
		c17.791-2.55,35.188-7.038,53.372-7.846c29.751-1.323,57.525,5.671,84.441,16.982c37.84,15.901,72.054,37.971,104.298,63.201
		c15.428,12.072,30.866,24.132,46.23,36.284c3.685,2.915,7.208,6.059,10.611,9.301c14.008,13.342,12.616,14.51-1.181,24.044
		c-16.757,11.58-33.116,23.768-49.261,36.195c-36.401,28.016-77.397,47.334-119.637,64.502
		c-37.199,15.12-75.62,25.805-115.382,30.83C537.723,641.107,518.754,640.517,499.954,641.26z M740.6,441.086
		c-15.546-12.163-32.088-22.666-49.752-30.869c-37.958-17.627-76.791-31.875-119.851-20.638c-3.78,0.986-7.568,1.944-11.375,2.821
		c-42.641,9.826-85.132,10.642-127.703-0.957c-26.062-7.1-52.298-8.632-78.723-0.413c-31.628,9.837-61.37,23.238-88.16,42.914
		c-2.736,2.009-4.63,3.829-3.652,7.218c79.112,17.398,159.313,24.822,240.019,25.199C590.621,466.778,719.723,455.458,740.6,441.086
		z M316.112,571.53c11.078,8.368,24.324,10.867,36.575,15.265c42.962,15.424,87.397,24.144,133.076,24.979
		c60.836,1.111,119.816-9.238,176.706-31.015c6.563-2.512,13.081-5.161,19.496-8.026c1.036-0.463,1.991-2.424,1.931-3.641
		c-0.057-1.143-1.301-2.549-2.4-3.232c-1.268-0.787-2.958-0.882-4.452-1.323c-64.564-19.059-131.093-21.615-197.568-20.994
		c-45.331,0.424-90.315,8.055-134.734,17.521C335.068,563.127,324.401,563.727,316.112,571.53z"/>
	<path fill="#FFFFFF" d="M740.6,441.086c-20.877,14.371-149.979,25.692-239.196,25.275c-80.705-0.377-160.907-7.801-240.019-25.199
		c-0.978-3.389,0.916-5.209,3.652-7.218c26.79-19.676,56.532-33.077,88.16-42.914c26.425-8.218,52.66-6.687,78.723,0.413
		c42.571,11.598,85.062,10.782,127.703,0.957c3.806-0.877,7.595-1.835,11.375-2.821c43.06-11.237,81.893,3.01,119.851,20.638
		C708.512,418.42,725.054,428.923,740.6,441.086z"/>
	<path fill="#DF4036" d="M316.112,571.53c8.289-7.803,18.956-8.403,28.629-10.464c44.419-9.466,89.403-17.097,134.734-17.521
		c66.474-0.621,133.004,1.935,197.568,20.994c1.494,0.441,3.183,0.535,4.452,1.323c1.099,0.682,2.343,2.089,2.4,3.232
		c0.061,1.216-0.895,3.178-1.931,3.641c-6.414,2.865-12.932,5.514-19.496,8.026c-56.89,21.776-115.87,32.125-176.706,31.015
		c-45.679-0.834-90.113-9.555-133.076-24.979C340.436,582.397,327.19,579.898,316.112,571.53z"/>
</g>
</svg>
