<?xml version="1.0" encoding="utf-8"?>
<!-- Generator: Adobe Illustrator 17.0.0, SVG Export Plug-In . SVG Version: 6.00 Build 0)  -->
<!DOCTYPE svg PUBLIC "-//W3C//DTD SVG 1.1//EN" "http://www.w3.org/Graphics/SVG/1.1/DTD/svg11.dtd">
<svg version="1.1" id="Layer_1" xmlns="http://www.w3.org/2000/svg" xmlns:xlink="http://www.w3.org/1999/xlink" x="0px" y="0px"
	 width="1000px" height="1000px" viewBox="0 0 1000 1000" enable-background="new 0 0 1000 1000" xml:space="preserve">
<g>
	<path fill="#302420" d="M493.505,868.591c-47.549,0.708-101.582-9.803-153.818-28.408c-45.674-16.268-87.329-40.518-124.669-71.624
		c-15.166-12.633-31.184-24.294-44.483-39.164c-47.713-53.346-89.008-110.806-114.668-178.256
		c-4.745-12.472-7.803-25.592-11.507-38.451c-1.588-5.511-0.012-10.683,1.309-16.188c11.359-47.31,32.472-90.349,56.69-132.116
		c21.06-36.32,43.686-71.667,71.21-103.383c35.821-41.277,73.472-80.547,123.183-106.155c25.073-12.916,51.234-20.953,78.993-22.448
		c20.553-1.107,40.775,3.353,60.172,10.941c16.108,6.301,31.522,14.213,48.491,18.606c9.745,2.523,18.58,2.846,27.763-0.56
		c16.981-6.297,33.855-12.897,50.938-18.903c19.419-6.827,39.208-12.822,60.005-12.587c38.973,0.44,74.648,12.334,106.458,34.539
		c30.565,21.336,57.578,46.538,82.081,74.951c55.282,64.106,97.074,136.109,129.727,213.758
		c5.174,12.305,9.048,25.186,13.032,37.954c2.874,9.213,2.316,18.582-0.029,28.003c-4.78,19.203-11.535,37.753-19.759,55.629
		c-33.524,72.875-80.423,136.136-141.135,188.435c-57.202,49.276-123.39,81.758-197.499,96.932
		C565.016,866.437,533.466,869.092,493.505,868.591z M503.637,840.626c13.454,0,26.927,0.442,40.354-0.159
		c8.642-0.386,17.21-2.345,25.821-3.529c52.424-7.209,101.306-24.767,146.507-51.966c70.6-42.483,125.81-100.483,167.905-170.988
		c17.881-29.949,32.444-61.527,41.768-95.363c2.609-9.469,3.539-18.307-0.31-27.742c-5.667-13.891-9.879-28.39-15.784-42.169
		c-22.198-51.792-49.967-100.466-82.511-146.49c-30.411-43.008-65.886-80.83-109.277-111.066
		c-48.51-33.802-99.965-41.081-155.101-18.536c-7.316,2.991-14.82,5.576-21.952,8.952c-26.657,12.616-53.488,12.149-80.614,1.781
		c-11.815-4.516-23.815-8.574-35.504-13.392c-35.179-14.499-69.51-10.987-103.385,4.288
		c-43.481,19.605-77.584,51.623-109.774,85.454c-17.905,18.818-33.419,40.096-48.623,61.262
		c-34.274,47.714-62.463,98.853-84.24,153.547c-9.04,22.705-8.639,44.38,1.07,66.662c33.986,77.997,80.524,147,145.537,202.529
		c32.684,27.916,69.033,50.673,109.098,66.285C388.811,831.103,444.969,843.429,503.637,840.626z"/>
	<path fill="#DF4036" d="M503.637,840.626c-58.669,2.802-114.826-9.524-169.015-30.64c-40.065-15.612-76.414-38.369-109.098-66.285
		c-65.013-55.529-111.551-124.533-145.537-202.529c-9.709-22.282-10.11-43.957-1.07-66.662
		c21.777-54.694,49.966-105.833,84.24-153.547c15.204-21.166,30.718-42.444,48.623-61.262
		c32.19-33.832,66.293-65.849,109.774-85.454c33.876-15.274,68.206-18.787,103.385-4.288c11.689,4.818,23.688,8.876,35.504,13.392
		c27.126,10.367,53.956,10.834,80.614-1.781c7.132-3.375,14.637-5.96,21.952-8.952c55.136-22.546,106.591-15.267,155.101,18.536
		c43.392,30.236,78.867,68.058,109.277,111.066c32.544,46.025,60.313,94.699,82.511,146.49
		c5.905,13.779,10.117,28.277,15.784,42.169c3.849,9.436,2.919,18.273,0.31,27.742c-9.324,33.836-23.887,65.414-41.768,95.363
		C842.129,684.49,786.92,742.49,716.319,784.973c-45.201,27.199-94.083,44.756-146.507,51.966
		c-8.611,1.184-17.179,3.142-25.821,3.529C530.564,841.068,517.091,840.626,503.637,840.626z M497.52,659.604
		c16.172,0.075,68.621-6.566,89.119-11.591c53.527-13.122,103.139-35.385,149.754-64.435
		c42.985-26.787,84.382-56.127,129.135-80.076c3.399-1.819,6.38-4.554,9.249-7.196c3.077-2.835,2.432-7.778-1.113-10.071
		c-1.98-1.281-4.064-2.443-6.211-3.417c-42.794-19.4-81.23-45.778-119.234-73.089c-30.286-21.765-63.016-39.445-98.269-52.197
		c-28.415-10.279-56.587-12.359-85.559-1.511c-14.738,5.518-30.384,8.63-45.65,12.717c-12.49,3.344-24.986,3.51-37.501-0.128
		c-12.136-3.528-24.518-6.305-36.463-10.377c-25.599-8.727-51.063-8.65-77.009-1.551c-38.567,10.553-74.071,27.967-107.715,48.914
		c-38.312,23.853-76.271,48.185-117.057,67.73c-4.954,2.374-9.56,5.598-14.017,8.852c-4.279,3.123-4.429,8.669-0.393,12.302
		c2.896,2.607,6.122,4.964,9.511,6.887c14.498,8.224,28.195,17.514,41.01,28.232c38.981,32.603,80.805,60.792,126.304,83.794
		C364.42,643.224,426.958,657.413,497.52,659.604z"/>
	<path fill="#302420" d="M497.52,659.604c-70.562-2.19-133.1-16.38-192.11-46.211c-45.499-23.001-87.323-51.19-126.304-83.794
		c-12.815-10.718-26.512-20.008-41.01-28.232c-3.389-1.922-6.615-4.28-9.511-6.887c-4.037-3.633-3.886-9.179,0.393-12.302
		c4.457-3.254,9.063-6.478,14.017-8.852c40.786-19.546,78.745-43.878,117.057-67.73c33.644-20.946,69.149-38.361,107.715-48.914
		c25.946-7.099,51.41-7.176,77.009,1.551c11.945,4.072,24.327,6.849,36.463,10.377c12.516,3.638,25.011,3.472,37.501,0.128
		c15.266-4.087,30.911-7.199,45.65-12.717c28.973-10.848,57.144-8.768,85.559,1.511c35.253,12.752,67.984,30.432,98.269,52.197
		c38.004,27.311,76.44,53.689,119.234,73.089c2.147,0.973,4.232,2.136,6.211,3.417c3.545,2.293,4.19,7.237,1.113,10.071
		c-2.869,2.642-5.849,5.377-9.249,7.196c-44.754,23.948-86.151,53.288-129.135,80.076c-46.615,29.05-96.227,51.313-149.754,64.435
		C566.141,653.038,513.692,659.679,497.52,659.604z M259.46,439.462c18.262,7.705,50.796,15.359,75.095,17.03
		c39.42,2.712,78.738,6.498,118.296,7.774c81.588,2.631,162.829-0.099,243.597-12.135c15.223-2.269,30.974-3.956,45.172-11.312
		c-0.712-1.389-0.887-2.356-1.459-2.76c-37.033-26.107-76.806-46.606-120.507-59.195c-10.318-2.972-20.256-2.428-30.278,0.863
		c-10.504,3.449-21.269,6.222-31.52,10.294c-37.033,14.709-74.009,12.944-111.16,0.74c-9.005-2.958-18.194-5.358-27.18-8.367
		c-8.486-2.841-16.59-2.581-25.511-0.947c-36.217,6.634-69.092,21.718-101.359,38.439
		C281.567,425.627,271.102,432.548,259.46,439.462z M493.45,629.783c11.066,0,22.277,1.163,33.172-0.198
		c51.459-6.427,100.235-22.074,146.877-44.561c2.649-1.277,6.759-1.85,5.523-6.077c-0.534-1.827-2.928-3.496-4.863-4.471
		c-34.006-17.142-69.186-31.465-106.193-40.517c-24.573-6.01-49.817-10.971-75.094-9.46c-34.702,2.075-69.259,6.709-102.469,18.214
		c-25.487,8.829-49.874,20.009-73.432,33.076c-0.686,0.381-1.345,0.815-1.999,1.248c-3.917,2.594-3.831,6.871,0.387,9.2
		c16.71,9.226,35.043,14.42,52.904,20.661C408.76,621.049,450.043,631.58,493.45,629.783z"/>
	<path fill="#FFFFFF" d="M259.46,439.462c11.642-6.914,22.108-13.835,33.186-19.575c32.267-16.72,65.141-31.805,101.359-38.439
		c8.921-1.634,17.025-1.894,25.511,0.947c8.987,3.008,18.176,5.409,27.18,8.367c37.151,12.204,74.127,13.969,111.16-0.74
		c10.252-4.072,21.017-6.845,31.52-10.294c10.022-3.291,19.96-3.835,30.278-0.863c43.701,12.589,83.473,33.088,120.507,59.195
		c0.572,0.404,0.748,1.37,1.459,2.76c-14.198,7.355-29.949,9.043-45.172,11.312c-80.768,12.036-162.009,14.766-243.597,12.135
		c-39.558-1.276-78.876-5.061-118.296-7.774C310.255,454.821,277.721,447.167,259.46,439.462z"/>
	<path fill="#DF4036" d="M493.45,629.783c-43.407,1.798-84.69-8.733-125.188-22.886c-17.861-6.242-36.194-11.435-52.904-20.661
		c-4.218-2.329-4.304-6.606-0.387-9.2c0.655-0.434,1.313-0.867,1.999-1.248c23.558-13.067,47.946-24.247,73.432-33.076
		c33.211-11.505,67.768-16.139,102.469-18.214c25.276-1.511,50.521,3.45,75.094,9.46c37.008,9.052,72.187,23.375,106.193,40.517
		c1.935,0.975,4.329,2.644,4.863,4.471c1.236,4.227-2.874,4.8-5.523,6.077c-46.642,22.488-95.418,38.134-146.877,44.561
		C515.727,630.945,504.516,629.783,493.45,629.783z"/>
</g>
</svg>
