<?xml version="1.0" encoding="utf-8"?>
<!-- Generator: Adobe Illustrator 17.0.0, SVG Export Plug-In . SVG Version: 6.00 Build 0)  -->
<!DOCTYPE svg PUBLIC "-//W3C//DTD SVG 1.1//EN" "http://www.w3.org/Graphics/SVG/1.1/DTD/svg11.dtd">
<svg version="1.1" id="Layer_1" xmlns="http://www.w3.org/2000/svg" xmlns:xlink="http://www.w3.org/1999/xlink" x="0px" y="0px"
	 width="1000px" height="1000px" viewBox="0 0 1000 1000" enable-background="new 0 0 1000 1000" xml:space="preserve">
<g>
	<path fill="#302420" d="M492.494,887.995c-78.996-2.131-154.399-18.599-223.169-59.265
		c-58.119-34.368-103.802-81.322-139.166-138.696c-35.296-57.263-61.38-118.412-78.661-183.353
		c-4.163-15.646-3.719-30.898,1.173-46.822c17.72-57.675,46.962-109.521,79.215-159.846c24.995-38.999,53.206-75.632,87.041-107.46
		c29.196-27.465,61.44-50.867,98.846-66.032c41.516-16.83,83.661-16.727,125.893-2.31c9.784,3.34,19.505,6.872,29.215,10.424
		c18.696,6.839,37.335,7.378,56.017-0.088c5.901-2.358,11.964-4.308,17.886-6.616c69.209-26.975,132.422-15.101,191.298,28.501
		c35.616,26.377,65.479,58.287,92.293,93.152c42.4,55.129,77.607,114.631,105.651,178.307c3.202,7.271,4.817,15.326,8.583,22.247
		c9.394,17.266,8.891,35.477,4.227,53.201c-18.697,71.049-43.968,139.561-85.334,200.914
		c-39.439,58.496-89.642,105.38-153.8,136.117c-28.741,13.769-59.088,23.187-89.727,31.718
		c-30.009,8.355-61.009,10.961-91.63,15.617C516.65,889.484,504.458,887.995,492.494,887.995z M495.569,861.143
		c43.168-1.234,89.072-6.436,133.599-19.52c33.638-9.884,66.062-22.888,96.443-41.172c62.137-37.396,105.884-91.297,140.452-153.5
		c24.926-44.851,40.421-93.533,54.347-142.666c4.455-15.717,4.008-31.515-2.676-46.855c-6.046-13.876-11.179-28.177-17.735-41.8
		c-35.854-74.495-80.552-142.998-138.34-202.549c-24.749-25.504-53.083-45.696-86.066-59.235
		c-37.955-15.58-75.913-15.489-114.171-0.983c-11.888,4.508-24.042,8.504-36.346,11.683c-17.214,4.448-34.643,4.939-51.836-0.716
		c-12.855-4.229-25.846-8.108-38.488-12.903c-22.932-8.698-46.559-11.317-70.54-7.401c-18.07,2.951-35.57,8.455-52.242,16.526
		c-37.973,18.384-69.656,44.702-97.283,76.169c-26.894,30.633-50.651,63.624-71.752,98.467
		c-24.814,40.972-46.317,83.595-62.944,128.621c-5.158,13.968-5.828,27.203-1.518,41.865c20.868,70.988,51.6,137.245,94.136,197.73
		c17.908,25.465,39.234,48.267,63.26,68.298C310.163,833.142,397.194,858.841,495.569,861.143z"/>
	<path fill="#DF4036" d="M495.569,861.143c-98.375-2.302-185.406-28.001-259.698-89.94c-24.026-20.032-45.352-42.834-63.26-68.298
		c-42.536-60.485-73.268-126.742-94.136-197.73c-4.31-14.662-3.64-27.897,1.518-41.865c16.627-45.027,38.13-87.65,62.944-128.621
		c21.101-34.842,44.858-67.834,71.752-98.467c27.627-31.467,59.31-57.786,97.283-76.169c16.672-8.071,34.172-13.575,52.242-16.526
		c23.981-3.916,47.607-1.297,70.54,7.401c12.642,4.795,25.633,8.674,38.488,12.903c17.193,5.656,34.621,5.164,51.836,0.716
		c12.304-3.179,24.458-7.175,36.346-11.683c38.257-14.506,76.216-14.597,114.171,0.983c32.983,13.539,61.317,33.731,86.066,59.235
		c57.788,59.551,102.486,128.054,138.34,202.549c6.556,13.622,11.689,27.924,17.735,41.8c6.684,15.34,7.131,31.138,2.676,46.855
		c-13.927,49.133-29.422,97.815-54.347,142.666c-34.569,62.203-78.315,116.103-140.452,153.5
		c-30.381,18.284-62.804,31.288-96.443,41.172C584.641,854.707,538.737,859.909,495.569,861.143z M498.238,698.651
		c44.074-1.656,83.506-6.621,122.336-16.336c40.736-10.192,77.56-27.668,111.302-53.163c50.755-38.35,92.082-85.853,134.323-132.61
		c0.532-0.589,0.972-1.265,1.428-1.92c4.155-5.971,4.234-9.523-0.578-14.927c-11.138-12.511-22.382-24.93-33.776-37.207
		c-38.706-41.704-80.601-79.647-130.416-107.846c-37.527-21.244-77.277-34.143-121.213-29.303
		c-11.096,1.223-22.195,2.426-33.297,3.59c-21.377,2.242-42.742,6.089-64.286,3.924c-23.006-2.313-45.983-5.243-68.816-8.881
		c-26.798-4.27-52.235-0.183-77.531,8.777c-27.481,9.734-51.253,25.499-74.513,42.496c-23.304,17.028-42.444,38.684-64.522,57.04
		c-23.372,19.432-44.417,41.259-65.564,62.984c-7.724,7.935-7.957,9.055-0.455,17.782c45.892,53.381,95.484,102.999,152.225,144.896
		c29.107,21.492,61.958,35.942,96.776,45.863C421.136,695.058,461.851,695.811,498.238,698.651z"/>
	<path fill="#302420" d="M498.238,698.651c-36.387-2.84-77.102-3.593-116.578-14.841c-34.818-9.921-67.669-24.371-96.776-45.863
		c-56.742-41.897-106.334-91.515-152.225-144.896c-7.502-8.727-7.269-9.847,0.455-17.782c21.148-21.725,42.193-43.553,65.564-62.984
		c22.077-18.356,41.218-40.012,64.522-57.04c23.26-16.996,47.032-32.762,74.513-42.496c25.296-8.96,50.733-13.046,77.531-8.777
		c22.834,3.638,45.81,6.568,68.816,8.881c21.544,2.165,42.909-1.682,64.286-3.924c11.102-1.164,22.201-2.368,33.297-3.59
		c43.936-4.84,83.686,8.059,121.213,29.303c49.816,28.2,91.711,66.143,130.416,107.846c11.394,12.277,22.639,24.696,33.776,37.207
		c4.812,5.405,4.732,8.956,0.578,14.927c-0.456,0.655-0.895,1.331-1.428,1.92c-42.241,46.757-83.567,94.26-134.323,132.61
		c-33.742,25.495-70.566,42.97-111.302,53.163C581.744,692.03,542.312,696.994,498.238,698.651z M744.628,580.363
		c-11.314-8.235-22.929-13.354-34.194-18.894c-25.206-12.397-51.874-21.06-79.712-23.874c-36.09-3.648-71.903,1.223-105.957,13.278
		c-16.808,5.95-31.841,8.113-47.953,0.26c-3.548-1.729-7.486-2.745-11.332-3.76c-18.457-4.869-36.692-10.251-56.177-10.424
		c-44.84-0.398-86.467,11.828-126.399,30.856c-26.552,12.653-26.173,12.778-3.948,31.16
		c57.005,47.149,123.555,67.603,196.337,70.866c39.166,1.756,77.954-1.652,116.3-9.577c40.079-8.283,78.301-21.384,112.044-45.41
		C717.782,604.773,731.389,594.079,744.628,580.363z M718.992,381.785c-0.744-1.336-1.157-3.127-2.279-3.943
		c-46.034-33.507-96.079-53.021-154.064-41.796c-26.877,5.203-53.862,5.114-80.927,4.577c-25.517-0.507-50.704-4.29-75.739-9.092
		c-9.509-1.824-18.873-1.412-28.439,0.478c-33.444,6.611-63.189,20.974-89.922,41.841c-2.732,2.132-7.448,3.581-5.375,8.821
		c57.841,18.402,182.226,32.503,339.222,17.668C650.366,397.607,704.569,388.236,718.992,381.785z"/>
	<path fill="#DF4036" d="M744.628,580.363c-13.239,13.716-26.846,24.41-40.991,34.482c-33.743,24.027-71.966,37.127-112.044,45.41
		c-38.346,7.925-77.134,11.333-116.3,9.577c-72.782-3.263-139.331-23.716-196.337-70.866c-22.225-18.382-22.603-18.508,3.948-31.16
		c39.932-19.028,81.559-31.254,126.399-30.856c19.485,0.173,37.719,5.555,56.177,10.424c3.846,1.015,7.784,2.031,11.332,3.76
		c16.112,7.853,31.145,5.69,47.953-0.26c34.054-12.056,69.867-16.926,105.957-13.278c27.838,2.813,54.506,11.477,79.712,23.874
		C721.7,567.01,733.314,572.128,744.628,580.363z"/>
	<path fill="#FFFFFF" d="M718.991,381.785c-14.422,6.45-68.625,15.822-97.521,18.553c-156.996,14.836-281.381,0.734-339.222-17.668
		c-2.073-5.24,2.643-6.689,5.375-8.821c26.733-20.868,56.478-35.23,89.922-41.841c9.566-1.891,18.93-2.303,28.439-0.478
		c25.035,4.802,50.222,8.585,75.739,9.092c27.065,0.537,54.05,0.626,80.927-4.577c57.985-11.224,108.029,8.289,154.064,41.796
		C717.835,378.658,718.249,380.448,718.991,381.785z"/>
</g>
</svg>
