<?xml version="1.0" encoding="UTF-8" standalone="no"?>
<!-- Created with Inkscape (http://www.inkscape.org/) -->

<svg
   width="995.77911"
   height="488.63141"
   viewBox="0 0 995.77911 488.63141"
   version="1.1"
   id="svg1"
   xmlns="http://www.w3.org/2000/svg"
   xmlns:svg="http://www.w3.org/2000/svg">
  <defs
     id="defs1" />
  <g
     id="g3">
    <g
       id="layer1"
       transform="translate(-42.110432,-295.68427)">
      <g
         id="g25">
        <g
           id="g24"
           transform="matrix(2.6997144,0,0,3.0796097,-2053.1549,-2544.7424)">
          <path
             style="fill:#1d1d1b;fill-opacity:1;fill-rule:nonzero;stroke:none"
             d="m 1031,1008.3333 c 5,10 15.3333,16.3334 27.3333,16.3334 17,0 31,-13.6667 31,-31.00003 0,-3.66667 -0.6666,-7 -1.6666,-10.33334 C 1067,996 1047.6667,1004.3333 1031,1008.3333 Z"
             id="path1" />
          <path
             style="fill:#fdfdfd;fill-opacity:1;fill-rule:nonzero;stroke:none"
             d="m 1065.6667,997.66667 c 0,5.00003 4,8.66663 9,8.66663 5,0 9,-3.6666 9,-8.66663 0,-5 -4,-9 -9,-9 -5,0 -9,4 -9,9 z"
             id="path2" />
          <path
             style="fill:#1d1d1b;fill-opacity:1;fill-rule:nonzero;stroke:none"
             d="m 1135,942.33333 c -12.6667,11 -26,21 -40,30.33334 -13.6667,9.33333 -28.3333,18 -43.6667,24.33333 -7.6666,3.3333 -15.3333,6.3333 -23.3333,8.3333 -8,2 -16,3 -24,2.6667 -4,-0.3333 -8,-1 -11.66667,-2.3333 -3.66666,-1.6667 -7,-3.6667 -9.66666,-6.00003 -3,-2.66667 -5,-6 -7,-9.66667 C 974,986.33333 973,982.66667 972,978.66667 c 0,0 0,0 0,0 -0.33333,-1.33334 -1.66667,-2.33334 -3,-2 -1,0.33333 -2,1.66666 -1.66667,3 C 968,984 969.33333,988 971,992.33333 c 2,4 4.33333,7.99997 7.66667,11.33337 C 982,1007 986,1009.3333 990,1011.3333 c 4.33333,1.6667 9,2.6667 13.3333,3 9,1 18,0 26.3334,-1.6666 8.6666,-2 17,-4.6667 25,-7.6667 16,-6.33333 31.3333,-14.66667 46,-23.66667 14.6666,-9 28.6666,-19 42,-29.66666 2.6666,-2 3,-6 1,-8.66667 -2,-2.33333 -6,-3 -8.6667,-0.66667 z"
             id="path3" />
          <path
             style="fill:#1d1d1b;fill-opacity:1;fill-rule:nonzero;stroke:none"
             d="m 1059,1069.3333 c 15.3333,0 30.6667,-5.6666 44,-16.6666 11.6667,-9.3334 18,-19.6667 19,-20.6667 21,-33.33333 9,-68.66667 6.3333,-75.33333 -7,2.66666 -7,2.66666 -7,2.66666 C 1123,963 1135.3333,997 1115.6667,1028 c -1,1.3333 -22,34 -56.6667,34 -1.3333,0 -2.6667,0 -3.6667,0 -5,-0.3333 -30.3333,-3.3333 -45.3333,-25.3333 -5.3333,-7.6667 -8.3333,-17 -9.3333,-27 -7.33337,0.6666 -7.33337,0.6666 -7.33337,0.6666 1,11.3334 4.66667,21.6667 10.66667,30.6667 16.6667,24.6667 45.3333,28 50.6667,28.3333 1.3333,0 2.6666,0 4.3333,0 z"
             id="path4" />
          <path
             style="fill:#1d1d1b;fill-opacity:1;fill-rule:nonzero;stroke:none"
             d="m 1126,1075.3333 c -8,1 -16.3333,1.6667 -24.6667,1.3334 -8,-0.3334 -16.3333,-1.3334 -24.3333,-3 -16,-3.6667 -31.3333,-9.6667 -45,-18.3334 -1.6667,-1 -4,-0.3333 -5,1.3334 -1.3333,1.6666 -0.6667,4 1,5 0,0 0,0.3333 0.3333,0.3333 14.6667,8.3333 31,14 47.6667,17 8.3333,1.3333 17,2 25.3333,2 8.6667,0 17,-0.6667 25.3334,-2.3333 1,0 1.6666,-1 1.3333,-2 0,-1 -1,-1.3334 -2,-1.3334 z"
             id="path5" />
          <path
             style="fill:#1d1d1b;fill-opacity:1;fill-rule:nonzero;stroke:none"
             d="m 890.33333,1008.3333 c -5.33333,10 -15.66666,16.3334 -27.66666,16.3334 -17,0 -31,-13.6667 -31,-31.00003 0,-3.66667 0.66666,-7 1.66666,-10.33334 20.66667,12.66667 40,20.99997 57,24.99997 z"
             id="path6" />
          <path
             style="fill:#fdfdfd;fill-opacity:1;fill-rule:nonzero;stroke:none"
             d="m 855.33333,997.66667 c 0,5.00003 -4,8.66663 -9,8.66663 -5,0 -8.66666,-3.6666 -8.66666,-8.66663 0,-5 3.66666,-9 8.66666,-9 5,0 9,4 9,9 z"
             id="path7" />
          <path
             style="fill:#1d1d1b;fill-opacity:1;fill-rule:nonzero;stroke:none"
             d="m 778.33333,951.66667 c 13.33334,10.66666 27.33334,20.66666 42,29.66666 14.66667,9 30,17.33334 46,23.66667 8.33334,3 16.33334,5.6667 25,7.6667 8.66667,1.6666 17.33334,2.6666 26.33334,1.6666 4.66666,-0.3333 9,-1.3333 13.33333,-3 4.33333,-2 8.33333,-4.3333 11.33333,-7.6666 3.33334,-3.3334 6,-7.33337 7.66667,-11.33337 C 952,988 953,984 953.66667,979.66667 954,978.33333 953.33333,977 952,976.66667 c -1.33333,0 -2.66667,0.66666 -3,2 0,0 0,0 0,0 -0.66667,4 -2,7.66666 -3.66667,11.33333 -1.66666,3.66667 -4,7 -7,9.66667 -2.66666,2.33333 -6,4.33333 -9.66666,6.00003 C 925,1007 921,1007.6667 917,1008 c -7.66667,0.3333 -16,-0.6667 -24,-2.6667 -8,-2 -15.66667,-5 -23.33333,-8.3333 C 854.33333,990.66667 840,982 826,972.66667 c -14,-9.33334 -27,-19.33334 -40,-30.33334 -2.33333,-2.33333 -6.33333,-2 -8.33333,0.66667 -2.33334,2.66667 -2,6.33333 0.66666,8.66667 z"
             id="path8" />
          <path
             style="fill:#1d1d1b;fill-opacity:1;fill-rule:nonzero;stroke:none"
             d="m 862.33333,1069.3333 c 1.33334,0 2.66667,0 4,0 5.66667,-0.3333 34,-3.6666 51,-28.3333 5.66667,-9 9.33334,-19.3333 10.33334,-30.6667 -7.33334,-0.6666 -7.33334,-0.6666 -7.33334,-0.6666 -0.66666,10 -4,19.3333 -9.33333,27 -15,22 -40.33333,25 -45,25.3333 -1.33333,0 -2.66667,0 -4,0 -34.33333,0 -55.66667,-32.6667 -56.33333,-34 -19.66667,-31 -7.66667,-65 -6,-68.66667 -7,-2.66666 -7,-2.66666 -7,-2.66666 -2.66667,6.66666 -14.66667,42 6.66666,75.33333 0.66667,1 7.33334,11.3333 18.66667,20.6667 13.66667,11 28.66667,16.6666 44.33333,16.6666 z"
             id="path9" />
          <path
             style="fill:#1d1d1b;fill-opacity:1;fill-rule:nonzero;stroke:none"
             d="m 794.33333,1078.6667 c 8.33334,1.6666 17,2.3333 25.33334,2.3333 8.33333,0 17,-0.6667 25.33333,-2 16.66667,-3 33,-8.6667 48,-17 1.66667,-1 2.33333,-3.3333 1.33333,-5.3333 -1,-1.6667 -3.33333,-2.3334 -5,-1.3334 0,0 -0.33333,0 -0.33333,0 -13.66667,8.6667 -29,14.6667 -45,18.3334 -8,1.6666 -16.33333,2.6666 -24.33333,3 C 811.33333,1077 803,1076.3333 795,1075.3333 c -1,0 -1.66667,0.6667 -2,1.3334 0,1 0.66667,2 1.33333,2 z"
             id="path10" />
          <path
             style="fill:#1d1d1b;fill-opacity:1;fill-rule:nonzero;stroke:none"
             d="m 1066.3333,925.33333 c -1.6666,0.33334 -3.3333,0.33334 -4.6666,0.66667 -1.6667,0.33333 -3,0.66667 -4.3334,1 -3,0.66667 -6,1.66667 -8.6666,2.66667 -5.6667,2 -11,5 -16,8 -5,3.33333 -9.6667,6.66666 -14,11 -2,2 -4,4 -6,6.33333 -1,1.33333 -2,2.33333 -3,3.66667 -0.6667,1.33333 -1.6667,2.66666 -2.3334,4 1.6667,-0.33334 3,-0.66667 4.3334,-1.33334 1.6666,-0.33333 3,-1 4.3333,-1.33333 3,-1.33333 5.6667,-2.33333 8.3333,-3.66667 5,-2.33333 10,-5.33333 15,-8.33333 4.6667,-3 9.3334,-6.33333 14,-10 2.3334,-2 4.6667,-3.66667 6.6667,-6 1,-1 2.3333,-2 3.3333,-3 1,-1 2,-2.33333 3,-3.66667 z"
             id="path11" />
          <path
             style="fill:#1d1d1b;fill-opacity:1;fill-rule:nonzero;stroke:none"
             d="m 869,922.33333 c 1.33333,1.33334 2.33333,2.66667 3.66667,4 1.33333,1 2.66666,2.33334 4,3.33334 2.33333,2.33333 5,4.66666 7.66666,6.66666 5.33334,4.33334 11,8 16.66667,11.66667 5.66667,3.66667 11.33333,7 17.33333,10.33333 3,1.33334 6,3 9.33334,4.33334 1.66666,0.66666 3.33333,1.33333 4.66666,2 1.66667,0.66666 3.33334,1.33333 5.33334,1.66666 -1,-1.66666 -2,-3 -3,-4.33333 -1.33334,-1.33333 -2.33334,-2.66667 -3.33334,-4 -2.33333,-2.66667 -5,-5.33333 -7.33333,-7.66667 -5.33333,-4.66666 -10.66667,-8.66666 -16.33333,-12.66666 -6,-3.66667 -12,-7 -18.33334,-9.66667 -3.33333,-1.33333 -6.66666,-2.33333 -10,-3.33333 -1.66666,-0.66667 -3.33333,-1 -5,-1.33334 -1.66666,-0.66666 -3.33333,-1 -5.33333,-1 z"
             id="path12" />
        </g>
        <path
           style="fill:#ffffff;stroke-width:1.2691"
           d="M 260.16451,724.43246 C 225.62293,720.12191 194.55724,703.4547 163.6323,672.64151 138.44821,647.54843 123.51544,626.06163 111.75912,598.0011 96.790631,562.27362 90.254681,520.79111 93.232517,480.41605 c 1.150211,-15.59516 5.568546,-46.62017 6.817083,-47.8687 0.1622,-0.16221 3.98767,2.60717 8.50104,6.15416 19.32198,15.18487 53.87771,40.49905 68.05643,49.85548 l 15.31781,10.10811 0.0496,16.54289 c 0.0603,20.14478 2.65138,31.37823 11.27935,48.90157 4.91897,9.99039 7.79889,13.91619 16.82808,22.93936 11.83412,11.82626 23.01893,18.41823 37.49382,22.09769 8.89959,2.26224 25.70301,2.50592 35.20556,0.51053 16.15587,-3.39248 35.30137,-15.47406 45.90053,-28.96511 3.32528,-4.23255 6.46314,-7.69556 6.97301,-7.69556 0.50987,0 6.04013,1.09919 12.28947,2.44263 19.26517,4.14152 35.31782,5.57995 54.01221,4.8399 l 17.5201,-0.69357 -0.68941,4.00281 c -7.85045,45.58103 -31.20775,85.08826 -65.19139,110.26667 -30.85351,22.8593 -70.75479,34.65537 -103.43126,30.57755 z"
           id="path24" />
        <path
           style="fill:#ffffff;stroke-width:1.2691"
           d="M 783.10362,723.38944 C 761.13923,718.80472 735.23107,707.6452 718.36588,695.50473 684.26827,670.95942 660.85223,633.02294 652.50163,588.7976 l -1.73764,-9.20266 17.39982,0.68882 c 18.56759,0.73503 34.67052,-0.71255 53.89193,-4.84466 6.24934,-1.34344 11.96027,-2.41965 12.69095,-2.39159 0.73068,0.0281 3.87515,3.46426 6.9877,7.63598 9.96485,13.35575 27.18625,24.62755 43.50522,28.47513 10.28513,2.42496 27.59634,2.42315 37.1847,-0.004 23.82319,-6.03022 45.35027,-24.85753 56.47477,-49.39208 6.16059,-13.58688 8.80783,-27.06315 8.86807,-45.14453 l 0.0529,-15.86369 17.4061,-11.61232 c 18.80327,-12.54443 48.08061,-33.98265 64.36262,-47.12929 l 10.15276,-8.19768 1.55127,6.81865 c 15.18395,66.7413 3.37224,142.95193 -29.80257,192.28996 -26.37554,39.22605 -59.54799,68.81578 -93.20396,83.13769 -22.50092,9.57499 -54.80055,13.58246 -75.1826,9.32802 z"
           id="path25" />
      </g>
    </g>
    <g
       id="g1">
      <path
         style="fill:#1d1d1b;fill-opacity:1;fill-rule:nonzero;stroke:none;stroke-width:3.04373"
         d="m 895.25806,6.835398 c 9.9678,10.530563 18.1369,22.052254 23.988,33.706652 2.2165,5.645815 3.5322,11.787521 4.3304,17.070421 0.659,3.070555 0.7979,5.282899 1.4563,8.353693 0.2773,4.424599 0.2773,4.424599 0.2773,4.424599 -0.3805,1.354072 -0.7606,2.707907 -1.1407,4.061861 -0.2025,11.557224 -5.0438,23.380224 -11.8212,33.981796 -3.3191,6.40694 -8.5767,11.59293 -13.834,16.77866 -3.4587,4.19474 -3.4587,4.19474 -3.4587,4.19474 -3.4583,4.19463 -3.4583,4.19463 -3.4583,4.19463 -1.2796,1.84955 -2.1787,2.34508 -3.4583,4.19463 -0.8995,0.49568 -0.3801,1.35395 -1.2796,1.84961 0,0 -0.8995,0.49568 -0.8995,0.49568 0.5185,0.8586 1.4186,0.36286 1.9379,1.22119 0.8995,-0.49569 1.4189,0.36276 2.8374,0.72556 0,0 0,0 0,0 1.4186,0.36286 1.4186,0.36286 1.4186,0.36286 1.4191,0.36264 1.4191,0.36264 1.4191,0.36264 1.4186,0.36286 1.4186,0.36286 1.4186,0.36286 1.4185,0.36286 1.4185,0.36286 1.4185,0.36286 0,0 0,0 0,0 0.8995,-0.49569 2.3183,-0.13292 2.3183,-0.13292 2.8371,0.72554 2.8371,0.72554 2.8371,0.72554 0.8992,-0.4956 0.8992,-0.4956 0.8992,-0.4956 2.3183,-0.13291 2.3183,-0.13291 2.3183,-0.13291 0.5185,0.85857 0.5185,0.85857 0.5185,0.85857 0.8991,-0.4956 0.8991,-0.4956 0.8991,-0.4956 1.4186,0.36286 2.8374,0.72557 3.7369,0.23015 1.4185,0.36286 2.318,-0.13291 2.318,-0.13291 0.8995,-0.49569 0.8995,-0.49569 0.8995,-0.49569 1.7986,-0.99112 2.6981,-1.48672 3.5973,-1.98222 1.2796,-1.84958 3.0785,-2.84079 4.3578,-4.69025 1.799,-0.99125 3.0785,-2.8408 4.8772,-3.83189 1.2796,-1.84958 2.5592,-3.69919 3.4586,-4.19475 4.2186,-6.90254 6.6388,-12.81397 9.5781,-17.86708 3.319,-6.40697 5.7389,-12.318352 6.7406,-18.592682 -0.2773,-4.424566 -0.2773,-4.424566 -0.2773,-4.424566 1.2796,-1.849577 1.2796,-1.849577 1.2796,-1.849577 -0.1402,-2.212284 -0.1402,-2.212284 -0.1402,-2.212284 -0.2773,-4.424718 -0.2773,-4.424718 -0.2773,-4.424718 -0.2773,-4.424747 -0.2773,-4.424747 -0.2773,-4.424747 -0.1402,-2.212196 0.2399,-3.566149 -0.7979,-5.28293 -0.2773,-4.424717 -0.2773,-4.424717 -0.2773,-4.424717 -1.5581,-2.575082 -2.2161,-5.645816 -2.8745,-8.71658 -2.2164,-5.645785 -5.8511,-11.654427 -10.3856,-17.167476 -8.1691,-11.521631 -19.5558,-22.414931 -34.1599,-32.679902 -0.5184,-0.858598 -0.5184,-0.858598 -1.4188,-0.362707 -1.4186,-0.362857 -1.4186,-0.362857 -0.8992,0.495593 z"
         id="path1-9" />
      <path
         style="fill:#1d1d1b;fill-opacity:1;fill-rule:nonzero;stroke:none;stroke-width:3.04373"
         d="m 812.88326,73.292863 c 8.5493,10.167796 14.7802,20.468359 18.694,30.901477 2.2156,5.646 3.9129,10.43336 4.7093,15.71677 0.1402,2.21225 0.7973,5.28299 0.037,7.99092 0.2773,4.42472 0.2773,4.42472 0.2773,4.42472 0.5184,0.8586 0.1402,2.21232 -0.2399,3.56621 -0.7232,10.69889 -4.2834,20.67222 -9.6425,31.63665 -2.9393,5.05311 -7.2971,9.74336 -11.6549,14.43358 -2.5589,3.69904 -2.5589,3.69904 -2.5589,3.69904 -3.4587,4.19474 -3.4587,4.19474 -3.4587,4.19474 -0.3797,1.35384 -0.7602,2.70794 -2.5588,3.69901 0.5184,0.8586 -0.3804,1.3541 -1.2796,1.8496 0,0 0,0 0.5184,0.85857 0,0 0,0 0.5185,0.8586 0.8995,-0.49568 1.4188,0.36277 2.8374,0.72548 0,0 0,0 0,0 0.8991,-0.4956 0.8991,-0.4956 0.8991,-0.4956 1.4186,0.36286 1.4186,0.36286 1.4186,0.36286 0.5184,0.8586 0.5184,0.8586 0.5184,0.8586 1.4189,0.36267 1.4189,0.36267 1.4189,0.36267 0,0 0,0 0,0 1.4185,0.36286 1.4185,0.36286 2.318,-0.13261 1.4188,0.3627 1.4188,0.3627 1.4188,0.3627 1.4186,0.36283 1.4186,0.36283 1.4186,0.36283 2.3183,-0.13291 2.3183,-0.13291 2.3183,-0.13291 0,0 0,0 0,0 0.8992,-0.49563 0.8992,-0.49563 0.8992,-0.49563 1.4185,0.36289 2.8374,0.72557 2.8374,0.72557 0.8995,-0.49566 2.318,-0.13262 2.318,-0.13262 0.8995,-0.49568 0.8995,-0.49568 0.8995,-0.49568 0.8995,-0.49569 1.2792,-1.8494 2.179,-2.34514 1.7987,-0.99107 3.0783,-2.84068 3.9774,-3.33615 1.2796,-1.84961 3.0786,-2.84083 3.4587,-4.19478 1.2796,-1.84958 2.1787,-2.34505 3.4583,-4.19469 2.939,-5.05293 5.3592,-10.96445 8.2985,-16.01747 1.5204,-5.41579 3.9403,-11.32726 4.5615,-16.24757 0.6213,-4.92022 0.6213,-4.92022 0.6213,-4.92022 0.3801,-1.35395 0.3801,-1.35395 0.3801,-1.35395 -0.1402,-2.21226 -0.1402,-2.21226 -0.1402,-2.21226 -0.2773,-4.42475 -0.2773,-4.42475 -0.2773,-4.42475 -0.2773,-4.42474 -0.2773,-4.42474 -0.2773,-4.42474 0.3798,-1.35381 -0.1402,-2.2122 0.2399,-3.56612 -1.1774,-3.92922 -1.1774,-3.92922 -1.1774,-3.92922 -0.6589,-3.07058 -1.3173,-6.14129 -2.8751,-8.71646 -1.6964,-4.78757 -3.9129,-10.43333 -7.5479,-16.442 -7.1307,-9.804878 -15.6799,-19.972585 -27.9661,-30.370263 -0.8991,0.495594 -0.8991,0.495594 -2.3177,0.132619 z"
         id="path2-4" />
      <path
         style="fill:#1d1d1b;fill-opacity:1;fill-rule:nonzero;stroke:none;stroke-width:3.04373"
         d="m 726.34374,138.10244 c 6.6116,8.9464 11.8041,17.53018 13.7794,26.74232 1.6965,4.78758 2.8745,8.71658 3.6724,13.99961 0.1402,2.21228 0.2773,4.42456 0.4172,6.637 0.6589,3.07058 0.6589,3.07058 0.6589,3.07058 -0.3801,1.35393 -0.7605,2.708 -0.2399,3.56636 -0.3427,9.34479 -3.5231,17.96426 -7.6024,27.07908 -2.0398,4.55754 -5.4984,8.75214 -8.9571,12.94689 -1.6594,3.20341 -1.6594,3.20341 -1.6594,3.20341 -2.5591,3.69912 -2.5591,3.69912 -2.5591,3.69912 -0.8995,0.49568 -1.2796,1.84955 -1.6594,3.20344 -0.8998,0.49577 -0.8998,0.49577 -1.2799,1.84967 0,0 0,0 0,0 0,0 0.5184,0.85857 0.5184,0.85857 0,0 1.4186,0.36288 1.938,1.22121 0.8994,-0.49568 0.8994,-0.49568 0.8994,-0.49568 0,0 0,0 0,0 0.5185,0.85857 0.5185,0.85857 0.5185,0.85857 0.8994,-0.49568 0.8994,-0.49568 0.8994,-0.49568 1.4186,0.36285 1.4186,0.36285 1.4186,0.36285 0,0 0,0 0,0 0.5184,0.85857 1.4188,0.36271 1.4188,0.36271 1.4183,0.36283 1.4183,0.36283 1.4183,0.36283 1.4185,0.36288 1.4185,0.36288 1.4185,0.36288 0.8998,-0.49574 0.8998,-0.49574 0.8998,-0.49574 0,0 0,0 0,0 0.5184,0.85857 0.5184,0.85857 0.5184,0.85857 0.8995,-0.49568 1.7987,-0.9911 3.2175,-0.62824 0,0 0.8995,-0.49568 0.8995,-0.49568 0,0 0,0 0.8992,-0.49563 0,0 0.8998,-0.49574 1.7989,-0.99124 0.3801,-1.35393 2.1791,-2.34514 2.5589,-3.69901 1.799,-0.99121 2.1791,-2.34517 3.0785,-2.84082 1.2796,-1.84943 1.66,-3.2035 2.5592,-3.69901 2.0398,-4.55742 3.5605,-9.97341 5.6,-14.53078 2.0398,-4.55745 2.6611,-9.47768 3.8014,-13.53954 0.2399,-3.56636 0.2399,-3.56636 0.2399,-3.56636 0.7602,-2.70796 0.7602,-2.70796 0.7602,-2.70796 -0.5184,-0.85857 -0.5184,-0.85857 -0.5184,-0.85857 -0.2773,-4.42457 -0.2773,-4.42457 -0.2773,-4.42457 0.243,-3.56639 0.243,-3.56639 0.243,-3.56639 0.3801,-1.35395 -0.1402,-2.21228 -0.659,-3.07055 0.2399,-3.56636 0.2399,-3.56636 0.2399,-3.56636 -1.5578,-2.57517 -1.697,-4.78742 -1.8363,-6.99983 -1.6971,-4.78731 -3.3942,-9.57476 -6.5098,-14.72504 -5.1928,-8.5837 -11.8038,-17.53034 -21.6326,-25.84853 0,0 0,0 -1.4189,-0.3627 z"
         id="path3-8" />
    </g>
    <g
       id="g2"
       transform="matrix(-1,0,0,1,1015.3399,11.446001)">
      <path
         style="fill:#1d1d1b;fill-opacity:1;fill-rule:nonzero;stroke:none;stroke-width:3.04373"
         d="m 895.25806,6.835398 c 9.9678,10.530563 18.1369,22.052254 23.988,33.706652 2.2165,5.645815 3.5322,11.787521 4.3304,17.070421 0.659,3.070555 0.7979,5.282899 1.4563,8.353693 0.2773,4.424599 0.2773,4.424599 0.2773,4.424599 -0.3805,1.354072 -0.7606,2.707907 -1.1407,4.061861 -0.2025,11.557224 -5.0438,23.380224 -11.8212,33.981796 -3.3191,6.40694 -8.5767,11.59293 -13.834,16.77866 -3.4587,4.19474 -3.4587,4.19474 -3.4587,4.19474 -3.4583,4.19463 -3.4583,4.19463 -3.4583,4.19463 -1.2796,1.84955 -2.1787,2.34508 -3.4583,4.19463 -0.8995,0.49568 -0.3801,1.35395 -1.2796,1.84961 0,0 -0.8995,0.49568 -0.8995,0.49568 0.5185,0.8586 1.4186,0.36286 1.9379,1.22119 0.8995,-0.49569 1.4189,0.36276 2.8374,0.72556 0,0 0,0 0,0 1.4186,0.36286 1.4186,0.36286 1.4186,0.36286 1.4191,0.36264 1.4191,0.36264 1.4191,0.36264 1.4186,0.36286 1.4186,0.36286 1.4186,0.36286 1.4185,0.36286 1.4185,0.36286 1.4185,0.36286 0,0 0,0 0,0 0.8995,-0.49569 2.3183,-0.13292 2.3183,-0.13292 2.8371,0.72554 2.8371,0.72554 2.8371,0.72554 0.8992,-0.4956 0.8992,-0.4956 0.8992,-0.4956 2.3183,-0.13291 2.3183,-0.13291 2.3183,-0.13291 0.5185,0.85857 0.5185,0.85857 0.5185,0.85857 0.8991,-0.4956 0.8991,-0.4956 0.8991,-0.4956 1.4186,0.36286 2.8374,0.72557 3.7369,0.23015 1.4185,0.36286 2.318,-0.13291 2.318,-0.13291 0.8995,-0.49569 0.8995,-0.49569 0.8995,-0.49569 1.7986,-0.99112 2.6981,-1.48672 3.5973,-1.98222 1.2796,-1.84958 3.0785,-2.84079 4.3578,-4.69025 1.799,-0.99125 3.0785,-2.8408 4.8772,-3.83189 1.2796,-1.84958 2.5592,-3.69919 3.4586,-4.19475 4.2186,-6.90254 6.6388,-12.81397 9.5781,-17.86708 3.319,-6.40697 5.7389,-12.318352 6.7406,-18.592682 -0.2773,-4.424566 -0.2773,-4.424566 -0.2773,-4.424566 1.2796,-1.849577 1.2796,-1.849577 1.2796,-1.849577 -0.1402,-2.212284 -0.1402,-2.212284 -0.1402,-2.212284 -0.2773,-4.424718 -0.2773,-4.424718 -0.2773,-4.424718 -0.2773,-4.424747 -0.2773,-4.424747 -0.2773,-4.424747 -0.1402,-2.212196 0.2399,-3.566149 -0.7979,-5.28293 -0.2773,-4.424717 -0.2773,-4.424717 -0.2773,-4.424717 -1.5581,-2.575082 -2.2161,-5.645816 -2.8745,-8.71658 -2.2164,-5.645785 -5.8511,-11.654427 -10.3856,-17.167476 -8.1691,-11.521631 -19.5558,-22.414931 -34.1599,-32.679902 -0.5184,-0.858598 -0.5184,-0.858598 -1.4188,-0.362707 -1.4186,-0.362857 -1.4186,-0.362857 -0.8992,0.495593 z"
         id="path1-9-5" />
      <path
         style="fill:#1d1d1b;fill-opacity:1;fill-rule:nonzero;stroke:none;stroke-width:3.04373"
         d="m 812.88326,73.292863 c 8.5493,10.167796 14.7802,20.468359 18.694,30.901477 2.2156,5.646 3.9129,10.43336 4.7093,15.71677 0.1402,2.21225 0.7973,5.28299 0.037,7.99092 0.2773,4.42472 0.2773,4.42472 0.2773,4.42472 0.5184,0.8586 0.1402,2.21232 -0.2399,3.56621 -0.7232,10.69889 -4.2834,20.67222 -9.6425,31.63665 -2.9393,5.05311 -7.2971,9.74336 -11.6549,14.43358 -2.5589,3.69904 -2.5589,3.69904 -2.5589,3.69904 -3.4587,4.19474 -3.4587,4.19474 -3.4587,4.19474 -0.3797,1.35384 -0.7602,2.70794 -2.5588,3.69901 0.5184,0.8586 -0.3804,1.3541 -1.2796,1.8496 0,0 0,0 0.5184,0.85857 0,0 0,0 0.5185,0.8586 0.8995,-0.49568 1.4188,0.36277 2.8374,0.72548 0,0 0,0 0,0 0.8991,-0.4956 0.8991,-0.4956 0.8991,-0.4956 1.4186,0.36286 1.4186,0.36286 1.4186,0.36286 0.5184,0.8586 0.5184,0.8586 0.5184,0.8586 1.4189,0.36267 1.4189,0.36267 1.4189,0.36267 0,0 0,0 0,0 1.4185,0.36286 1.4185,0.36286 2.318,-0.13261 1.4188,0.3627 1.4188,0.3627 1.4188,0.3627 1.4186,0.36283 1.4186,0.36283 1.4186,0.36283 2.3183,-0.13291 2.3183,-0.13291 2.3183,-0.13291 0,0 0,0 0,0 0.8992,-0.49563 0.8992,-0.49563 0.8992,-0.49563 1.4185,0.36289 2.8374,0.72557 2.8374,0.72557 0.8995,-0.49566 2.318,-0.13262 2.318,-0.13262 0.8995,-0.49568 0.8995,-0.49568 0.8995,-0.49568 0.8995,-0.49569 1.2792,-1.8494 2.179,-2.34514 1.7987,-0.99107 3.0783,-2.84068 3.9774,-3.33615 1.2796,-1.84961 3.0786,-2.84083 3.4587,-4.19478 1.2796,-1.84958 2.1787,-2.34505 3.4583,-4.19469 2.939,-5.05293 5.3592,-10.96445 8.2985,-16.01747 1.5204,-5.41579 3.9403,-11.32726 4.5615,-16.24757 0.6213,-4.92022 0.6213,-4.92022 0.6213,-4.92022 0.3801,-1.35395 0.3801,-1.35395 0.3801,-1.35395 -0.1402,-2.21226 -0.1402,-2.21226 -0.1402,-2.21226 -0.2773,-4.42475 -0.2773,-4.42475 -0.2773,-4.42475 -0.2773,-4.42474 -0.2773,-4.42474 -0.2773,-4.42474 0.3798,-1.35381 -0.1402,-2.2122 0.2399,-3.56612 -1.1774,-3.92922 -1.1774,-3.92922 -1.1774,-3.92922 -0.6589,-3.07058 -1.3173,-6.14129 -2.8751,-8.71646 -1.6964,-4.78757 -3.9129,-10.43333 -7.5479,-16.442 -7.1307,-9.804878 -15.6799,-19.972585 -27.9661,-30.370263 -0.8991,0.495594 -0.8991,0.495594 -2.3177,0.132619 z"
         id="path2-4-1" />
      <path
         style="fill:#1d1d1b;fill-opacity:1;fill-rule:nonzero;stroke:none;stroke-width:3.04373"
         d="m 726.34374,138.10244 c 6.6116,8.9464 11.8041,17.53018 13.7794,26.74232 1.6965,4.78758 2.8745,8.71658 3.6724,13.99961 0.1402,2.21228 0.2773,4.42456 0.4172,6.637 0.6589,3.07058 0.6589,3.07058 0.6589,3.07058 -0.3801,1.35393 -0.7605,2.708 -0.2399,3.56636 -0.3427,9.34479 -3.5231,17.96426 -7.6024,27.07908 -2.0398,4.55754 -5.4984,8.75214 -8.9571,12.94689 -1.6594,3.20341 -1.6594,3.20341 -1.6594,3.20341 -2.5591,3.69912 -2.5591,3.69912 -2.5591,3.69912 -0.8995,0.49568 -1.2796,1.84955 -1.6594,3.20344 -0.8998,0.49577 -0.8998,0.49577 -1.2799,1.84967 0,0 0,0 0,0 0,0 0.5184,0.85857 0.5184,0.85857 0,0 1.4186,0.36288 1.938,1.22121 0.8994,-0.49568 0.8994,-0.49568 0.8994,-0.49568 0,0 0,0 0,0 0.5185,0.85857 0.5185,0.85857 0.5185,0.85857 0.8994,-0.49568 0.8994,-0.49568 0.8994,-0.49568 1.4186,0.36285 1.4186,0.36285 1.4186,0.36285 0,0 0,0 0,0 0.5184,0.85857 1.4188,0.36271 1.4188,0.36271 1.4183,0.36283 1.4183,0.36283 1.4183,0.36283 1.4185,0.36288 1.4185,0.36288 1.4185,0.36288 0.8998,-0.49574 0.8998,-0.49574 0.8998,-0.49574 0,0 0,0 0,0 0.5184,0.85857 0.5184,0.85857 0.5184,0.85857 0.8995,-0.49568 1.7987,-0.9911 3.2175,-0.62824 0,0 0.8995,-0.49568 0.8995,-0.49568 0,0 0,0 0.8992,-0.49563 0,0 0.8998,-0.49574 1.7989,-0.99124 0.3801,-1.35393 2.1791,-2.34514 2.5589,-3.69901 1.799,-0.99121 2.1791,-2.34517 3.0785,-2.84082 1.2796,-1.84943 1.66,-3.2035 2.5592,-3.69901 2.0398,-4.55742 3.5605,-9.97341 5.6,-14.53078 2.0398,-4.55745 2.6611,-9.47768 3.8014,-13.53954 0.2399,-3.56636 0.2399,-3.56636 0.2399,-3.56636 0.7602,-2.70796 0.7602,-2.70796 0.7602,-2.70796 -0.5184,-0.85857 -0.5184,-0.85857 -0.5184,-0.85857 -0.2773,-4.42457 -0.2773,-4.42457 -0.2773,-4.42457 0.243,-3.56639 0.243,-3.56639 0.243,-3.56639 0.3801,-1.35395 -0.1402,-2.21228 -0.659,-3.07055 0.2399,-3.56636 0.2399,-3.56636 0.2399,-3.56636 -1.5578,-2.57517 -1.697,-4.78742 -1.8363,-6.99983 -1.6971,-4.78731 -3.3942,-9.57476 -6.5098,-14.72504 -5.1928,-8.5837 -11.8038,-17.53034 -21.6326,-25.84853 0,0 0,0 -1.4189,-0.3627 z"
         id="path3-8-7" />
    </g>
  </g>
</svg>
