<?xml version="1.0" encoding="UTF-8" standalone="no"?>
<!-- Created with Inkscape (http://www.inkscape.org/) -->

<svg
   width="883.28552"
   height="526.74976"
   viewBox="0 0 883.28552 526.74976"
   version="1.1"
   id="svg1"
   xmlns="http://www.w3.org/2000/svg"
   xmlns:svg="http://www.w3.org/2000/svg">
  <defs
     id="defs1" />
  <g
     id="layer1"
     transform="translate(-98.357216,-276.62509)">
    <g
       id="g24">
      <g
         id="g23"
         transform="matrix(2.7952075,0,0,2.4551109,-546.40399,-1837.5062)">
        <path
           style="fill:#1d1d1b;fill-opacity:1;fill-rule:nonzero;stroke:none"
           d="m 309.66667,1074 c 41.33333,0 75,-36.6667 75,-81.66667 0,-45.33333 -33.66667,-82 -75,-82 -41.33334,0 -75,36.66667 -75,82 0,44.99997 33.66666,81.66667 75,81.66667 z m 0,-156.33333 c 37.33333,0 67.66666,33.33333 67.66666,74.66666 0,40.99997 -30.33333,74.33337 -67.66666,74.33337 C 272.33333,1066.6667 242,1033.3333 242,992.33333 242,951 272.33333,917.66667 309.66667,917.66667 Z"
           id="path1-8" />
        <path
           style="fill:#1d1d1b;fill-opacity:1;fill-rule:nonzero;stroke:none"
           d="m 248.66667,897 c 4,-4.33333 8.33333,-8 12.66666,-11.33333 4.33334,-3 9.33334,-5.66667 14,-7.66667 2.33334,-1.33333 5,-2 7.66667,-2.66667 0.66667,0 1.33333,-0.33333 2,-0.33333 0.33333,-0.33333 1,-0.33333 1.66667,-0.66667 0.66666,0 1.33333,-0.33333 2,-0.66666 C 290.33333,873 290.33333,873 290.33333,873 c 2.33334,-1 5,-2 7.33334,-3.33333 2.66666,-1.33334 5.33333,-2.66667 8,-4.33334 0,-1.33333 0,-1.33333 0,-1.33333 -3,-1.33333 -6,-2.33333 -9.33334,-2.66667 -3,-0.33333 -6,-0.33333 -9,0.33334 -3,0.33333 -6,1.33333 -8.66666,3 -3,1.33333 -5.33334,3 -8,4.66666 -5,3.66667 -9.66667,7.66667 -13.33334,12 -4,4.66667 -7,9.66667 -9.66666,15 z"
           id="path2-7" />
        <path
           style="fill:#1d1d1b;fill-opacity:1;fill-rule:nonzero;stroke:none"
           d="m 292,1007 c 0,16.6667 13.66667,30.3333 30.33333,30.3333 16.66667,0 30.33334,-13.6666 30.33334,-30.3333 0,-16.66667 -13.66667,-30.33333 -30.33334,-30.33333 C 305.66667,976.66667 292,990.33333 292,1007 Z"
           id="path3-4" />
        <path
           style="fill:#fdfdfd;fill-opacity:1;fill-rule:nonzero;stroke:none"
           d="m 330.66667,994.66667 c 0,4.66666 3.66666,8.66663 8.33333,8.66663 4.66667,0 8.66667,-3.99997 8.66667,-8.66663 0,-4.66667 -4,-8.33334 -8.66667,-8.33334 -4.66667,0 -8.33333,3.66667 -8.33333,8.33334 z"
           id="path4-2" />
        <path
           style="fill:#1d1d1b;fill-opacity:1;fill-rule:nonzero;stroke:none"
           d="m 467.66667,1075.6667 c 41.33333,0 75,-37 75,-82.00003 0,-45.33334 -33.66667,-82 -75,-82 -41.33334,0 -75,36.66666 -75,82 0,45.00003 33.66666,82.00003 75,82.00003 z m 0,-156.6667 C 505,919 535.33333,952.33333 535.33333,993.66667 535.33333,1034.6667 505,1068 467.66667,1068 430.33333,1068 400,1034.6667 400,993.66667 400,952.33333 430.33333,919 467.66667,919 Z"
           id="path5" />
        <path
           style="fill:#1d1d1b;fill-opacity:1;fill-rule:nonzero;stroke:none"
           d="m 529,901.66667 c -2.33333,-5.33334 -5.66667,-10.33334 -9.66667,-15 C 515.66667,882.33333 511,878.33333 506,874.66667 503.33333,873 501,871.33333 498.33333,870 c -2.66666,-1.66667 -5.66666,-2.66667 -8.66666,-3 -3.33334,-0.66667 -6.33334,-0.66667 -9.33334,-0.33333 C 477,867 474,868 471.33333,869.33333 471,870.66667 471,870.66667 471,870.66667 c 3,1.66666 5.33333,3 8,4.33333 2.66667,1.33333 5,2.33333 7.33333,3.33333 2,0.66667 2,0.66667 2,0.66667 0.33334,0.33333 1,0.66667 1.66667,0.66667 0.66667,0.33333 1.33333,0.33333 2,0.66666 0.66667,0 1,0.33334 1.66667,0.33334 2.66666,0.66666 5.33333,1.33333 7.66666,2.66666 5,2 9.66667,4.66667 14,7.66667 C 520,894.33333 524,898 528,902.33333 Z"
           id="path6" />
        <path
           style="fill:#1d1d1b;fill-opacity:1;fill-rule:nonzero;stroke:none"
           d="m 485.33333,1008.3333 c 0,16.6667 -13.66666,30.3334 -30.33333,30.3334 -16.66667,0 -30.33333,-13.6667 -30.33333,-30.3334 C 424.66667,991.66667 438.33333,978 455,978 c 16.66667,0 30.33333,13.66667 30.33333,30.3333 z"
           id="path7" />
        <path
           style="fill:#fdfdfd;fill-opacity:1;fill-rule:nonzero;stroke:none"
           d="m 446.66667,996 c 0,4.6667 -3.66667,8.6667 -8.33334,8.6667 -4.66666,0 -8.66666,-4 -8.66666,-8.6667 0,-4.66667 4,-8.33333 8.66666,-8.33333 4.66667,0 8.33334,3.66666 8.33334,8.33333 z"
           id="path8" />
        <path
           style="fill:#1d1d1b;fill-opacity:1;fill-rule:nonzero;stroke:none"
           d="m 235.66667,895 c -1.33334,5 -1.66667,9.66667 -1,13.66667 0.33333,2 0.66666,4 1.33333,6 0.33333,0.66666 1,1.66666 1.33333,2.66666 0.66667,1 0.66667,1 0.66667,1 0.33333,0.66667 0.66667,1 1,1.33334 2,3 5,5.66666 9,8 1.66667,1 4,2 6.66667,2.66666 C 256.33333,931 256.33333,931 256.33333,931 258,931.33333 258,931.33333 258,931.33333 c 0.33333,0.33334 1,0.66667 1.33333,1 0.33334,0 0.66667,0 1,0.33334 0,0 0,0 0,0 0,0 0,0.33333 0,0.33333 -0.33333,0.33333 -0.33333,0.66667 -0.66666,1 -0.33334,0 -0.33334,0 -0.33334,0 0,0 0,0 0,0 C 259,934.33333 259,934.33333 259,934.33333 c -0.33333,0.33334 -0.33333,0.33334 -0.33333,0.33334 C 258,935.33333 258,935.33333 258,935.33333 c 0,0 0,0 0,0 0,0 -0.33333,0.33334 -0.66667,0.33334 C 257,936 257,936 257,936 c -0.66667,0.33333 -0.66667,0.33333 -0.66667,0.33333 C 256,936.66667 256,936.66667 256,936.66667 c -0.33333,0 -0.33333,0 -0.33333,0 0,0.33333 0,0.33333 0,0.33333 -0.66667,0.33333 -1,0.33333 -1.33334,0.66667 -0.33333,0 -0.33333,0 -0.66666,0 0,0.33333 0,0.33333 -0.33334,0.33333 -0.33333,-0.33333 -0.66666,-0.33333 -1,-0.33333 -0.66666,0 -1.66666,-0.33334 -2.33333,-0.33334 C 249.33333,937 248.66667,937 248.33333,936.66667 c -0.66666,0 -1.33333,-0.33334 -2,-0.66667 -2,-1 -3.66666,-2.33333 -5.66666,-3.66667 C 239,931 237.33333,929.66667 236,928.33333 235,927 235,927 235,927 c -0.33333,-0.66667 -0.33333,-0.66667 -0.33333,-0.66667 -0.33334,-0.66666 -0.33334,-0.66666 -0.33334,-0.66666 -1,-1.33334 -1,-1.33334 -1,-1.33334 C 232.66667,923 232.66667,923 232.66667,923 c 0,-0.33333 -0.33334,-1 -0.33334,-1.33333 -0.66666,-1.33334 -0.66666,-1.33334 -0.66666,-1.33334 -0.33334,-1 -0.66667,-2 -0.66667,-3 C 230.66667,915 230.66667,913 230.66667,910.66667 c 0.33333,-4.66667 1.66666,-10 4,-15.33334 0,0 0.33333,-0.33333 0.66666,-0.33333 z"
           id="path9" />
        <path
           style="fill:#1d1d1b;fill-opacity:1;fill-rule:nonzero;stroke:none"
           d="m 261,886 c -0.66667,4.33333 -1,8.66667 -0.33333,12.33333 0.33333,1.66667 1,3.33334 1.66666,5 0.33334,1 0.66667,1.66667 1,2.66667 C 264,907 264,907 264,907 c 0.33333,0.33333 0.66667,0.66667 0.66667,1.33333 2,2.66667 5,5.33334 8,7.33334 1.66666,1 3.66666,2 5.66666,2.66666 C 280,919 280,919 280,919 c 1.33333,0.66667 1.33333,0.66667 1.33333,0.66667 0.66667,0 1,0.33333 1.33334,0.66666 0.33333,0 0.66666,0.33334 0.66666,0.33334 0.33334,0 0.33334,0 0.33334,0 0,0 0,0.33333 -0.33334,0.33333 0,0.33333 -0.33333,0.33333 -0.33333,0.66667 C 282.66667,922 282.66667,922 282.66667,922 c 0,0 0,0 0,0 -0.33334,0.33333 -0.33334,0.33333 -0.33334,0.33333 C 282,922.66667 282,922.66667 282,922.66667 281.66667,923 281.66667,923 281.66667,923 c 0,0 0,0 0,0 0,0 -0.33334,0.33333 -0.33334,0.33333 -0.66666,0.33334 -0.66666,0.33334 -0.66666,0.33334 C 280.33333,924 280.33333,924 280.33333,924 280,924 280,924 280,924 c 0,0.33333 0,0.33333 0,0.33333 -0.33333,0 -0.33333,0 -0.33333,0 -0.33334,0.33334 -0.66667,0.33334 -1,0.66667 -0.33334,0 -0.33334,0 -0.66667,0 0,0 0,0 0,0 -0.33333,0 -0.66667,0 -1,0 -0.66667,-0.33333 -1.33333,-0.33333 -2,-0.66667 -0.66667,0 -1,-0.33333 -1.66667,-0.33333 C 273,923.66667 272.33333,923.33333 272,923.33333 270,922 268.66667,921 267,919.66667 c -1.66667,-1.33334 -3,-2.33334 -4.33333,-4 -0.66667,-1 -0.66667,-1 -0.66667,-1 C 261.66667,914 261.66667,914 261.66667,914 c -0.33334,-0.66667 -0.33334,-0.66667 -0.33334,-0.66667 -1,-1 -1,-1 -1,-1 C 260,911 260,911 260,911 c -0.33333,-0.33333 -0.66667,-1 -0.66667,-1.33333 -0.66666,-1.33334 -0.66666,-1.33334 -0.66666,-1.33334 0,-1 -0.33334,-1.66666 -0.66667,-2.66666 -0.33333,-2 -0.33333,-4 -0.33333,-6 0,-4 1,-8.66667 2.66666,-13.33334 0,0 0.33334,-0.33333 0.33334,-0.33333 z"
           id="path10" />
        <path
           style="fill:#1d1d1b;fill-opacity:1;fill-rule:nonzero;stroke:none"
           d="M 286.33333,882.66667 C 286,886.33333 286,889.66667 286.66667,893 c 0.33333,1.66667 1,3 1.33333,4.33333 0.33333,0.66667 0.66667,1.33334 1,2.33334 0.66667,1 0.66667,1 0.66667,1 C 290,901 290,901.33333 290.33333,901.33333 c 1.66667,2.66667 4,5 6.66667,7 1.33333,1 3,1.66667 4.66667,2.33334 1,0.66666 1,0.66666 1,0.66666 C 304,911.66667 304,911.66667 304,911.66667 c 0.33333,0.33333 0.66667,0.66666 1,0.66666 0,0.33334 0.33333,0.33334 0.33333,0.33334 0.33334,0 0.33334,0.33333 0.33334,0.33333 0,0 0,0 0,0.33333 -0.33334,0 -0.33334,0 -0.66667,0.33334 0,0 0,0 0,0 C 305,914 305,914 305,914 c -0.33333,0 -0.33333,0 -0.33333,0 0,0.33333 0,0.33333 0,0.33333 -0.33334,0.33334 -0.33334,0.33334 -0.33334,0.33334 0,0 0,0 0,0 C 304,914.66667 304,915 304,915 c -0.33333,0.33333 -0.33333,0.33333 -0.33333,0.33333 -0.33334,0 -0.33334,0 -0.33334,0 C 303,915.66667 303,915.66667 303,915.66667 c 0,0 0,0 0,0 -0.33333,0 -0.33333,0 -0.33333,0 C 302.33333,916 302.33333,916 302,916 c -0.33333,0.33333 -0.33333,0.33333 -0.33333,0.33333 -0.33334,0 -0.33334,0 -0.33334,0 C 301,916.33333 300.66667,916 300.66667,916 c -0.66667,0 -1,-0.33333 -1.66667,-0.33333 -0.33333,-0.33334 -0.66667,-0.33334 -1.33333,-0.66667 -0.33334,0 -0.66667,-0.33333 -1,-0.66667 -1.66667,-1 -2.66667,-2 -4,-3 C 291.33333,910 290,909 289,907.66667 c -0.66667,-1 -0.66667,-1 -0.66667,-1 C 288,906.33333 288,906.33333 288,906.33333 c -0.33333,-0.66666 -0.33333,-0.66666 -0.33333,-0.66666 -0.66667,-1 -0.66667,-1 -0.66667,-1 -0.33333,-1 -0.33333,-1 -0.33333,-1 -0.33334,-0.33334 -0.33334,-0.66667 -0.66667,-1 -0.33333,-1.33334 -0.33333,-1.33334 -0.33333,-1.33334 C 285.33333,900.66667 285,900 285,899 c -0.33333,-1.66667 -0.66667,-3.33333 -0.66667,-5 0,-3.33333 0.33334,-7.33333 1.33334,-11 C 286,883 286,882.66667 286,882.66667 Z"
           id="path11" />
        <path
           style="fill:#1d1d1b;fill-opacity:1;fill-rule:nonzero;stroke:none"
           d="m 542,897.66667 c 1,5 1.33333,9.66666 0.66667,13.66666 -0.33334,2 -0.66667,4 -1.33334,6 C 541,918 540.33333,919 540,920 c -0.66667,1 -0.66667,1 -0.66667,1 -0.33333,0.66667 -0.33333,1 -0.66666,1.33333 -2.33334,3.33334 -5.33334,5.66667 -9,8 -2,1 -4.33334,2 -6.66667,2.66667 -2,0.66667 -2,0.66667 -2,0.66667 C 519.33333,934 519.33333,934 519.33333,934 c -0.33333,0.33333 -1,0.66667 -1.33333,1 -0.33333,0 -0.66667,0 -1,0.33333 0,0 0,0 0,0 0,0 0,0.33334 0.33333,0.33334 0,0.33333 0.33334,0.66666 0.66667,1 0,0 0,0 0,0 0,0 0,0 0,0 C 518.33333,937 518.33333,937 518.33333,937 c 0.33334,0.33333 0.33334,0.33333 0.33334,0.33333 C 519.33333,938 519.33333,938 519.33333,938 c 0,0 0,0 0,0 0,0 0.33334,0.33333 0.66667,0.33333 0.33333,0.33334 0.33333,0.33334 0.33333,0.33334 C 521,939 521,939 521,939 c 0.33333,0.33333 0.33333,0.33333 0.33333,0.33333 0.33334,0 0.33334,0 0.33334,0 0,0.33334 0,0.33334 0,0.33334 0.66666,0.33333 1,0.33333 1.33333,0.66666 0.33333,0 0.33333,0 0.66667,0.33334 0,0 0.33333,0 0.33333,0 0.33333,-0.33334 0.66667,-0.33334 1,-0.33334 1,0 1.66667,0 2.33333,-0.33333 0.66667,0 1.33334,-0.33333 2,-0.66667 0.33334,0 1,-0.33333 1.66667,-0.66666 2,-1 3.66667,-2.33334 5.66667,-3.66667 1.66666,-1 3.33333,-2.66667 4.66666,-4 1,-1.33333 1,-1.33333 1,-1.33333 C 542.66667,929 542.66667,929 542.66667,929 543,928.33333 543,928.33333 543,928.33333 544,927 544,927 544,927 c 0.66667,-1.33333 0.66667,-1.33333 0.66667,-1.33333 C 545,925.33333 545,925 545.33333,924.33333 545.66667,923 545.66667,923 545.66667,923 c 0.33333,-1 0.66666,-2 0.66666,-3 0.33334,-2.33333 0.33334,-4.33333 0.33334,-6.66667 -0.33334,-4.66666 -1.66667,-10 -4,-15.33333 0,0 -0.33334,-0.33333 -0.66667,-0.33333 z"
           id="path12" />
        <path
           style="fill:#1d1d1b;fill-opacity:1;fill-rule:nonzero;stroke:none"
           d="m 516.33333,888.66667 c 0.66667,4.33333 1,8.66666 0.33334,12.33333 -0.33334,1.66667 -1,3.66667 -1.66667,5.33333 -0.33333,0.66667 -0.66667,1.33334 -1,2.33334 -0.66667,1 -0.66667,1 -0.66667,1 C 513,910 513,910.66667 512.66667,911 c -2,2.66667 -5,5.33333 -8,7.33333 C 503,919.66667 501,920.33333 499,921 c -1.66667,0.66667 -1.66667,0.66667 -1.66667,0.66667 C 496,922.33333 496,922.33333 496,922.33333 c -0.33333,0.33334 -1,0.33334 -1.33333,0.66667 -0.33334,0 -0.66667,0.33333 -0.66667,0.33333 0,0 -0.33333,0 -0.33333,0 0,0.33334 0.33333,0.33334 0.33333,0.33334 0,0.33333 0.33333,0.66666 0.66667,0.66666 0,0.33334 0,0.33334 0,0.33334 0,0 0,0 0,0 C 495,925 495,925 495,925 c 0.33333,0.33333 0.33333,0.33333 0.33333,0.33333 0.33334,0.33334 0.33334,0.33334 0.33334,0.33334 0,0 0,0 0,0 0,0 0.33333,0.33333 0.33333,0.33333 0.66667,0.33333 0.66667,0.33333 0.66667,0.33333 C 497,926.66667 497,926.66667 497,926.66667 c 0.33333,0 0.33333,0 0.33333,0 C 497.66667,927 497.66667,927 497.66667,927 c 0,0 0,0 0,0 0.33333,0.33333 0.66666,0.33333 1,0.66667 0.33333,0 0.33333,0 0.66666,0 0,0 0,0 0.33334,0 0.33333,0 0.33333,0 0.66666,0 0.66667,-0.33334 1.33334,-0.33334 2,-0.33334 C 503,927 503.33333,926.66667 504,926.66667 504.33333,926.33333 505,926 505.33333,926 c 2,-1 3.33334,-2.33333 5,-3.66667 1.66667,-1 3,-2.33333 4.33334,-4 0.66666,-1 0.66666,-1 0.66666,-1 C 516,916.66667 516,916.66667 516,916.66667 516.33333,916 516.33333,916 516.33333,916 517,915 517,915 517,915 c 0.66667,-1.33333 0.66667,-1.33333 0.66667,-1.33333 C 517.66667,913.33333 518,913 518,912.33333 518.66667,911 518.66667,911 518.66667,911 c 0,-0.66667 0.33333,-1.66667 0.66666,-2.66667 0.33334,-2 0.33334,-4 0.33334,-6 0,-4 -1,-8.66666 -2.66667,-13.33333 0,0 -0.33333,-0.33333 -0.33333,-0.33333 z"
           id="path13" />
        <path
           style="fill:#1d1d1b;fill-opacity:1;fill-rule:nonzero;stroke:none"
           d="m 491,885.33333 c 0.33333,3.66667 0.33333,7 -0.33333,10.33334 -0.33334,1.66666 -0.66667,3 -1.33334,4.33333 -0.33333,1 -0.66666,1.66667 -1,2.33333 -0.66666,1 -0.66666,1 -0.66666,1 -0.33334,0.33334 -0.33334,0.66667 -0.66667,1 C 485.33333,906.66667 483,909 480.33333,911 479,912 477.33333,912.66667 476,913.33333 474.66667,914 474.66667,914 474.66667,914 c -1,0.66667 -1,0.66667 -1,0.66667 -0.66667,0 -1,0.33333 -1.33334,0.33333 0,0.33333 -0.33333,0.33333 -0.33333,0.33333 0,0.33334 -0.33333,0.33334 -0.33333,0.33334 0,0 0,0 0.33333,0.33333 0,0 0,0.33333 0.33333,0.33333 0,0.33334 0,0.33334 0,0.33334 0,0 0,0 0,0 0.33334,0 0.33334,0 0.33334,0 C 473,917 473,917 473,917 c 0,0.33333 0,0.33333 0,0.33333 0,0 0,0 0,0 0.33333,0 0.33333,0.33334 0.33333,0.33334 C 474,918 474,918 474,918 c 0,0 0,0 0,0 0.33333,0.33333 0.33333,0.33333 0.33333,0.33333 0.33334,0 0.33334,0 0.33334,0 0,0 0,0 0,0 C 475,918.66667 475,918.66667 475.33333,918.66667 475.66667,919 475.66667,919 475.66667,919 476,919 476,919 476,919 c 0.33333,0 0.66667,0 0.66667,-0.33333 0.66666,0 1,-0.33334 1.66666,-0.33334 0.33334,-0.33333 1,-0.33333 1.33334,-0.66666 0.33333,0 0.66666,-0.33334 1,-0.66667 1.66666,-1 3,-2 4,-3 1.33333,-1 2.66666,-2.33333 3.66666,-3.66667 0.66667,-1 0.66667,-1 0.66667,-1 C 489.33333,909 489.33333,909 489.33333,909 c 0.33334,-0.66667 0.33334,-0.66667 0.33334,-0.66667 0.66666,-1 0.66666,-1 0.66666,-1 0.33334,-1 0.33334,-1 0.33334,-1 C 491,906 491,905.66667 491.33333,905.33333 491.66667,904 491.66667,904 491.66667,904 c 0.33333,-0.66667 0.66666,-1.33333 0.66666,-2.33333 0.33334,-1.66667 0.66667,-3.33334 0.66667,-5 0.33333,-3.33334 -0.33333,-7 -1.33333,-11 0,0 -0.33334,-0.33334 -0.33334,-0.33334 z"
           id="path14" />
      </g>
      <path
         style="fill:#ffffff;stroke-width:1.2691"
         d="m 301.47332,779.74952 c -24.10115,-2.32087 -44.21359,-8.0209 -66.69071,-18.90068 -48.31441,-23.38598 -84.1733,-65.93219 -97.63997,-115.84885 -4.60668,-17.07548 -5.95047,-27.45244 -5.95578,-45.99126 -0.008,-28.51107 5.71247,-53.58877 17.80336,-78.04516 27.05864,-54.73183 77.92978,-92.00838 139.71384,-102.37727 15.80497,-2.65246 45.14178,-2.65246 60.94675,0 71.05809,11.92531 128.60818,60.71025 149.61038,126.82406 10.04784,31.63004 10.64585,70.2284 1.56781,101.19364 -14.57569,49.71775 -49.37231,90.92253 -95.98764,113.66473 -23.65749,11.54177 -43.21056,17.01383 -69.80023,19.53406 -15.37712,1.45748 -17.92131,1.45345 -33.56781,-0.0533 z m 76.71704,-72.81864 c 26.68439,-6.88068 49.73413,-26.6294 57.82015,-49.53958 3.36861,-9.54431 4.55715,-26.72291 2.5255,-36.50245 -5.10622,-24.5792 -27.05897,-47.37516 -54.18437,-56.2656 -10.42607,-3.41718 -12.61248,-3.67925 -30.27408,-3.62863 -17.17936,0.0492 -20.02947,0.38612 -29.21595,3.45345 -24.109,8.0499 -43.92899,26.26153 -51.63858,47.4482 -3.77738,10.3806 -4.59947,30.41478 -1.66259,40.5173 8.65613,29.77601 34.2615,50.45632 70.46071,56.90795 5.97846,1.06551 28.55199,-0.4265 36.16921,-2.39064 z"
         id="path23" />
      <path
         style="fill:#ffffff;stroke-width:1.2691"
         d="M 737.97885,782.8338 C 728.17574,781.56152 703.974,775.61606 694.7422,772.21218 666.81228,761.9141 643.77181,746.68213 622.36669,724.36499 577.66819,677.762 561.8897,613.32385 579.93183,551.06424 c 13.63975,-47.06792 52.40682,-91.56759 98.49379,-113.05835 14.32343,-6.67914 32.02419,-12.4816 47.54287,-15.58494 15.89218,-3.17804 53.76082,-3.18965 69.59428,-0.0213 79.95734,15.99964 139.70619,76.50401 151.84946,153.7696 2.03209,12.9298 1.71748,39.95055 -0.63538,54.57224 -1.12256,6.97604 -4.03661,18.64746 -6.47567,25.9365 -20.85244,62.31661 -74.1685,108.98578 -140.88154,123.3179 -9.5218,2.04559 -17.98051,2.78925 -34.78979,3.05857 -12.21504,0.19572 -24.20799,0.0964 -26.651,-0.22062 z m 10.74694,-72.76473 c 17.34075,-4.435 27.84325,-10.39173 40.05183,-22.71627 15.91855,-16.06974 21.49582,-28.95263 21.52459,-49.7194 0.0266,-19.23276 -6.47937,-34.37128 -20.96105,-48.77324 -10.16337,-10.10742 -19.36704,-15.96992 -31.93099,-20.33924 -39.83572,-13.85349 -84.49098,-0.20403 -106.14736,32.44531 -2.56454,3.86633 -5.87231,10.4339 -7.35059,14.59459 -3.34605,9.41764 -4.49884,26.58201 -2.44823,36.4528 4.48899,21.60812 23.92549,44.00529 46.53127,53.61914 17.15357,7.29513 42.35474,9.13605 60.73053,4.43631 z"
         id="path24" />
    </g>
  </g>
</svg>
