<?xml version="1.0" encoding="UTF-8" standalone="no"?>
<!-- Created with Inkscape (http://www.inkscape.org/) -->

<svg
   width="1040.2253"
   height="651.59943"
   viewBox="0 0 1040.2253 651.59943"
   version="1.1"
   id="svg1"
   xmlns="http://www.w3.org/2000/svg"
   xmlns:svg="http://www.w3.org/2000/svg">
  <defs
     id="defs1" />
  <g
     id="layer1"
     transform="translate(-24.018016,-198.5955)">
    <g
       id="g31">
      <g
         id="g30"
         transform="matrix(3.3039393,0,0,3.3039393,-1405.4864,-164.11442)">
        <path
           style="fill:#1d1d1b;fill-opacity:1;fill-rule:nonzero;stroke:none"
           d="m 507.66667,307 c 41.33333,0 75,-36.66667 75,-82 0,-45 -33.66667,-82 -75,-82 -41.33334,0 -75,37 -75,82 0,45.33333 33.66666,82 75,82 z m 0,-156.33333 C 545,150.66667 575.33333,184 575.33333,225 c 0,41 -30.33333,74.66667 -67.66666,74.66667 -37.33334,0 -67.33334,-33.66667 -67.33334,-74.66667 0,-41 30,-74.33333 67.33334,-74.33333 z"
           id="path1" />
        <path
           style="fill:#1d1d1b;fill-opacity:1;fill-rule:nonzero;stroke:none"
           d="m 435.33333,145.66667 c 4,-4.33334 8,-8 12.66667,-11 4.33333,-3.33334 9,-6 14,-8 2.33333,-1 5,-1.66667 7.33333,-2.33334 0.66667,-0.33333 1.33334,-0.33333 2,-0.66666 0.66667,0 1.33334,-0.33334 2,-0.33334 0.66667,-0.33333 1,-0.66666 1.66667,-0.66666 2,-1 2,-1 2,-1 2.33333,-1 4.66667,-2 7.33333,-3.33334 2.33334,-1 5,-2.33333 7.66667,-4.33333 0,-1 0,-1 0,-1 -3,-1.66667 -6,-2.33333 -9,-3 -3,-0.33333 -6.33333,-0.33333 -9.33333,0.33333 -3,0.33334 -6,1.33334 -8.66667,3 -2.66667,1.33334 -5.33333,3.33334 -7.66667,5 -5,3.33334 -9.66666,7.33334 -13.66666,12 -3.66667,4.33334 -7,9.33334 -9.33334,14.66667 z"
           id="path2" />
        <path
           style="fill:#1d1d1b;fill-opacity:1;fill-rule:nonzero;stroke:none"
           d="m 711.33333,161.33333 c -3.66666,-4.66666 -8,-8.66666 -12.66666,-12.33333 -5,-3.33333 -10.33334,-6.33333 -16,-8.33333 C 680,139.33333 677,138.33333 674,137.66667 c -3,-1 -6,-1.33334 -9,-1 -3,0 -6.33333,0.66666 -9,2 -3,1 -6,2.33333 -8.33333,4.66666 0.33333,1 0.33333,1 0.33333,1 3,1.33334 5.66667,2 8.66667,2.66667 2.66666,0.66667 5.33333,1 7.66666,1.33333 2,0.33334 2,0.33334 2,0.33334 C 667,149 667.66667,149 668.33333,149 c 0.66667,0 1.33334,0 2,0 0.66667,0 1.33334,0.33333 2,0.33333 2.66667,0 5.33334,0 8,0.33334 5,1 10.33334,2.66666 15.33334,4.66666 5,2 10,4.66667 14.66666,8 z"
           id="path3" />
        <path
           style="fill:#1d1d1b;fill-opacity:1;fill-rule:nonzero;stroke:none"
           d="m 472.66667,232.33333 c 0,17.33334 13.66666,31 31,31 17,0 31,-13.66666 31,-31 0,-17 -14,-31 -31,-31 -17.33334,0 -31,14 -31,31 z"
           id="path4" />
        <path
           style="fill:#fdfdfd;fill-opacity:1;fill-rule:nonzero;stroke:none"
           d="m 512.33333,220 c 0,4.66667 3.66667,8.66667 8.66667,8.66667 4.66667,0 8.66667,-4 8.66667,-8.66667 0,-5 -4,-9 -8.66667,-9 -5,0 -8.66667,4 -8.66667,9 z"
           id="path5" />
        <path
           style="fill:#1d1d1b;fill-opacity:1;fill-rule:nonzero;stroke:none"
           d="m 680,200.66667 c -13,1 -25.66667,7 -34.66667,16.66666 -4.33333,5 -8,11 -10.33333,17.33334 -1,3 -1.66667,6.33333 -2,10 -0.33333,3.33333 -0.33333,6.66666 0.33333,10 1,7 3.66667,13.33333 7.33334,19.33333 4,5.66667 9,10.66667 15,14 6,3.66667 12.33333,5.66667 19,6.66667 7,0.66666 13.66666,0 19.66666,-2.33334 0.33334,0 0.33334,-0.33333 0.33334,-0.33333 0,-0.33333 0,-0.33333 -0.33334,-0.33333 0,0 0,0 0,0 -6.33333,0 -12.66666,-0.66667 -18.66666,-2.33334 -5.66667,-1.66666 -11,-4.33333 -16,-7.66666 -5,-3.33334 -9.33334,-7.33334 -13,-12 -3.66667,-4.66667 -6.33334,-10 -7.33334,-16 -0.66666,-2.66667 -1,-5.66667 -1,-8.66667 0.33334,-3 0.66667,-6 1.66667,-9 1.33333,-5.66667 4.33333,-11.33333 8.33333,-16 3.66667,-5 8.66667,-9 14,-12.33333 C 665,206.33333 668,205 671,204 c 2.66667,-1 6,-2 9,-2.33333 0.33333,0 0.33333,-0.33334 0.33333,-0.66667 z"
           id="path6" />
        <path
           style="fill:#1d1d1b;fill-opacity:1;fill-rule:nonzero;stroke:none"
           d="m 742.33333,248.66667 c -8.33333,-4 -17,-7.33334 -26,-9.33334 -4.33333,-1.33333 -9,-2 -13.66666,-2.66666 -2.33334,-0.33334 -4.66667,-0.66667 -7,-1 -3.33334,0 -3.33334,0 -3.33334,0 -1,-0.33334 -2.33333,-0.33334 -3.33333,-0.33334 -3.66667,0 -3.66667,0 -3.66667,0 -3.33333,0 -3.33333,0 -3.33333,0 -2,0 -2,0 -2,0 -1.66667,0 -1.66667,0 -1.66667,0 C 675,235.66667 675,235.66667 675,235.66667 c -4.66667,0.33333 -9.33333,1 -14,1.66666 -4.66667,1 -9.33333,1.66667 -13.66667,2.66667 C 646,240.33333 645,240.66667 644,241 c -1.33333,0.33333 -2.33333,1 -3.33333,1.33333 -1,0.33334 -2.33334,1 -3.33334,1.33334 -0.33333,0.33333 -1,0.66666 -1.66666,1 0,0 0,0 -0.33334,0 0,0.33333 0,0.33333 0,0.66666 0,0.33334 0,0.66667 0,1.33334 0,0 0,0 0,0 0,0.33333 0,0.33333 0,0.33333 0,0.33333 0,0.33333 0,0.33333 0,0.66667 0,0.66667 0,0.66667 0.33334,0.66667 0.33334,0.66667 0.33334,0.66667 0,0 0,0.33333 0,0.66666 0,0 0,0 0,0 C 636,249.66667 636,249.66667 636,249.66667 636.33333,250 636.33333,250 636.33333,250 c 0.33334,0.33333 0.33334,0.33333 0.33334,0.33333 0,0.33334 0,0.33334 0,0.33334 0.33333,0 0.33333,0 0.33333,0 0.33333,0.66666 0.33333,0.66666 0.66667,1 C 638,251.66667 638,252 638.33333,252 c 0,0 0.33334,0 0.33334,0 0.66666,-0.33333 1,-0.33333 1.66666,-0.66667 1,0 2,-0.33333 3,-0.66666 3.33334,-1 3.33334,-1 3.33334,-1 3,-1 3,-1 3,-1 4.33333,-1.66667 8.33333,-3 12.66666,-4 C 671,243 680,241.66667 689,241.33333 c 1,0 2,0 3.33333,0 3.33334,0 3.33334,0 3.33334,0 2,0 4.33333,0 6.66666,0 4.33334,0.33334 9,0.66667 13.33334,1.33334 9,1.33333 17.66666,3.66666 26.33333,6.66666 0,0 0.33333,-0.33333 0.33333,-0.33333 z"
           id="path7" />
      </g>
      <path
         style="fill:#1d1d1b;fill-opacity:1;fill-rule:nonzero;stroke:none;stroke-width:2.82797"
         d="m 1049.6652,529.54947 c 2.965,12.58705 3.9534,25.17409 2.965,36.86206 -0.9883,5.39446 -2.965,10.7889 -4.9417,15.28427 -0.9884,2.69723 -1.9767,4.49537 -2.9651,7.1926 -1.9767,3.5963 -1.9767,3.5963 -1.9767,3.5963 -0.9883,0.89907 -1.9767,1.79815 -2.965,2.69722 -5.9301,8.99075 -15.8136,16.18334 -26.6855,21.57779 -5.9301,3.5963 -12.8485,5.39445 -19.76698,7.1926 -4.94176,1.79815 -4.94176,1.79815 -4.94176,1.79815 -4.94173,1.79814 -4.94173,1.79814 -4.94173,1.79814 -1.97671,0.89908 -2.96505,0.89908 -4.94176,1.79815 -0.98835,0 -0.98835,0.89908 -1.97672,0.89908 0,0 -0.98833,0 -0.98833,0 0,0.89908 0.98833,0.89908 0.98833,1.79815 0.98837,0 0.98837,0.89908 1.97672,1.79815 0,0 0,0 0,0 0.98834,0.89907 0.98834,0.89907 0.98834,0.89907 0.98837,0.89908 0.98837,0.89908 0.98837,0.89908 0.98834,0.89907 0.98834,0.89907 0.98834,0.89907 0.98833,0.89908 0.98833,0.89908 0.98833,0.89908 0,0 0,0 0,0 0.98838,0 1.97672,0.89907 1.97672,0.89907 1.97671,1.79815 1.97671,1.79815 1.97671,1.79815 0.98834,0 0.98834,0 0.98834,0 1.97671,0.89907 1.97671,0.89907 1.97671,0.89907 0,0.89908 0,0.89908 0,0.89908 0.98834,0 0.98834,0 0.98834,0 0.98834,0.89907 1.97671,1.79815 2.96505,1.79815 0.98834,0.89908 1.97671,0.89908 1.97671,0.89908 0.98834,0 0.98834,0 0.98834,0 1.97671,0 2.96505,0 3.95343,0 1.9767,-0.89908 3.9534,-0.89908 5.9301,-1.79816 1.9767,0 3.9534,-0.89907 5.9301,-0.89907 1.9767,-0.89908 3.9534,-1.79815 4.9417,-1.79815 6.9185,-3.5963 11.8602,-7.19259 16.802,-9.88982 5.9301,-3.5963 10.8718,-7.1926 14.8252,-11.68797 1.9767,-3.5963 1.9767,-3.5963 1.9767,-3.5963 1.9767,-0.89907 1.9767,-0.89907 1.9767,-0.89907 0.9884,-1.79815 0.9884,-1.79815 0.9884,-1.79815 1.9767,-3.5963 1.9767,-3.5963 1.9767,-3.5963 1.9767,-3.5963 1.9767,-3.5963 1.9767,-3.5963 0.9883,-1.79814 1.9766,-2.69722 1.9766,-4.49537 1.9768,-3.5963 1.9768,-3.5963 1.9768,-3.5963 0,-2.69722 0.9883,-5.39445 1.9767,-8.09167 0.9883,-5.39445 0.9883,-11.68797 0,-17.98149 -0.9884,-12.58704 -4.9418,-26.07316 -11.8602,-40.45835 0,-0.89909 0,-0.89909 -0.9884,-0.89909 -0.9883,-0.89906 -0.9883,-0.89906 -0.9883,0 z"
         id="path1-6" />
      <path
         style="fill:#1d1d1b;fill-opacity:1;fill-rule:nonzero;stroke:none;stroke-width:2.82797"
         d="m 963.12872,523.0418 c 1.97667,11.68797 1.97667,22.47686 0,32.36668 -0.98837,5.39444 -1.97672,9.88982 -3.95343,14.38519 -0.98833,1.79815 -1.97667,4.49537 -3.95339,6.29353 -1.97671,3.59629 -1.97671,3.59629 -1.97671,3.59629 0,0.89908 -0.98833,1.79815 -1.97667,2.69723 -5.93011,8.09167 -13.83692,14.38519 -23.72041,20.67872 -4.94176,2.69722 -10.87186,4.49537 -16.80197,6.29351 -3.95339,1.79815 -3.95339,1.79815 -3.95339,1.79815 -4.94176,1.79815 -4.94176,1.79815 -4.94176,1.79815 -0.98834,0.89908 -1.97671,1.79815 -3.95339,1.79815 0,0.89908 -0.98837,0.89908 -1.97671,0.89908 0,0 0,0 0,0.89907 0,0 0,0 0,0.89907 0.98834,0 0.98834,0.89908 1.97671,1.79816 0,0 0,0 0,0 0.98834,0 0.98834,0 0.98834,0 0.98834,0.89907 0.98834,0.89907 0.98834,0.89907 0,0.89908 0,0.89908 0,0.89908 0.98837,0.89907 0.98837,0.89907 0.98837,0.89907 0,0 0,0 0,0 0.98834,0.89907 0.98834,0.89907 1.97668,0.89907 0.98837,0.89908 0.98837,0.89908 0.98837,0.89908 0.98834,0.89907 0.98834,0.89907 0.98834,0.89907 1.97671,0.89908 1.97671,0.89908 1.97671,0.89908 0,0 0,0 0,0 0.98834,0 0.98834,0 0.98834,0 0.98834,0.89907 1.97671,1.79814 1.97671,1.79814 0.98834,0 1.97669,0.89908 1.97669,0.89908 0.98836,0 0.98836,0 0.98836,0 0.98834,0 1.97668,-0.89908 2.96505,-0.89908 1.97669,0 3.95339,-0.89907 4.94173,-0.89907 1.97672,-0.89907 3.95342,-0.89907 4.94177,-1.79815 1.97671,-0.89907 2.96505,-0.89907 4.94176,-1.79815 4.94173,-2.69722 9.88349,-6.29352 14.82525,-8.99074 3.95339,-3.5963 8.89515,-7.1926 11.86021,-10.78889 2.96504,-3.59631 2.96504,-3.59631 2.96504,-3.59631 0.98834,-0.89907 0.98834,-0.89907 0.98834,-0.89907 0.98835,-1.79815 0.98835,-1.79815 0.98835,-1.79815 1.97671,-3.5963 1.97671,-3.5963 1.97671,-3.5963 1.9767,-3.59629 1.9767,-3.59629 1.9767,-3.59629 0.98835,-0.89908 0.98835,-1.79816 1.97669,-2.69723 0.98837,-3.5963 0.98837,-3.5963 0.98837,-3.5963 0.98834,-2.69722 1.97667,-5.39444 1.97667,-8.09167 0.98838,-4.49537 1.97672,-9.88982 1.97672,-16.18334 -0.98834,-10.78889 -2.96505,-22.47686 -7.90682,-35.96298 -0.98833,0 -0.98833,0 -1.97667,-0.89908 z"
         id="path2-1" />
      <path
         style="fill:#1d1d1b;fill-opacity:1;fill-rule:nonzero;stroke:none;stroke-width:2.82797"
         d="m 891.82137,533.08748 c 0.98837,9.88982 0.98837,18.88057 -1.97668,26.97224 -0.98837,4.49537 -1.97672,8.09167 -3.95342,12.58704 -0.98834,1.79815 -1.97668,3.5963 -2.96506,5.39445 -0.98834,2.69722 -0.98834,2.69722 -0.98834,2.69722 -0.98833,0.89908 -1.9767,1.79815 -1.9767,2.69723 -4.94173,7.19259 -11.8602,12.58704 -19.767,17.98149 -3.9534,2.69722 -8.89515,4.49537 -13.8369,6.29352 -2.96505,1.79815 -2.96505,1.79815 -2.96505,1.79815 -3.9534,1.79815 -3.9534,1.79815 -3.9534,1.79815 -0.98835,0 -1.9767,0.89907 -2.96505,1.79815 -0.98836,0 -0.98836,0 -1.9767,0.89907 0,0 0,0 0,0 0,0 0,0.89908 0,0.89908 0,0 0.98834,0.89907 0.98834,1.79814 0.98836,0 0.98836,0 0.98836,0 0,0 0,0 0,0 0,0.89908 0,0.89908 0,0.89908 0.98835,0 0.98835,0 0.98835,0 0.98835,0.89907 0.98835,0.89907 0.98835,0.89907 0,0 0,0 0,0 0,0.89908 0.98835,0.89908 0.98835,0.89908 0.98835,0.89907 0.98835,0.89907 0.98835,0.89907 0.98835,0.89908 0.98835,0.89908 0.98835,0.89908 0.98835,0 0.98835,0 0.98835,0 0,0 0,0 0,0 0,0.89908 0,0.89908 0,0.89908 0.98835,0 1.9767,0 2.96505,0.89906 0,0 0.98835,0 0.98835,0 0,0 0,0 0.98835,0 0,0 0.98835,0 1.9767,0 0.98835,-0.89906 2.96505,-0.89906 3.9534,-1.79814 1.9767,0 2.96505,-0.89908 3.9534,-0.89908 1.9767,-0.89907 2.96505,-1.79815 3.9534,-1.79815 3.9534,-2.69722 7.90681,-6.29352 11.8602,-8.99074 3.95339,-2.69723 6.91845,-6.29353 9.88349,-8.99075 1.97672,-2.69722 1.97672,-2.69722 1.97672,-2.69722 1.97671,-1.79815 1.97671,-1.79815 1.97671,-1.79815 0,-0.89907 0,-0.89907 0,-0.89907 1.97668,-3.59631 1.97668,-3.59631 1.97668,-3.59631 1.97671,-2.69722 1.97671,-2.69722 1.97671,-2.69722 0.98834,-0.89907 0.98834,-1.79815 0.98834,-2.69722 1.9767,-2.69722 1.9767,-2.69722 1.9767,-2.69722 0,-2.69723 0.98835,-4.49538 1.97672,-6.29353 0.98834,-4.49537 1.97668,-8.99074 1.97668,-14.38519 0,-8.99074 -0.98834,-18.88057 -4.94173,-29.66946 0,0 0,0 -0.98837,-0.89908 z"
         id="path3-5" />
      <path
         style="fill:#1d1d1b;fill-opacity:1;fill-rule:nonzero;stroke:none;stroke-width:2.82797"
         d="m 80.08107,259.40909 c -2.965,12.58705 -3.9534,25.17409 -2.965,36.86206 0.9883,5.39446 2.965,10.7889 4.9417,15.28427 0.9884,2.69723 1.9767,4.49537 2.9651,7.1926 1.9767,3.5963 1.9767,3.5963 1.9767,3.5963 0.9883,0.89907 1.9767,1.79815 2.965,2.69722 5.9301,8.99075 15.8136,16.18334 26.68547,21.57779 5.9301,3.5963 12.8485,5.39445 19.76698,7.1926 4.94176,1.79815 4.94176,1.79815 4.94176,1.79815 4.94173,1.79814 4.94173,1.79814 4.94173,1.79814 1.97671,0.89908 2.96505,0.89908 4.94176,1.79815 0.98835,0 0.98835,0.89908 1.97672,0.89908 0,0 0.98833,0 0.98833,0 0,0.89908 -0.98833,0.89908 -0.98833,1.79815 -0.98837,0 -0.98837,0.89908 -1.97672,1.79815 0,0 0,0 0,0 -0.98834,0.89907 -0.98834,0.89907 -0.98834,0.89907 -0.98837,0.89908 -0.98837,0.89908 -0.98837,0.89908 -0.98834,0.89907 -0.98834,0.89907 -0.98834,0.89907 -0.98833,0.89908 -0.98833,0.89908 -0.98833,0.89908 0,0 0,0 0,0 -0.98838,0 -1.97672,0.89907 -1.97672,0.89907 -1.97671,1.79815 -1.97671,1.79815 -1.97671,1.79815 -0.98834,0 -0.98834,0 -0.98834,0 -1.97671,0.89907 -1.97671,0.89907 -1.97671,0.89907 0,0.89908 0,0.89908 0,0.89908 -0.98834,0 -0.98834,0 -0.98834,0 -0.98834,0.89907 -1.97672,1.79815 -2.96506,1.79815 -0.98834,0.89908 -1.97671,0.89908 -1.97671,0.89908 -0.98834,0 -0.98834,0 -0.98834,0 -1.97671,0 -2.96505,0 -3.95343,0 -1.9767,-0.89908 -3.9534,-0.89908 -5.9301,-1.79816 -1.9767,0 -3.9534,-0.89907 -5.9301,-0.89907 -1.9767,-0.89908 -3.9534,-1.79815 -4.9417,-1.79815 -6.91847,-3.5963 -11.86017,-7.19259 -16.80197,-9.88982 -5.9301,-3.5963 -10.8718,-7.1926 -14.8252,-11.68797 -1.9767,-3.5963 -1.9767,-3.5963 -1.9767,-3.5963 -1.9767,-0.89907 -1.9767,-0.89907 -1.9767,-0.89907 -0.9884,-1.79815 -0.9884,-1.79815 -0.9884,-1.79815 -1.9767,-3.5963 -1.9767,-3.5963 -1.9767,-3.5963 -1.9767,-3.5963 -1.9767,-3.5963 -1.9767,-3.5963 -0.98829,-1.79814 -1.9766,-2.69722 -1.9766,-4.49537 -1.9768,-3.5963 -1.9768,-3.5963 -1.9768,-3.5963 0,-2.69722 -0.9883,-5.39445 -1.9767,-8.09167 -0.9883,-5.39445 -0.9883,-11.68797 0,-17.98149 0.9884,-12.58704 4.9418,-26.07316 11.8602,-40.45835 0,-0.89909 0,-0.89909 0.9884,-0.89909 0.9883,-0.89906 0.9883,-0.89906 0.98831,0 z"
         id="path1-6-7" />
      <path
         style="fill:#1d1d1b;fill-opacity:1;fill-rule:nonzero;stroke:none;stroke-width:2.82797"
         d="m 153.92657,232.5959 c -1.97667,11.68797 -1.97667,22.47686 0,32.36668 0.98836,5.39444 1.97672,9.88982 3.95343,14.38519 0.98833,1.79815 1.97667,4.49537 3.95339,6.29353 1.97671,3.59629 1.97671,3.59629 1.97671,3.59629 0,0.89908 0.98833,1.79815 1.97667,2.69723 5.93011,8.09167 13.83692,14.38519 23.72041,20.67872 4.94176,2.69722 10.87186,4.49537 16.80197,6.29351 3.95339,1.79815 3.95339,1.79815 3.95339,1.79815 4.94176,1.79815 4.94176,1.79815 4.94176,1.79815 0.98834,0.89908 1.97671,1.79815 3.95339,1.79815 0,0.89908 0.98837,0.89908 1.97671,0.89908 0,0 0,0 0,0.89907 0,0 0,0 0,0.89907 -0.98834,0 -0.98834,0.89908 -1.97671,1.79816 0,0 0,0 0,0 -0.98834,0 -0.98834,0 -0.98834,0 -0.98834,0.89907 -0.98834,0.89907 -0.98834,0.89907 0,0.89908 0,0.89908 0,0.89908 -0.98837,0.89907 -0.98837,0.89907 -0.98837,0.89907 0,0 0,0 0,0 -0.98834,0.89907 -0.98834,0.89907 -1.97668,0.89907 -0.98837,0.89908 -0.98837,0.89908 -0.98837,0.89908 -0.98834,0.89907 -0.98834,0.89907 -0.98834,0.89907 -1.97671,0.89908 -1.97671,0.89908 -1.97671,0.89908 0,0 0,0 0,0 -0.98834,0 -0.98834,0 -0.98834,0 -0.98834,0.89907 -1.97671,1.79814 -1.97671,1.79814 -0.98834,0 -1.97669,0.89908 -1.97669,0.89908 -0.98836,0 -0.98836,0 -0.98836,0 -0.98834,0 -1.97668,-0.89908 -2.96505,-0.89908 -1.97669,0 -3.95339,-0.89907 -4.94173,-0.89907 -1.97672,-0.89907 -3.95342,-0.89907 -4.94177,-1.79815 -1.97671,-0.89907 -2.96505,-0.89907 -4.94176,-1.79815 -4.94173,-2.69722 -9.88349,-6.29352 -14.82525,-8.99074 -3.95339,-3.5963 -8.89515,-7.1926 -11.86021,-10.78889 -2.96504,-3.59631 -2.96504,-3.59631 -2.96504,-3.59631 -0.98834,-0.89907 -0.98834,-0.89907 -0.98834,-0.89907 -0.98835,-1.79815 -0.98835,-1.79815 -0.98835,-1.79815 -1.97671,-3.5963 -1.97671,-3.5963 -1.97671,-3.5963 -1.9767,-3.59629 -1.9767,-3.59629 -1.9767,-3.59629 -0.98835,-0.89908 -0.98835,-1.79816 -1.97669,-2.69723 -0.98837,-3.5963 -0.98837,-3.5963 -0.98837,-3.5963 -0.98834,-2.69722 -1.97667,-5.39444 -1.97667,-8.09167 -0.98838,-4.49537 -1.97672,-9.88982 -1.97672,-16.18334 0.98834,-10.78889 2.96505,-22.47686 7.90682,-35.96298 0.98833,0 0.98833,0 1.97667,-0.89908 z"
         id="path2-1-3" />
      <path
         style="fill:#1d1d1b;fill-opacity:1;fill-rule:nonzero;stroke:none;stroke-width:2.82797"
         d="m 225.23392,242.64158 c -0.98837,9.88982 -0.98837,18.88057 1.97667,26.97224 0.98837,4.49537 1.97672,8.09167 3.95342,12.58704 0.98834,1.79815 1.97668,3.5963 2.96506,5.39445 0.98834,2.69722 0.98834,2.69722 0.98834,2.69722 0.98833,0.89908 1.9767,1.79815 1.9767,2.69723 4.94173,7.19259 11.8602,12.58704 19.767,17.98149 3.9534,2.69722 8.89515,4.49537 13.8369,6.29352 2.96506,1.79815 2.96506,1.79815 2.96506,1.79815 3.95339,1.79815 3.95339,1.79815 3.95339,1.79815 0.98836,0 1.9767,0.89907 2.96506,1.79815 0.98836,0 0.98836,0 1.9767,0.89907 0,0 0,0 0,0 0,0 0,0.89908 0,0.89908 0,0 -0.98834,0.89907 -0.98834,1.79814 -0.98836,0 -0.98836,0 -0.98836,0 0,0 0,0 0,0 0,0.89908 0,0.89908 0,0.89908 -0.98836,0 -0.98836,0 -0.98836,0 -0.98835,0.89907 -0.98835,0.89907 -0.98835,0.89907 0,0 0,0 0,0 0,0.89908 -0.98835,0.89908 -0.98835,0.89908 -0.98835,0.89907 -0.98835,0.89907 -0.98835,0.89907 -0.98835,0.89908 -0.98835,0.89908 -0.98835,0.89908 -0.98835,0 -0.98835,0 -0.98835,0 0,0 0,0 0,0 0,0.89908 0,0.89908 0,0.89908 -0.98835,0 -1.9767,0 -2.96505,0.89906 0,0 -0.98835,0 -0.98835,0 0,0 0,0 -0.98835,0 0,0 -0.98835,0 -1.9767,0 -0.98835,-0.89906 -2.96505,-0.89906 -3.9534,-1.79814 -1.9767,0 -2.96505,-0.89908 -3.9534,-0.89908 -1.9767,-0.89907 -2.96505,-1.79815 -3.9534,-1.79815 -3.9534,-2.69722 -7.90681,-6.29352 -11.8602,-8.99074 -3.95339,-2.69723 -6.91845,-6.29353 -9.88349,-8.99075 -1.97672,-2.69722 -1.97672,-2.69722 -1.97672,-2.69722 -1.97671,-1.79815 -1.97671,-1.79815 -1.97671,-1.79815 0,-0.89907 0,-0.89907 0,-0.89907 -1.97668,-3.59631 -1.97668,-3.59631 -1.97668,-3.59631 -1.97671,-2.69722 -1.97671,-2.69722 -1.97671,-2.69722 -0.98834,-0.89907 -0.98834,-1.79815 -0.98834,-2.69722 -1.9767,-2.69722 -1.9767,-2.69722 -1.9767,-2.69722 0,-2.69723 -0.98835,-4.49538 -1.97672,-6.29353 -0.98834,-4.49537 -1.97668,-8.99074 -1.97668,-14.38519 0,-8.99074 0.98834,-18.88057 4.94173,-29.66946 0,0 0,0 0.98837,-0.89908 z"
         id="path3-5-7" />
      <path
         style="fill:#ffffff;stroke-width:1.2691"
         d="M 250.6463,824.12344 C 187.75281,816.89673 131.28958,781.2814 93.46987,724.98125 74.313182,696.46371 60.546798,661.57711 53.750606,624.32518 c -4.041499,-22.15264 -4.053053,-68.05402 -0.02264,-89.96646 10.484495,-57.00189 35.396831,-104.3533 74.245084,-141.1192 84.33322,-79.81277 209.29162,-78.10737 292.15648,3.98727 37.20044,36.85467 60.26245,81.22316 70.53961,135.70959 3.78107,20.04607 4.6712,59.2877 1.81549,80.03659 -6.15915,44.75094 -21.11168,83.22362 -46.11776,118.6604 -10.42684,14.77614 -39.0351,43.67173 -52.94736,53.47913 -43.56092,30.70812 -94.32263,44.57811 -142.77321,39.01094 z m 36.76902,-121.63952 c 27.65271,-7.9995 50.09444,-26.79498 62.93223,-52.70719 7.92909,-16.00433 10.71003,-28.0322 10.71003,-46.32197 0,-28.89251 -9.29926,-51.61977 -29.51343,-72.13042 -28.94898,-29.37358 -71.49849,-38.53407 -110.55584,-23.80162 -40.70974,15.35575 -67.6709,57.45495 -65.09418,101.64297 2.76841,47.47529 34.44916,84.80276 80.79212,95.19236 12.02013,2.69479 38.29011,1.72427 50.72907,-1.87413 z"
         id="path30" />
    </g>
  </g>
</svg>
