<?xml version="1.0" encoding="UTF-8" standalone="no"?>
<!-- Created with Inkscape (http://www.inkscape.org/) -->

<svg
   width="1080"
   height="1080"
   viewBox="0 0 1080 1080"
   version="1.1"
   id="svg1"
   xmlns="http://www.w3.org/2000/svg"
   xmlns:svg="http://www.w3.org/2000/svg">
  <defs
     id="defs1" />
  <g
     id="layer1">
    <g
       id="g29">
      <g
         id="g28"
         transform="matrix(2.6046851,0,0,2.6046851,-2409.3717,-1923.1027)">
        <path
           style="fill:#1d1d1b;fill-opacity:1;fill-rule:nonzero;stroke:none"
           d="m 1223.3333,1038 c 43.3334,0 78.6667,-37.6667 78.6667,-83.66667 0,-46.33333 -35.3333,-84 -78.6667,-84 -43.3333,0 -78.6666,37.66667 -78.6666,84 0,45.99997 35.3333,83.66667 78.6666,83.66667 z m 0,-160.33333 c 39,0 71,34.33333 71,76.66666 0,42 -32,76.33337 -71,76.33337 C 1184,1030.6667 1152,996.33333 1152,954.33333 1152,912 1184,877.66667 1223.3333,877.66667 Z"
           id="path1" />
        <path
           style="fill:#1d1d1b;fill-opacity:1;fill-rule:nonzero;stroke:none"
           d="m 1223.3333,1010 c 28,0 50.6667,-25 50.6667,-55.66667 0,-31 -22.6667,-56 -50.6667,-56 -28,0 -50.6666,25 -50.6666,56 0,30.66667 22.6666,55.66667 50.6666,55.66667 z"
           id="path2" />
        <path
           style="fill:#ffffff;fill-opacity:1;fill-rule:nonzero;stroke:none"
           d="M 1255.3333,933.66667 C 1255.3333,922 1245.6667,913 1233.6667,913 c -11.6667,0 -21.3334,9 -21.3334,20.66667 0,11.33333 9.6667,20.66666 21.3334,20.66666 12,0 21.6666,-9.33333 21.6666,-20.66666 z"
           id="path3" />
        <path
           style="fill:#ffffff;fill-opacity:1;fill-rule:nonzero;stroke:none"
           d="m 1229.3333,979.66667 c 0,8.33333 6.3334,15 14,15 7.6667,0 13.6667,-6.66667 13.6667,-15 0,-8.33334 -6,-15 -13.6667,-15 -7.6666,0 -14,6.66666 -14,15 z"
           id="path4" />
        <path
           style="fill:#ffffff;fill-opacity:1;fill-rule:nonzero;stroke:none"
           d="m 1179.6667,970 c 0,9.66667 7.3333,18 16.3333,18 9,0 16.3333,-8.33333 16.3333,-18 0,-10 -7.3333,-18.33333 -16.3333,-18.33333 -9,0 -16.3333,8.33333 -16.3333,18.33333 z"
           id="path5" />
        <path
           style="fill:#1d1d1b;fill-opacity:1;fill-rule:nonzero;stroke:none"
           d="M 1283.3333,875.66667 C 1283,874 1282.3333,872 1282,870.33333 c -0.3333,-0.66666 -1,-1.66666 -1.3333,-2.33333 -0.3334,-1 -0.6667,-1.66667 -1,-2.33333 -1.6667,-3.33334 -4,-6.33334 -6.6667,-9 -5,-5.33334 -11.6667,-9.33334 -18.6667,-11.66667 -7.3333,-2.33333 -15,-2.66667 -22.3333,-1.33333 -3.6667,1 -7,2 -10.3333,3.66666 -3,1.66667 -6,3.66667 -8.6667,6.33334 7,-1 13.6667,-1.33334 20,-1 6,0.33333 12,1.33333 18,3 5.6667,1.66666 11,4.33333 16.3333,7.66666 3,1.66667 5.3334,3.66667 8,5.66667 2.6667,2 5.3334,4.33333 8,6.66667 z"
           id="path6" />
        <path
           style="fill:#1d1d1b;fill-opacity:1;fill-rule:nonzero;stroke:none"
           d="m 1044,1038 c 43.3333,0 78.6667,-37.6667 78.6667,-83.66667 0,-46.33333 -35.3334,-84 -78.6667,-84 -43.3333,0 -78.66667,37.66667 -78.66667,84 0,45.99997 35.33337,83.66667 78.66667,83.66667 z m 0,-160.33333 c 39.3333,0 71.3333,34.33333 71.3333,76.66666 0,42 -32,76.33337 -71.3333,76.33337 -39,0 -71,-34.33337 -71,-76.33337 0,-42.33333 32,-76.66666 71,-76.66666 z"
           id="path7" />
        <path
           style="fill:#1d1d1b;fill-opacity:1;fill-rule:nonzero;stroke:none"
           d="m 1044,1010 c 28,0 51,-25 51,-55.66667 0,-31 -23,-56 -51,-56 -27.6667,0 -50.66667,25 -50.66667,56 C 993.33333,985 1016.3333,1010 1044,1010 Z"
           id="path8" />
        <path
           style="fill:#ffffff;fill-opacity:1;fill-rule:nonzero;stroke:none"
           d="M 1076.3333,933.66667 C 1076.3333,922 1066.6667,913 1054.6667,913 c -12,0 -21.6667,9 -21.6667,20.66667 0,11.33333 9.6667,20.66666 21.6667,20.66666 12,0 21.6666,-9.33333 21.6666,-20.66666 z"
           id="path9" />
        <path
           style="fill:#ffffff;fill-opacity:1;fill-rule:nonzero;stroke:none"
           d="m 1050.3333,979.66667 c 0,8.33333 6.3334,15 13.6667,15 7.6667,0 14,-6.66667 14,-15 0,-8.33334 -6.3333,-15 -14,-15 -7.3333,0 -13.6667,6.66666 -13.6667,15 z"
           id="path10" />
        <path
           style="fill:#ffffff;fill-opacity:1;fill-rule:nonzero;stroke:none"
           d="m 1000.3333,970 c 0,9.66667 7.3334,18 16.3334,18 9,0 16.3333,-8.33333 16.3333,-18 0,-10 -7.3333,-18.33333 -16.3333,-18.33333 -9,0 -16.3334,8.33333 -16.3334,18.33333 z"
           id="path11" />
        <path
           style="fill:#1d1d1b;fill-opacity:1;fill-rule:nonzero;stroke:none"
           d="m 990.33333,869.33333 c 2.66667,-2.66666 5,-5 7.33334,-7.33333 2.33333,-2 5.00003,-4.33333 7.66663,-6 5,-3.66667 10.3334,-6.66667 16,-9 5.3334,-2 11.3334,-3.66667 17.6667,-4.33333 C 1045.3333,842 1051.6667,842 1059,842.33333 1056.3333,840 1053,838 1049.6667,836.66667 c -3.3334,-1.33334 -7,-2.33334 -10.6667,-2.66667 -7.3333,-1 -15,0 -22,2.66667 -7,2.66666 -13.3333,7.33333 -18,13 -2.33333,3 -4.33333,6 -5.66667,9.33333 -0.33333,0.66667 -0.66666,1.66667 -1,2.33333 -0.33333,1 -0.66666,1.66667 -1,2.66667 -0.33333,1.66667 -1,3.33333 -1,5.33333 z"
           id="path12" />
        <path
           style="fill:#de5b55;fill-opacity:1;fill-rule:nonzero;stroke:none"
           d="m 1255.3333,1034.3333 c 0,13 18,23.3334 40,23.3334 22,0 40,-10.3334 40,-23.3334 0,-13 -18,-23.3333 -40,-23.3333 -22,0 -40,10.3333 -40,23.3333 z"
           id="path13" />
        <path
           style="fill:#de5b55;fill-opacity:1;fill-rule:nonzero;stroke:none"
           d="m 929.33333,1034.3333 c 0,13 17.66667,23.3334 40,23.3334 22,0 39.99997,-10.3334 39.99997,-23.3334 0,-13 -17.99997,-23.3333 -39.99997,-23.3333 -22.33333,0 -40,10.3333 -40,23.3333 z"
           id="path14" />
      </g>
      <path
         style="fill:#ffffff;stroke-width:1.79477"
         d="m 282.06586,758.31432 c -24.57627,-4.43271 -53.0947,-16.53833 -73.84706,-31.3469 -27.05961,-19.30934 -55.16066,-55.85757 -67.45045,-87.72607 -11.57189,-30.00691 -13.28351,-40.06173 -13.18897,-77.47783 0.0792,-31.35233 0.47931,-35.54716 4.96434,-52.04838 9.65222,-35.51225 32.32503,-73.95755 57.21416,-97.01554 66.29383,-61.4165 161.39563,-64.83527 231.22178,-8.31208 32.55425,26.35218 55.69774,63.14891 67.58603,107.4577 4.21449,15.70779 4.74016,21.00894 4.861,49.02091 0.10587,24.53826 -0.58974,34.54919 -3.18008,45.76668 -16.74072,72.49581 -70.36963,130.52927 -137.06467,148.32183 -15.64823,4.17456 -56.02302,6.08196 -71.11608,3.35968 z m 55.12085,-52.95219 c 25.85625,-5.47802 53.51269,-22.84449 71.92105,-45.1618 38.2318,-46.35019 45.25637,-113.22954 17.69073,-168.42914 -17.78081,-35.60568 -50.23105,-62.60675 -86.68927,-72.13209 -15.71994,-4.1071 -45.54268,-4.03619 -60.87872,0.14476 -40.41543,11.01815 -75.55344,43.72699 -91.38787,85.07004 -7.99425,20.87266 -10.05374,32.99612 -9.97249,58.70439 0.0931,29.46799 3.34544,43.38462 16.30152,69.75425 17.01264,34.62597 49.53739,61.73075 85.32725,71.10822 15.92396,4.17232 40.54168,4.57405 57.6878,0.94137 z"
         id="path28" />
      <path
         style="fill:#ffffff;stroke-width:1.79477"
         d="m 747.52284,758.14027 c -16.58886,-2.93017 -43.19954,-12.964 -58.45291,-22.0403 -32.44078,-19.3034 -56.58098,-45.60048 -74.36405,-81.00833 -26.12226,-52.01201 -29.52734,-109.23535 -9.772,-164.2216 29.60854,-82.41133 110.18766,-135.57758 190.63683,-125.78255 83.4805,10.16411 149.48768,77.83951 162.93687,167.05483 15.07027,99.96871 -46.00123,198.08661 -138.68502,222.81232 -16.09179,4.29289 -56.0608,6.05398 -72.29972,3.18563 z m 59.6652,-53.57496 c 44.11591,-11.28296 79.06909,-45.6272 95.1024,-93.44557 5.51515,-16.44864 5.7195,-18.12705 5.79045,-47.56145 0.0864,-35.82025 -2.62688,-48.17856 -16.52263,-75.25799 -6.81041,-13.27182 -11.51474,-19.43346 -25.49147,-33.38816 -27.02511,-26.98251 -52.78877,-38.21986 -88.03329,-38.39753 -21.47352,-0.10824 -33.11107,2.3082 -51.46446,10.68617 -24.07824,10.99125 -42.86066,27.2264 -57.41376,49.62729 -16.43845,25.30294 -24.33901,53.114 -24.38334,85.83283 -0.0919,67.84547 41.55543,126.0882 101.36759,141.75986 17.69976,4.6376 43.24435,4.69808 61.04851,0.14455 z"
         id="path29" />
    </g>
    <g
       id="g30">
      <path
         style="fill:#1d1d1b;fill-opacity:1;fill-rule:nonzero;stroke:none;stroke-width:3.24451"
         d="m 992.50584,292.10492 c 3.15615,15.56505 4.20815,31.13011 3.15615,45.58335 -1.0521,6.67073 -3.15615,13.34146 -5.26024,18.90041 -1.05203,3.33537 -2.10406,5.55892 -3.15612,8.89429 -2.10406,4.44717 -2.10406,4.44717 -2.10406,4.44717 -1.05207,1.11178 -2.1041,2.22356 -3.15613,3.33537 -6.31224,11.11787 -16.83266,20.01219 -28.40509,26.68292 -6.31224,4.44715 -13.67655,6.67074 -21.04082,8.89429 -5.26021,2.22359 -5.26021,2.22359 -5.26021,2.22359 -5.26019,2.22359 -5.26019,2.22359 -5.26019,2.22359 -2.10409,1.11177 -3.15612,1.11177 -5.26021,2.22355 -1.05203,0 -1.05203,1.11181 -2.10409,1.11181 0,0 -1.05203,0 -1.05203,0 0,1.11178 1.05203,1.11178 1.05203,2.22356 1.05206,0 1.05206,1.11181 2.10409,2.22359 0,0 0,0 0,0 1.05203,1.11177 1.05203,1.11177 1.05203,1.11177 1.05206,1.11181 1.05206,1.11181 1.05206,1.11181 1.05203,1.11178 1.05203,1.11178 1.05203,1.11178 1.05203,1.11178 1.05203,1.11178 1.05203,1.11178 0,0 0,0 0,0 1.05206,0 2.10409,1.11181 2.10409,1.11181 2.1041,2.22355 2.1041,2.22355 2.1041,2.22355 1.05203,0 1.05203,0 1.05203,0 2.10409,1.11182 2.10409,1.11182 2.10409,1.11182 0,1.11177 0,1.11177 0,1.11177 1.05203,0 1.05203,0 1.05203,0 1.05203,1.11178 2.10409,2.22359 3.15612,2.22359 1.05203,1.11178 2.10409,1.11178 2.10409,1.11178 1.05203,0 1.05203,0 1.05203,0 2.10409,0 3.15612,0 4.20815,0 2.10409,-1.11178 4.20819,-1.11178 6.31225,-2.22359 2.10409,0 4.20818,-1.11178 6.31224,-1.11178 2.10409,-1.11177 4.20818,-2.22359 5.26021,-2.22359 7.36428,-4.44714 12.62449,-8.89428 17.8847,-12.22965 6.31224,-4.44717 11.57243,-8.89432 15.78061,-14.45327 2.10406,-4.44714 2.10406,-4.44714 2.10406,-4.44714 2.10412,-1.11178 2.10412,-1.11178 2.10412,-1.11178 1.052,-2.22359 1.052,-2.22359 1.052,-2.22359 2.1041,-4.44714 2.1041,-4.44714 2.1041,-4.44714 2.10411,-4.44718 2.10411,-4.44718 2.10411,-4.44718 1.052,-2.22355 2.104,-3.33536 2.104,-5.55892 2.1041,-4.44718 2.1041,-4.44718 2.1041,-4.44718 0,-3.33536 1.0521,-6.67073 2.1042,-10.00609 1.052,-6.67073 1.052,-14.45324 0,-22.23575 -1.0521,-15.56505 -5.2603,-32.24188 -12.62461,-50.03049 0,-1.11181 0,-1.11181 -1.05202,-1.11181 -1.05203,-1.11177 -1.05203,-1.11177 -1.05203,0 z"
         id="path1-9" />
      <path
         style="fill:#1d1d1b;fill-opacity:1;fill-rule:nonzero;stroke:none;stroke-width:3.24451"
         d="m 918.38378,254.45885 c 2.10406,14.45328 2.10406,27.79474 0,40.02439 -1.05206,6.67073 -2.10409,12.22969 -4.20818,17.78864 -1.05203,2.22355 -2.10406,5.55892 -4.20816,7.78251 -2.10409,4.44714 -2.10409,4.44714 -2.10409,4.44714 0,1.11181 -1.05203,2.22359 -2.10406,3.33537 -6.31224,10.00609 -14.72857,17.78864 -25.24897,25.57114 -5.26021,3.33537 -11.57246,5.55896 -17.8847,7.78251 -4.20815,2.22359 -4.20815,2.22359 -4.20815,2.22359 -5.26021,2.22359 -5.26021,2.22359 -5.26021,2.22359 -1.05203,1.11178 -2.1041,2.22355 -4.20816,2.22355 0,1.11182 -1.05206,1.11182 -2.10409,1.11182 0,0 0,0 0,1.11177 0,0 0,0 0,1.11178 1.05203,0 1.05203,1.11181 2.10409,2.22359 0,0 0,0 0,0 1.05203,0 1.05203,0 1.05203,0 1.05203,1.11178 1.05203,1.11178 1.05203,1.11178 0,1.11181 0,1.11181 0,1.11181 1.05207,1.11177 1.05207,1.11177 1.05207,1.11177 0,0 0,0 0,0 1.05203,1.11178 1.05203,1.11178 2.10406,1.11178 1.05206,1.11181 1.05206,1.11181 1.05206,1.11181 1.05203,1.11178 1.05203,1.11178 1.05203,1.11178 2.10409,1.11178 2.10409,1.11178 2.10409,1.11178 0,0 0,0 0,0 1.05203,0 1.05203,0 1.05203,0 1.05203,1.11181 2.10409,2.22359 2.10409,2.22359 1.05203,0 2.10406,1.11177 2.10406,1.11177 1.05206,0 1.05206,0 1.05206,0 1.05203,0 2.10406,-1.11177 3.15612,-1.11177 2.10406,0 4.20816,-1.11178 5.26019,-1.11178 2.10409,-1.11181 4.20818,-1.11181 5.26021,-2.22359 2.10409,-1.11178 3.15612,-1.11178 5.26021,-2.22359 5.26018,-3.33536 10.5204,-7.78251 15.78061,-11.11787 4.20815,-4.44715 9.46836,-8.89432 12.62449,-13.34147 3.15612,-4.44714 3.15612,-4.44714 3.15612,-4.44714 1.05203,-1.11181 1.05203,-1.11181 1.05203,-1.11181 1.05203,-2.22355 1.05203,-2.22355 1.05203,-2.22355 2.10409,-4.44718 2.10409,-4.44718 2.10409,-4.44718 2.10409,-4.44714 2.10409,-4.44714 2.10409,-4.44714 1.05203,-1.11178 1.05203,-2.22359 2.10406,-3.33537 1.05206,-4.44714 1.05206,-4.44714 1.05206,-4.44714 1.05203,-3.33537 2.10406,-6.67073 2.10406,-10.0061 1.05206,-5.55895 2.10409,-12.22968 2.10409,-20.01219 -1.05203,-13.34147 -3.15612,-27.79474 -8.41633,-44.47157 -1.05203,0 -1.05203,0 -2.10406,-1.11177 z"
         id="path2-6" />
      <path
         style="fill:#1d1d1b;fill-opacity:1;fill-rule:nonzero;stroke:none;stroke-width:3.24451"
         d="m 838.42868,243.34098 c 1.05206,12.22968 1.05206,23.34756 -2.10406,33.35366 -1.05206,5.55895 -2.10409,10.00609 -4.20819,15.56505 -1.05203,2.22355 -2.10406,4.44714 -3.15612,6.67073 -1.05203,3.33536 -1.05203,3.33536 -1.05203,3.33536 -1.05203,1.11178 -2.10409,2.22356 -2.10409,3.33537 -5.26018,8.89428 -12.62449,15.56502 -21.04079,22.23575 -4.20818,3.33536 -9.46836,5.55895 -14.72858,7.78254 -3.15612,2.22355 -3.15612,2.22355 -3.15612,2.22355 -4.20815,2.22359 -4.20815,2.22359 -4.20815,2.22359 -1.05206,0 -2.10409,1.11178 -3.15612,2.22359 -1.05206,0 -1.05206,0 -2.10409,1.11178 0,0 0,0 0,0 0,0 0,1.11178 0,1.11178 0,0 1.05203,1.11181 1.05203,2.22358 1.05206,0 1.05206,0 1.05206,0 0,0 0,0 0,0 0,1.11178 0,1.11178 0,1.11178 1.05203,0 1.05203,0 1.05203,0 1.05203,1.11181 1.05203,1.11181 1.05203,1.11181 0,0 0,0 0,0 0,1.11178 1.05206,1.11178 1.05206,1.11178 1.05203,1.11178 1.05203,1.11178 1.05203,1.11178 1.05203,1.11181 1.05203,1.11181 1.05203,1.11181 1.05206,0 1.05206,0 1.05206,0 0,0 0,0 0,0 0,1.11177 0,1.11177 0,1.11177 1.05203,0 2.10406,0 3.15612,1.11178 0,0 1.05203,0 1.05203,0 0,0 0,0 1.05203,0 0,0 1.05207,0 2.1041,0 1.05203,-1.11178 3.15612,-1.11178 4.20815,-2.22355 2.10409,0 3.15612,-1.11181 4.20818,-1.11181 2.10406,-1.11178 3.15612,-2.22356 4.20815,-2.22356 4.20815,-3.33536 8.41634,-7.78254 12.62449,-11.11791 4.20815,-3.33536 7.36427,-7.7825 10.52039,-11.11787 2.10409,-3.33537 2.10409,-3.33537 2.10409,-3.33537 2.1041,-2.22358 2.1041,-2.22358 2.1041,-2.22358 0,-1.11178 0,-1.11178 0,-1.11178 2.10406,-4.44714 2.10406,-4.44714 2.10406,-4.44714 2.10409,-3.33537 2.10409,-3.33537 2.10409,-3.33537 1.05203,-1.11181 1.05203,-2.22359 1.05203,-3.33537 2.10409,-3.33536 2.10409,-3.33536 2.10409,-3.33536 0,-3.33537 1.05203,-5.55896 2.10409,-7.78254 1.05203,-5.55892 2.10406,-11.11788 2.10406,-17.78861 0,-11.11787 -1.05203,-23.34756 -5.26018,-36.68902 0,0 0,0 -1.05206,-1.11178 z"
         id="path3-3" />
    </g>
    <path
       style="fill:#1d1d1b;fill-opacity:1;fill-rule:nonzero;stroke:none;stroke-width:3.24451"
       d="m 90.8181,284.04662 c -3.15612,15.56505 -4.20815,31.13011 -3.15612,45.58335 1.05203,6.67073 3.15612,13.34146 5.26021,18.90041 1.05203,3.33537 2.10406,5.55892 3.15612,8.89429 2.10406,4.44717 2.10406,4.44717 2.10406,4.44717 1.05207,1.11178 2.1041,2.22356 3.15613,3.33537 6.31224,11.11787 16.83266,20.01219 28.40509,26.68292 6.31224,4.44715 13.67655,6.67074 21.04082,8.89429 5.26021,2.22359 5.26021,2.22359 5.26021,2.22359 5.26019,2.22359 5.26019,2.22359 5.26019,2.22359 2.10409,1.11177 3.15612,1.11177 5.26021,2.22355 1.05203,0 1.05203,1.11181 2.10409,1.11181 0,0 1.05203,0 1.05203,0 0,1.11178 -1.05203,1.11178 -1.05203,2.22356 -1.05206,0 -1.05206,1.11181 -2.10409,2.22359 0,0 0,0 0,0 -1.05203,1.11177 -1.05203,1.11177 -1.05203,1.11177 -1.05206,1.11181 -1.05206,1.11181 -1.05206,1.11181 -1.05203,1.11178 -1.05203,1.11178 -1.05203,1.11178 -1.05203,1.11178 -1.05203,1.11178 -1.05203,1.11178 0,0 0,0 0,0 -1.05206,0 -2.10409,1.11181 -2.10409,1.11181 -2.1041,2.22355 -2.1041,2.22355 -2.1041,2.22355 -1.05203,0 -1.05203,0 -1.05203,0 -2.10409,1.11182 -2.10409,1.11182 -2.10409,1.11182 0,1.11177 0,1.11177 0,1.11177 -1.05203,0 -1.05203,0 -1.05203,0 -1.05203,1.11178 -2.10409,2.22359 -3.15612,2.22359 -1.05203,1.11178 -2.10409,1.11178 -2.10409,1.11178 -1.05203,0 -1.05203,0 -1.05203,0 -2.10409,0 -3.15612,0 -4.20815,0 -2.10409,-1.11178 -4.20819,-1.11178 -6.31225,-2.22359 -2.10409,0 -4.20818,-1.11178 -6.31224,-1.11178 -2.10409,-1.11177 -4.20818,-2.22359 -5.26021,-2.22359 -7.36428,-4.44714 -12.62449,-8.89428 -17.8847,-12.22965 -6.31224,-4.44717 -11.57243,-8.89432 -15.78061,-14.45327 -2.10406,-4.44714 -2.10406,-4.44714 -2.10406,-4.44714 -2.10409,-1.11178 -2.10409,-1.11178 -2.10409,-1.11178 -1.05203,-2.22359 -1.05203,-2.22359 -1.05203,-2.22359 -2.10409,-4.44714 -2.10409,-4.44714 -2.10409,-4.44714 -2.10409,-4.44718 -2.10409,-4.44718 -2.10409,-4.44718 -1.05203,-2.22355 -2.10406,-3.33536 -2.10406,-5.55892 -2.1041,-4.44718 -2.1041,-4.44718 -2.1041,-4.44718 0,-3.33536 -1.05201,-6.67073 -2.10411,-10.00609 -1.052,-6.67073 -1.052,-14.45324 0,-22.23575 1.0521,-15.56505 5.26024,-32.24188 12.62451,-50.03049 0,-1.11181 0,-1.11181 1.05206,-1.11181 1.05203,-1.11177 1.05203,-1.11177 1.05203,0 z"
       id="path1-9-1" />
    <path
       style="fill:#1d1d1b;fill-opacity:1;fill-rule:nonzero;stroke:none;stroke-width:3.24451"
       d="m 170.77317,254.02833 c -2.10406,14.45328 -2.10406,27.79474 0,40.02439 1.05206,6.67073 2.10409,12.22969 4.20818,17.78864 1.05203,2.22355 2.10406,5.55892 4.20816,7.78251 2.10409,4.44714 2.10409,4.44714 2.10409,4.44714 0,1.11181 1.05203,2.22359 2.10406,3.33537 6.31224,10.00609 14.72857,17.78864 25.24897,25.57114 5.26021,3.33537 11.57246,5.55896 17.8847,7.78251 4.20815,2.22359 4.20815,2.22359 4.20815,2.22359 5.26021,2.22359 5.26021,2.22359 5.26021,2.22359 1.05203,1.11178 2.1041,2.22355 4.20816,2.22355 0,1.11182 1.05206,1.11182 2.10409,1.11182 0,0 0,0 0,1.11177 0,0 0,0 0,1.11178 -1.05203,0 -1.05203,1.11181 -2.10409,2.22359 0,0 0,0 0,0 -1.05203,0 -1.05203,0 -1.05203,0 -1.05203,1.11178 -1.05203,1.11178 -1.05203,1.11178 0,1.11181 0,1.11181 0,1.11181 -1.05207,1.11177 -1.05207,1.11177 -1.05207,1.11177 0,0 0,0 0,0 -1.05203,1.11178 -1.05203,1.11178 -2.10406,1.11178 -1.05206,1.11181 -1.05206,1.11181 -1.05206,1.11181 -1.05203,1.11178 -1.05203,1.11178 -1.05203,1.11178 -2.10409,1.11178 -2.10409,1.11178 -2.10409,1.11178 0,0 0,0 0,0 -1.05203,0 -1.05203,0 -1.05203,0 -1.05203,1.11181 -2.10409,2.22359 -2.10409,2.22359 -1.05203,0 -2.10406,1.11177 -2.10406,1.11177 -1.05206,0 -1.05206,0 -1.05206,0 -1.05203,0 -2.10406,-1.11177 -3.15612,-1.11177 -2.10406,0 -4.20816,-1.11178 -5.26019,-1.11178 -2.10409,-1.11181 -4.20818,-1.11181 -5.26021,-2.22359 -2.10409,-1.11178 -3.15612,-1.11178 -5.26021,-2.22359 -5.26018,-3.33536 -10.5204,-7.78251 -15.78061,-11.11787 -4.20815,-4.44715 -9.46836,-8.89432 -12.62449,-13.34147 -3.15612,-4.44714 -3.15612,-4.44714 -3.15612,-4.44714 -1.05203,-1.11181 -1.05203,-1.11181 -1.05203,-1.11181 -1.05203,-2.22355 -1.05203,-2.22355 -1.05203,-2.22355 -2.10409,-4.44718 -2.10409,-4.44718 -2.10409,-4.44718 -2.10409,-4.44714 -2.10409,-4.44714 -2.10409,-4.44714 -1.05203,-1.11178 -1.05203,-2.22359 -2.10406,-3.33537 -1.05206,-4.44714 -1.05206,-4.44714 -1.05206,-4.44714 -1.05203,-3.33537 -2.10406,-6.67073 -2.10406,-10.0061 -1.05206,-5.55895 -2.10409,-12.22968 -2.10409,-20.01219 1.05203,-13.34147 3.15612,-27.79474 8.41633,-44.47157 1.05203,0 1.05203,0 2.10406,-1.11177 z"
       id="path2-6-3" />
    <path
       style="fill:#1d1d1b;fill-opacity:1;fill-rule:nonzero;stroke:none;stroke-width:3.24451"
       d="m 250.72827,244.91046 c -1.05206,12.22968 -1.05206,23.34756 2.10406,33.35366 1.05206,5.55895 2.10409,10.00609 4.20819,15.56505 1.05203,2.22355 2.10406,4.44714 3.15612,6.67073 1.05203,3.33536 1.05203,3.33536 1.05203,3.33536 1.05203,1.11178 2.10409,2.22356 2.10409,3.33537 5.26018,8.89428 12.62449,15.56502 21.04079,22.23575 4.20818,3.33536 9.46836,5.55895 14.72858,7.78254 3.15612,2.22355 3.15612,2.22355 3.15612,2.22355 4.20815,2.22359 4.20815,2.22359 4.20815,2.22359 1.05206,0 2.10409,1.11178 3.15612,2.22359 1.05206,0 1.05206,0 2.10409,1.11178 0,0 0,0 0,0 0,0 0,1.11178 0,1.11178 0,0 -1.05203,1.11181 -1.05203,2.22358 -1.05206,0 -1.05206,0 -1.05206,0 0,0 0,0 0,0 0,1.11178 0,1.11178 0,1.11178 -1.05203,0 -1.05203,0 -1.05203,0 -1.05203,1.11181 -1.05203,1.11181 -1.05203,1.11181 0,0 0,0 0,0 0,1.11178 -1.05206,1.11178 -1.05206,1.11178 -1.05203,1.11178 -1.05203,1.11178 -1.05203,1.11178 -1.05203,1.11181 -1.05203,1.11181 -1.05203,1.11181 -1.05206,0 -1.05206,0 -1.05206,0 0,0 0,0 0,0 0,1.11177 0,1.11177 0,1.11177 -1.05203,0 -2.10406,0 -3.15612,1.11178 0,0 -1.05203,0 -1.05203,0 0,0 0,0 -1.05203,0 0,0 -1.05207,0 -2.1041,0 -1.05203,-1.11178 -3.15612,-1.11178 -4.20815,-2.22355 -2.10409,0 -3.15612,-1.11181 -4.20818,-1.11181 -2.10406,-1.11178 -3.15612,-2.22356 -4.20815,-2.22356 -4.20815,-3.33536 -8.41634,-7.78254 -12.62449,-11.11791 -4.20815,-3.33536 -7.36427,-7.7825 -10.52039,-11.11787 -2.10409,-3.33537 -2.10409,-3.33537 -2.10409,-3.33537 -2.1041,-2.22358 -2.1041,-2.22358 -2.1041,-2.22358 0,-1.11178 0,-1.11178 0,-1.11178 -2.10406,-4.44714 -2.10406,-4.44714 -2.10406,-4.44714 -2.10409,-3.33537 -2.10409,-3.33537 -2.10409,-3.33537 -1.05203,-1.11181 -1.05203,-2.22359 -1.05203,-3.33537 -2.10409,-3.33536 -2.10409,-3.33536 -2.10409,-3.33536 0,-3.33537 -1.05203,-5.55896 -2.10409,-7.78254 -1.05203,-5.55892 -2.10406,-11.11788 -2.10406,-17.78861 0,-11.11787 1.05203,-23.34756 5.26018,-36.68902 0,0 0,0 1.05206,-1.11178 z"
       id="path3-3-5" />
  </g>
</svg>
