<?xml version="1.0" encoding="UTF-8" standalone="no"?>
<!-- Created with Inkscape (http://www.inkscape.org/) -->

<svg
   width="1080"
   height="1080"
   viewBox="0 0 1080 1080"
   version="1.1"
   id="svg1"
   xmlns="http://www.w3.org/2000/svg"
   xmlns:svg="http://www.w3.org/2000/svg">
  <defs
     id="defs1" />
  <g
     id="layer1">
    <path
       style="fill:#1d1d1b;fill-opacity:1;fill-rule:nonzero;stroke:none;stroke-width:3.14911"
       d="m 443.42391,693.17531 c -3.17946,-8.31749 -7.41876,-15.59528 -12.71784,-22.87311 -4.2393,-7.27779 -10.59822,-13.5159 -15.89729,-20.79369 -11.65803,-12.47623 -25.43568,-24.95246 -41.33297,-34.30963 -7.41876,-5.19844 -14.83749,-9.35717 -23.31606,-12.47623 -8.47854,-4.15877 -16.9571,-7.27782 -26.49548,-10.39688 -8.47857,-2.07935 -16.95711,-4.15873 -26.49548,-5.19841 -7.41876,-1.03971 -7.41876,-1.03971 -7.41876,-1.03971 -6.35892,-1.03967 -6.35892,-1.03967 -6.35892,-1.03967 -4.23927,0 -9.53838,0 -13.77765,0 -4.23927,0 -9.53838,0 -13.77764,0 -5.29911,1.03967 -9.53838,1.03967 -13.77768,2.07938 -9.53838,1.03968 -18.01692,3.11906 -27.55529,6.23812 -8.47857,2.07935 -16.95714,5.1984 -25.43568,9.35717 -8.47857,4.15873 -15.89729,8.31746 -23.31605,13.5159 -15.8973,9.35718 -29.67494,20.79373 -41.33297,34.30963 -5.29908,6.23812 -11.658,12.47623 -15.8973,19.75402 -5.29908,7.27783 -9.538375,14.55562 -12.717834,22.87311 11.658024,-11.43655 25.435674,-22.87311 39.213354,-32.23028 13.77764,-9.35717 27.55529,-17.67464 42.39278,-24.95246 7.41872,-3.11905 14.83748,-6.23811 22.25621,-8.31746 7.41873,-3.11906 14.83749,-5.19844 23.31602,-7.27782 7.41876,-1.03968 14.83749,-3.11906 23.31606,-4.15874 3.17946,0 7.41873,0 11.65799,-1.03967 3.17946,0 7.41876,0 11.65803,0 31.79459,0 63.58919,7.27779 92.20432,20.79369 14.83749,6.23812 28.61513,14.55561 42.39278,24.95246 13.77768,9.35717 26.49551,19.75405 39.21335,32.23028 z"
       id="path1-3" />
    <path
       style="fill:#1d1d1b;fill-opacity:1;fill-rule:nonzero;stroke:none;stroke-width:3.14911"
       d="m 131.83691,546.57962 c 9.53838,-19.75406 22.25621,-37.42869 37.09367,-54.06369 13.77767,-15.59528 30.73478,-30.15086 47.69189,-42.62709 9.53837,-5.19844 19.07675,-10.39688 28.61513,-15.59529 9.53838,-4.15877 19.07675,-8.3175 27.55532,-13.51594 9.53838,-5.19841 19.07676,-9.35717 29.67494,-14.55558 9.53838,-4.15876 20.1366,-9.35717 30.73479,-14.55561 0,0 0,-1.03967 0,-2.07938 0,0 0,0 -1.05981,-1.03968 -11.65803,-2.07938 -23.31606,-2.07938 -34.97405,-1.03967 -11.65803,1.03967 -23.31606,4.15873 -34.97406,7.27779 -11.65802,4.15873 -22.25621,9.35717 -31.79459,16.63496 -9.53837,6.23812 -19.07675,13.51594 -27.55532,21.8334 -8.47857,7.27782 -16.95711,15.59529 -24.37587,23.91279 -8.47853,8.31749 -14.83745,17.67466 -21.19637,27.03184 -12.71784,19.75402 -22.25621,40.54774 -28.61513,61.34144 0,1.03971 0,2.07938 1.05981,2.07938 1.05981,0 1.05981,0 2.11965,-1.03967 z"
       id="path2-2" />
    <path
       style="fill:#1d1d1b;fill-opacity:1;fill-rule:nonzero;stroke:none;stroke-width:3.14911"
       d="m 639.49054,693.17531 c 11.65803,-12.47623 25.43567,-22.87311 38.15351,-32.23028 13.77768,-10.39685 27.55532,-18.71434 42.39281,-24.95246 29.67494,-13.5159 61.46953,-20.79369 93.26413,-20.79369 3.17945,0 7.41872,0 11.65802,0 4.23927,1.03967 7.41873,1.03967 11.6579,1.03967 7.41895,1.03968 15.8973,3.11906 23.31625,4.15874 7.41863,2.07938 15.8973,4.15876 23.31593,7.27782 7.41863,2.07935 14.83758,5.19841 22.25621,8.31746 14.83758,7.27782 28.61514,15.59529 42.39269,24.95246 13.77786,9.35717 26.4957,20.79373 39.21354,32.23028 -3.17946,-8.31749 -7.41895,-15.59528 -12.71784,-22.87311 -5.2992,-7.27779 -10.59841,-13.5159 -16.95733,-19.75402 -11.6578,-13.5159 -25.43567,-24.95245 -40.27293,-34.30963 -7.41895,-5.19844 -15.8973,-9.35717 -23.31625,-13.5159 -8.47835,-4.15877 -16.95701,-7.27782 -26.49539,-9.35717 -8.47866,-3.11906 -18.01704,-5.19844 -26.49539,-6.23812 -5.2992,-1.03971 -9.53847,-1.03971 -13.77777,-2.07938 -5.29908,0 -9.53838,0 -13.77764,0 -5.29911,0 -9.53838,0 -13.77765,0 -7.41876,1.03967 -7.41876,1.03967 -7.41876,1.03967 -6.35892,1.03971 -6.35892,1.03971 -6.35892,1.03971 -9.53838,1.03968 -19.07675,3.11906 -27.55529,5.19841 -8.47857,3.11906 -16.95714,6.23811 -25.43567,10.39688 -8.47857,3.11906 -16.95714,7.27779 -24.37587,12.47623 -14.83748,9.35717 -28.61513,21.8334 -40.27316,34.30963 -6.35892,7.27779 -11.65799,13.5159 -15.89729,20.79369 -5.29908,7.27783 -9.53838,14.55562 -12.71784,22.87311 z"
       id="path3-2" />
    <path
       style="fill:#1d1d1b;fill-opacity:1;fill-rule:nonzero;stroke:none;stroke-width:3.14911"
       d="m 953.19719,545.53991 c -6.35892,-20.7937 -15.8973,-41.58742 -27.55542,-61.34144 -6.35892,-9.35718 -13.77755,-18.71435 -21.19618,-27.03184 -7.41895,-8.3175 -15.8973,-16.63497 -24.37596,-23.91279 -9.53838,-8.31746 -18.01704,-15.59528 -28.61513,-21.8334 -9.53838,-7.27779 -20.13657,-12.47623 -30.73479,-16.63496 -11.65799,-3.11906 -23.31602,-6.23812 -34.97405,-7.27779 -11.65799,-1.03971 -23.31602,-1.03971 -36.03386,1.03967 0,1.03968 -1.05981,1.03968 -1.05981,2.07939 0,1.03967 1.05981,1.03967 1.05981,1.03967 10.59819,5.19844 21.19641,10.39685 30.73478,14.55561 9.53838,5.19841 19.07676,9.35717 28.61514,14.55558 9.53837,5.19844 19.07675,9.35717 28.61523,13.51594 9.53837,5.19841 19.07675,10.39685 27.5551,15.59529 18.01704,12.47623 33.91433,27.03181 48.75192,42.62709 13.77755,16.635 26.49538,34.30963 37.09347,54.06369 0,1.03967 1.06004,1.03967 2.11975,1.03967 0,0 1.05971,-1.03967 0,-2.07938 z"
       id="path4-1" />
    <path
       style="fill:#1d1d1b;fill-opacity:1;fill-rule:nonzero;stroke:none;stroke-width:3.14911"
       d="m 955.31694,487.31752 c 4.23917,15.59529 5.29888,30.15087 3.17946,42.6271 -1.06004,6.23812 -2.11975,12.47623 -5.29921,17.67467 0,3.11906 -2.11975,6.23812 -3.17946,8.3175 -2.11974,4.15873 -2.11974,4.15873 -2.11974,4.15873 -1.05972,1.03968 -2.11943,3.11906 -3.17946,4.15873 -6.35892,9.35718 -16.95701,17.67467 -28.61514,24.95246 -5.29888,3.11906 -13.77755,5.19844 -21.19618,8.3175 -5.2992,1.03967 -5.2992,1.03967 -5.2992,1.03967 -5.29921,2.07939 -5.29921,2.07939 -5.29921,2.07939 -1.05971,1.03967 -3.17946,2.07938 -5.29888,2.07938 0,1.03967 -1.06004,1.03967 -2.11975,1.03967 0,1.03968 0,1.03968 0,1.03968 0,0 0,0 0,1.03971 1.05971,1.03967 1.05971,1.03967 2.11975,2.07935 1.05971,1.0397 1.05971,1.0397 1.05971,1.0397 0,0 0,0 0,0 1.05971,1.03968 1.05971,1.03968 1.05971,1.03968 1.06003,1.03967 1.06003,1.03967 1.06003,1.03967 1.05972,1.03971 1.05972,1.03971 1.05972,1.03971 0,0 0,0 0,0 1.05971,1.03968 2.11974,1.03968 2.11974,2.07935 2.11943,1.03971 2.11943,1.03971 2.11943,1.03971 1.06003,1.03967 1.06003,1.03967 1.06003,1.03967 2.11943,1.03968 2.11943,1.03968 2.11943,1.03968 0,0 0,0 0,0 1.06003,0 1.06003,0 1.06003,0 1.05972,1.03971 3.17946,2.07938 4.23917,2.07938 0,1.03968 1.05972,1.03968 2.11975,1.03968 0,0 0,0 1.05971,0 1.05972,0 2.11975,0 3.17946,0 2.11975,0 4.23918,-1.03968 7.41864,-1.03968 2.11974,-1.03967 4.23949,-1.03967 5.2992,-2.07938 2.11975,-1.03968 4.23917,-1.03968 5.2992,-2.07935 7.41864,-3.11906 12.71784,-7.27782 19.07676,-11.43656 5.29889,-4.15873 10.59809,-8.31749 14.83726,-13.5159 3.17946,-3.11906 3.17946,-3.11906 3.17946,-3.11906 1.06004,-2.07938 1.06004,-2.07938 1.06004,-2.07938 1.05971,-2.07938 1.05971,-2.07938 1.05971,-2.07938 3.17946,-4.15874 3.17946,-4.15874 3.17946,-4.15874 2.11974,-4.15873 2.11974,-4.15873 2.11974,-4.15873 0,-1.0397 1.05972,-3.11906 1.05972,-4.15876 2.11974,-5.19841 2.11974,-5.19841 2.11974,-5.19841 0,-3.11906 1.05972,-5.19844 2.11943,-9.35717 1.06003,-6.23812 1.06003,-13.51594 1.06003,-20.79373 -2.11974,-14.55561 -5.2992,-30.1509 -12.71783,-46.78586 -1.06004,0 -1.06004,-1.03968 -2.11975,-1.03968 z"
       id="path5" />
    <path
       style="fill:#1d1d1b;fill-opacity:1;fill-rule:nonzero;stroke:none;stroke-width:3.14911"
       d="m 874.77042,492.6747 c 2.11975,13.5159 2.11975,25.99213 0,37.42869 -1.05971,6.23811 -2.11942,11.43652 -4.23917,16.63496 -1.05971,3.11906 -2.11974,5.19844 -3.17946,8.31749 -2.11974,3.11906 -2.11974,3.11906 -2.11974,3.11906 -1.05972,1.03968 -2.11943,2.07935 -3.17946,3.11906 -6.35892,9.35717 -14.83727,17.67464 -25.43568,23.91275 -4.23917,3.11906 -11.6579,6.23812 -18.01682,8.3175 -4.2393,2.07938 -4.2393,2.07938 -4.2393,2.07938 -4.23926,2.07935 -4.23926,2.07935 -4.23926,2.07935 -2.11965,0 -3.17946,1.03971 -5.29911,2.07938 0,0 -1.05981,0 -2.11962,1.03968 0,0 0,0 0,0 0,0 0,1.03971 1.05981,1.03971 0,1.03967 0,1.03967 1.05981,2.07935 0,1.0397 0,1.0397 0,1.0397 1.05984,0 1.05984,0 1.05984,0 1.05981,1.03968 1.05981,1.03968 1.05981,1.03968 0,1.03967 0,1.03967 0,1.03967 2.11965,1.03971 2.11965,1.03971 2.11965,1.03971 0,0 0,0 0,0 0,0 1.05981,0 1.05981,1.03968 2.11965,1.03967 2.11965,1.03967 2.11965,1.03967 1.05981,1.03971 1.05981,1.03971 1.05981,1.03971 1.0598,0 1.0598,0 1.0598,0 0,1.03967 0,1.03967 0,1.03967 1.05985,0 1.05985,0 1.05985,0 1.0598,1.03968 2.11961,1.03968 3.17945,1.03968 0,1.03971 1.05981,1.03971 1.05981,1.03971 1.05981,0 1.05981,0 1.05981,0 1.05984,0 2.11965,0 3.17946,0 2.11965,-1.03971 4.2393,-1.03971 6.35892,-2.07939 1.05984,0 3.17946,-1.03967 5.29911,-1.03967 1.05971,-1.03971 3.17946,-2.07938 4.23917,-3.11906 6.35892,-3.11906 10.59841,-6.23811 15.8973,-10.39688 5.2992,-4.15873 9.53838,-8.31746 12.71784,-12.47623 3.17945,-3.11906 3.17945,-3.11906 3.17945,-3.11906 1.06004,-2.07935 1.06004,-2.07935 1.06004,-2.07935 1.05971,-2.07938 1.05971,-2.07938 1.05971,-2.07938 2.11975,-3.11906 2.11975,-3.11906 2.11975,-3.11906 2.11942,-4.15873 2.11942,-4.15873 2.11942,-4.15873 1.06004,-1.0397 1.06004,-3.11906 2.11975,-4.15876 1.05971,-4.15874 1.05971,-4.15874 1.05971,-4.15874 1.06003,-3.11905 2.11975,-5.19843 3.17946,-8.31749 1.06003,-6.23812 1.06003,-12.47623 1.06003,-18.71435 0,-13.5159 -3.17946,-27.03181 -8.47866,-41.58742 0,-1.03967 -1.05971,-1.03967 -1.05971,-1.03967 z"
       id="path6" />
    <path
       style="fill:#1d1d1b;fill-opacity:1;fill-rule:nonzero;stroke:none;stroke-width:3.14911"
       d="m 794.22423,511.23028 c 1.05981,11.43655 1.05981,21.8334 -1.05981,32.23028 -1.05984,4.15873 -3.17946,9.35717 -5.29911,13.5159 0,2.07938 -2.11965,4.15874 -3.17946,6.23812 -1.05981,3.11905 -1.05981,3.11905 -1.05981,3.11905 -1.05984,1.03968 -1.05984,2.07939 -2.11965,3.11906 -5.29911,8.3175 -12.71783,15.59529 -21.1964,20.79373 -4.23927,3.11906 -9.53838,6.23811 -14.83746,8.31746 -3.17946,1.03971 -3.17946,1.03971 -3.17946,1.03971 -4.2393,2.07935 -4.2393,2.07935 -4.2393,2.07935 -1.05981,1.03971 -2.11961,2.07938 -3.17946,2.07938 -1.0598,1.03968 -1.0598,1.03968 -2.11961,1.03968 0,0 0,0 0,1.03971 0,0 0,0 0,0 1.05981,1.03967 1.05981,1.03967 2.11961,2.07935 0,0 0,0 0,0 0,1.0397 0,1.0397 0,1.0397 1.05985,0 1.05985,0 1.05985,0 0,1.03968 0,1.03968 0,1.03968 1.0598,1.03967 1.0598,1.03967 1.0598,1.03967 0,0 0,0 0,0 0,0 1.05981,0 1.05981,1.03971 1.05984,0 1.05984,0 1.05984,0 1.05981,1.03968 1.05981,1.03968 1.05981,1.03968 1.05981,1.03967 1.05981,1.03967 1.05981,1.03967 0,0 0,0 0,0 1.05984,0 1.05984,0 1.05984,0 1.05981,1.03971 1.05981,1.03971 2.11962,1.03971 0,1.03967 1.05984,1.03967 1.05984,1.03967 0,0 1.05981,0 1.05981,0 1.05981,-1.03967 1.05981,-1.03967 2.11965,-1.03967 2.11962,0 3.17946,-1.03971 4.23927,-1.03971 2.11965,-1.03967 3.17946,-1.03967 4.23927,-2.07935 2.11965,-1.03971 3.17946,-1.03971 4.2393,-2.07938 4.23927,-3.11906 8.47854,-6.23812 12.71784,-9.35717 4.23926,-4.15874 8.47853,-7.27779 11.65799,-11.43656 2.11965,-3.11906 2.11965,-3.11906 2.11965,-3.11906 1.05981,-1.03967 1.05981,-1.03967 1.05981,-1.03967 1.05984,-2.07938 1.05984,-2.07938 1.05984,-2.07938 1.05981,-3.11906 1.05981,-3.11906 1.05981,-3.11906 2.11965,-3.11906 2.11965,-3.11906 2.11965,-3.11906 1.05981,-1.03967 1.05981,-3.11905 2.11962,-4.15873 1.05984,-3.11906 1.05984,-3.11906 1.05984,-3.11906 1.05981,-2.07938 1.05981,-5.19844 2.11962,-7.27779 1.05984,-5.19844 2.11965,-10.39688 2.11965,-15.59528 0,-11.43656 -1.05981,-22.87311 -5.29911,-34.30964 0,-1.0397 0,-1.0397 0,-1.0397 z"
       id="path7" />
    <path
       style="fill:#1d1d1b;fill-opacity:1;fill-rule:nonzero;stroke:none;stroke-width:3.14911"
       d="m 108.52085,487.31752 c -3.17946,15.59529 -4.23927,30.15087 -3.17946,42.6271 1.05984,6.23812 3.17946,12.47623 5.29911,17.67467 1.05981,3.11906 2.11965,6.23812 3.17946,8.3175 2.11965,4.15873 2.11965,4.15873 2.11965,4.15873 1.05981,1.03968 2.11962,3.11906 3.17946,4.15873 6.35892,9.35718 16.95711,17.67467 28.61513,24.95246 6.35892,3.11906 13.77765,5.19844 21.19638,8.3175 5.29911,1.03967 5.29911,1.03967 5.29911,1.03967 5.29911,2.07939 5.29911,2.07939 5.29911,2.07939 2.11961,1.03967 3.17945,2.07938 5.29907,2.07938 1.05984,1.03967 1.05984,1.03967 2.11965,1.03967 0,1.03968 1.05981,1.03968 1.05981,1.03968 0,0 -1.05981,0 -1.05981,1.03971 -1.05981,1.03967 -1.05981,1.03967 -2.11965,2.07935 -1.05981,1.0397 -1.05981,1.0397 -1.05981,1.0397 0,0 0,0 0,0 -1.05981,1.03968 -1.05981,1.03968 -1.05981,1.03968 -1.05984,1.03967 -1.05984,1.03967 -1.05984,1.03967 -1.05981,1.03971 -1.05981,1.03971 -1.05981,1.03971 0,0 0,0 0,0 -1.0598,1.03968 -2.11965,1.03968 -2.11965,2.07935 -2.11961,1.03971 -2.11961,1.03971 -2.11961,1.03971 -1.05984,1.03967 -1.05984,1.03967 -1.05984,1.03967 -2.11962,1.03968 -2.11962,1.03968 -2.11962,1.03968 0,0 0,0 0,0 -1.05984,0 -1.05984,0 -1.05984,0 -1.05981,1.03971 -2.11962,2.07938 -3.17946,2.07938 -1.05981,1.03968 -2.11962,1.03968 -2.11962,1.03968 -1.05984,0 -1.05984,0 -1.05984,0 -2.11962,0 -3.17946,0 -4.23927,0 -2.11965,0 -4.23927,-1.03968 -6.35892,-1.03968 -2.11965,-1.03967 -4.23927,-1.03967 -6.35892,-2.07938 -2.11965,-1.03968 -4.23927,-1.03968 -5.29911,-2.07935 -7.41872,-3.11906 -12.71783,-7.27782 -18.01691,-11.43656 -6.35892,-4.15873 -11.65803,-8.31749 -15.8973,-13.5159 -2.11965,-3.11906 -2.11965,-3.11906 -2.11965,-3.11906 -2.11965,-2.07938 -2.11965,-2.07938 -2.11965,-2.07938 -1.05981,-2.07938 -1.05981,-2.07938 -1.05981,-2.07938 -2.11965,-4.15874 -2.11965,-4.15874 -2.11965,-4.15874 -2.11961,-4.15873 -2.11961,-4.15873 -2.11961,-4.15873 -1.059845,-1.0397 -2.119654,-3.11906 -2.119654,-4.15876 -2.11965,-5.19841 -2.11965,-5.19841 -2.11965,-5.19841 0,-3.11906 -1.05981,-5.19844 -2.119619,-9.35717 -1.059841,-6.23812 -1.059841,-13.51594 0,-20.79373 1.059809,-14.55561 5.299078,-30.1509 12.717833,-46.78586 0,0 0,-1.03968 1.05981,-1.03968 z"
       id="path8" />
    <path
       style="fill:#1d1d1b;fill-opacity:1;fill-rule:nonzero;stroke:none;stroke-width:3.14911"
       d="m 189.06717,492.6747 c -2.11965,13.5159 -2.11965,25.99213 0,37.42869 1.05981,6.23811 2.11962,11.43652 4.23927,16.63496 1.05981,3.11906 2.11965,5.19844 4.23927,8.31749 2.11965,3.11906 2.11965,3.11906 2.11965,3.11906 0,1.03968 1.05981,2.07935 2.11965,3.11906 6.35892,9.35717 14.83746,17.67464 25.43567,23.91275 5.29908,3.11906 11.658,6.23812 18.01692,8.3175 4.2393,2.07938 4.2393,2.07938 4.2393,2.07938 5.29908,2.07935 5.29908,2.07935 5.29908,2.07935 1.05984,0 2.11965,1.03971 4.2393,2.07938 0,0 1.0598,0 2.11961,1.03968 0,0 0,0 0,0 0,0 0,1.03971 0,1.03971 -1.05981,1.03967 -1.05981,1.03967 -2.11961,2.07935 0,1.0397 0,1.0397 0,1.0397 -1.05985,0 -1.05985,0 -1.05985,0 -1.0598,1.03968 -1.0598,1.03968 -1.0598,1.03968 0,1.03967 0,1.03967 0,1.03967 -1.05981,1.03971 -1.05981,1.03971 -1.05981,1.03971 0,0 0,0 0,0 -1.05984,0 -1.05984,0 -2.11965,1.03968 -1.05981,1.03967 -1.05981,1.03967 -1.05981,1.03967 -1.05984,1.03971 -1.05984,1.03971 -1.05984,1.03971 -2.11962,0 -2.11962,0 -2.11962,0 0,1.03967 0,1.03967 0,1.03967 -1.05984,0 -1.05984,0 -1.05984,0 -1.05981,1.03968 -2.11962,1.03968 -2.11962,1.03968 -1.05984,1.03971 -2.11965,1.03971 -2.11965,1.03971 -1.05981,0 -1.05981,0 -1.05981,0 -1.05984,0 -2.11965,0 -3.17946,0 -2.11965,-1.03971 -4.2393,-1.03971 -5.29911,-2.07939 -2.11965,0 -4.23927,-1.03967 -5.29911,-1.03967 -2.11962,-1.03971 -4.23927,-2.07938 -5.29908,-3.11906 -5.2991,-3.11906 -10.59821,-6.23811 -15.89729,-10.39688 -5.29911,-4.15873 -9.53838,-8.31746 -12.71784,-12.47623 -3.17946,-3.11906 -3.17946,-3.11906 -3.17946,-3.11906 -1.05984,-2.07935 -1.05984,-2.07935 -1.05984,-2.07935 -1.05981,-2.07938 -1.05981,-2.07938 -1.05981,-2.07938 -2.11965,-3.11906 -2.11965,-3.11906 -2.11965,-3.11906 -2.11962,-4.15873 -2.11962,-4.15873 -2.11962,-4.15873 -1.05984,-1.0397 -1.05984,-3.11906 -2.11965,-4.15876 -1.05981,-4.15874 -1.05981,-4.15874 -1.05981,-4.15874 -1.05984,-3.11905 -2.11965,-5.19843 -2.11965,-8.31749 -1.0598,-6.23812 -2.11965,-12.47623 -2.11965,-18.71435 0,-13.5159 3.17946,-27.03181 8.47857,-41.58742 0,-1.03967 1.05981,-1.03967 1.05981,-1.03967 z"
       id="path9" />
    <path
       style="fill:#1d1d1b;fill-opacity:1;fill-rule:nonzero;stroke:none;stroke-width:3.14911"
       d="m 269.61346,511.23028 c -1.05981,11.43655 -1.05981,21.8334 2.11965,32.23028 1.05981,4.15873 2.11962,9.35717 4.23927,13.5159 1.05981,2.07938 2.11965,4.15874 3.17946,6.23812 1.05981,3.11905 1.05981,3.11905 1.05981,3.11905 1.05984,1.03968 2.11965,2.07939 2.11965,3.11906 5.29911,8.3175 12.71784,15.59529 21.1964,20.79373 4.23927,3.11906 9.53838,6.23811 14.83746,8.31746 3.17946,1.03971 3.17946,1.03971 3.17946,1.03971 4.2393,2.07935 4.2393,2.07935 4.2393,2.07935 1.05981,1.03971 2.11962,2.07938 3.17946,2.07938 1.05981,1.03968 1.05981,1.03968 2.11962,1.03968 0,0 0,0 0,1.03971 0,0 0,0 0,0 -1.05981,1.03967 -1.05981,1.03967 -1.05981,2.07935 -1.05981,0 -1.05981,0 -1.05981,0 0,1.0397 0,1.0397 0,1.0397 0,0 0,0 0,0 -1.05984,1.03968 -1.05984,1.03968 -1.05984,1.03968 -1.05981,1.03967 -1.05981,1.03967 -1.05981,1.03967 0,0 0,0 0,0 0,0 -1.05981,0 -1.05981,1.03971 -1.05984,0 -1.05984,0 -1.05984,0 -1.05981,1.03968 -1.05981,1.03968 -1.05981,1.03968 -1.05981,1.03967 -1.05981,1.03967 -1.05981,1.03967 0,0 0,0 0,0 0,0 0,0 0,0 -1.05984,1.03971 -2.11965,1.03971 -3.17946,1.03971 0,1.03967 -1.05984,1.03967 -1.05984,1.03967 0,0 0,0 -1.05981,0 0,-1.03967 -1.05981,-1.03967 -2.11965,-1.03967 -1.05981,0 -3.17946,-1.03971 -4.23927,-1.03971 -2.11965,-1.03967 -3.17946,-1.03967 -4.23927,-2.07935 -2.11965,-1.03971 -3.17946,-1.03971 -4.2393,-2.07938 -4.23926,-3.11906 -8.47853,-6.23812 -12.71783,-9.35717 -4.23927,-4.15874 -7.41873,-7.27779 -10.59819,-11.43656 -3.17946,-3.11906 -3.17946,-3.11906 -3.17946,-3.11906 -1.05981,-1.03967 -1.05981,-1.03967 -1.05981,-1.03967 -1.05984,-2.07938 -1.05984,-2.07938 -1.05984,-2.07938 -1.05981,-3.11906 -1.05981,-3.11906 -1.05981,-3.11906 -2.11965,-3.11906 -2.11965,-3.11906 -2.11965,-3.11906 -1.05981,-1.03967 -1.05981,-3.11905 -1.05981,-4.15873 -2.11965,-3.11906 -2.11965,-3.11906 -2.11965,-3.11906 0,-2.07938 -1.05981,-5.19844 -2.11962,-7.27779 -1.05984,-5.19844 -2.11965,-10.39688 -2.11965,-15.59528 0,-11.43656 1.05981,-22.87311 5.29911,-34.30964 0,-1.0397 0,-1.0397 1.05981,-1.0397 z"
       id="path10" />
  </g>
</svg>
