<?xml version="1.0" encoding="UTF-8" standalone="no"?>
<!-- Created with Inkscape (http://www.inkscape.org/) -->

<svg
   width="917.50012"
   height="519.77783"
   viewBox="0 0 917.50012 519.77783"
   version="1.1"
   id="svg1"
   xmlns="http://www.w3.org/2000/svg"
   xmlns:svg="http://www.w3.org/2000/svg">
  <defs
     id="defs1" />
  <g
     id="layer1"
     transform="translate(-81.249954,-280.11102)">
    <g
       id="g21">
      <g
         id="g20"
         transform="matrix(2.2595478,0,0,2.4012197,-2.7945145,-1721.3918)">
        <path
           style="fill:#1d1d1b;fill-opacity:1;fill-rule:nonzero;stroke:none"
           d="m 383.66667,978.33333 c 0,17 -13.33334,30.33337 -30,30.33337 -17,0 -30.33334,-13.33337 -30.33334,-30.33337 0,-16.66666 13.33334,-30 30.33334,-30 16.66666,0 30,13.33334 30,30 z"
           id="path1-9" />
        <path
           style="fill:#fdfdfd;fill-opacity:1;fill-rule:nonzero;stroke:none"
           d="m 345.33333,966.33333 c 0,4.66667 -4,8.33334 -8.66666,8.33334 -4.66667,0 -8.33334,-3.66667 -8.33334,-8.33334 0,-4.66666 3.66667,-8.66666 8.33334,-8.66666 4.66666,0 8.66666,4 8.66666,8.66666 z"
           id="path2-5" />
        <path
           style="fill:#1d1d1b;fill-opacity:1;fill-rule:nonzero;stroke:none"
           d="m 99.333333,978.33333 c 0,17 13.333337,30.33337 29.999997,30.33337 17,0 30.33334,-13.33337 30.33334,-30.33337 0,-16.66666 -13.33334,-30 -30.33334,-30 -16.66666,0 -29.999997,13.33334 -29.999997,30 z"
           id="path3-4" />
        <path
           style="fill:#fdfdfd;fill-opacity:1;fill-rule:nonzero;stroke:none"
           d="m 137.66667,966.33333 c 0,4.66667 4,8.33334 8.66666,8.33334 4.66667,0 8.33334,-3.66667 8.33334,-8.33334 0,-4.66666 -3.66667,-8.66666 -8.33334,-8.66666 -4.66666,0 -8.66666,4 -8.66666,8.66666 z"
           id="path4-3" />
        <path
           style="fill:#1d1d1b;fill-opacity:1;fill-rule:nonzero;stroke:none"
           d="m 407.66667,870.33333 c -2,-5.33333 -5,-10.33333 -8.66667,-15 -4,-4.66666 -8.33333,-9 -13.33333,-12.66666 C 383.33333,841 381,839.33333 378.33333,837.66667 375.66667,836 372.66667,835 369.66667,834.33333 c -3,-0.66666 -6.33334,-1 -9.33334,-0.66666 -3,0.33333 -6,1 -9,2.66666 -0.33333,1 -0.33333,1 -0.33333,1 2.66667,2 5.33333,3.33334 7.66667,4.66667 2.66666,1.33333 5,2.66667 7.33333,3.66667 2,0.66666 2,0.66666 2,0.66666 0.33333,0.33334 1,0.66667 1.66667,0.66667 0.66666,0.33333 1.33333,0.66667 2,0.66667 C 372,848 372.66667,848 373.33333,848.33333 376,849 378.66667,849.66667 381,851 c 4.66667,2.33333 9.33333,5 13.66667,8.33333 4.33333,3.33334 8.33333,7.33334 12,11.66667 z"
           id="path5" />
        <path
           style="fill:#1d1d1b;fill-opacity:1;fill-rule:nonzero;stroke:none"
           d="m 303.33333,856.66667 c -2,1 -3.66666,2.33333 -5.33333,4 -1,0.66666 -1.66667,1.33333 -2.33333,2 -1,1 -1.66667,1.66666 -2.33334,2.66666 -1.33333,1.66667 -2.66666,3.66667 -3.66666,6 -1,2 -1.66667,4.33334 -2,7 -0.33334,2.33334 -0.33334,5 0.33333,7.66667 0.33333,2.33333 1.66667,4.66667 3,7 1.33333,2 3,3.66667 4.33333,5.33333 1.66667,1.66667 3.66667,3 5.33334,4.33334 0.66666,0.66666 1.66666,1 2.66666,1.66666 C 304,905 305,905.66667 306,906 c 1.66667,1.33333 3.66667,2.33333 5.33333,3.33333 4,2 7.66667,3.66667 11.66667,5 8,3 16,5 24.33333,6 2,0.33334 4.33334,0.33334 6.33334,0.66667 1,0 2,0 3,0.33333 0.66666,0 1.66666,0 2.66666,0.33334 4,0.33333 7.66667,1 11.66667,2 7.33333,1.66666 15,4.33333 22.33333,7.33333 7,3 14.33334,6.66667 21,10.66667 1.66667,1 3.33334,2 5,3 C 422,946.33333 422,946.33333 422,946.33333 424.33333,948 424.33333,948 424.33333,948 c 3.33334,2.33333 6.66667,4.66667 10,7 0,0 0,0 0,0 1,0.66667 2.33334,0.33333 3,-0.66667 0.66667,-0.66666 0.33334,-2 -0.33333,-2.66666 C 433.66667,949 430.66667,946.33333 427.33333,944 425,942 425,942 425,942 c -2.66667,-1.66667 -2.66667,-1.66667 -2.66667,-1.66667 -1.66666,-1 -3.33333,-2.33333 -5,-3.33333 -6.66666,-4.66667 -14,-8.66667 -21.33333,-12.33333 -7.33333,-3.33334 -15.33333,-6.33334 -23.33333,-8.66667 -4,-1 -8,-2 -12,-2.66667 -1,0 -2,-0.33333 -3,-0.33333 -1.33334,0 -2.33334,-0.33333 -3.33334,-0.33333 -2,-0.33334 -3.66666,-0.66667 -5.66666,-0.66667 -7.66667,-1.33333 -15.33334,-3.33333 -22.33334,-6 -3.66666,-1.33333 -7.33333,-3 -10.66666,-5 -1.66667,-0.66667 -3,-1.66667 -4.66667,-2.66667 -1,-0.66666 -1.66667,-1.33333 -2.33333,-1.66666 -1,-0.66667 -1.66667,-1 -2.33334,-1.66667 -3,-2.33333 -5.66666,-4.66667 -7.33333,-7.33333 -1,-1.33334 -1.33333,-2.66667 -1.66667,-4 -0.33333,-1.33334 -0.66666,-3 -0.66666,-4.33334 0.33333,-1.66666 0.66666,-3 1.33333,-4.66666 0.33333,-1.66667 1.33333,-3 2,-4.66667 2,-3 4.33333,-6 7,-8.66667 0,0 0,0 0,0 C 308,860 308,858 307,857 c -1.33333,-1 -2.66667,-1 -3.66667,-0.33333 z"
           id="path6" />
        <path
           style="fill:#1d1d1b;fill-opacity:1;fill-rule:nonzero;stroke:none"
           d="m 352.33333,1050 c 39.66667,0 62,-37.6667 63,-39 19,-33 6.66667,-65.66667 4,-72 -0.66666,-2 -3,-3 -4.66666,-2 -2,0.66667 -3,3 -2,5 C 415,947.66667 426,977.33333 409,1007 c -0.33333,0.3333 -21,35.6667 -56.66667,35.6667 0,0 0,0 0,0 -34.33333,0 -65.66666,-33 -67.33333,-70.6667 -1.66667,-35 24.66667,-58.66667 30,-63 1.66667,-1.33333 1.66667,-3.66667 0.66667,-5.33333 C 314.33333,902 312,902 310.33333,903.33333 c -6,4.66667 -34.66666,30.33334 -33,69 1,19 9.33334,38.66667 23,53.33337 14.66667,15.6666 33,24.3333 52,24.3333 z"
           id="path7" />
        <path
           style="fill:#1d1d1b;fill-opacity:1;fill-rule:nonzero;stroke:none"
           d="m 73.666667,871 c 3.666666,-4.33333 7.666666,-8.33333 12,-11.66667 4.333333,-3.33333 9,-6 14,-8.33333 C 102,849.66667 104.66667,849 107,848.33333 107.66667,848 108.33333,848 109,847.66667 c 0.66667,0 1,-0.33334 1.66667,-0.66667 0.66666,0 1.33333,-0.33333 2,-0.66667 1.66666,-0.66666 1.66666,-0.66666 1.66666,-0.66666 2.33334,-1 4.66667,-2.33334 7.33334,-3.66667 2.33333,-1.33333 5,-2.66667 7.66666,-4.66667 0,-1 0,-1 0,-1 C 126.33333,834.66667 123,834 120,833.66667 c -3,-0.33334 -6,0 -9.33333,0.66666 -3,0.66667 -5.66667,1.66667 -8.33334,3.33334 -2.666663,1.66666 -5.33333,3.33333 -7.666663,5 -5,3.66666 -9.333334,8 -13,12.66666 -3.666667,4.66667 -7,9.66667 -9,15 z"
           id="path8" />
        <path
           style="fill:#1d1d1b;fill-opacity:1;fill-rule:nonzero;stroke:none"
           d="M 173.66667,861.33333 C 176,864 178.33333,867 180.33333,870 c 1,1.66667 1.66667,3 2.33334,4.66667 0.33333,1.66666 0.66666,3 1,4.66666 0,1.33334 0,3 -0.33334,4.33334 -0.33333,1.33333 -1,2.66666 -2,4 -1.33333,2.66666 -4,5 -7,7.33333 -1,0.66667 -1.66666,1 -2.33333,1.66667 -1,0.33333 -1.66667,1 -2.33333,1.66666 -1.66667,1 -3.33334,2 -5,2.66667 -3.33334,2 -7,3.66667 -10.33334,5 -7.33333,2.66667 -15,4.66667 -22.66666,6 C 130,912 128,912.33333 126,912.66667 c -1,0 -2,0.33333 -3,0.33333 -1,0 -2,0.33333 -3.33333,0.33333 -4,0.66667 -8,1.66667 -12,2.66667 C 99.666667,918.33333 92,921.33333 84.333333,924.66667 77,928.33333 70,932.33333 63,937 c -1.666667,1 -3.333333,2.33333 -5,3.33333 C 55.333333,942 55.333333,942 55.333333,942 53,944 53,944 53,944 c -3.333333,2.33333 -6.333333,5 -9.333333,7.66667 -1,0.66666 -1.333334,2 -0.333334,3 C 44,955.33333 45,955.66667 46,955 c 0,0 0,0 0,0 3.333333,-2.33333 6.666667,-4.66667 10,-7 2.333333,-1.66667 2.333333,-1.66667 2.333333,-1.66667 C 61,944.66667 61,944.66667 61,944.66667 c 1.666667,-1 3.333333,-2 5,-3 7,-4 14,-7.66667 21.333333,-10.66667 7,-3 14.666667,-5.66667 22.333337,-7.33333 3.66666,-1 7.33333,-1.66667 11.33333,-2 1,-0.33334 2,-0.33334 3,-0.33334 C 125,921 125.66667,921 127,921 c 2,-0.33333 4,-0.33333 6,-0.66667 8.33333,-1 16.33333,-3 24.33333,-6 4,-1.33333 8,-3 11.66667,-5 2,-1 3.66667,-2 5.66667,-3.33333 0.66666,-0.33333 1.66666,-1 2.66666,-1.66667 0.66667,-0.66666 1.66667,-1 2.33334,-1.66666 2,-1.33334 3.66666,-2.66667 5.33333,-4.33334 1.66667,-1.66666 3.33333,-3.33333 4.66667,-5.33333 1.33333,-2.33333 2.33333,-4.66667 3,-7 0.33333,-2.66667 0.66666,-5.33333 0.33333,-7.66667 -0.33333,-2.66666 -1.33333,-5 -2.33333,-7 -1,-2.33333 -2.33334,-4.33333 -3.66667,-6 -0.66667,-1 -1.33333,-1.66666 -2,-2.66666 -1,-0.66667 -1.66667,-1.33334 -2.33333,-2 -1.66667,-1.66667 -3.66667,-3 -5.33334,-4 -1.66666,-1 -3.33333,-0.33334 -4.33333,1 -0.66667,1 -0.33333,2.66666 0.33333,3.66666 z"
           id="path9" />
        <path
           style="fill:#1d1d1b;fill-opacity:1;fill-rule:nonzero;stroke:none"
           d="m 128,1050 c 0,0 0,0 0,0 19,0 37.33333,-8.6667 52,-24.3333 13.66667,-14.6667 22,-34.33337 23,-53.33337 1.66667,-38.66666 -27,-64.33333 -32.66667,-69 C 168.66667,902 166.33333,902 165,903.66667 c -1.33333,1.66666 -1,4 0.33333,5.33333 5.33334,4.33333 31.66667,28 30.33334,63 -2,37.6667 -33.33334,70.6667 -67.66667,70.6667 0,0 0,0 0,0 -35.333333,0 -56.333333,-35.3334 -56.333333,-35.6667 -17.333334,-29.66667 -6.333334,-59.33333 -4,-65 1,-2 0,-4.33333 -1.666667,-5 -2,-1 -4.333333,0 -5,2 -2.666667,6.33333 -15,39 4,72 1,1.3333 23.333333,39 63,39 z"
           id="path10" />
        <path
           style="fill:#1d1d1b;fill-opacity:1;fill-rule:nonzero;stroke:none"
           d="m 42,899.66667 c -1,5 -1.333333,9.33333 -1,13.66666 0.333333,2 1,4 1.666667,5.66667 0.333333,1 0.666666,1.66667 1,2.66667 1,1.33333 1,1.33333 1,1.33333 0,0.33333 0.333333,0.66667 0.666666,1 2.333334,3.33333 5.333334,6 9,8 2,1.33333 4.333334,2 6.666667,2.66667 1.666667,0.66666 1.666667,0.66666 1.666667,0.66666 C 64.333333,936 64.333333,936 64.333333,936 c 0.666667,0.33333 1,0.33333 1.666667,0.66667 0.333333,0 0.666667,0.33333 0.666667,0.33333 C 67,937 67,937 67,937 c 0,0.33333 0,0.33333 -0.333333,0.66667 0,0 -0.333334,0.33333 -0.666667,0.66666 0,0 0,0 0,0 -0.333333,0.33334 -0.333333,0.33334 -0.333333,0.33334 C 65.333333,939 65.333333,939 65.333333,939 65,939.33333 65,939.33333 65,939.33333 c -0.333333,0.33334 -0.333333,0.33334 -0.333333,0.33334 0,0 0,0 0,0 C 64.333333,939.66667 64.333333,940 64,940 c -0.666667,0.66667 -0.666667,0.66667 -0.666667,0.66667 -0.333333,0 -0.333333,0 -0.333333,0 C 62.666667,941 62.666667,941 62.666667,941 c -0.333334,0.33333 -0.333334,0.33333 -0.333334,0.33333 -0.333333,0 -0.333333,0 -0.333333,0 C 61.666667,941.66667 61.333333,942 61,942 c -0.333333,0.33333 -0.666667,0.33333 -0.666667,0.33333 -0.333333,0 -0.333333,0 -0.333333,0 -0.333333,0 -1,0 -1.333333,0 C 58,942 57.333333,942 56.666667,941.66667 c -0.666667,0 -1.333334,-0.33334 -2,-0.33334 C 54,941 53.666667,940.66667 53,940.66667 51,939.33333 49,938 47.333333,937 c -2,-1.33333 -3.333333,-2.66667 -4.666666,-4.33333 -1,-1.33334 -1,-1.33334 -1,-1.33334 C 41,931 41,931 41,931 40.666667,930.33333 40.666667,930.33333 40.666667,930.33333 40,929 40,929 40,929 39.333333,927.66667 39.333333,927.66667 39.333333,927.66667 39,927 39,926.66667 38.666667,926 c -0.333334,-1.33333 -0.333334,-1.33333 -0.333334,-1.33333 -0.333333,-1 -0.666666,-2 -0.666666,-3 -0.333334,-2 -0.666667,-4.33334 -0.333334,-6.66667 0.333334,-4.66667 1.666667,-9.66667 4,-15 0,-0.33333 0.333334,-0.33333 0.333334,-0.33333 C 42,899.33333 42,899.33333 42,899.66667 Z"
           id="path11" />
        <path
           style="fill:#1d1d1b;fill-opacity:1;fill-rule:nonzero;stroke:none"
           d="m 67.333333,890.66667 c -0.666666,4.33333 -0.666666,8.33333 0,12 0.333334,2 0.666667,3.66666 1.333334,5.33333 0.333333,0.66667 1,1.66667 1.333333,2.33333 0.666667,1.33334 0.666667,1.33334 0.666667,1.33334 0,0.33333 0.333333,0.66666 0.666666,1 2,3 4.666667,5.33333 8,7.66666 C 81,921.33333 83,922 85,922.66667 c 1.333333,0.66666 1.333333,0.66666 1.333333,0.66666 C 88,924 88,924 88,924 c 0.333333,0.33333 1,0.66667 1.333333,0.66667 C 89.666667,925 89.666667,925 90,925 c 0,0 0,0 0,0.33333 0,0 0,0 0,0.33334 -0.333333,0 -0.333333,0.33333 -0.666667,0.66666 0,0 0,0 0,0 -0.333333,0 -0.333333,0 -0.333333,0 0,0.33334 0,0.33334 0,0.33334 C 88.666667,927 88.666667,927 88.666667,927 c -0.333334,0.33333 -0.333334,0.33333 -0.333334,0.33333 0,0 0,0 0,0 C 88,927.66667 88,927.66667 87.666667,927.66667 87.333333,928 87.333333,928 87.333333,928 87,928.33333 87,928.33333 87,928.33333 c -0.333333,0.33334 -0.333333,0.33334 -0.333333,0.33334 -0.333334,0 -0.333334,0 -0.333334,0 0,0 0,0 0,0 -0.666666,0.33333 -0.666666,0.66666 -1,0.66666 -0.333333,0 -0.666666,0.33334 -0.666666,0.33334 0,0 -0.333334,0 -0.333334,0 -0.333333,0 -0.666666,-0.33334 -1,-0.33334 C 82.666667,929.33333 82,929 81.666667,929 81,928.66667 80.333333,928.66667 80,928.33333 c -0.666667,0 -1,-0.33333 -1.666667,-0.66666 -1.666666,-1 -3.333333,-2.33334 -5,-3.33334 -1.333333,-1.33333 -2.666666,-2.66666 -4,-4 -1,-1.33333 -1,-1.33333 -1,-1.33333 C 68,918.66667 68,918.66667 68,918.66667 67.666667,918 67.666667,918 67.666667,918 67,916.66667 67,916.66667 67,916.66667 66.333333,915.33333 66.333333,915.33333 66.333333,915.33333 66,915 66,914.66667 65.666667,914.33333 65.333333,913 65.333333,913 65.333333,913 65,912 64.666667,911 64.666667,910 64.333333,908.33333 64,906.33333 64,904 c 0.333333,-4 1,-8.33333 3,-13.33333 0,0 0,0 0.333333,-0.33334 0,0 0.333334,0 0,0.33334 z"
           id="path12" />
        <path
           style="fill:#1d1d1b;fill-opacity:1;fill-rule:nonzero;stroke:none"
           d="m 92.666667,887.33333 c -0.333334,3.66667 0,7 0.666666,10 0.333334,1.66667 0.666667,3 1.333334,4.66667 0.333333,0.66667 0.666666,1.33333 1,2 0.666666,1 0.666666,1 0.666666,1 0,0.33333 0.333334,0.66667 0.666667,1 1.666667,2.66667 3.66667,4.66667 6.33333,6.66667 1.33334,1 3,1.66666 4.66667,2.33333 1.33333,0.66667 1.33333,0.66667 1.33333,0.66667 1,0.66666 1,0.66666 1,0.66666 0.33334,0.33334 0.66667,0.33334 1,0.66667 0.33334,0 0.33334,0 0.66667,0.33333 0,0 0,0 0,0 0,0 0,0.33334 0,0.33334 0,0 -0.33333,0.33333 -0.33333,0.66666 0,0 0,0 0,0 -0.33334,0 -0.33334,0 -0.33334,0 0,0.33334 0,0.33334 0,0.33334 -0.33333,0 -0.33333,0 -0.33333,0 C 110.66667,919 110.66667,919 110.66667,919 c 0,0 0,0 0,0 0,0.33333 0,0.33333 -0.33334,0.33333 C 110,919.66667 110,919.66667 110,919.66667 109.66667,920 109.66667,920 109.66667,920 c 0,0 0,0 0,0 -0.33334,0 -0.33334,0 -0.33334,0 0,0.33333 0,0.33333 0,0.33333 -0.33333,0 -0.66666,0 -0.66666,0.33334 -0.33334,0 -0.33334,0 -0.66667,0 0,0 0,0 0,0 -0.33333,0 -0.66667,0 -1,0 -0.33333,-0.33334 -1,-0.33334 -1.33333,-0.66667 -0.33334,0 -1,-0.33333 -1.33334,-0.33333 C 104,919.33333 103.33333,919 103,919 c -1.33333,-1 -2.66667,-2.33333 -4,-3.33333 -1.333333,-1 -2.333333,-2.33334 -3.333333,-3.33334 -0.666667,-1 -0.666667,-1 -0.666667,-1 -0.333333,-0.66666 -0.333333,-0.66666 -0.333333,-0.66666 -0.333334,-0.33334 -0.333334,-0.33334 -0.333334,-0.33334 C 93.666667,909 93.666667,909 93.666667,909 93,908 93,908 93,908 93,907.66667 92.666667,907.33333 92.666667,907 92,906 92,906 92,906 92,905 91.666667,904.33333 91.333333,903.66667 91,902 91,900.33333 90.666667,898.33333 c 0,-3.33333 0.666666,-7 1.666666,-11 0,0 0,0 0.333334,0 0,-0.33333 0,0 0,0 z"
           id="path13" />
        <path
           style="fill:#1d1d1b;fill-opacity:1;fill-rule:nonzero;stroke:none"
           d="m 438.33333,899.66667 c 1.33334,5 1.66667,9.33333 1,13.66666 -0.33333,2 -0.66666,4 -1.66666,5.66667 -0.33334,1 -0.66667,1.66667 -1,2.66667 C 436,923 436,923 436,923 c -0.33333,0.33333 -0.66667,0.66667 -1,1 -2,3.33333 -5.33333,6 -9,8 -1.66667,1.33333 -4.33333,2 -6.66667,2.66667 -1.66666,0.66666 -1.66666,0.66666 -1.66666,0.66666 C 416,936 416,936 416,936 c -0.66667,0.33333 -1,0.33333 -1.66667,0.66667 0,0 -0.33333,0.33333 -0.66666,0.33333 0,0 0,0 0,0 0,0.33333 0,0.33333 0,0.66667 0.33333,0 0.33333,0.33333 0.66666,0.66666 0.33334,0 0.33334,0 0.33334,0 0,0.33334 0,0.33334 0,0.33334 C 415,939 415,939 415,939 c 0.33333,0.33333 0.33333,0.33333 0.33333,0.33333 0.33334,0.33334 0.33334,0.33334 0.33334,0.33334 0,0 0,0 0,0 C 416,939.66667 416.33333,940 416.33333,940 417,940.66667 417,940.66667 417,940.66667 c 0.33333,0 0.33333,0 0.33333,0 C 418,941 418,941 418,941 c 0,0.33333 0,0.33333 0,0.33333 0.33333,0 0.33333,0 0.33333,0 0.33334,0.33334 0.66667,0.66667 1,0.66667 0.33334,0.33333 0.66667,0.33333 1,0.33333 0,0 0,0 0.33334,0 0.33333,0 0.66666,0 1,0 0.66666,-0.33333 1.33333,-0.33333 2,-0.66666 0.66666,0 1.33333,-0.33334 2,-0.33334 0.66666,-0.33333 1.33333,-0.66666 1.66666,-0.66666 2.33334,-1.33334 4,-2.66667 6,-3.66667 1.66667,-1.33333 3.33334,-2.66667 4.66667,-4.33333 1,-1.33334 1,-1.33334 1,-1.33334 C 439.33333,931 439.33333,931 439.33333,931 c 0.33334,-0.66667 0.33334,-0.66667 0.33334,-0.66667 C 440.33333,929 440.33333,929 440.33333,929 441,927.66667 441,927.66667 441,927.66667 c 0.33333,-0.66667 0.66667,-1 0.66667,-1.66667 0.66666,-1.33333 0.66666,-1.33333 0.66666,-1.33333 0,-1 0.33334,-2 0.66667,-3 0.33333,-2 0.33333,-4.33334 0,-6.66667 -0.33333,-4.66667 -1.66667,-9.66667 -4,-15 0,-0.33333 0,-0.33333 -0.33333,-0.33333 -0.33334,-0.33334 -0.33334,-0.33334 -0.33334,0 z"
           id="path14" />
        <path
           style="fill:#1d1d1b;fill-opacity:1;fill-rule:nonzero;stroke:none"
           d="m 413,890.66667 c 0.66667,4.33333 0.66667,8.33333 0,12 -0.33333,2 -0.66667,3.66666 -1.33333,5.33333 -0.33334,0.66667 -0.66667,1.66667 -1,2.33333 -1,1.33334 -1,1.33334 -1,1.33334 0,0.33333 -0.33334,0.66666 -0.66667,1 -2,3 -4.66667,5.33333 -8,7.66666 -1.33333,1 -3.66667,1.66667 -5.66667,2.33334 C 394,923.33333 394,923.33333 394,923.33333 392.66667,924 392.66667,924 392.66667,924 392,924.33333 391.66667,924.66667 391,924.66667 391,925 390.66667,925 390.33333,925 c 0,0 0,0 0,0.33333 0,0 0,0 0,0.33334 0.33334,0 0.33334,0.33333 0.66667,0.66666 0,0 0,0 0,0 0.33333,0 0.33333,0 0.33333,0 0.33334,0.33334 0.33334,0.33334 0.33334,0.33334 0,0.33333 0,0.33333 0,0.33333 C 392,927.33333 392,927.33333 392,927.33333 c 0.33333,0 0.33333,0 0.33333,0 0,0.33334 0,0.33334 0.33334,0.33334 C 393,928 393,928 393,928 c 0.66667,0.33333 0.66667,0.33333 0.66667,0.33333 C 394,928.66667 394,928.66667 394,928.66667 c 0,0 0,0 0,0 0.33333,0 0.33333,0 0.33333,0 0.33334,0.33333 0.66667,0.66666 1,0.66666 0,0 0.33334,0.33334 0.33334,0.33334 0.33333,0 0.33333,0 0.33333,0 0.33333,0 0.66667,-0.33334 1,-0.33334 0.66667,0 1.33333,-0.33333 2,-0.33333 0.33333,-0.33333 1,-0.33333 1.66667,-0.66667 0.33333,0 1,-0.33333 1.33333,-0.66666 1.66667,-1 3.33333,-2.33334 5,-3.33334 1.66667,-1.33333 3,-2.66666 4,-4 C 412,919 412,919 412,919 c 0.33333,-0.33333 0.33333,-0.33333 0.33333,-0.33333 C 412.66667,918 412.66667,918 412.66667,918 c 0.66666,-1.33333 0.66666,-1.33333 0.66666,-1.33333 C 414,915.33333 414,915.33333 414,915.33333 c 0.33333,-0.33333 0.33333,-0.66666 0.66667,-1 C 415,913 415,913 415,913 c 0.33333,-1 0.66667,-2 0.66667,-3 0.66666,-1.66667 0.66666,-3.66667 0.66666,-6 0,-4 -1,-8.33333 -2.66666,-13.33333 0,0 -0.33334,0 -0.33334,-0.33334 -0.33333,0 -0.33333,0 -0.33333,0.33334 z"
           id="path15" />
        <path
           style="fill:#1d1d1b;fill-opacity:1;fill-rule:nonzero;stroke:none"
           d="m 387.66667,887.33333 c 0.33333,3.66667 0.33333,7 -0.33334,10 -0.33333,1.66667 -1,3 -1.66666,4.66667 -0.33334,0.66667 -0.66667,1.33333 -1,2 -0.33334,1 -0.33334,1 -0.33334,1 -0.33333,0.33333 -0.66666,0.66667 -0.66666,1 -1.66667,2.66667 -4,4.66667 -6.66667,6.66667 -1.33333,1 -3,1.66666 -4.66667,2.33333 -1,0.66667 -1,0.66667 -1,0.66667 C 370,916.33333 370,916.33333 370,916.33333 c -0.33333,0.33334 -0.66667,0.33334 -1,0.66667 -0.33333,0 -0.33333,0 -0.66667,0.33333 0,0 0,0 0,0 0,0 0,0.33334 0,0.33334 0.33334,0 0.33334,0.33333 0.33334,0.66666 0.33333,0 0.33333,0 0.33333,0 0,0 0,0 0,0 0.33333,0.33334 0.33333,0.33334 0.33333,0.33334 0,0 0,0 0,0 C 369.66667,919 369.66667,919 369.66667,919 c 0,0 0,0 0,0 0,0.33333 0.33333,0.33333 0.33333,0.33333 0.33333,0.33334 0.33333,0.33334 0.33333,0.33334 C 370.66667,920 370.66667,920 370.66667,920 371,920 371,920 371,920 c 0,0 0,0 0,0 0.33333,0.33333 0.33333,0.33333 0.33333,0.33333 0,0 0.33334,0 0.66667,0.33334 0,0 0.33333,0 0.33333,0 0,0 0.33334,0 0.33334,0 0.33333,0 0.33333,0 0.66666,0 0.66667,-0.33334 1,-0.33334 1.33334,-0.66667 0.66666,0 1,-0.33333 1.33333,-0.33333 0.66667,-0.33334 1,-0.66667 1.33333,-0.66667 1.33334,-1 2.66667,-2.33333 4,-3.33333 1.33334,-1 2.33334,-2.33334 3.33334,-3.33334 1,-1 1,-1 1,-1 C 386,910.66667 386,910.66667 386,910.66667 c 0.33333,-0.33334 0.33333,-0.33334 0.33333,-0.33334 C 386.66667,909 386.66667,909 386.66667,909 c 0.66666,-1 0.66666,-1 0.66666,-1 0.33334,-0.33333 0.33334,-0.66667 0.66667,-1 0.33333,-1 0.33333,-1 0.33333,-1 0.33334,-1 0.33334,-1.66667 0.66667,-2.33333 0.33333,-1.66667 0.66667,-3.33334 0.66667,-5.33334 0,-3.33333 -0.33334,-7 -1.66667,-11 0,0 0,0 -0.33333,0 0,-0.33333 0,0 0,0 z"
           id="path16" />
      </g>
      <path
         style="fill:#ffffff;stroke-width:1.2691"
         d="M 263.9718,779.24297 C 234.63859,772.75839 209.18925,756.70893 183.69971,728.61987 139.63048,680.0563 126.68814,613.19913 148.59775,547.29123 l 3.27161,-9.84156 9.06269,-5.2929 c 35.02135,-20.45356 76.69784,-35.424 110.63899,-39.74215 32.46616,-4.1305 43.58886,-5.95935 55.22097,-9.07972 13.19052,-3.53843 34.44642,-11.23348 42.79515,-15.49268 l 5.2998,-2.70376 9.90082,11.20885 c 26.18767,29.64743 43.07252,61.84162 50.68946,96.64916 3.63274,16.60069 3.33401,50.76547 -0.59789,68.37949 -13.834,61.97324 -55.44932,113.46553 -106.86683,132.23059 -5.77636,2.10812 -14.44785,4.66287 -19.26996,5.67723 -10.76787,2.2651 -34.43755,2.24352 -44.77076,-0.0408 z m 40.94135,-79.97859 c 37.13467,-8.75539 60.2839,-48.2357 51.78688,-88.32097 -4.35169,-20.52938 -18.60363,-39.21701 -36.68517,-48.10282 -5.69559,-2.79898 -13.43182,-5.6566 -17.1916,-6.35026 -36.7681,-6.78347 -70.12311,15.54844 -79.60016,53.29404 -1.52977,6.0928 -1.90208,11.70171 -1.43212,21.57462 0.76468,16.06413 3.92067,26.84555 11.1181,37.98137 16.15785,24.99934 43.93312,36.54241 72.00407,29.92402 z"
         id="path20" />
      <path
         style="fill:#ffffff;stroke-width:1.2691"
         d="M 769.70623,779.23286 C 710.17674,765.92311 659.27973,709.25867 645.44698,640.89307 633.54022,582.04631 651.89665,522.83079 697.27139,473.71408 l 7.8913,-8.54208 5.93804,2.992 c 18.44276,9.29273 50.71707,18.6504 72.60282,21.05059 37.00733,4.05855 53.4377,7.50979 79.08879,16.61277 15.06647,5.34674 45.50073,19.63846 58.03652,27.25355 6.91969,4.20349 7.28205,4.69838 10.39988,14.20356 16.11541,49.13019 13.00139,103.22663 -8.30485,144.27137 -15.6397,30.12861 -47.96613,62.53931 -76.51559,76.71503 -18.67556,9.27302 -29.21653,11.87844 -50.05107,12.37115 -12.89506,0.30496 -20.87045,-0.11674 -26.651,-1.40916 z m 39.486,-79.34614 c 37.42529,-7.05356 62.26876,-47.78404 53.78691,-88.18284 -6.90914,-32.90811 -35.02115,-56.47474 -67.36721,-56.47474 -30.25206,0 -57.80554,22.07733 -65.87733,52.78446 -2.62272,9.9775 -2.60257,29.82528 0.0407,40.06946 6.43081,24.92323 26.66791,45.51531 50.37211,51.25569 8.32319,2.01559 20.08081,2.23741 29.04483,0.54797 z"
         id="path21" />
    </g>
  </g>
</svg>
