<?xml version="1.0" encoding="UTF-8" standalone="no"?>
<!-- Created with Inkscape (http://www.inkscape.org/) -->

<svg
   width="1051.176"
   height="515.25818"
   viewBox="0 0 1051.176 515.25818"
   version="1.1"
   id="svg1"
   xmlns="http://www.w3.org/2000/svg"
   xmlns:svg="http://www.w3.org/2000/svg">
  <defs
     id="defs1" />
  <g
     id="layer1"
     transform="matrix(1.2855867,0,0,1.3267928,-168.62883,-458.83903)">
    <g
       id="g12"
       transform="matrix(2.2823795,0,0,2.2666261,-600.90446,-683.97809)">
      <path
         style="fill:#1d1d1b;fill-opacity:1;fill-rule:nonzero;stroke:none"
         d="m 597,625.66667 c 39,0 71,-28 71,-62.33334 0,-4.66666 -0.66667,-9.66666 -2,-14 -0.33333,-2 -2.33333,-3.33333 -4.33333,-2.66666 -2,0.33333 -3.33334,2.66666 -2.66667,4.66666 1,3.66667 1.33333,7.66667 1.33333,12 0,30.33334 -28.33333,55 -63.33333,55 -35,0 -63.33333,-24.66666 -63.33333,-55 0,-7.66666 1.66666,-15 5.33333,-22 0.66667,-1.66666 0,-4 -1.66667,-5 -2,-1 -4.33333,0 -5,1.66667 -4,8 -6,16.33333 -6,25.33333 0,34.33334 31.66667,62.33334 70.66667,62.33334 z"
         id="path1-8" />
      <path
         style="fill:#1d1d1b;fill-opacity:1;fill-rule:nonzero;stroke:none"
         d="m 615.33333,487.66667 c -2,-3 -4.33333,-6 -7,-8.33334 -2.33333,-2.66666 -5.33333,-5 -8,-7.33333 -6,-4.33333 -12.33333,-8 -19,-11 -3.33333,-1.33333 -7,-2.66667 -10.33333,-3.66667 -3.66667,-1 -7.33333,-1.66666 -10.66667,-2.33333 -3.66666,-0.33333 -7.33333,-0.66667 -11,-0.66667 -3.66666,0 -7.33333,0 -11,1 6.66667,3 13.33334,5.66667 19.66667,8.33334 9.33333,3.66666 9.33333,3.66666 9.33333,3.66666 9.66667,4 9.66667,4 9.66667,4 9.33333,4 9.33333,4 9.33333,4 9.33334,4 9.33334,4 9.33334,4 6.33333,3 12.66666,5.66667 19.66666,8.33334 z"
         id="path2-8" />
      <path
         style="fill:#1d1d1b;fill-opacity:1;fill-rule:nonzero;stroke:none"
         d="m 559.33333,563 c 0,15.33333 12.66667,28 28,28 15.33334,0 28,-12.66667 28,-28 0,-4.66667 -1,-9 -3,-13 -15.66666,-0.33333 -32,-1.66667 -47.33333,-4 -3.66667,4.66667 -5.66667,10.66667 -5.66667,17 z"
         id="path3-2" />
      <path
         style="fill:#ffffff;fill-opacity:1;fill-rule:nonzero;stroke:none"
         d="m 588.66667,555 c 0,4.66667 4,8.66667 9,8.66667 5,0 9,-4 9,-8.66667 0,-2 -0.66667,-3.66667 -1.66667,-5.33333 -4.66667,0 -9.33333,-0.33334 -14,-0.66667 -1.66667,1.33333 -2.33333,3.66667 -2.33333,6 z"
         id="path4-4" />
      <path
         style="fill:#1d1d1b;fill-opacity:1;fill-rule:nonzero;stroke:none"
         d="m 539.66667,492.33333 c -3.66667,2.66667 -7,5.33334 -10,8.33334 -3,3 -6,6.33333 -8.66667,10 -1,2 -2.33333,4 -3,6.33333 -1,2.33333 -1.66667,5 -1.66667,7.66667 0,1.66666 0.33334,3 0.66667,4.33333 0,0.66667 0.33333,1.33333 0.66667,2 0.33333,0.66667 0.33333,1.33333 1,2 0.33333,0.66667 0.66666,1.33333 1,2 C 520,535.33333 520.33333,536 521,536.66667 522.33333,538 522.33333,538 522.33333,538 c 0.66667,0.33333 1,1 1.66667,1.33333 C 526,541 528,542 530,543 c 2.33333,1 4.33333,1.66667 6.66667,2.33333 4,1.33334 8.33333,2.33334 12.33333,3 8.33333,1.66667 16.33333,3 24.66667,4 C 578,552.66667 582,553 586,553.33333 c 4.33333,0.33334 8.33333,0.66667 12.66667,1 6,0.33334 6,0.33334 6,0.33334 6.33333,0 6.33333,0 6.33333,0 C 615,555 619.33333,555 623.33333,555 c 16.66667,0 33,-0.66667 49.33334,-2 2,0 3.33333,-1.66667 3,-3.33333 0,-1.66667 -1.66667,-3 -3.33334,-3 -8,0 -16.33333,0 -24.33333,0 -4,0 -8.33333,0 -12.33333,-0.33334 -4,0 -8,0 -12,-0.33333 -4.33334,0 -8.33334,-0.33333 -12.33334,-0.66667 -6,-0.33333 -6,-0.33333 -6,-0.33333 C 599,544.66667 599,544.66667 599,544.66667 591,544 583,543.33333 575,542.33333 571,541.66667 567,541 563,540.66667 559,540 555,539 551,538.33333 c -4,-0.66666 -7.66667,-1.66666 -11.33333,-2.66666 C 538,535 536,534.33333 534.66667,533.66667 533,533 531.66667,532 530.33333,531 c -0.33333,0 -0.66666,-0.33333 -1,-0.66667 C 529.33333,530 529,530 528.66667,529.66667 528.66667,529.33333 528.33333,529 528,529 c 0,-0.33333 -0.33333,-0.66667 -0.33333,-1 -0.66667,-1 -1,-2 -1,-3.33333 -0.33334,-2.66667 1,-6 2.66666,-9 1.66667,-3.33334 4,-6.33334 6.33334,-9.33334 2.66666,-3 5.33333,-6 8,-8.66666 0,-0.33334 0,-0.33334 0,-0.33334 1.33333,-1 1.33333,-3.33333 0,-4.33333 -1,-1.33333 -2.66667,-1.33333 -4,-0.66667 z"
         id="path5-5" />
      <path
         style="fill:#1d1d1b;fill-opacity:1;fill-rule:nonzero;stroke:none"
         d="m 403,625.66667 c 39,0 71,-28 71,-62.33334 0,-9 -2,-17.33333 -6,-25.33333 -1,-1.66667 -3.33333,-2.66667 -5,-1.66667 -2,1 -2.66667,3.33334 -1.66667,5 3.33334,7 5,14.33334 5,22 0,30.33334 -28.33333,55 -63.33333,55 -35,0 -63.33333,-24.66666 -63.33333,-55 0,-4.33333 0.66666,-8.33333 1.66666,-12 0.33334,-2 -0.66666,-4.33333 -2.66666,-4.66666 -2,-0.66667 -4.33334,0.66666 -4.66667,2.66666 -1.33333,4.33334 -1.66667,9.33334 -1.66667,14 0,34.33334 31.66667,62.33334 70.66667,62.33334 z"
         id="path6-5" />
      <path
         style="fill:#1d1d1b;fill-opacity:1;fill-rule:nonzero;stroke:none"
         d="m 384.66667,487.66667 c 7,-2.66667 13.33333,-5.33334 19.66666,-8.33334 9.33334,-4 9.33334,-4 9.33334,-4 9.66666,-4 9.66666,-4 9.66666,-4 9.33334,-4 9.33334,-4 9.33334,-4 9.66666,-3.66666 9.66666,-3.66666 9.66666,-3.66666 C 448.66667,461 455,458.33333 461.66667,455.33333 c -3.66667,-1 -7.33334,-1 -11,-1 -3.66667,0 -7,0.33334 -10.66667,0.66667 -3.66667,0.66667 -7.33333,1.33333 -10.66667,2.33333 -3.66666,1 -7,2.33334 -10.33333,3.66667 -7,3 -13.33333,6.66667 -19,11 -3,2.33333 -5.66667,4.66667 -8.33333,7.33333 -2.66667,2.33334 -5,5.33334 -7,8.33334 z"
         id="path7-1" />
      <path
         style="fill:#1d1d1b;fill-opacity:1;fill-rule:nonzero;stroke:none"
         d="m 440.66667,563 c 0,15.33333 -12.33334,28 -28,28 -15.33334,0 -28,-12.66667 -28,-28 0,-4.66667 1,-9 3,-13 16,-0.33333 32,-1.66667 47.33333,-4 3.66667,4.66667 5.66667,10.66667 5.66667,17 z"
         id="path8-7" />
      <path
         style="fill:#ffffff;fill-opacity:1;fill-rule:nonzero;stroke:none"
         d="m 411.33333,555 c 0,4.66667 -4,8.66667 -9,8.66667 -4.66666,0 -8.66666,-4 -8.66666,-8.66667 0,-2 0.33333,-3.66667 1.33333,-5.33333 4.66667,0 9.33333,-0.33334 14.33333,-0.66667 1.33334,1.33333 2,3.66667 2,6 z"
         id="path9-1" />
      <path
         style="fill:#1d1d1b;fill-opacity:1;fill-rule:nonzero;stroke:none"
         d="m 456.33333,497.66667 c 3,2.66666 5.66667,5.66666 8,8.66666 2.66667,3 4.66667,6 6.33334,9.33334 1.66666,3 3,6.33333 2.66666,9 0,1.33333 -0.33333,2.33333 -1,3.33333 0,0.33333 0,0.66667 -0.33333,1 -0.33333,0 -0.33333,0.33333 -0.66667,0.66667 C 471,530 471,530 470.66667,530.33333 470.33333,530.66667 470,531 469.66667,531 c -1,1 -2.66667,2 -4,2.66667 -1.66667,0.66666 -3.33334,1.33333 -5.33334,2 -3.33333,1 -7.33333,2 -11.33333,2.66666 -4,0.66667 -8,1.66667 -12,2.33334 -4,0.33333 -8,1 -12,1.66666 -8,1 -16,1.66667 -24,2.33334 C 395,545 395,545 395,545 c -6.33333,0.33333 -6.33333,0.33333 -6.33333,0.33333 -4,0.33334 -8,0.66667 -12,0.66667 -4,0.33333 -8.33334,0.33333 -12.33334,0.33333 -4,0.33334 -8,0.33334 -12.33333,0.33334 -8,0 -16.33333,0 -24.33333,0 -1.66667,0 -3.33334,1.33333 -3.33334,3.33333 0,1.66667 1.33334,3 3,3 16.33334,1.33333 33,2 49.33334,2 C 381,555 385,555 389,554.66667 c 6.33333,0 6.33333,0 6.33333,0 6.33334,-0.33334 6.33334,-0.33334 6.33334,-0.33334 4,-0.33333 8,-0.66666 12.33333,-1 4,-0.33333 8.33333,-0.66666 12.33333,-1 8.33334,-1 16.66667,-2.33333 24.66667,-4 4,-0.66666 8.33333,-1.66666 12.66667,-3 2,-0.66666 4,-1.33333 6.33333,-2.33333 2,-1 4.33333,-2 6.33333,-3.66667 0.33334,-0.33333 1,-1 1.33334,-1.33333 C 479,536.66667 479,536.66667 479,536.66667 479.66667,536 480,535.33333 480.33333,535 c 0.66667,-0.66667 1,-1.33333 1.33334,-2 C 482,532.33333 482,531.66667 482.33333,531 482.66667,530.33333 483,529.66667 483,529 c 0.33333,-1.33333 0.66667,-2.66667 0.66667,-4.33333 C 483.66667,522 483,519.33333 482.33333,517 c -1,-2.33333 -2,-4.33333 -3.33333,-6.33333 -2.33333,-3.66667 -5.33333,-7 -8.66667,-10 -3,-3 -6.33333,-5.66667 -10,-8.33334 C 459,491.33333 457,492 456,493.33333 c -1,1.33334 -0.66667,3 0.33333,4 z"
         id="path10-1" />
      <path
         style="fill:#1d1d1b;fill-opacity:1;fill-rule:nonzero;stroke:none"
         d="m 674,509 c 1.33333,5 1.66667,9.66667 1,13.66667 -0.33333,2 -0.66667,4 -1.33333,6 -0.33334,0.66666 -1,1.66666 -1.33334,2.66666 -0.66666,1 -0.66666,1 -0.66666,1 -0.33334,0.66667 -0.66667,1 -1,1.33334 -2,3 -5.33334,5.66666 -9,8 -1.66667,1 -4,2 -6.66667,2.66666 C 653.33333,545 653.33333,545 653.33333,545 c -1.66666,0.33333 -1.66666,0.33333 -1.66666,0.33333 -0.33334,0.33334 -1,0.66667 -1.66667,0.66667 0,0.33333 -0.33333,0.33333 -0.66667,0.66667 0,0 0,0 0,0 0,0 0,0.33333 0,0.33333 0.33334,0.33333 0.33334,0.66667 0.66667,1 0.33333,0 0.33333,0 0.33333,0 0,0 0,0 0,0 0.33334,0.33333 0.33334,0.33333 0.33334,0.33333 C 651,548.66667 651,548.66667 651,548.66667 c 0.66667,0.66666 0.66667,0.66666 0.66667,0.66666 0,0 0,0 0,0 0,0 0.33333,0.33334 0.66666,0.33334 C 652.66667,550 652.66667,550 652.66667,550 c 0.66666,0.33333 0.66666,0.33333 0.66666,0.33333 0.33334,0.33334 0.33334,0.33334 0.33334,0.33334 0.33333,0 0.33333,0 0.33333,0 C 654,551 654,551 654,551 c 0.66667,0.33333 1,0.33333 1.33333,0.66667 0.33334,0 0.33334,0 0.66667,0 0,0.33333 0,0.33333 0.33333,0 0.33334,0 0.66667,0 1,0 0.66667,0 1.66667,-0.33334 2.33334,-0.33334 C 660.33333,551 661,551 661.33333,550.66667 c 0.66667,0 1.33334,-0.33334 2,-0.66667 2,-1 3.66667,-2.33333 5.66667,-3.66667 1.66667,-1.33333 3.33333,-2.66666 4.66667,-4 1,-1.33333 1,-1.33333 1,-1.33333 C 675,540.33333 675,540.33333 675,540.33333 c 0.33333,-0.66666 0.33333,-0.66666 0.33333,-0.66666 1,-1.33334 1,-1.33334 1,-1.33334 C 677,537 677,537 677,537 c 0,-0.33333 0.33333,-1 0.33333,-1.33333 C 678,534.33333 678,534.33333 678,534.33333 c 0.33333,-1 0.66667,-2 0.66667,-3.33333 C 679,529 679,527 679,524.66667 c -0.33333,-4.66667 -1.66667,-10 -4,-15.33334 0,0 -0.33333,-0.33333 -0.66667,-0.33333 z"
         id="path11-5" />
      <path
         style="fill:#1d1d1b;fill-opacity:1;fill-rule:nonzero;stroke:none"
         d="m 648.66667,512 c 0.66666,4.33333 1,8.66667 0.33333,12.33333 -0.33333,1.66667 -1,3.33334 -1.66667,5 -0.33333,1 -0.66666,1.66667 -1,2.66667 -0.66666,1 -0.66666,1 -0.66666,1 -0.33334,0.33333 -0.66667,0.66667 -0.66667,1.33333 -2,2.66667 -5,5.33334 -8,7.33334 -1.66667,1 -3.66667,2 -5.66667,2.66666 C 629.66667,545 629.66667,545 629.66667,545 c -1.33334,0.66667 -1.33334,0.66667 -1.33334,0.66667 -0.66666,0 -1,0.33333 -1.33333,0.66666 -0.33333,0 -0.66667,0.33334 -0.66667,0.33334 -0.33333,0 -0.33333,0 -0.33333,0 0,0 0,0.33333 0.33333,0.33333 0,0.33333 0.33334,0.33333 0.33334,0.66667 C 627,548 627,548 627,548 c 0,0 0,0 0,0 0.33333,0.33333 0.33333,0.33333 0.33333,0.33333 0.33334,0.33334 0.33334,0.33334 0.33334,0.33334 C 628,549 628,549 628,549 c 0,0 0,0 0,0 0,0 0.33333,0.33333 0.33333,0.33333 C 629,549.66667 629,549.66667 629,549.66667 629.33333,550 629.33333,550 629.33333,550 c 0.33334,0 0.33334,0 0.33334,0 0,0.33333 0,0.33333 0,0.33333 0.33333,0 0.33333,0 0.33333,0 0.33333,0.33334 0.66667,0.33334 1,0.66667 0.33333,0 0.33333,0 0.33333,0 0.33334,0 0.33334,0 0.33334,0 0.33333,0 0.66666,0 1,0 0.66666,-0.33333 1.33333,-0.33333 2,-0.66667 0.66666,0 1,-0.33333 1.66666,-0.33333 0.33334,-0.33333 1,-0.66667 1.33334,-0.66667 2,-1.33333 3.33333,-2.33333 5,-3.66666 1.66666,-1.33334 3,-2.66667 4.33333,-4 0.66667,-1 0.66667,-1 0.66667,-1 C 648,540 648,540 648,540 c 0.33333,-0.66667 0.33333,-0.66667 0.33333,-0.66667 1,-1 1,-1 1,-1 C 649.66667,537 649.66667,537 649.66667,537 650,536.66667 650.33333,536 650.33333,535.66667 651,534.33333 651,534.33333 651,534.33333 c 0,-1 0.33333,-1.66666 0.66667,-2.66666 0.33333,-2 0.33333,-4 0.33333,-6 0,-4 -1,-8.66667 -2.66667,-13.33334 C 649.33333,512.33333 649,512 649,512 Z"
         id="path12-2" />
      <path
         style="fill:#1d1d1b;fill-opacity:1;fill-rule:nonzero;stroke:none"
         d="m 623.33333,516.66667 c 0.33334,3.66666 0.33334,7 -0.33333,10.33333 -0.33333,1.33333 -1,3 -1.33333,4.33333 -0.33334,0.66667 -0.66667,1.33334 -1,2.33334 -0.66667,1 -0.66667,1 -0.66667,1 -0.33333,0.33333 -0.33333,0.66666 -0.66667,0.66666 -1.66666,2.66667 -4,5 -6.66666,7 -1.33334,1 -3,1.66667 -4.66667,2.33334 -1,0.66666 -1,0.66666 -1,0.66666 -1.33333,0.33334 -1.33333,0.33334 -1.33333,0.33334 -0.33334,0.33333 -0.66667,0.66666 -1,0.66666 0,0.33334 -0.33334,0.33334 -0.66667,0.33334 0,0 0,0 0,0.33333 0,0 0,0 0,0.33333 0.33333,0 0.33333,0 0.66667,0.33334 0,0 0,0 0,0 0,0.33333 0,0.33333 0,0.33333 C 605,548 605,548 605,548 c 0,0.33333 0,0.33333 0,0.33333 0.33333,0.33334 0.33333,0.33334 0.33333,0.33334 0,0 0,0 0,0 0,0 0.33334,0.33333 0.33334,0.33333 C 606,549.33333 606,549.33333 606,549.33333 c 0.33333,0 0.33333,0 0.33333,0 0.33334,0.33334 0.33334,0.33334 0.33334,0.33334 0,0 0,0 0,0 0.33333,0 0.33333,0 0.33333,0 C 607.33333,550 607.33333,550 607.66667,550 608,550.33333 608,550.33333 608,550.33333 c 0.33333,0 0.33333,0 0.33333,0 C 608.66667,550.33333 609,550 609,550 c 0.66667,0 1,-0.33333 1.66667,-0.33333 C 611,549.33333 611.33333,549.33333 612,549 c 0.33333,0 0.66667,-0.33333 1,-0.66667 1.66667,-1 2.66667,-2 4,-3 1.33333,-1.33333 2.66667,-2.33333 3.66667,-3.66666 0.66666,-1 0.66666,-1 0.66666,-1 0.33334,-0.33334 0.33334,-0.33334 0.33334,-0.33334 C 622,539.66667 622,539.66667 622,539.66667 c 0.66667,-1 0.66667,-1 0.66667,-1 0.33333,-1 0.33333,-1 0.33333,-1 0.33333,-0.33334 0.33333,-0.66667 0.66667,-1 C 624,535.33333 624,535.33333 624,535.33333 624.33333,534.66667 624.66667,534 624.66667,533 c 0.33333,-1.66667 0.66666,-3.33333 0.66666,-5 0,-3.33333 -0.33333,-7.33333 -1.33333,-11 -0.33333,-0.33333 -0.33333,-0.33333 -0.33333,-0.33333 z"
         id="path13" />
      <path
         style="fill:#1d1d1b;fill-opacity:1;fill-rule:nonzero;stroke:none"
         d="m 325.66667,509 c -1.33334,5 -1.66667,9.66667 -1,13.66667 0.33333,2 0.66666,4 1.66666,6 0.33334,0.66666 0.66667,1.66666 1,2.66666 0.66667,1 0.66667,1 0.66667,1 0.33333,0.66667 0.66667,1 1,1.33334 2,3 5.33333,5.66666 9,8 1.66667,1 4.33333,2 6.66667,2.66666 C 346.33333,545 346.33333,545 346.33333,545 348,545.33333 348,545.33333 348,545.33333 c 0.66667,0.33334 1,0.66667 1.66667,0.66667 0,0.33333 0.33333,0.33333 0.66666,0.66667 0,0 0,0 0,0 0,0 0,0.33333 0,0.33333 -0.33333,0.33333 -0.33333,0.66667 -0.66666,1 -0.33334,0 -0.33334,0 -0.33334,0 0,0 0,0 0,0 C 349,548.33333 349,548.33333 349,548.33333 c -0.33333,0.33334 -0.33333,0.33334 -0.33333,0.33334 -0.33334,0.66666 -0.33334,0.66666 -0.33334,0.66666 0,0 0,0 0,0 -0.33333,0 -0.66666,0.33334 -0.66666,0.33334 C 347,550 347,550 347,550 c -0.33333,0.33333 -0.33333,0.33333 -0.33333,0.33333 C 346,550.66667 346,550.66667 346,550.66667 c 0,0 0,0 0,0 C 345.66667,551 345.66667,551 345.66667,551 c -0.33334,0.33333 -0.66667,0.33333 -1,0.66667 -0.33334,0 -0.66667,0 -1,0 0,0.33333 0,0.33333 -0.33334,0 -0.33333,0 -0.66666,0 -1,0 -0.66666,0 -1.33333,-0.33334 -2,-0.33334 C 339.66667,551 339,551 338.33333,550.66667 c -0.66666,0 -1.33333,-0.33334 -1.66666,-0.66667 -2.33334,-1 -4,-2.33333 -6,-3.66667 C 329,545 327.33333,543.66667 326,542.33333 325,541 325,541 325,541 c -0.33333,-0.66667 -0.33333,-0.66667 -0.33333,-0.66667 -0.33334,-0.66666 -0.33334,-0.66666 -0.33334,-0.66666 -0.66666,-1.33334 -0.66666,-1.33334 -0.66666,-1.33334 C 323,537 323,537 323,537 c -0.33333,-0.33333 -0.66667,-1 -0.66667,-1.33333 -0.66666,-1.33334 -0.66666,-1.33334 -0.66666,-1.33334 0,-1 -0.33334,-2 -0.66667,-3.33333 -0.33333,-2 -0.33333,-4 0,-6.33333 0.33333,-4.66667 1.66667,-10 4,-15.33334 0,0 0,-0.33333 0.33333,-0.33333 z"
         id="path14" />
      <path
         style="fill:#1d1d1b;fill-opacity:1;fill-rule:nonzero;stroke:none"
         d="m 351,512 c -0.66667,4.33333 -0.66667,8.66667 0,12.33333 0.33333,1.66667 0.66667,3.33334 1.33333,5 0.33334,1 0.66667,1.66667 1,2.66667 1,1 1,1 1,1 0,0.33333 0.33334,0.66667 0.66667,1.33333 2,2.66667 4.66667,5.33334 8,7.33334 1.33333,1 3.66667,2 5.66667,2.66666 C 370,545 370,545 370,545 c 1.33333,0.66667 1.33333,0.66667 1.33333,0.66667 0.66667,0 1,0.33333 1.66667,0.66666 0,0 0.33333,0.33334 0.66667,0.33334 0,0 0,0 0,0 0,0 0,0.33333 0,0.33333 -0.33334,0.33333 -0.33334,0.33333 -0.66667,0.66667 C 373,548 373,548 373,548 c -0.33333,0 -0.33333,0 -0.33333,0 -0.33334,0.33333 -0.33334,0.33333 -0.33334,0.33333 0,0.33334 0,0.33334 0,0.33334 C 372,549 372,549 372,549 c -0.33333,0 -0.33333,0 -0.33333,0 0,0 -0.33334,0.33333 -0.33334,0.33333 C 371,549.66667 371,549.66667 371,549.66667 370.33333,550 370.33333,550 370.33333,550 370,550 370,550 370,550 c 0,0.33333 0,0.33333 0,0.33333 -0.33333,0 -0.33333,0 -0.33333,0 -0.33334,0.33334 -0.66667,0.33334 -1,0.66667 0,0 -0.33334,0 -0.33334,0 C 368,551 368,551 368,551 c -0.33333,0 -0.66667,0 -1,0 -0.66667,-0.33333 -1.33333,-0.33333 -2,-0.66667 -0.33333,0 -1,-0.33333 -1.66667,-0.33333 C 363,549.66667 362.33333,549.33333 362,549.33333 360.33333,548 358.66667,547 357,545.66667 c -1.66667,-1.33334 -3,-2.66667 -4,-4 -1,-1 -1,-1 -1,-1 C 351.66667,540 351.66667,540 351.66667,540 c -0.33334,-0.66667 -0.33334,-0.66667 -0.33334,-0.66667 -0.66666,-1 -0.66666,-1 -0.66666,-1 C 350,537 350,537 350,537 c -0.33333,-0.33333 -0.33333,-1 -0.66667,-1.33333 C 349,534.33333 349,534.33333 349,534.33333 c -0.33333,-1 -0.66667,-1.66666 -1,-2.66666 -0.33333,-2 -0.33333,-4 -0.33333,-6 0,-4 1,-8.66667 2.66666,-13.33334 0,0 0.33334,-0.33333 0.33334,-0.33333 z"
         id="path15" />
      <path
         style="fill:#1d1d1b;fill-opacity:1;fill-rule:nonzero;stroke:none"
         d="M 376.33333,516.66667 C 376,520.33333 376,523.66667 376.66667,527 c 0.33333,1.33333 1,3 1.66666,4.33333 0.33334,0.66667 0.66667,1.33334 1,2.33334 0.33334,1 0.33334,1 0.33334,1 0.33333,0.33333 0.66666,0.66666 0.66666,0.66666 1.66667,2.66667 4,5 6.66667,7 1.33333,1 3,1.66667 4.66667,2.33334 1,0.66666 1,0.66666 1,0.66666 C 394,545.66667 394,545.66667 394,545.66667 c 0.33333,0.33333 0.66667,0.66666 1,0.66666 0.33333,0.33334 0.33333,0.33334 0.66667,0.33334 0,0 0,0 0,0.33333 0,0 0,0 0,0.33333 -0.33334,0 -0.33334,0 -0.33334,0.33334 -0.33333,0 -0.33333,0 -0.33333,0 C 395,548 395,548 395,548 c -0.33333,0 -0.33333,0 -0.33333,0 0,0.33333 0,0.33333 0,0.33333 -0.33334,0.33334 -0.33334,0.33334 -0.33334,0.33334 0,0 0,0 0,0 0,0 -0.33333,0.33333 -0.33333,0.33333 -0.33333,0.33333 -0.33333,0.33333 -0.33333,0.33333 -0.33334,0 -0.33334,0 -0.33334,0 C 393,549.66667 393,549.66667 393,549.66667 c 0,0 0,0 0,0 -0.33333,0 -0.33333,0 -0.33333,0 C 392.66667,550 392.33333,550 392,550 c 0,0.33333 -0.33333,0.33333 -0.33333,0.33333 0,0 -0.33334,0 -0.33334,0 C 391,550.33333 391,550 390.66667,550 c -0.66667,0 -1,-0.33333 -1.33334,-0.33333 -0.66666,-0.33334 -1,-0.33334 -1.33333,-0.66667 -0.66667,0 -1,-0.33333 -1.33333,-0.66667 -1.33334,-1 -2.66667,-2 -4,-3 C 381.33333,544 380.33333,543 379.33333,541.66667 c -1,-1 -1,-1 -1,-1 C 378,540.33333 378,540.33333 378,540.33333 c -0.33333,-0.66666 -0.33333,-0.66666 -0.33333,-0.66666 -0.33334,-1 -0.33334,-1 -0.33334,-1 -0.66666,-1 -0.66666,-1 -0.66666,-1 -0.33334,-0.33334 -0.33334,-0.66667 -0.66667,-1 -0.33333,-1.33334 -0.33333,-1.33334 -0.33333,-1.33334 C 375.33333,534.66667 375.33333,534 375,533 c -0.33333,-1.66667 -0.66667,-3.33333 -0.66667,-5 0,-3.33333 0.33334,-7.33333 1.66667,-11 0,-0.33333 0,-0.33333 0.33333,-0.33333 z"
         id="path16" />
    </g>
    <path
       style="fill:#ffffff;stroke-width:1.2691"
       d="m 290.6228,714.35525 c -46.75112,-8.38624 -85.36966,-35.64714 -104.06858,-73.46218 -9.42481,-19.05991 -13.49001,-43.95516 -10.32994,-63.26035 0.90517,-5.52979 1.28557,-6.07089 3.76615,-5.35722 1.5176,0.43662 24.35742,1.15272 50.75516,1.59133 47.87064,0.79539 47.99424,0.8044 47.36487,3.45357 -3.27343,13.77869 -1.58639,28.66577 4.75934,41.99805 10.95011,23.00603 32.4253,36.34396 58.5168,36.34396 19.00701,0 33.80324,-6.32296 46.98203,-20.0771 15.20817,-15.87212 21.10677,-43.23151 13.85082,-64.24399 -1.15796,-3.35334 -1.89839,-6.25734 -1.64538,-6.45334 0.25301,-0.196 6.17094,-1.33764 13.15096,-2.53699 6.98002,-1.19934 19.17009,-3.61879 27.08903,-5.37654 7.91895,-1.75776 14.68394,-2.91006 15.03332,-2.56068 2.10661,2.1066 5.77937,21.26222 6.37377,33.243 2.21692,44.68348 -23.49586,86.45843 -68.1671,110.74948 -11.83364,6.43484 -32.59394,13.45254 -47.44003,16.03638 -14.01755,2.43964 -42.14845,2.39575 -55.99122,-0.0874 z"
       id="path12" />
    <path
       style="fill:#ffffff;stroke-width:1.2691"
       d="m 733.07462,714.36638 c -30.60722,-5.13096 -63.45643,-22.44463 -83.36566,-43.93912 -14.09112,-15.21311 -24.57851,-34.47153 -29.33233,-53.86414 -3.21646,-13.12113 -2.88791,-36.23294 0.70952,-49.91212 1.5603,-5.93302 3.31389,-11.27237 3.89688,-11.86521 0.58298,-0.59285 5.82897,0.0715 11.65774,1.47621 5.82877,1.40477 18.02198,3.85515 27.09601,5.44529 9.07403,1.59014 16.64851,2.97976 16.83217,3.08803 0.18366,0.10828 -0.5493,2.31074 -1.6288,4.89435 -2.7823,6.65897 -4.19786,20.29486 -3.10996,29.9578 3.26495,29.00004 26.34766,52.09532 55.69755,55.72789 32.33717,4.00229 62.34809,-16.23099 70.50083,-47.5315 2.13871,-8.21104 2.49513,-21.42268 0.7775,-28.81918 l -1.10517,-4.75911 32.54556,-0.095 c 17.90005,-0.0522 40.8264,-0.52482 50.94743,-1.05023 10.12103,-0.5254 18.6383,-0.76975 18.92726,-0.54301 1.36242,1.0691 1.51277,27.50017 0.20453,35.95376 -2.07171,13.38676 -7.69373,28.87408 -14.88654,41.00885 -7.18614,12.1235 -27.39012,33.23722 -39.14537,40.90797 -18.0971,11.80907 -39.7139,20.31971 -61.0716,24.04418 -13.57601,2.36745 -41.65009,2.30457 -56.14755,-0.12576 z"
       id="path17" />
  </g>
</svg>
